<?xml version="1.0" encoding="utf-8"?>
<!-- Generator: Adobe Illustrator 16.0.0, SVG Export Plug-In . SVG Version: 6.00 Build 0)  -->
<!DOCTYPE svg PUBLIC "-//W3C//DTD SVG 1.1//EN" "http://www.w3.org/Graphics/SVG/1.1/DTD/svg11.dtd">
<svg version="1.1" xmlns="http://www.w3.org/2000/svg" xmlns:xlink="http://www.w3.org/1999/xlink" x="0px" y="0px" width="516px"
	 height="484px" viewBox="0 0 516 484" enable-background="new 0 0 516 484" xml:space="preserve">
<g id="fondo">
</g>
<g id="excursions">
</g>
<g id="info_2">
</g>
<g id="info_1">
</g>
<g id="foto_azul">
</g>
<g id="nav">
</g>
<g id="Capa_9">
</g>
<g id="arbol">
	<g>
		<g>
			<g>
				<path opacity="0.8" fill="none" stroke="#FFFFFF" stroke-width="8" stroke-miterlimit="10" d="M157.938,309.438
					c1.692,10.018,10.408,17.647,20.906,17.647h-0.467h43.867c11.709,0,21.203,9.494,21.203,21.204v-0.014V484"/>
				<path opacity="0.8" fill="none" stroke="#FFFFFF" stroke-width="8" stroke-miterlimit="10" d="M74.472,271.33v-5.729
					c0-5.855,4.746-10.602,10.602-10.602h0.002h51.363c11.709,0,21.203,9.494,21.203,21.203"/>
			</g>
			<g opacity="0.9">
				<path fill="none" stroke="#FFFFFF" stroke-width="8" stroke-miterlimit="10" d="M230.487,290.916
					c0.894,3.428,1.369,7.024,1.369,10.732l-0.003,0.002V484"/>
				<path fill="none" stroke="#FFFFFF" stroke-width="8" stroke-miterlimit="10" d="M168.244,201.332v36.703
					c0,11.711,9.493,21.205,21.202,21.205c4.486,0,8.81,0.696,12.868,1.987"/>
				<path fill="none" stroke="#FFFFFF" stroke-width="8" stroke-miterlimit="10" d="M241.988,36.058v123.524
					c0,11.711-9.493,21.205-21.203,21.205v-0.005h-36.283"/>
			</g>
			<g opacity="0.9">
				<path fill="none" stroke="#FFFFFF" stroke-width="8" stroke-miterlimit="10" d="M331.051,276.205
					c0-11.709,9.495-21.205,21.204-21.205h106.013"/>
				<path fill="none" stroke="#FFFFFF" stroke-width="8" stroke-miterlimit="10" d="M288.522,161.553
					c-2.594-3.518-4.127-7.866-4.127-12.572V85.233"/>
				<path fill="none" stroke="#FFFFFF" stroke-width="8" stroke-miterlimit="10" d="M288.64,484V318.612v-0.004
					c0-11.708,9.494-21.202,21.205-21.202v0.002c11.712,0,21.206-9.494,21.206-21.205l-0.006-0.006v-84.813l0.004,0.006
					c0-10.589-7.759-19.362-17.9-20.948"/>
			</g>
			<g opacity="0.7">
				<path fill="none" stroke="#FFFFFF" stroke-width="8" stroke-miterlimit="10" d="M231.858,212.182
					c-20.635-2.867-36.519-20.58-36.519-42.003V89.605"/>
				<path fill="none" stroke="#FFFFFF" stroke-width="8" stroke-miterlimit="10" d="M275.614,484V233.798
					c0-8.293-4.761-15.474-11.698-18.96"/>
				<path fill="none" stroke="#FFFFFF" stroke-width="8" stroke-miterlimit="10" d="M410.835,122.525
					c-23.42,0-29.204,15.754-29.204,39.178v0.005c0,35.131-28.479,63.608-63.609,63.608c-23.423,0-42.407,18.986-42.407,42.408"/>
			</g>
			<g>
				<path fill="none" stroke="#FFFFFF" stroke-width="8" stroke-miterlimit="10" d="M427.875,222.052
					c0.46-3.086,0.698-6.245,0.698-9.459V191.39"/>
				<path fill="none" stroke="#FFFFFF" stroke-width="8" stroke-miterlimit="10" d="M252.834,484V339.815v-0.004
					c0-35.13,28.479-63.61,63.61-63.61l48.518,0.002c20.349,0,38.466-9.555,50.109-24.422"/>
				<path fill="none" stroke="#FFFFFF" stroke-width="8" stroke-miterlimit="10" d="M428.571,191.383
					c0-11.711,9.494-21.204,21.203-21.204h37.728"/>
				<path fill="none" stroke="#FFFFFF" stroke-width="8" stroke-miterlimit="10" d="M428.579,191.381
					c0-11.709-9.493-21.202-21.201-21.202h-0.006c-23.424,0-42.41-18.987-42.41-42.408V115"/>
			</g>
			<path fill="none" stroke="#FFFFFF" stroke-width="8" stroke-miterlimit="10" d="M359.6,334.012
				c17.871-4.988,30.981-21.389,30.981-40.853l0.001-59.361c0-23.421-18.985-42.408-42.409-42.408H288.64l0,0
				c-11.71,0-21.203-9.495-21.203-21.204v-38.172c0-11.711,9.493-21.204,21.202-21.204h8.479h0.003
				c11.708,0,21.202-9.493,21.202-21.204v-50.89"/>
			<path fill="none" stroke="#FFFFFF" stroke-width="8" stroke-miterlimit="10" d="M278.036,484V377.987v-0.001
				c0-19.806,13.575-36.44,31.927-41.105"/>
			<g>
				<path fill="none" stroke="#FFFFFF" stroke-width="8" stroke-miterlimit="10" d="M119.007,195.626
					c0-23.421-18.986-42.408-42.409-42.408H40.001"/>
				<path fill="none" stroke="#FFFFFF" stroke-width="8" stroke-miterlimit="10" d="M265.703,484V318.612
					c0-46.845-37.976-84.819-84.817-84.819h-44.915l-0.003,0.004c-9.372,0-16.971-7.598-16.971-16.969v-67.852v-0.002
					c0-11.711,9.494-21.204,21.202-21.204h12.739c5.854,0,10.602-4.747,10.602-10.604V77.067"/>
			</g>
		</g>
		<g id="circulillos_1_">
			<circle fill="#CECECE" cx="219.013" cy="71.767" r="5.301"/>
			<circle fill="#CECECE" cx="48.461" cy="247.804" r="5.302"/>
			<path opacity="0.6" fill="#CECECE" d="M51.079,105.867c0-2.929,2.376-5.303,5.301-5.303c2.928,0,5.303,2.374,5.303,5.303
				c0,2.928-2.375,5.301-5.303,5.301C53.455,111.168,51.079,108.795,51.079,105.867z"/>
			<circle opacity="0.3" fill="#CECECE" cx="175.691" cy="143.121" r="5.302"/>
			<circle opacity="0.6" fill="#CECECE" cx="143.774" cy="215.431" r="5.301"/>
			<circle opacity="0.3" fill="#CECECE" cx="256.48" cy="247.844" r="5.301"/>
			<path opacity="0.6" fill="#CECECE" d="M402.215,322.607c0-2.928,2.376-5.302,5.301-5.302c2.929,0,5.304,2.374,5.304,5.302
				c0,2.929-2.375,5.3-5.304,5.3C404.591,327.907,402.215,325.536,402.215,322.607z"/>
			<circle opacity="0.3" fill="#CECECE" cx="341.191" cy="135.102" r="5.302"/>
			<circle opacity="0.3" fill="#CECECE" cx="372.11" cy="41.348" r="5.301"/>
			<circle fill="#CECECE" cx="400.536" cy="216.387" r="5.301"/>
			<circle opacity="0.6" fill="#CECECE" cx="421.98" cy="155.049" r="3.306"/>
			<circle fill="#CECECE" cx="441.428" cy="73.578" r="3.306"/>
			<circle fill="#CECECE" cx="283.842" cy="208.408" r="3.306"/>
			<circle opacity="0.6" fill="#CECECE" cx="255.167" cy="179.734" r="3.306"/>
			<circle opacity="0.3" fill="#CECECE" cx="118.777" cy="316.624" r="3.306"/>
			<circle opacity="0.6" fill="#CECECE" cx="205.049" cy="354.025" r="3.306"/>
			<circle opacity="0.6" fill="#CECECE" cx="176.125" cy="98.697" r="3.306"/>
			<circle opacity="0.3" fill="#CECECE" cx="105.872" cy="75.392" r="3.306"/>
			<circle opacity="0.3" fill="#CECECE" cx="91.396" cy="204.91" r="3.306"/>
			<circle fill="#CECECE" cx="246.44" cy="302.66" r="3.306"/>
			<circle opacity="0.6" fill="#CECECE" cx="341.191" cy="85.233" r="3.306"/>
			<circle fill="#CECECE" cx="485.995" cy="224.865" r="3.307"/>
		</g>
		<g>
			<g>
				<path fill="#FFFFFF" d="M496.599,127.621c-1.498,2.191-3.309,4.059-5.434,5.602c0.023,0.313,0.034,0.783,0.034,1.408
					c0,2.908-0.426,5.808-1.274,8.703c-0.851,2.895-2.141,5.674-3.873,8.334s-3.796,5.012-6.188,7.058
					c-2.393,2.047-5.276,3.679-8.652,4.897c-3.375,1.219-6.988,1.828-10.832,1.828c-6.059,0-11.604-1.621-16.635-4.863
					c0.783,0.09,1.654,0.134,2.616,0.134c5.03,0,9.513-1.542,13.448-4.627c-2.348-0.045-4.448-0.766-6.305-2.163
					s-3.131-3.18-3.823-5.35c0.738,0.113,1.419,0.168,2.046,0.168c0.962,0,1.91-0.123,2.851-0.367
					c-2.504-0.516-4.577-1.764-6.222-3.74c-1.643-1.979-2.464-4.275-2.464-6.893v-0.135c1.521,0.852,3.153,1.309,4.896,1.376
					c-1.477-0.983-2.649-2.269-3.521-3.857c-0.871-1.587-1.307-3.308-1.307-5.163c0-1.969,0.49-3.789,1.476-5.467
					c2.704,3.33,5.997,5.997,9.876,7.998c3.878,2,8.031,3.114,12.457,3.336c-0.178-0.85-0.266-1.676-0.266-2.48
					c0-2.995,1.056-5.551,3.168-7.663s4.666-3.169,7.662-3.169c3.131,0,5.769,1.14,7.915,3.42c2.437-0.469,4.729-1.341,6.876-2.616
					c-0.828,2.571-2.416,4.561-4.764,5.97C492.44,129.076,494.521,128.518,496.599,127.621z"/>
			</g>
			<g opacity="0.9">
				<path fill="#FFFFFF" d="M208.075,34.706c0.767,0,1.423,0.271,1.964,0.813c0.543,0.542,0.813,1.197,0.813,1.964v9.72
					c0,0.766-0.271,1.42-0.813,1.964c-0.541,0.542-1.197,0.813-1.964,0.813h-15.271c-0.769,0-1.423-0.271-1.965-0.813
					c-0.541-0.543-0.814-1.198-0.814-1.964v-9.72c0-0.767,0.273-1.421,0.814-1.964c0.542-0.542,1.196-0.813,1.965-0.813h2.43
					l0.553-1.475c0.137-0.354,0.389-0.66,0.754-0.917c0.364-0.257,0.74-0.384,1.123-0.384h5.554c0.383,0,0.756,0.127,1.121,0.384
					c0.366,0.257,0.617,0.563,0.755,0.917l0.554,1.475H208.075z M197.006,45.776c0.95,0.951,2.097,1.427,3.432,1.427
					c1.339,0,2.485-0.476,3.435-1.427c0.95-0.95,1.427-2.093,1.427-3.432s-0.477-2.483-1.427-3.435
					c-0.949-0.949-2.096-1.426-3.435-1.426c-1.335,0-2.481,0.477-3.432,1.426c-0.95,0.952-1.426,2.097-1.426,3.435
					S196.056,44.826,197.006,45.776z M198.231,40.135c0.611-0.611,1.348-0.916,2.206-0.916c0.862,0,1.597,0.305,2.209,0.916
					c0.61,0.612,0.917,1.347,0.917,2.209c0,0.859-0.307,1.595-0.917,2.206c-0.612,0.612-1.347,0.917-2.209,0.917
					c-0.858,0-1.595-0.306-2.206-0.917c-0.61-0.611-0.916-1.347-0.916-2.206C197.315,41.482,197.621,40.748,198.231,40.135z"/>
			</g>
			<g opacity="0.6">
				<path fill="#FFFFFF" d="M312.536,250.664c0,0.408-0.129,0.796-0.382,1.166c-0.253,0.374-0.564,0.691-0.943,0.954
					c-1.939,1.347-3.146,2.185-3.623,2.517c-0.052,0.035-0.16,0.113-0.328,0.233c-0.168,0.124-0.306,0.22-0.419,0.296
					c-0.11,0.074-0.243,0.158-0.401,0.251c-0.157,0.093-0.308,0.162-0.445,0.21c-0.14,0.045-0.268,0.069-0.386,0.069h-0.008h-0.009
					c-0.119,0-0.249-0.024-0.388-0.069c-0.139-0.048-0.287-0.117-0.443-0.21c-0.159-0.093-0.292-0.177-0.404-0.251
					c-0.11-0.076-0.25-0.172-0.417-0.296c-0.168-0.12-0.279-0.198-0.331-0.233c-0.468-0.332-1.143-0.804-2.026-1.414
					c-0.882-0.613-1.412-0.979-1.585-1.103c-0.321-0.217-0.623-0.515-0.906-0.895c-0.283-0.379-0.427-0.729-0.427-1.056
					c0-0.402,0.107-0.738,0.321-1.008c0.213-0.268,0.521-0.402,0.918-0.402h11.395c0.335,0,0.625,0.121,0.869,0.365
					C312.412,250.031,312.536,250.322,312.536,250.664z M312.536,252.938v6.146c0,0.342-0.124,0.632-0.365,0.875
					c-0.243,0.242-0.533,0.363-0.873,0.363h-11.395c-0.341,0-0.633-0.121-0.875-0.363c-0.242-0.243-0.364-0.533-0.364-0.875v-6.146
					c0.228,0.253,0.488,0.478,0.782,0.673c1.868,1.27,3.15,2.16,3.847,2.672c0.294,0.215,0.532,0.385,0.717,0.507
					c0.182,0.12,0.425,0.245,0.729,0.37c0.306,0.127,0.588,0.191,0.853,0.191h0.009h0.008c0.263,0,0.544-0.064,0.85-0.191
					c0.306-0.125,0.549-0.25,0.732-0.37c0.183-0.122,0.423-0.292,0.717-0.507c0.875-0.636,2.161-1.525,3.854-2.672
					C312.054,253.411,312.313,253.188,312.536,252.938z"/>
			</g>
			<g>
				<path fill="#FFFFFF" d="M145.413,145.607l6.452,6.455l-12.907,12.906h-6.455v-6.453L145.413,145.607z M138.135,162.983
					l1.412-1.413l-3.646-3.643l-1.411,1.41v1.66h1.985v1.985H138.135z M146.249,148.586c0-0.228-0.112-0.342-0.342-0.342
					c-0.104,0-0.191,0.037-0.264,0.109l-8.408,8.408c-0.072,0.072-0.107,0.16-0.107,0.266c0,0.227,0.111,0.34,0.339,0.34
					c0.104,0,0.193-0.036,0.265-0.109l8.408-8.408C146.213,148.777,146.249,148.689,146.249,148.586z M156.007,147.098
					c0,0.547-0.19,1.012-0.574,1.396l-2.575,2.575l-6.454-6.454l2.577-2.56c0.371-0.394,0.836-0.59,1.396-0.59
					c0.547,0,1.018,0.196,1.412,0.59l3.645,3.631C155.816,146.088,156.007,146.561,156.007,147.098z"/>
			</g>
			<g>
				<path fill="#FFFFFF" d="M193.277,215.473c0,0.114-0.066,0.237-0.199,0.371l-2.802,2.732l0.664,3.858
					c0.005,0.034,0.009,0.087,0.009,0.153c0,0.107-0.028,0.199-0.082,0.273c-0.055,0.074-0.131,0.111-0.235,0.111
					c-0.098,0-0.2-0.03-0.309-0.092l-3.464-1.82l-3.464,1.82c-0.114,0.062-0.216,0.092-0.31,0.092c-0.108,0-0.19-0.037-0.243-0.111
					c-0.054-0.074-0.081-0.166-0.081-0.273c0-0.031,0.006-0.082,0.016-0.153l0.664-3.858l-2.809-2.732
					c-0.129-0.139-0.192-0.262-0.192-0.371c0-0.188,0.143-0.307,0.431-0.354l3.875-0.563l1.735-3.511
					c0.098-0.209,0.223-0.316,0.378-0.316c0.153,0,0.278,0.107,0.379,0.316l1.736,3.511l3.872,0.563
					C193.135,215.166,193.277,215.285,193.277,215.473z"/>
			</g>
			<g opacity="0.6">
				<path fill="#FFFFFF" d="M36.63,189.27v9.299h-9.297v-9.299H36.63z M36.63,200.428v9.299h-9.297v-9.299H36.63z M29.192,196.708
					h5.578v-5.577h-5.578V196.708z M29.192,207.852h5.578v-5.564h-5.578V207.852z M32.912,192.988v1.861h-1.859v-1.861H32.912z
					 M32.912,204.148v1.858h-1.859v-1.858H32.912z M47.788,189.27v9.299h-9.299v-9.299H47.788z M47.788,200.428v5.579H42.21v-1.858
					h-1.859v5.578h-1.861v-9.299h5.58v1.859h1.86v-1.859H47.788z M40.351,196.708h5.579v-5.577h-5.579V196.708z M44.069,192.988
					v1.861H42.21v-1.861H44.069z M44.069,207.866v1.86H42.21v-1.86H44.069z M47.788,207.866v1.86H45.93v-1.86H47.788z"/>
			</g>
			<g opacity="0.6">
				<path fill="#FFFFFF" d="M349.036,52.752v2.927c0,0.198-0.073,0.37-0.217,0.514c-0.146,0.145-0.317,0.218-0.515,0.218h-0.732
					c-0.197,0-0.369-0.073-0.513-0.218c-0.146-0.144-0.219-0.315-0.219-0.514v-2.927c0-0.809-0.286-1.499-0.858-2.072
					c-0.57-0.57-1.262-0.856-2.068-0.856c-0.81,0-1.497,0.287-2.07,0.856c-0.571,0.573-0.857,1.263-0.857,2.072v2.194h1.097
					c0.307,0,0.564,0.106,0.779,0.32c0.212,0.213,0.32,0.473,0.32,0.779v6.586c0,0.304-0.108,0.564-0.32,0.778
					c-0.215,0.211-0.473,0.32-0.779,0.32h-10.977c-0.305,0-0.563-0.108-0.776-0.32c-0.213-0.214-0.319-0.474-0.319-0.778v-6.586
					c0-0.306,0.106-0.565,0.319-0.779s0.472-0.32,0.776-0.32h7.684v-2.194c0-1.411,0.501-2.617,1.504-3.62
					c1.004-1.003,2.209-1.502,3.62-1.502c1.41,0,2.616,0.5,3.618,1.502C348.536,50.136,349.036,51.341,349.036,52.752z"/>
			</g>
			<g opacity="0.6">
				<path fill="#FFFFFF" d="M146.839,85.309v19.297c0,0.576-0.197,1.088-0.588,1.535c-0.389,0.446-0.884,0.796-1.48,1.043
					c-0.597,0.246-1.193,0.431-1.783,0.551c-0.594,0.121-1.145,0.182-1.664,0.182c-0.517,0-1.07-0.061-1.663-0.182
					c-0.592-0.12-1.185-0.305-1.784-0.551c-0.596-0.247-1.09-0.597-1.48-1.043c-0.393-0.447-0.586-0.959-0.586-1.535
					c0-0.572,0.193-1.083,0.586-1.532c0.391-0.448,0.885-0.794,1.48-1.041c0.6-0.249,1.192-0.433,1.784-0.553
					c0.593-0.12,1.146-0.181,1.663-0.181c1.206,0,2.309,0.225,3.309,0.672v-9.252l-13.234,4.083v12.216
					c0,0.576-0.195,1.088-0.584,1.535c-0.391,0.447-0.885,0.795-1.483,1.041c-0.597,0.248-1.19,0.432-1.782,0.551
					c-0.594,0.123-1.146,0.182-1.664,0.182c-0.517,0-1.07-0.059-1.661-0.182c-0.593-0.119-1.187-0.303-1.784-0.551
					c-0.598-0.246-1.092-0.594-1.482-1.041c-0.39-0.447-0.586-0.959-0.586-1.535c0-0.573,0.196-1.085,0.586-1.533
					c0.391-0.447,0.885-0.795,1.482-1.043c0.598-0.246,1.191-0.43,1.784-0.55c0.591-0.122,1.145-0.181,1.661-0.181
					c1.208,0,2.309,0.223,3.308,0.672V89.72c0-0.356,0.11-0.681,0.328-0.974c0.219-0.293,0.5-0.497,0.845-0.611l14.335-4.412
					c0.14-0.045,0.299-0.066,0.485-0.066c0.459,0,0.848,0.158,1.171,0.48C146.676,84.459,146.839,84.85,146.839,85.309z"/>
			</g>
			<g>
				<path fill="#FFFFFF" d="M282.966,34.738v2.689c0,0.096-0.033,0.188-0.098,0.277c-0.064,0.087-0.145,0.14-0.241,0.156
					l-2.238,0.337c-0.153,0.438-0.312,0.804-0.472,1.102c0.28,0.406,0.712,0.962,1.295,1.671c0.079,0.096,0.119,0.199,0.119,0.302
					c0,0.104-0.035,0.198-0.107,0.28c-0.219,0.297-0.617,0.733-1.198,1.306c-0.583,0.573-0.959,0.859-1.137,0.859
					c-0.097,0-0.202-0.036-0.315-0.108l-1.67-1.309c-0.355,0.188-0.721,0.34-1.102,0.461c-0.128,1.096-0.244,1.847-0.351,2.25
					c-0.057,0.225-0.202,0.339-0.435,0.339h-2.688c-0.112,0-0.212-0.035-0.296-0.104c-0.085-0.068-0.131-0.155-0.141-0.258
					l-0.337-2.227c-0.396-0.128-0.758-0.279-1.089-0.448l-1.706,1.296c-0.083,0.072-0.182,0.108-0.305,0.108
					c-0.111,0-0.214-0.043-0.302-0.134c-1.016-0.92-1.682-1.595-1.996-2.031c-0.057-0.082-0.085-0.176-0.085-0.28
					c0-0.097,0.033-0.188,0.097-0.279c0.121-0.169,0.326-0.438,0.618-0.804c0.289-0.368,0.509-0.651,0.652-0.853
					c-0.217-0.405-0.384-0.804-0.496-1.198l-2.214-0.328c-0.105-0.014-0.189-0.067-0.254-0.152
					c-0.063-0.085-0.098-0.178-0.098-0.284v-2.685c0-0.098,0.034-0.19,0.098-0.279c0.064-0.089,0.141-0.142,0.229-0.158l2.25-0.337
					c0.114-0.371,0.271-0.743,0.474-1.114c-0.323-0.46-0.755-1.016-1.296-1.67c-0.08-0.097-0.119-0.193-0.119-0.29
					c0-0.082,0.033-0.173,0.106-0.277c0.211-0.292,0.608-0.725,1.192-1.301c0.585-0.577,0.967-0.867,1.143-0.867
					c0.105,0,0.211,0.041,0.315,0.123l1.669,1.294c0.357-0.186,0.724-0.339,1.101-0.459c0.13-1.098,0.248-1.849,0.352-2.252
					c0.058-0.226,0.202-0.339,0.437-0.339h2.688c0.112,0,0.211,0.035,0.295,0.104c0.085,0.069,0.131,0.155,0.14,0.26l0.341,2.228
					c0.393,0.127,0.756,0.278,1.088,0.446l1.719-1.295c0.069-0.071,0.168-0.109,0.29-0.109c0.104,0,0.204,0.041,0.302,0.123
					c1.04,0.958,1.707,1.645,1.997,2.057c0.056,0.064,0.084,0.152,0.084,0.265c0,0.096-0.033,0.19-0.097,0.278
					c-0.122,0.169-0.326,0.438-0.619,0.805c-0.287,0.367-0.508,0.651-0.651,0.852c0.208,0.405,0.374,0.801,0.495,1.187l2.215,0.339
					c0.104,0.018,0.189,0.067,0.254,0.152C282.933,34.54,282.966,34.635,282.966,34.738z M275.864,38.248
					c0.604-0.605,0.904-1.335,0.904-2.188c0-0.857-0.301-1.587-0.904-2.192c-0.605-0.605-1.336-0.908-2.191-0.908
					c-0.856,0-1.586,0.303-2.19,0.908c-0.605,0.605-0.908,1.335-0.908,2.192c0,0.853,0.303,1.583,0.908,2.188
					c0.604,0.604,1.334,0.908,2.19,0.908C274.528,39.156,275.259,38.852,275.864,38.248z"/>
			</g>
			<g opacity="0.9">
				<path fill="#FFFFFF" d="M123.297,280.184l-0.819,0.979c-0.07,0.079-0.163,0.129-0.277,0.145h-0.041
					c-0.114,0-0.207-0.031-0.277-0.092l-9.144-7.625l-9.146,7.625c-0.104,0.07-0.209,0.102-0.315,0.092
					c-0.113-0.016-0.207-0.065-0.277-0.145l-0.819-0.979c-0.071-0.088-0.101-0.192-0.092-0.31c0.009-0.118,0.055-0.214,0.146-0.284
					l9.498-7.915c0.283-0.231,0.618-0.345,1.006-0.345c0.387,0,0.722,0.113,1.005,0.345l3.224,2.694v-2.576
					c0-0.124,0.04-0.226,0.12-0.304c0.078-0.081,0.179-0.119,0.304-0.119h2.536c0.122,0,0.225,0.038,0.304,0.119
					c0.078,0.078,0.119,0.18,0.119,0.304v5.391l2.894,2.406c0.089,0.07,0.138,0.166,0.146,0.284
					C123.397,279.991,123.367,280.096,123.297,280.184z M120.35,281.095v6.345c0,0.229-0.084,0.425-0.251,0.592
					c-0.168,0.17-0.365,0.254-0.596,0.254h-5.072v-5.075h-3.384v5.075h-5.077c-0.227,0-0.426-0.084-0.592-0.254
					c-0.166-0.167-0.25-0.363-0.25-0.592v-6.345c0-0.007,0.001-0.021,0.005-0.039c0.006-0.017,0.008-0.032,0.008-0.04l7.598-6.264
					l7.598,6.264C120.345,281.033,120.35,281.061,120.35,281.095z"/>
			</g>
			<g>
				<path fill="#FFFFFF" d="M81.063,222.109c0,0.634-0.281,1.117-0.846,1.453v16.729c0,0.115-0.043,0.214-0.125,0.299
					c-0.085,0.084-0.184,0.125-0.297,0.125h-0.847c-0.114,0-0.214-0.041-0.296-0.125c-0.086-0.085-0.129-0.184-0.129-0.299v-16.729
					c-0.561-0.336-0.844-0.819-0.844-1.453c0-0.467,0.166-0.866,0.496-1.197c0.33-0.329,0.728-0.496,1.195-0.496
					s0.865,0.167,1.197,0.496C80.898,221.243,81.063,221.643,81.063,222.109z M100.517,222.955v10.082
					c0,0.222-0.057,0.391-0.166,0.51c-0.111,0.118-0.285,0.238-0.521,0.363c-1.896,1.022-3.52,1.535-4.877,1.535
					c-0.538,0-1.081-0.101-1.632-0.294c-0.552-0.192-1.028-0.405-1.436-0.634c-0.403-0.228-0.913-0.439-1.526-0.635
					c-0.61-0.193-1.238-0.291-1.882-0.291c-1.692,0-3.733,0.645-6.132,1.932c-0.15,0.078-0.295,0.116-0.437,0.116
					c-0.229,0-0.427-0.082-0.593-0.251c-0.167-0.166-0.252-0.363-0.252-0.594v-9.806c0-0.28,0.137-0.523,0.409-0.726
					c0.186-0.123,0.533-0.313,1.043-0.568c2.08-1.057,3.935-1.586,5.565-1.586c0.942,0,1.822,0.127,2.644,0.385
					c0.817,0.254,1.782,0.643,2.894,1.161c0.334,0.168,0.722,0.25,1.162,0.25c0.476,0,0.992-0.091,1.553-0.274
					c0.56-0.188,1.044-0.395,1.453-0.623c0.41-0.229,0.798-0.436,1.164-0.622c0.364-0.185,0.605-0.276,0.72-0.276
					c0.229,0,0.426,0.082,0.595,0.251C100.433,222.527,100.517,222.727,100.517,222.955z"/>
			</g>
			<g>
				<path fill="#FFFFFF" d="M219.671,115.506h2.695l-0.314,2.976h-2.381v8.632h-3.57v-8.632h-1.781v-2.976h1.781v-1.791
					c0-1.271,0.303-2.234,0.901-2.889c0.603-0.652,1.589-0.979,2.966-0.979h2.378v2.975h-1.489c-0.272,0-0.489,0.023-0.652,0.069
					c-0.167,0.046-0.283,0.127-0.356,0.247c-0.073,0.118-0.121,0.238-0.143,0.361c-0.021,0.121-0.034,0.295-0.034,0.518V115.506z"/>
			</g>
			<g>
				<path fill="#FFFFFF" d="M367.801,293.117v9.799c0,0.354-0.126,0.658-0.378,0.909c-0.254,0.253-0.556,0.38-0.912,0.38h-12.892
					c-0.356,0-0.659-0.127-0.912-0.38c-0.253-0.251-0.379-0.555-0.379-0.909v-9.799c0-0.355,0.126-0.658,0.379-0.914
					c0.253-0.251,0.556-0.378,0.912-0.378h12.892c0.356,0,0.658,0.127,0.912,0.378C367.675,292.459,367.801,292.762,367.801,293.117
					z M366.511,292.859h-12.892c-0.072,0-0.131,0.025-0.182,0.074c-0.052,0.055-0.078,0.112-0.078,0.184v9.799
					c0,0.068,0.026,0.131,0.078,0.182c0.051,0.049,0.109,0.076,0.182,0.076h12.892c0.07,0,0.133-0.027,0.182-0.076
					c0.053-0.051,0.077-0.113,0.077-0.182v-9.799c0-0.071-0.024-0.129-0.077-0.184C366.644,292.885,366.581,292.859,366.511,292.859
					z M357.034,294.341c0.302,0.3,0.45,0.666,0.45,1.097c0,0.43-0.148,0.795-0.45,1.096c-0.3,0.301-0.665,0.452-1.094,0.452
					c-0.433,0-0.796-0.151-1.097-0.452s-0.453-0.666-0.453-1.096c0-0.431,0.152-0.797,0.453-1.097
					c0.301-0.301,0.664-0.451,1.097-0.451C356.369,293.89,356.734,294.04,357.034,294.341z M365.738,298.531v3.611h-11.348v-1.549
					l2.581-2.578l1.287,1.289l4.127-4.127L365.738,298.531z"/>
			</g>
			<g>
				<path fill="#FFFFFF" d="M370.247,228.271c0.152,0.169,0.184,0.356,0.09,0.561l-6.865,14.703
					c-0.109,0.213-0.287,0.318-0.533,0.318c-0.031,0-0.093-0.008-0.178-0.025c-0.145-0.042-0.252-0.123-0.323-0.239
					c-0.073-0.121-0.093-0.249-0.058-0.384l2.504-10.268l-5.16,1.282c-0.035,0.009-0.084,0.014-0.153,0.014
					c-0.152,0-0.283-0.046-0.394-0.14c-0.152-0.127-0.207-0.293-0.165-0.497l2.555-10.483c0.033-0.119,0.101-0.217,0.202-0.293
					c0.103-0.076,0.221-0.115,0.357-0.115h4.168c0.16,0,0.296,0.054,0.407,0.158c0.11,0.107,0.164,0.231,0.164,0.377
					c0,0.066-0.021,0.143-0.063,0.227l-2.172,5.886l5.031-1.246c0.068-0.017,0.12-0.025,0.154-0.025
					C369.975,228.081,370.12,228.146,370.247,228.271z"/>
			</g>
			<g opacity="0.9">
				<path fill="#FFFFFF" d="M472.579,198.93v4.066c0,0.34-0.119,0.629-0.357,0.865c-0.236,0.236-0.524,0.355-0.864,0.355h-4.066
					c-0.339,0-0.626-0.119-0.865-0.355c-0.236-0.236-0.354-0.525-0.354-0.865v-4.066c0-0.341,0.118-0.626,0.354-0.863
					c0.239-0.238,0.526-0.357,0.865-0.357h1.22v-2.439h-6.508v2.439h1.221c0.34,0,0.628,0.119,0.866,0.357
					c0.236,0.237,0.355,0.522,0.355,0.863v4.066c0,0.34-0.119,0.629-0.355,0.865c-0.238,0.236-0.526,0.355-0.866,0.355h-4.065
					c-0.341,0-0.628-0.119-0.864-0.355c-0.238-0.236-0.357-0.525-0.357-0.865v-4.066c0-0.341,0.119-0.626,0.357-0.863
					c0.236-0.238,0.523-0.357,0.864-0.357h1.22v-2.439h-6.508v2.439h1.22c0.339,0,0.627,0.119,0.866,0.357
					c0.236,0.237,0.354,0.522,0.354,0.863v4.066c0,0.34-0.118,0.629-0.354,0.865c-0.239,0.236-0.527,0.355-0.866,0.355h-4.065
					c-0.341,0-0.629-0.119-0.864-0.355c-0.239-0.236-0.356-0.525-0.356-0.865v-4.066c0-0.341,0.117-0.626,0.356-0.863
					c0.235-0.238,0.523-0.357,0.864-0.357h1.218v-2.439c0-0.44,0.161-0.82,0.484-1.144c0.321-0.323,0.703-0.483,1.144-0.483h6.508
					v-2.439h-1.22c-0.341,0-0.628-0.119-0.864-0.355c-0.238-0.238-0.357-0.525-0.357-0.865v-4.065c0-0.341,0.119-0.629,0.357-0.865
					c0.236-0.238,0.523-0.356,0.864-0.356h4.065c0.34,0,0.628,0.118,0.866,0.356c0.236,0.236,0.355,0.524,0.355,0.865v4.065
					c0,0.34-0.119,0.627-0.355,0.865c-0.238,0.236-0.526,0.355-0.866,0.355h-1.221v2.439h6.508c0.441,0,0.822,0.16,1.145,0.483
					c0.32,0.323,0.483,0.703,0.483,1.144v2.439h1.219c0.34,0,0.628,0.119,0.864,0.357
					C472.46,198.304,472.579,198.589,472.579,198.93z"/>
			</g>
			<g>
				<path fill="#FFFFFF" d="M407.116,194.59v2.352c0,0.085-0.03,0.168-0.088,0.249c-0.059,0.079-0.125,0.124-0.204,0.13
					l-1.968,0.308c-0.096,0.296-0.231,0.616-0.408,0.964c0.287,0.409,0.669,0.896,1.143,1.463c0.06,0.085,0.09,0.172,0.09,0.256
					c0,0.101-0.03,0.181-0.09,0.24c-0.193,0.254-0.544,0.633-1.047,1.139c-0.505,0.503-0.839,0.754-0.999,0.754
					c-0.094,0-0.181-0.029-0.266-0.088l-1.462-1.145c-0.313,0.164-0.641,0.291-0.979,0.395c-0.093,0.913-0.189,1.57-0.294,1.969
					c-0.06,0.205-0.186,0.307-0.381,0.307H397.8c-0.091,0-0.176-0.031-0.254-0.096c-0.074-0.064-0.118-0.139-0.126-0.223
					l-0.292-1.945c-0.289-0.082-0.605-0.215-0.953-0.392l-1.5,1.13c-0.06,0.059-0.146,0.088-0.256,0.088
					c-0.094,0-0.181-0.031-0.266-0.101c-1.221-1.127-1.83-1.804-1.83-2.032c0-0.078,0.029-0.158,0.089-0.242
					c0.085-0.119,0.258-0.344,0.521-0.676c0.264-0.328,0.461-0.588,0.599-0.773c-0.196-0.375-0.345-0.721-0.445-1.042l-1.932-0.306
					c-0.086-0.008-0.156-0.049-0.216-0.121c-0.061-0.072-0.089-0.154-0.089-0.247v-2.353c0-0.084,0.028-0.166,0.089-0.246
					c0.06-0.08,0.127-0.126,0.202-0.134l1.97-0.305c0.096-0.296,0.231-0.618,0.408-0.966c-0.288-0.406-0.671-0.895-1.145-1.463
					c-0.059-0.092-0.088-0.178-0.088-0.254c0-0.101,0.029-0.186,0.088-0.252c0.186-0.255,0.535-0.633,1.043-1.135
					c0.509-0.498,0.842-0.748,1.002-0.748c0.094,0,0.184,0.029,0.268,0.09l1.463,1.144c0.288-0.152,0.613-0.29,0.979-0.406
					c0.093-0.918,0.19-1.567,0.292-1.958c0.06-0.204,0.185-0.305,0.38-0.305h2.364c0.095,0,0.179,0.029,0.255,0.095
					c0.076,0.064,0.119,0.14,0.126,0.222l0.294,1.946c0.288,0.085,0.605,0.215,0.953,0.395l1.498-1.132
					c0.07-0.061,0.154-0.09,0.255-0.09c0.094,0,0.185,0.034,0.269,0.103c1.219,1.126,1.83,1.804,1.83,2.032
					c0,0.076-0.029,0.157-0.09,0.242c-0.102,0.137-0.281,0.364-0.533,0.686c-0.254,0.323-0.446,0.576-0.572,0.762
					c0.195,0.406,0.339,0.754,0.432,1.043l1.932,0.294c0.086,0.017,0.158,0.061,0.217,0.132
					C407.086,194.414,407.116,194.496,407.116,194.59z M401.282,198.047c0.636-0.635,0.953-1.4,0.953-2.301
					c0-0.896-0.317-1.664-0.953-2.3c-0.633-0.636-1.401-0.952-2.299-0.952c-0.898,0-1.665,0.316-2.302,0.952
					c-0.635,0.636-0.953,1.403-0.953,2.3c0,0.9,0.318,1.666,0.953,2.301c0.637,0.636,1.403,0.954,2.302,0.954
					C399.881,199.001,400.649,198.683,401.282,198.047z M415.251,188.351v1.779c0,0.136-0.631,0.267-1.895,0.394
					c-0.101,0.229-0.227,0.448-0.38,0.66c0.433,0.959,0.648,1.543,0.648,1.755c0,0.034-0.019,0.064-0.052,0.087
					c-1.034,0.602-1.559,0.903-1.575,0.903c-0.069,0-0.264-0.198-0.586-0.596c-0.323-0.399-0.541-0.687-0.661-0.866
					c-0.169,0.019-0.296,0.027-0.381,0.027c-0.084,0-0.211-0.009-0.381-0.027c-0.117,0.18-0.339,0.467-0.661,0.866
					c-0.323,0.397-0.517,0.596-0.583,0.596c-0.02,0-0.543-0.302-1.577-0.903c-0.034-0.022-0.052-0.053-0.052-0.087
					c0-0.212,0.217-0.796,0.649-1.755c-0.152-0.212-0.28-0.431-0.381-0.66c-1.263-0.127-1.894-0.258-1.894-0.394v-1.779
					c0-0.136,0.631-0.267,1.894-0.394c0.108-0.246,0.236-0.469,0.381-0.661c-0.433-0.958-0.649-1.542-0.649-1.753
					c0-0.035,0.018-0.064,0.052-0.092c0.032-0.017,0.182-0.102,0.445-0.252c0.261-0.152,0.512-0.298,0.749-0.434
					c0.236-0.135,0.363-0.202,0.383-0.202c0.066,0,0.26,0.196,0.583,0.591c0.322,0.394,0.544,0.681,0.661,0.857
					c0.17-0.016,0.297-0.025,0.381-0.025c0.085,0,0.212,0.01,0.381,0.025c0.432-0.602,0.822-1.076,1.172-1.426l0.075-0.022
					c0.033,0,0.559,0.296,1.575,0.888c0.033,0.027,0.052,0.057,0.052,0.092c0,0.211-0.216,0.795-0.648,1.753
					c0.144,0.192,0.271,0.415,0.38,0.661C414.62,188.084,415.251,188.215,415.251,188.351z M415.251,201.365v1.778
					c0,0.136-0.631,0.267-1.895,0.395c-0.101,0.229-0.227,0.448-0.38,0.662c0.433,0.955,0.648,1.539,0.648,1.753
					c0,0.033-0.019,0.064-0.052,0.088c-1.034,0.602-1.559,0.902-1.575,0.902c-0.069,0-0.264-0.199-0.586-0.598
					c-0.323-0.398-0.541-0.686-0.661-0.863c-0.169,0.018-0.296,0.024-0.381,0.024c-0.084,0-0.211-0.007-0.381-0.024
					c-0.117,0.178-0.339,0.465-0.661,0.863c-0.323,0.398-0.517,0.598-0.583,0.598c-0.02,0-0.543-0.301-1.577-0.902
					c-0.034-0.023-0.052-0.055-0.052-0.088c0-0.214,0.217-0.798,0.649-1.753c-0.152-0.214-0.28-0.433-0.381-0.662
					c-1.263-0.128-1.894-0.259-1.894-0.395v-1.778c0-0.136,0.631-0.27,1.894-0.395c0.108-0.246,0.236-0.466,0.381-0.66
					c-0.433-0.959-0.649-1.543-0.649-1.756c0-0.032,0.018-0.063,0.052-0.088c0.032-0.018,0.182-0.103,0.445-0.254
					c0.261-0.152,0.512-0.297,0.749-0.434c0.236-0.134,0.363-0.202,0.383-0.202c0.066,0,0.26,0.196,0.583,0.591
					c0.322,0.392,0.544,0.679,0.661,0.857c0.17-0.016,0.297-0.024,0.381-0.024c0.085,0,0.212,0.009,0.381,0.024
					c0.432-0.602,0.822-1.076,1.172-1.424l0.075-0.024c0.033,0,0.559,0.296,1.575,0.89c0.033,0.025,0.052,0.056,0.052,0.088
					c0,0.213-0.216,0.797-0.648,1.756c0.144,0.194,0.271,0.414,0.38,0.66C414.62,201.096,415.251,201.229,415.251,201.365z
					 M411.998,189.239c0-0.438-0.162-0.821-0.483-1.144c-0.322-0.321-0.703-0.482-1.145-0.482c-0.44,0-0.822,0.161-1.144,0.482
					c-0.322,0.322-0.481,0.705-0.481,1.144c0,0.45,0.157,0.832,0.475,1.151c0.318,0.318,0.701,0.476,1.15,0.476
					c0.45,0,0.833-0.157,1.151-0.476C411.838,190.071,411.998,189.689,411.998,189.239z M411.998,202.254
					c0-0.442-0.162-0.821-0.483-1.143c-0.322-0.322-0.703-0.483-1.145-0.483c-0.44,0-0.822,0.161-1.144,0.483
					c-0.322,0.321-0.481,0.7-0.481,1.143c0,0.449,0.157,0.832,0.475,1.15c0.318,0.316,0.701,0.477,1.15,0.477
					c0.45,0,0.833-0.16,1.151-0.477C411.838,203.086,411.998,202.703,411.998,202.254z"/>
			</g>
			<g opacity="0.9">
				<path fill="#FFFFFF" d="M385.015,67.206c0.82,1.405,1.229,2.944,1.229,4.609c0,1.664-0.408,3.2-1.229,4.606
					c-0.823,1.408-1.936,2.521-3.343,3.342c-1.406,0.82-2.943,1.231-4.606,1.231c-1.666,0-3.202-0.411-4.61-1.231
					c-1.405-0.821-2.519-1.934-3.34-3.342c-0.821-1.406-1.231-2.942-1.231-4.606c0-1.666,0.41-3.204,1.231-4.609
					s1.935-2.521,3.34-3.341c1.408-0.819,2.944-1.232,4.61-1.232c1.663,0,3.2,0.413,4.606,1.232
					C383.079,64.686,384.191,65.801,385.015,67.206z M380.124,77.553v-1.914c0-0.111-0.037-0.203-0.108-0.275
					c-0.071-0.069-0.162-0.105-0.273-0.105h-1.148v-6.121c0-0.113-0.035-0.203-0.108-0.275c-0.07-0.073-0.163-0.107-0.274-0.107
					h-3.825c-0.11,0-0.203,0.035-0.273,0.107c-0.071,0.072-0.109,0.162-0.109,0.275v1.911c0,0.113,0.038,0.205,0.109,0.275
					c0.07,0.073,0.163,0.108,0.273,0.108h1.149v3.826h-1.149c-0.11,0-0.203,0.036-0.273,0.105c-0.071,0.072-0.109,0.164-0.109,0.275
					v1.914c0,0.111,0.038,0.203,0.109,0.275c0.07,0.069,0.163,0.105,0.273,0.105h5.356c0.111,0,0.202-0.036,0.273-0.105
					C380.087,77.756,380.124,77.664,380.124,77.553z M378.594,66.844v-1.916c0-0.11-0.035-0.203-0.108-0.273
					c-0.07-0.072-0.163-0.108-0.274-0.108h-2.294c-0.111,0-0.204,0.036-0.276,0.108c-0.071,0.07-0.105,0.163-0.105,0.273v1.916
					c0,0.109,0.034,0.202,0.105,0.273c0.072,0.072,0.165,0.106,0.276,0.106h2.294c0.111,0,0.204-0.035,0.274-0.106
					C378.559,67.045,378.594,66.953,378.594,66.844z"/>
			</g>
			<g>
				<path fill="#FFFFFF" d="M88.081,185.953c0,1.265-0.449,2.348-1.346,3.243c-0.896,0.897-1.977,1.346-3.244,1.346H70.486
					c-1.476,0-2.736-0.524-3.785-1.571c-1.048-1.049-1.571-2.312-1.571-3.783c0-1.053,0.283-2.017,0.848-2.887
					c0.566-0.875,1.312-1.525,2.236-1.955c-0.017-0.225-0.023-0.395-0.023-0.516c0-1.688,0.597-3.131,1.793-4.326
					c1.194-1.195,2.637-1.793,4.328-1.793c1.258,0,2.399,0.351,3.425,1.052c1.023,0.702,1.77,1.618,2.24,2.75
					c0.558-0.495,1.22-0.743,1.984-0.743c0.845,0,1.565,0.301,2.164,0.899c0.597,0.596,0.896,1.317,0.896,2.161
					c0,0.599-0.164,1.149-0.491,1.65c1.029,0.238,1.877,0.776,2.546,1.608C87.746,183.922,88.081,184.875,88.081,185.953z"/>
			</g>
			<g opacity="0.7">
				<path fill="#FFFFFF" d="M355.61,155.869c0.317,0,0.588,0.111,0.811,0.336c0.225,0.223,0.336,0.493,0.336,0.813v14.535
					c0,0.319-0.111,0.59-0.336,0.812c-0.223,0.224-0.493,0.336-0.811,0.336h-11.477c-0.319,0-0.591-0.112-0.813-0.336
					c-0.224-0.222-0.335-0.492-0.335-0.812v-3.443h-6.503c-0.318,0-0.59-0.11-0.813-0.334c-0.223-0.225-0.335-0.496-0.335-0.813
					v-8.033c0-0.318,0.081-0.669,0.24-1.052s0.351-0.684,0.574-0.907l4.877-4.878c0.223-0.223,0.525-0.415,0.908-0.574
					s0.734-0.238,1.052-0.238h4.972c0.318,0,0.591,0.113,0.814,0.336c0.221,0.223,0.335,0.492,0.335,0.813v3.922
					c0.541-0.322,1.052-0.48,1.529-0.48H355.61z M343.8,161.56l3.777-3.778v-4.973h-4.591v4.973c0,0.32-0.112,0.59-0.335,0.813
					c-0.223,0.225-0.495,0.335-0.813,0.335h-4.971v7.649h6.119v-3.059c0-0.318,0.079-0.67,0.238-1.053
					C343.386,162.085,343.577,161.782,343.8,161.56z M341.456,153.826l-3.574,3.574h3.574V153.826z M355.227,171.169V157.4h-4.59
					v4.973c0,0.318-0.111,0.59-0.335,0.813c-0.224,0.224-0.494,0.334-0.813,0.334h-4.973v7.649H355.227z M349.107,158.416
					l-3.574,3.573h3.574V158.416z"/>
			</g>
			<g opacity="0.8">
				<path fill="#FFFFFF" d="M104.888,128.738c-0.045,0.159-0.15,0.27-0.321,0.323l-4.698,1.544v4.924
					c0,0.174-0.072,0.313-0.211,0.421c-0.16,0.106-0.314,0.128-0.468,0.063l-4.7-1.513l-2.896,3.989
					c-0.106,0.141-0.248,0.211-0.419,0.211c-0.173,0-0.311-0.07-0.42-0.211l-2.896-3.989l-4.699,1.513
					c-0.15,0.064-0.306,0.043-0.467-0.063c-0.14-0.108-0.207-0.247-0.207-0.421v-4.924l-4.701-1.544
					c-0.173-0.054-0.279-0.164-0.322-0.323c-0.054-0.18-0.034-0.338,0.063-0.465l2.899-3.994l-2.899-3.99
					c-0.097-0.139-0.116-0.295-0.063-0.467c0.043-0.162,0.149-0.269,0.322-0.322l4.701-1.544v-4.926c0-0.174,0.067-0.31,0.207-0.421
					c0.161-0.105,0.316-0.127,0.467-0.064l4.699,1.514l2.896-3.989c0.099-0.129,0.238-0.195,0.42-0.195
					c0.186,0,0.323,0.066,0.419,0.195l2.896,3.989l4.7-1.514c0.153-0.063,0.308-0.041,0.468,0.064
					c0.139,0.111,0.211,0.247,0.211,0.421v4.926l4.698,1.544c0.171,0.054,0.276,0.16,0.321,0.322
					c0.054,0.172,0.032,0.328-0.062,0.467l-2.899,3.99l2.899,3.994C104.92,128.4,104.941,128.559,104.888,128.738z M99.713,127.877
					c0.491-1.142,0.732-2.342,0.732-3.598c0-1.253-0.241-2.455-0.732-3.598c-0.488-1.143-1.148-2.129-1.979-2.961
					c-0.831-0.831-1.818-1.492-2.964-1.98c-1.141-0.488-2.34-0.73-3.596-0.73c-1.253,0-2.454,0.242-3.596,0.73
					c-1.145,0.488-2.132,1.149-2.962,1.98c-0.833,0.832-1.492,1.818-1.98,2.961c-0.487,1.143-0.732,2.345-0.732,3.598
					c0,1.256,0.245,2.456,0.732,3.598c0.488,1.145,1.147,2.129,1.98,2.963c0.83,0.832,1.817,1.491,2.962,1.979
					c1.142,0.489,2.343,0.731,3.596,0.731c1.256,0,2.455-0.242,3.596-0.731c1.146-0.487,2.133-1.146,2.964-1.979
					C98.564,130.006,99.225,129.021,99.713,127.877z"/>
			</g>
			<g>
				<path fill="#FFFFFF" d="M266.729,96.711c0.14,0.141,0.21,0.307,0.21,0.5c0,0.191-0.07,0.355-0.21,0.496
					s-0.308,0.211-0.501,0.211h-2.478c0,1.262-0.247,2.331-0.742,3.211l2.303,2.313c0.142,0.141,0.209,0.307,0.209,0.498
					c0,0.193-0.067,0.359-0.209,0.498c-0.134,0.141-0.301,0.211-0.5,0.211c-0.198,0-0.364-0.07-0.497-0.211l-2.192-2.18
					c-0.035,0.037-0.091,0.085-0.164,0.145c-0.076,0.059-0.23,0.164-0.467,0.314c-0.235,0.15-0.476,0.285-0.72,0.404
					c-0.244,0.117-0.545,0.226-0.906,0.32c-0.361,0.098-0.72,0.145-1.075,0.145v-9.92h-1.417v9.92c-0.376,0-0.752-0.05-1.121-0.15
					c-0.375-0.098-0.695-0.221-0.965-0.363c-0.27-0.146-0.512-0.289-0.73-0.433s-0.378-0.263-0.482-0.359l-0.168-0.155l-2.024,2.291
					c-0.147,0.155-0.324,0.232-0.532,0.232c-0.175,0-0.335-0.06-0.476-0.178c-0.138-0.132-0.214-0.297-0.226-0.492
					c-0.012-0.194,0.045-0.366,0.172-0.516l2.235-2.512c-0.429-0.842-0.642-1.854-0.642-3.033h-2.48c-0.19,0-0.356-0.07-0.498-0.211
					c-0.139-0.141-0.21-0.305-0.21-0.496c0-0.193,0.071-0.359,0.21-0.5c0.142-0.141,0.308-0.21,0.498-0.21h2.48v-3.255l-1.916-1.914
					c-0.14-0.141-0.209-0.308-0.209-0.498c0-0.191,0.069-0.358,0.209-0.499c0.139-0.14,0.307-0.21,0.498-0.21
					c0.194,0,0.358,0.07,0.498,0.21l1.916,1.913h9.346l1.913-1.913c0.142-0.14,0.307-0.21,0.499-0.21c0.19,0,0.357,0.07,0.496,0.21
					c0.141,0.141,0.211,0.308,0.211,0.499c0,0.19-0.07,0.357-0.211,0.498l-1.913,1.914v3.255h2.478
					C266.421,96.501,266.589,96.57,266.729,96.711z M261.624,90.834h-7.086c0-0.98,0.346-1.818,1.036-2.51
					c0.688-0.689,1.526-1.033,2.506-1.033c0.982,0,1.817,0.344,2.51,1.033C261.278,89.016,261.624,89.854,261.624,90.834z"/>
			</g>
			<g opacity="0.9">
				<path fill="#FFFFFF" d="M316.808,206.932v8.857c0,0.295-0.104,0.547-0.31,0.75c-0.206,0.207-0.458,0.311-0.753,0.311H303.7
					c-0.295,0-0.547-0.104-0.754-0.311c-0.205-0.203-0.311-0.455-0.311-0.75V200.91c0-0.296,0.105-0.547,0.311-0.754
					c0.207-0.206,0.459-0.31,0.754-0.31h6.022v6.022c0,0.294,0.102,0.546,0.31,0.752c0.207,0.207,0.459,0.311,0.754,0.311H316.808z
					 M316.775,205.514h-5.636v-5.635c0.605,0.11,1.093,0.354,1.461,0.721l3.453,3.453
					C316.424,204.422,316.664,204.91,316.775,205.514z"/>
			</g>
			<g opacity="0.5">
				<path fill="#FFFFFF" d="M426.034,88.612c0,0.729-0.199,1.339-0.603,1.827c-0.401,0.486-0.958,0.73-1.67,0.73
					c-0.371,0-0.721-0.08-1.048-0.237c-0.33-0.157-0.597-0.33-0.8-0.515c-0.204-0.186-0.457-0.355-0.765-0.514
					c-0.307-0.158-0.628-0.236-0.961-0.236c-0.991,0-1.488,0.558-1.488,1.676c0,0.352,0.072,0.871,0.218,1.559
					c0.142,0.684,0.212,1.203,0.203,1.555v0.07c-0.2,0-0.349,0.002-0.447,0.011c-0.307,0.026-0.747,0.079-1.319,0.155
					s-1.094,0.137-1.563,0.184c-0.47,0.044-0.912,0.068-1.327,0.068c-0.552,0-1.015-0.121-1.395-0.36
					c-0.379-0.237-0.569-0.614-0.569-1.13c0-0.332,0.08-0.652,0.238-0.959c0.157-0.307,0.328-0.564,0.515-0.766
					c0.185-0.203,0.356-0.468,0.514-0.798c0.158-0.33,0.236-0.679,0.236-1.049c0-0.713-0.243-1.27-0.73-1.672
					c-0.487-0.401-1.095-0.602-1.825-0.602c-0.76,0-1.403,0.204-1.937,0.614c-0.532,0.411-0.798,0.987-0.798,1.727
					c0,0.389,0.067,0.763,0.203,1.123c0.135,0.361,0.285,0.65,0.453,0.872c0.166,0.223,0.315,0.46,0.453,0.72
					c0.136,0.255,0.203,0.483,0.203,0.682c0,0.406-0.208,0.809-0.623,1.203c-0.334,0.316-0.861,0.476-1.584,0.476
					c-0.855,0-1.961-0.108-3.314-0.325c-0.082-0.02-0.206-0.037-0.372-0.055c-0.167-0.018-0.291-0.035-0.371-0.055l-0.177-0.027
					c-0.01,0-0.022-0.003-0.041-0.014c-0.019,0-0.026-0.004-0.026-0.013V80.683c0.017,0.009,0.096,0.022,0.235,0.046
					c0.141,0.023,0.294,0.046,0.461,0.067c0.166,0.024,0.263,0.038,0.291,0.048c1.354,0.216,2.459,0.325,3.314,0.325
					c0.723,0,1.25-0.158,1.584-0.474c0.415-0.396,0.623-0.799,0.623-1.205c0-0.198-0.067-0.427-0.203-0.684
					c-0.138-0.258-0.287-0.494-0.453-0.717c-0.168-0.222-0.318-0.512-0.453-0.873c-0.136-0.361-0.203-0.733-0.203-1.123
					c0-0.741,0.266-1.314,0.798-1.727c0.533-0.408,1.182-0.616,1.948-0.616c0.723,0,1.326,0.202,1.813,0.604
					c0.487,0.4,0.73,0.959,0.73,1.672c0,0.368-0.078,0.719-0.236,1.047c-0.157,0.329-0.329,0.596-0.514,0.8
					c-0.187,0.202-0.357,0.456-0.515,0.763c-0.158,0.309-0.238,0.629-0.238,0.961c0,0.516,0.19,0.892,0.569,1.131
					c0.38,0.238,0.843,0.359,1.395,0.359c0.577,0,1.389-0.069,2.436-0.203c1.047-0.136,1.782-0.211,2.205-0.231v0.029
					c-0.008,0.017-0.024,0.097-0.046,0.236c-0.023,0.141-0.045,0.292-0.068,0.459c-0.021,0.168-0.039,0.265-0.048,0.292
					c-0.216,1.352-0.323,2.457-0.323,3.315c0,0.72,0.156,1.248,0.473,1.582c0.396,0.415,0.798,0.622,1.205,0.622
					c0.198,0,0.425-0.067,0.683-0.201c0.257-0.138,0.495-0.287,0.718-0.453c0.221-0.168,0.512-0.318,0.871-0.457
					c0.361-0.132,0.736-0.201,1.124-0.201c0.739,0,1.315,0.267,1.726,0.799S426.034,87.854,426.034,88.612z"/>
			</g>
			<g opacity="0.9">
				<path fill="#FFFFFF" d="M227.87,146.738v8.504c0,0.635-0.122,1.265-0.369,1.887c-0.249,0.626-0.556,1.178-0.92,1.66
					c-0.366,0.484-0.801,0.955-1.306,1.412c-0.507,0.458-0.972,0.838-1.401,1.14c-0.429,0.302-0.874,0.589-1.341,0.858
					c-0.464,0.27-0.794,0.452-0.989,0.549c-0.195,0.094-0.354,0.17-0.469,0.221c-0.089,0.045-0.188,0.064-0.29,0.064
					s-0.199-0.02-0.286-0.064c-0.119-0.051-0.276-0.127-0.472-0.221c-0.196-0.097-0.526-0.279-0.991-0.549
					c-0.464-0.27-0.911-0.557-1.339-0.858c-0.429-0.302-0.896-0.682-1.399-1.14c-0.506-0.457-0.94-0.928-1.307-1.412
					c-0.365-0.482-0.672-1.034-0.92-1.66c-0.246-0.622-0.372-1.252-0.372-1.887v-8.504c0-0.189,0.071-0.356,0.212-0.496
					c0.141-0.141,0.306-0.211,0.498-0.211h12.752c0.192,0,0.36,0.07,0.5,0.211C227.801,146.382,227.87,146.549,227.87,146.738z
					 M225.743,155.242v-7.085h-4.958v12.587c0.88-0.465,1.664-0.971,2.358-1.518C224.879,157.868,225.743,156.54,225.743,155.242z"
					/>
			</g>
			<g>
				<path fill="#FFFFFF" d="M417.576,278.715h18.835l-1.71,19.233l-7.734,2.169l-7.678-2.169L417.576,278.715z M432.69,284.988
					l0.217-2.341h-11.826l0.63,7.141h8.185l-0.293,3.052l-2.636,0.71l-2.62-0.71l-0.175-1.872h-2.34l0.293,3.717l4.842,1.338h0.055
					v-0.014l4.802-1.324l0.671-7.276h-8.616l-0.201-2.421H432.69z"/>
			</g>
			<g>
				<path fill="#FFFFFF" d="M309.931,118.917h16.662l-2.945,14.757l-8.9,2.957l-7.729-2.957l0.787-3.941h3.287l-0.32,1.627
					l4.672,1.783l5.381-1.783l0.752-3.753h-13.374l0.643-3.287h13.383l0.423-2.114h-13.373L309.931,118.917z"/>
			</g>
			<g opacity="0.6">
				<path fill="#FFFFFF" d="M202.138,304.828c0,1.218-0.26,2.427-0.775,3.625c-0.517,1.201-1.24,2.264-2.17,3.189
					c-0.931,0.927-1.967,1.592-3.109,1.999c-0.915,0.323-2.119,0.487-3.61,0.487c-0.419,0-1.048-0.054-1.882-0.161
					c-0.834-0.106-1.457-0.161-1.869-0.161c-0.178,0-0.446,0.055-0.805,0.161c-0.357,0.107-0.629,0.161-0.813,0.161
					c-0.538,0-0.993-0.205-1.368-0.616c-0.372-0.408-0.557-0.884-0.557-1.421c0-0.18,0.041-0.429,0.12-0.755
					c0.083-0.323,0.124-0.569,0.124-0.739c0-0.297-0.047-0.742-0.14-1.336c-0.092-0.591-0.139-1.042-0.139-1.346
					c0-0.818,0.065-1.622,0.2-2.406c0.133-0.784,0.333-1.559,0.602-2.318c0.271-0.761,0.641-1.476,1.113-2.15
					c0.471-0.67,1.026-1.246,1.662-1.725c0.575-0.436,1.43-0.88,2.565-1.33c1.433-0.574,2.599-0.863,3.499-0.863
					c0.443,0,1.091,0.09,1.944,0.268c0.853,0.178,1.492,0.265,1.919,0.265c0.141,0,0.351-0.019,0.632-0.056
					c0.279-0.036,0.495-0.055,0.643-0.055c0.597,0,1.033,0.188,1.306,0.559c0.273,0.373,0.41,0.868,0.41,1.488
					c0,0.171-0.018,0.42-0.057,0.753c-0.036,0.333-0.055,0.585-0.055,0.753c0,0.075,0.004,0.143,0.011,0.206
					c0.008,0.06,0.02,0.126,0.034,0.187c0.015,0.063,0.029,0.113,0.044,0.149c0.015,0.038,0.038,0.097,0.071,0.179
					s0.059,0.143,0.073,0.188c0.116,0.296,0.209,0.731,0.275,1.311C202.104,303.898,202.138,304.4,202.138,304.828z
					 M200.719,304.851c0-0.324-0.024-0.743-0.075-1.256c-0.052-0.514-0.118-0.869-0.199-1.068c-0.09-0.221-0.152-0.382-0.189-0.487
					c-0.036-0.104-0.07-0.238-0.098-0.404c-0.031-0.166-0.046-0.343-0.046-0.537c0-0.168,0.019-0.422,0.054-0.76
					c0.039-0.334,0.058-0.584,0.058-0.746c0-0.272-0.038-0.477-0.111-0.608c-0.03-0.007-0.077-0.012-0.144-0.012
					c-0.141,0-0.354,0.018-0.644,0.052c-0.286,0.031-0.503,0.051-0.652,0.051c-0.441,0-1.091-0.091-1.947-0.268
					c-0.856-0.178-1.503-0.264-1.938-0.264c-0.317,0-0.665,0.039-1.045,0.125c-0.382,0.084-0.695,0.173-0.941,0.26
					c-0.249,0.092-0.577,0.213-0.99,0.377c-1.012,0.398-1.758,0.778-2.237,1.14c-0.709,0.54-1.297,1.239-1.765,2.099
					c-0.471,0.858-0.795,1.732-0.975,2.611c-0.181,0.883-0.271,1.801-0.271,2.753c0,0.294,0.046,0.737,0.137,1.329
					c0.093,0.589,0.14,1.035,0.14,1.339c0,0.169-0.041,0.415-0.123,0.737c-0.08,0.318-0.121,0.561-0.121,0.724
					s0.045,0.298,0.133,0.403c0.088,0.107,0.215,0.16,0.376,0.16c0.179,0,0.446-0.041,0.804-0.12
					c0.357-0.081,0.628-0.122,0.814-0.122c0.419,0,1.045,0.057,1.875,0.172c0.829,0.114,1.457,0.17,1.876,0.17
					c1.337,0,2.385-0.132,3.146-0.398c0.951-0.331,1.818-0.893,2.607-1.689c0.785-0.794,1.398-1.697,1.837-2.716
					S200.719,305.863,200.719,304.851z"/>
			</g>
		</g>
		<g id="iconos_cicurlos_2_">
			<g>
				<path fill="#FFFFFF" d="M227.598,257.576c-0.958-0.682-2.019-1.216-3.185-1.604c-1.164-0.388-2.342-0.582-3.533-0.582
					c-1.189,0-2.367,0.194-3.531,0.582c-1.163,0.389-2.227,0.923-3.183,1.604c-0.957,0.682-1.735,1.558-2.33,2.626
					c-0.594,1.07-0.892,2.228-0.892,3.47c0,1.742,0.585,3.295,1.759,4.656c0.172,0.191,0.436,0.477,0.789,0.855
					c0.353,0.38,0.616,0.789,0.79,0.979c2.208,2.638,3.425,4.837,3.648,7.837h5.9c0.226-3,1.441-5.199,3.65-7.837
					c0.172-0.19,0.436-0.537,0.788-0.917c0.354-0.379,0.617-0.695,0.79-0.887c1.175-1.361,1.759-2.93,1.759-4.672
					c0-1.242-0.296-2.407-0.892-3.478C229.33,259.142,228.554,258.258,227.598,257.576z M226.433,264.252
					c-0.164,0.166-0.356,0.246-0.582,0.246c-0.225,0-0.417-0.08-0.582-0.246c-0.166-0.163-0.245-0.356-0.245-0.58
					c0-0.794-0.467-1.406-1.399-1.839c-0.933-0.431-1.847-0.646-2.744-0.646c-0.222,0-0.418-0.082-0.581-0.247
					c-0.164-0.164-0.245-0.358-0.245-0.583c0-0.224,0.081-0.419,0.245-0.581c0.163-0.163,0.359-0.245,0.581-0.245
					c0.866,0,1.721,0.137,2.578,0.412c0.854,0.277,1.604,0.742,2.249,1.398c0.648,0.655,0.972,1.432,0.972,2.33
					C226.679,263.896,226.596,264.089,226.433,264.252z"/>
				<path fill="#FFFFFF" d="M220.882,245.447c-14.632,0-26.506,11.873-26.506,26.506c0,14.646,11.874,26.506,26.506,26.506
					c14.633,0,26.506-11.86,26.506-26.506C247.388,257.32,235.515,245.447,220.882,245.447z M231.467,270.607
					c-0.777,0.844-1.421,1.596-1.929,2.251s-1.022,1.479-1.54,2.472c-0.517,0.992-0.813,1.919-0.88,2.783
					c0.811,0.482,1.216,1.189,1.216,2.119c0,0.641-0.217,1.192-0.646,1.658c0.429,0.466,0.646,1.018,0.646,1.656
					c0,0.896-0.389,1.596-1.162,2.097c0.222,0.396,0.336,0.802,0.336,1.217c0,0.792-0.271,1.404-0.814,1.837
					c-0.544,0.432-1.213,0.646-2.008,0.646c-0.346,0.76-0.862,1.362-1.553,1.811s-1.44,0.673-2.253,0.673
					c-0.809,0-1.56-0.225-2.249-0.673c-0.691-0.448-1.209-1.051-1.554-1.811c-0.795,0-1.462-0.215-2.006-0.646
					c-0.544-0.433-0.814-1.045-0.814-1.837c0-0.415,0.111-0.821,0.336-1.217c-0.776-0.501-1.165-1.2-1.165-2.097
					c0-0.639,0.216-1.19,0.646-1.656c-0.431-0.466-0.646-1.018-0.646-1.658c0-0.93,0.406-1.637,1.217-2.119
					c-0.068-0.864-0.362-1.791-0.882-2.783c-0.517-0.993-1.028-1.816-1.539-2.472c-0.508-0.655-1.15-1.407-1.927-2.251
					c-1.777-1.95-2.666-4.263-2.666-6.936c0-1.709,0.384-3.3,1.152-4.775c0.767-1.475,1.777-2.7,3.028-3.676
					c1.25-0.973,2.666-1.741,4.243-2.303c1.579-0.561,3.188-0.842,4.825-0.842c1.64,0,3.249,0.281,4.827,0.842
					c1.581,0.562,2.995,1.33,4.246,2.303c1.25,0.976,2.259,2.201,3.026,3.676c0.77,1.476,1.151,3.066,1.151,4.775
					C234.131,266.345,233.244,268.657,231.467,270.607z"/>
			</g>
			<g>
				<path fill="#FFFFFF" d="M346.344,346.36c-0.32-0.124-0.534-0.196-0.642-0.211c0.017-0.125-0.005-0.242-0.067-0.35
					s-0.135-0.187-0.213-0.241c-0.079-0.054-0.19-0.125-0.335-0.217c-0.143-0.087-0.241-0.149-0.295-0.186
					c-0.035-0.033-0.098-0.088-0.188-0.159c-0.09-0.069-0.152-0.12-0.187-0.149c-0.034-0.024-0.101-0.065-0.201-0.121
					c-0.099-0.054-0.175-0.069-0.226-0.054c-0.055,0.021-0.145,0.03-0.27,0.03l-0.078,0.023c-0.054,0.022-0.104,0.042-0.149,0.066
					c-0.044,0.03-0.093,0.055-0.146,0.084c-0.054,0.025-0.092,0.054-0.109,0.079c-0.016,0.025-0.016,0.05,0,0.067
					c-0.375-0.305-0.695-0.499-0.962-0.59c-0.087-0.018-0.188-0.067-0.297-0.146c-0.105-0.08-0.198-0.143-0.276-0.188
					c-0.081-0.047-0.171-0.058-0.271-0.042c-0.095,0.021-0.199,0.083-0.306,0.188c-0.089,0.09-0.144,0.225-0.16,0.402
					c-0.02,0.179-0.036,0.295-0.054,0.349c-0.126-0.092-0.126-0.245,0-0.468c0.125-0.226,0.143-0.388,0.054-0.495
					c-0.054-0.108-0.148-0.149-0.281-0.12c-0.134,0.024-0.241,0.065-0.32,0.12c-0.081,0.054-0.186,0.129-0.311,0.229
					c-0.122,0.095-0.204,0.153-0.236,0.171c-0.039,0.02-0.114,0.065-0.229,0.148c-0.116,0.079-0.191,0.145-0.228,0.2
					c-0.056,0.069-0.109,0.179-0.161,0.318c-0.054,0.146-0.098,0.241-0.135,0.296c-0.034-0.069-0.137-0.128-0.307-0.174
					c-0.17-0.041-0.254-0.093-0.254-0.146c0.035,0.179,0.069,0.491,0.109,0.935c0.031,0.45,0.076,0.786,0.131,1.018
					c0.125,0.553,0.016,0.981-0.32,1.284c-0.482,0.448-0.74,0.806-0.775,1.071c-0.07,0.392,0.035,0.624,0.318,0.694
					c0,0.125-0.07,0.308-0.211,0.55c-0.146,0.24-0.207,0.436-0.189,0.576c0,0.106,0.02,0.25,0.055,0.428
					c3.675-0.644,6.804-2.326,9.391-5.056c-0.055-0.053-0.165-0.095-0.332-0.12C346.51,346.427,346.396,346.397,346.344,346.36z"/>
				<path fill="#FFFFFF" d="M338.077,344.997c-0.553,0.267-0.989,0.104-1.311-0.481c0-0.021-0.023-0.067-0.069-0.149
					c-0.043-0.078-0.079-0.153-0.104-0.225c-0.029-0.073-0.05-0.15-0.068-0.228c-0.018-0.082-0.018-0.149,0-0.204
					c0.019-0.05,0.063-0.079,0.133-0.079c0.161,0,0.251-0.029,0.268-0.091c0.018-0.063,0-0.175-0.053-0.337
					c-0.054-0.162-0.089-0.274-0.105-0.35c-0.02-0.142-0.118-0.32-0.296-0.532c-0.18-0.215-0.285-0.349-0.32-0.401
					c-0.089,0.161-0.231,0.232-0.429,0.211c-0.197-0.015-0.339-0.095-0.429-0.235c0,0.015-0.011,0.065-0.04,0.145
					c-0.026,0.078-0.039,0.136-0.039,0.174c-0.232,0-0.366-0.008-0.402-0.029c0.02-0.054,0.041-0.207,0.066-0.465
					c0.029-0.261,0.059-0.462,0.094-0.602c0.019-0.071,0.067-0.179,0.146-0.324c0.081-0.142,0.15-0.271,0.201-0.388
					c0.055-0.115,0.091-0.227,0.105-0.331c0.02-0.108-0.02-0.194-0.12-0.257c-0.096-0.063-0.253-0.084-0.464-0.066
					c-0.34,0.02-0.572,0.197-0.697,0.535c-0.019,0.053-0.045,0.146-0.08,0.282c-0.037,0.133-0.08,0.236-0.134,0.308
					c-0.052,0.07-0.134,0.134-0.24,0.187c-0.127,0.055-0.34,0.071-0.644,0.055c-0.303-0.021-0.518-0.063-0.643-0.134
					c-0.23-0.146-0.433-0.402-0.602-0.776c-0.168-0.374-0.254-0.707-0.254-0.993c0-0.175,0.023-0.411,0.067-0.706
					c0.043-0.295,0.071-0.52,0.081-0.669c0.008-0.153-0.042-0.37-0.148-0.655c0.053-0.038,0.133-0.122,0.242-0.255
					c0.105-0.133,0.195-0.228,0.267-0.282c0.034-0.016,0.075-0.029,0.121-0.041c0.044-0.008,0.084-0.008,0.12,0
					c0.032,0.012,0.071-0.004,0.105-0.037c0.036-0.037,0.064-0.092,0.082-0.162c-0.018-0.019-0.054-0.046-0.107-0.079
					c-0.055-0.055-0.09-0.084-0.109-0.084c0.126,0.055,0.38,0.042,0.764-0.036c0.384-0.08,0.627-0.067,0.736,0.036
					c0.269,0.201,0.462,0.18,0.59-0.05c0-0.021-0.023-0.104-0.068-0.258c-0.045-0.149-0.049-0.27-0.014-0.36
					c0.09,0.481,0.348,0.564,0.775,0.24c0.055,0.053,0.191,0.1,0.417,0.137c0.225,0.035,0.377,0.08,0.47,0.134
					c0.05,0.038,0.113,0.083,0.187,0.147c0.07,0.06,0.12,0.102,0.146,0.119c0.026,0.02,0.069,0.012,0.133-0.014
					c0.063-0.024,0.14-0.083,0.229-0.173c0.178,0.247,0.285,0.465,0.322,0.644c0.196,0.715,0.364,1.104,0.508,1.174
					c0.125,0.055,0.223,0.071,0.295,0.055c0.07-0.018,0.11-0.104,0.12-0.253c0.009-0.154,0.009-0.278,0-0.374
					c-0.01-0.1,0.072-0.211,0.055-0.337l0.068-0.211c0-0.162,0-0.325,0-0.482l-0.123-0.215c-0.266-0.056-0.478-0.159-0.542-0.322
					c-0.061-0.161-0.072-0.323,0.019-0.492c0.088-0.171,0.208-0.338,0.386-0.496c0.02-0.021,0.085-0.049,0.209-0.095
					c0.125-0.046,0.261-0.104,0.411-0.175c0.151-0.068,0.263-0.142,0.333-0.212c0.375-0.34,0.509-0.652,0.403-0.938
					c0.125,0,0.219-0.081,0.291-0.242c-0.018,0-0.061-0.024-0.135-0.079c-0.07-0.053-0.137-0.099-0.2-0.134
					c-0.062-0.035-0.103-0.053-0.119-0.053c0.162-0.093,0.178-0.233,0.054-0.429c0.09-0.054,0.155-0.153,0.199-0.294
					c0.046-0.142,0.112-0.231,0.201-0.266c0.161,0.212,0.348,0.229,0.563,0.05c0.125-0.143,0.135-0.283,0.025-0.428
					c0.091-0.126,0.274-0.216,0.548-0.279c0.279-0.063,0.444-0.149,0.498-0.253c0.123,0.034,0.197,0.017,0.213-0.055
					c0.016-0.07,0.025-0.178,0.025-0.324c0-0.141,0.028-0.248,0.084-0.318c0.07-0.088,0.201-0.171,0.397-0.24
					c0.196-0.072,0.313-0.117,0.35-0.135l0.454-0.295c0.054-0.07,0.054-0.107,0-0.107c0.32,0.037,0.6-0.063,0.828-0.295
					c0.179-0.195,0.125-0.374-0.158-0.531c0.052-0.108,0.025-0.192-0.08-0.259c-0.106-0.062-0.242-0.107-0.4-0.146
					c0.051-0.016,0.154-0.02,0.307-0.012c0.15,0.009,0.245-0.004,0.281-0.043c0.269-0.178,0.205-0.318-0.188-0.426
					c-0.305-0.089-0.687,0.017-1.153,0.319c-0.032,0.021-0.119,0.104-0.252,0.259c-0.134,0.148-0.254,0.234-0.362,0.252
					c0.038,0,0.077-0.045,0.121-0.133c0.046-0.091,0.089-0.191,0.136-0.295c0.042-0.109,0.073-0.17,0.093-0.188
					c0.107-0.125,0.305-0.261,0.589-0.402c0.25-0.109,0.711-0.217,1.391-0.32c0.606-0.145,1.062-0.047,1.364,0.295
					c-0.035-0.037,0.05-0.153,0.253-0.348c0.206-0.195,0.337-0.305,0.39-0.32c0.055-0.038,0.187-0.079,0.4-0.121
					c0.217-0.045,0.35-0.111,0.403-0.203l0.054-0.586c-0.216,0.018-0.371-0.045-0.47-0.191c-0.1-0.143-0.157-0.327-0.175-0.561
					c0,0.037-0.053,0.107-0.158,0.215c0-0.123-0.042-0.194-0.122-0.215c-0.081-0.016-0.183-0.008-0.309,0.029
					c-0.125,0.032-0.204,0.041-0.239,0.025c-0.178-0.055-0.313-0.12-0.401-0.201c-0.091-0.082-0.162-0.228-0.216-0.443
					c-0.052-0.211-0.086-0.345-0.105-0.398c-0.036-0.092-0.121-0.183-0.255-0.281c-0.134-0.097-0.218-0.193-0.254-0.279
					c-0.018-0.038-0.039-0.088-0.067-0.15c-0.025-0.063-0.053-0.12-0.078-0.174c-0.029-0.055-0.063-0.1-0.108-0.146
					c-0.045-0.045-0.093-0.066-0.147-0.066c-0.053,0-0.115,0.046-0.188,0.134c-0.071,0.091-0.138,0.179-0.2,0.265
					c-0.063,0.092-0.102,0.139-0.12,0.139c-0.054-0.038-0.105-0.051-0.161-0.043c-0.051,0.009-0.092,0.018-0.12,0.025
					c-0.027,0.012-0.066,0.037-0.12,0.084c-0.052,0.039-0.097,0.074-0.133,0.091c-0.054,0.036-0.131,0.062-0.226,0.083
					c-0.101,0.016-0.175,0.033-0.229,0.049c0.266-0.086,0.258-0.186-0.025-0.289c-0.18-0.072-0.322-0.101-0.43-0.085
					c0.16-0.069,0.228-0.167,0.203-0.307c-0.029-0.142-0.105-0.362-0.229-0.362h0.134c-0.019,0-0.094-0.162-0.229-0.24
					c-0.134-0.08-0.289-0.16-0.467-0.234c-0.177-0.07-0.293-0.128-0.35-0.161c-0.143-0.092-0.444-0.175-0.91-0.255
					c-0.463-0.082-0.757-0.088-0.88-0.017c-0.09,0.107-0.133,0.202-0.122,0.282c0.009,0.077,0.044,0.203,0.107,0.373
					c0.062,0.171,0.095,0.281,0.095,0.336c0.017,0.104-0.033,0.221-0.149,0.346c-0.115,0.125-0.174,0.23-0.174,0.324
					c0,0.125,0.125,0.262,0.378,0.41c0.248,0.154,0.337,0.344,0.265,0.578c-0.054,0.141-0.195,0.285-0.428,0.428
					c-0.232,0.141-0.373,0.25-0.427,0.32c-0.091,0.145-0.104,0.307-0.044,0.494c0.063,0.191,0.16,0.335,0.284,0.444
					c0.035,0.032,0.05,0.069,0.039,0.103c-0.009,0.039-0.039,0.08-0.093,0.122c-0.054,0.046-0.105,0.083-0.148,0.108
					c-0.043,0.027-0.102,0.058-0.172,0.096l-0.081,0.054c-0.197,0.087-0.382,0.032-0.548-0.163
					c-0.171-0.193-0.291-0.429-0.361-0.693c-0.127-0.449-0.27-0.715-0.428-0.807c-0.412-0.141-0.672-0.133-0.778,0.029
					c-0.089-0.231-0.454-0.465-1.095-0.697c-0.447-0.158-0.964-0.195-1.553-0.104c0.107-0.02,0.107-0.154,0-0.403
					c-0.124-0.266-0.295-0.372-0.509-0.318c0.054-0.109,0.089-0.266,0.107-0.471c0.018-0.203,0.026-0.323,0.026-0.361
					c0.055-0.232,0.161-0.436,0.321-0.614c0.016-0.019,0.08-0.097,0.186-0.229c0.109-0.133,0.19-0.252,0.255-0.36
					c0.061-0.108,0.068-0.163,0.015-0.163c0.624,0.075,1.069-0.025,1.336-0.291c0.09-0.091,0.194-0.239,0.311-0.456
					c0.114-0.212,0.206-0.365,0.279-0.452c0.161-0.107,0.286-0.158,0.377-0.15c0.088,0.008,0.217,0.059,0.387,0.15
					c0.168,0.087,0.3,0.133,0.387,0.133c0.249,0.017,0.391-0.08,0.415-0.295c0.026-0.217-0.039-0.391-0.2-0.535
					c0.212,0.021,0.241-0.134,0.079-0.454c-0.089-0.126-0.158-0.208-0.214-0.24c-0.215-0.071-0.455-0.03-0.722,0.133
					c-0.146,0.069-0.125,0.14,0.054,0.212c-0.02-0.017-0.104,0.078-0.256,0.282c-0.149,0.202-0.296,0.36-0.44,0.47
					c-0.141,0.107-0.286,0.063-0.428-0.133c-0.018-0.021-0.067-0.142-0.147-0.362c-0.081-0.224-0.163-0.344-0.253-0.361
					c-0.145,0-0.285,0.134-0.43,0.399c0.055-0.143-0.046-0.274-0.293-0.399c-0.252-0.126-0.463-0.2-0.643-0.216
					c0.338-0.213,0.267-0.453-0.214-0.724c-0.127-0.069-0.309-0.114-0.549-0.132c-0.241-0.017-0.415,0.018-0.521,0.107
					c-0.091,0.125-0.139,0.229-0.149,0.308c-0.008,0.079,0.037,0.149,0.136,0.212c0.099,0.066,0.193,0.112,0.28,0.15
					c0.091,0.033,0.19,0.069,0.307,0.107c0.115,0.033,0.19,0.061,0.229,0.079c0.248,0.179,0.32,0.304,0.214,0.374
					c-0.036,0.017-0.109,0.049-0.227,0.095c-0.116,0.042-0.221,0.083-0.308,0.122c-0.092,0.031-0.145,0.068-0.161,0.104
					c-0.055,0.074-0.055,0.199,0,0.377c0.054,0.178,0.036,0.303-0.055,0.373c-0.087-0.09-0.17-0.244-0.241-0.469
					c-0.069-0.224-0.134-0.369-0.187-0.439c0.123,0.158-0.099,0.211-0.67,0.158l-0.267-0.025c-0.071,0-0.215,0.016-0.427,0.053
					c-0.217,0.033-0.397,0.047-0.548,0.025c-0.154-0.017-0.274-0.088-0.36-0.211c-0.074-0.146-0.074-0.324,0-0.536
					c0.017-0.071,0.051-0.093,0.105-0.054c-0.074-0.055-0.17-0.139-0.296-0.254c-0.125-0.115-0.215-0.191-0.267-0.229
					c-0.82,0.271-1.659,0.636-2.515,1.098c0.105,0.021,0.212,0.008,0.319-0.025c0.09-0.037,0.204-0.096,0.35-0.175
					c0.142-0.079,0.23-0.129,0.266-0.149c0.607-0.25,0.98-0.313,1.126-0.188l0.134-0.133c0.248,0.287,0.428,0.512,0.535,0.67
					c-0.127-0.071-0.395-0.08-0.805-0.025c-0.356,0.107-0.553,0.211-0.587,0.318c0.124,0.217,0.169,0.375,0.134,0.482
					c-0.071-0.055-0.176-0.141-0.307-0.266c-0.135-0.124-0.266-0.224-0.391-0.294c-0.126-0.071-0.26-0.118-0.4-0.134
					c-0.287,0-0.482,0.009-0.589,0.025c-2.607,1.428-4.7,3.406-6.286,5.939c0.122,0.125,0.231,0.195,0.319,0.213
					c0.072,0.021,0.116,0.1,0.134,0.24c0.015,0.146,0.041,0.242,0.065,0.296c0.03,0.054,0.129,0.028,0.308-0.079
					c0.163,0.141,0.189,0.311,0.083,0.506c0.017-0.017,0.406,0.225,1.176,0.723c0.339,0.304,0.526,0.49,0.562,0.562
					c0.053,0.199-0.035,0.356-0.267,0.481c-0.019-0.033-0.099-0.117-0.241-0.241c-0.142-0.124-0.225-0.157-0.241-0.104
					c-0.054,0.089-0.05,0.253,0.014,0.494c0.062,0.241,0.157,0.354,0.282,0.332c-0.125,0-0.212,0.146-0.256,0.429
					c-0.045,0.286-0.066,0.604-0.066,0.951c0,0.349-0.01,0.558-0.027,0.627l0.054,0.029c-0.054,0.212-0.005,0.519,0.146,0.924
					c0.154,0.401,0.346,0.571,0.578,0.521c-0.232,0.05-0.053,0.437,0.535,1.146c0.105,0.146,0.177,0.225,0.213,0.242
					c0.054,0.037,0.163,0.103,0.321,0.203c0.16,0.096,0.293,0.188,0.4,0.266c0.109,0.084,0.196,0.174,0.27,0.283
					c0.069,0.086,0.159,0.29,0.267,0.603c0.109,0.312,0.231,0.517,0.375,0.627c-0.035,0.107,0.05,0.286,0.254,0.535
					s0.299,0.454,0.283,0.613c-0.02,0-0.045,0.01-0.068,0.026c-0.029,0.021-0.05,0.03-0.066,0.03
					c0.051,0.122,0.191,0.248,0.413,0.374c0.224,0.124,0.363,0.24,0.415,0.348c0.017,0.054,0.036,0.141,0.054,0.266
					c0.017,0.125,0.045,0.225,0.081,0.297c0.035,0.069,0.105,0.09,0.213,0.053c0.034-0.356-0.178-0.91-0.642-1.657
					c-0.269-0.45-0.419-0.707-0.454-0.777c-0.055-0.091-0.104-0.229-0.149-0.416c-0.042-0.186-0.085-0.315-0.12-0.386
					c0.035,0,0.09,0.013,0.16,0.037c0.07,0.03,0.15,0.058,0.229,0.096c0.078,0.034,0.148,0.071,0.2,0.108
					c0.053,0.033,0.072,0.063,0.053,0.079c-0.053,0.124-0.034,0.282,0.056,0.47c0.089,0.186,0.195,0.349,0.32,0.494
					c0.123,0.142,0.276,0.312,0.456,0.506c0.179,0.195,0.284,0.312,0.32,0.351c0.107,0.106,0.231,0.28,0.373,0.519
					c0.144,0.24,0.144,0.361,0,0.361c0.163,0,0.34,0.091,0.536,0.27c0.195,0.179,0.35,0.356,0.455,0.535
					c0.09,0.143,0.16,0.374,0.213,0.694c0.055,0.319,0.1,0.535,0.134,0.644c0.036,0.126,0.112,0.246,0.228,0.362
					c0.117,0.115,0.229,0.2,0.335,0.253c0.105,0.055,0.251,0.125,0.431,0.211c0.177,0.093,0.292,0.154,0.347,0.188
					c0.09,0.037,0.253,0.134,0.493,0.282c0.242,0.154,0.433,0.252,0.576,0.308c0.18,0.069,0.32,0.107,0.426,0.107
					c0.111,0,0.238-0.02,0.391-0.066c0.152-0.045,0.272-0.075,0.361-0.097c0.268-0.032,0.526,0.101,0.774,0.404
					c0.25,0.304,0.436,0.489,0.563,0.562c0.642,0.34,1.131,0.436,1.473,0.293c-0.037,0.018-0.034,0.084,0.014,0.201
					c0.041,0.116,0.115,0.253,0.212,0.415c0.099,0.162,0.177,0.291,0.241,0.391c0.063,0.095,0.11,0.171,0.146,0.224
					c0.089,0.108,0.251,0.24,0.483,0.403c0.23,0.161,0.389,0.295,0.482,0.399c0.106-0.071,0.167-0.15,0.186-0.238
					c-0.054,0.142,0.01,0.32,0.187,0.533c0.18,0.216,0.34,0.302,0.482,0.27C337.952,345.8,338.077,345.513,338.077,344.997z"/>
				<path fill="#FFFFFF" d="M334.738,306.48c-15.491,0-28.062,12.57-28.062,28.063c0,15.505,12.57,28.063,28.062,28.063
					s28.059-12.558,28.059-28.063C362.797,319.051,350.229,306.48,334.738,306.48z M352.445,345.089
					c-1.837,3.149-4.333,5.642-7.479,7.477c-3.148,1.842-6.588,2.759-10.315,2.759c-3.729,0-7.165-0.917-10.315-2.759
					c-3.146-1.835-5.642-4.327-7.478-7.477c-1.837-3.149-2.757-6.585-2.757-10.314c0-3.727,0.92-7.166,2.757-10.314
					c1.836-3.146,4.331-5.642,7.478-7.479c3.15-1.836,6.587-2.754,10.315-2.754c3.728,0,7.167,0.918,10.315,2.754
					c3.146,1.837,5.642,4.333,7.479,7.479c1.837,3.148,2.755,6.588,2.755,10.314C355.2,338.504,354.282,341.939,352.445,345.089z"/>
			</g>
			<g>
				<path fill="#FFFFFF" d="M248.928,191.381c-11.706,0-21.204,9.5-21.204,21.206c0,11.716,9.498,21.205,21.204,21.205
					c11.707,0,21.203-9.489,21.203-21.205C270.131,200.881,260.635,191.381,248.928,191.381z M253.327,203.441
					c0.559-0.557,1.23-0.836,2.017-0.836c0.788,0,1.46,0.279,2.017,0.836s0.836,1.229,0.836,2.017c0,0.785-0.279,1.458-0.836,2.017
					c-0.557,0.557-1.229,0.834-2.017,0.834c-0.786,0-1.458-0.277-2.017-0.834c-0.556-0.559-0.835-1.231-0.835-2.017
					C252.492,204.67,252.771,203.998,253.327,203.441z M248.928,205.458c1.179,0,2.188,0.417,3.024,1.253
					c0.835,0.834,1.252,1.842,1.252,3.025c0,1.18-0.417,2.188-1.252,3.023c-0.836,0.836-1.846,1.252-3.024,1.252
					c-1.182,0-2.188-0.416-3.023-1.252s-1.253-1.844-1.253-3.023c0-1.184,0.418-2.191,1.253-3.025
					C246.739,205.875,247.746,205.458,248.928,205.458z M240.495,203.441c0.557-0.557,1.229-0.836,2.016-0.836
					s1.461,0.279,2.018,0.836s0.833,1.229,0.833,2.017c0,0.785-0.276,1.458-0.833,2.017c-0.557,0.557-1.23,0.834-2.018,0.834
					s-1.459-0.277-2.016-0.834c-0.556-0.559-0.836-1.231-0.836-2.017C239.659,204.67,239.939,203.998,240.495,203.441z
					 M238.858,213.556c-0.416-0.3-0.624-0.739-0.624-1.317c0-2.621,0.46-3.932,1.381-3.932c0.044,0,0.206,0.079,0.484,0.235
					s0.642,0.315,1.086,0.474c0.445,0.161,0.888,0.241,1.325,0.241c0.499,0,0.994-0.087,1.482-0.257
					c-0.037,0.275-0.055,0.52-0.055,0.736c0,1.031,0.301,1.976,0.9,2.845c-1.201,0.038-2.187,0.419-2.95,1.419h-1.493
					C239.786,214,239.274,213.856,238.858,213.556z M255.958,222.01c-0.543,0.515-1.265,0.99-2.162,0.99h-9.735
					c-0.899,0-1.62-0.476-2.161-0.99c-0.543-0.517-0.813-1.329-0.813-2.219c0-0.394,0.012-0.832,0.037-1.208
					c0.026-0.376,0.078-0.808,0.156-1.241s0.177-0.85,0.297-1.222c0.118-0.372,0.277-0.74,0.478-1.092
					c0.202-0.354,0.431-0.658,0.69-0.907c0.262-0.25,0.577-0.447,0.953-0.597c0.375-0.149,0.788-0.226,1.242-0.226
					c0.074,0,0.234,0.08,0.479,0.24c0.245,0.16,0.516,0.338,0.814,0.534c0.294,0.196,0.693,0.376,1.19,0.534
					c0.498,0.161,0.999,0.24,1.504,0.24s1.007-0.079,1.505-0.24c0.496-0.158,0.894-0.338,1.191-0.534
					c0.296-0.196,0.566-0.374,0.813-0.535c0.245-0.159,0.404-0.24,0.479-0.24c0.452,0,0.865,0.075,1.241,0.225
					s0.693,0.345,0.953,0.596c0.26,0.249,0.49,0.549,0.69,0.903c0.201,0.352,0.36,0.713,0.479,1.085
					c0.118,0.372,0.215,0.774,0.295,1.209c0.078,0.434,0.131,0.838,0.157,1.214c0.024,0.376,0.038,0.868,0.038,1.262
					C256.771,220.681,256.499,221.493,255.958,222.01z M258.998,213.556c-0.416,0.301-0.928,0.444-1.537,0.444h-1.493
					c-0.764-1-1.749-1.381-2.953-1.419c0.603-0.869,0.903-1.816,0.903-2.849c0-0.216-0.018-0.459-0.056-0.733
					c0.489,0.17,0.984,0.257,1.481,0.257c0.438,0,0.881-0.079,1.326-0.24c0.444-0.158,0.809-0.316,1.085-0.473
					c0.279-0.156,0.441-0.234,0.486-0.234c0.92,0,1.381,1.309,1.381,3.93C259.622,212.816,259.415,213.256,258.998,213.556z"/>
			</g>
			<g>
				<polygon fill="#FFFFFF" points="159,290.077 159,289.516 159,283 157,283 157,289.516 157,290.077 156.299,290.532 151.794,297 
					162.549,297 158.871,290.532 				"/>
				<path fill="#FFFFFF" d="M157.171,271.953c-11.706,0-21.203,9.5-21.203,21.206c0,11.716,9.497,21.206,21.203,21.206
					c11.707,0,21.203-9.49,21.203-21.206C178.374,281.453,168.878,271.953,157.171,271.953z M167.993,303.919
					c-0.348,0.639-1.055,1.081-2.123,1.081h-17.398c-1.07,0-1.774-0.442-2.124-1.081c-0.347-0.64,0.127-1.466,0.689-2.362
					L155,289.516V283h-1.695c-0.261,0-0.489,0.152-0.682-0.041c-0.19-0.189-0.287-0.296-0.287-0.558
					c0-0.261,0.097-0.208,0.287-0.397c0.192-0.191,0.421-0.004,0.682-0.004h7.733c0.262,0,0.487-0.127,0.679,0.066
					c0.192,0.189,0.286,0.308,0.286,0.568c0,0.262-0.094,0.189-0.286,0.379c-0.191,0.193-0.417-0.014-0.679-0.014H161v6.516
					l7.133,12.041C168.695,302.453,168.341,303.279,167.993,303.919z"/>
			</g>
			<g>
				<path fill="#FFFFFF" d="M22.37,132.012c-11.707,0-21.205,9.499-21.205,21.206c0,11.716,9.498,21.206,21.205,21.206
					s21.202-9.49,21.202-21.206C43.572,141.511,34.077,132.012,22.37,132.012z M21,160.377c0,0.43,0.129,0.819-0.188,1.136
					C20.5,161.826,20.414,162,19.983,162H13.62c-0.43,0-0.817-0.174-1.134-0.487c-0.313-0.316-0.486-0.706-0.486-1.136v-4.771
					c0-0.434,0.174-0.811,0.486-1.125c0.316-0.316,0.704-0.48,1.134-0.48h6.363c0.431,0,0.517,0.164,0.829,0.48
					c0.316,0.314,0.188,0.691,0.188,1.125V160.377z M21,150.832c0,0.432,0.129,0.592-0.188,0.906
					C20.5,152.054,20.414,152,19.983,152H13.62c-0.43,0-0.817,0.054-1.134-0.262c-0.313-0.314-0.486-0.475-0.486-0.906v-4.773
					c0-0.43,0.174-1.038,0.486-1.352C12.803,144.394,13.19,144,13.62,144h6.363c0.431,0,0.517,0.394,0.829,0.707
					c0.316,0.313,0.188,0.922,0.188,1.352V150.832z M32,160.377c0,0.43,0.197,0.819-0.117,1.136
					c-0.314,0.313-0.334,0.487-0.765,0.487h-6.362c-0.432,0-0.887-0.174-1.201-0.487C23.24,161.196,23,160.807,23,160.377v-4.771
					c0-0.434,0.24-0.811,0.555-1.125c0.314-0.316,0.77-0.48,1.201-0.48h6.362c0.431,0,0.45,0.164,0.765,0.48
					c0.314,0.314,0.117,0.691,0.117,1.125V160.377z M32,150.832c0,0.432,0.197,0.592-0.117,0.906
					c-0.314,0.315-0.334,0.262-0.765,0.262h-6.362c-0.432,0-0.887,0.054-1.201-0.262C23.24,151.424,23,151.264,23,150.832v-4.773
					c0-0.43,0.24-1.038,0.555-1.352S24.324,144,24.756,144h6.362c0.431,0,0.45,0.394,0.765,0.707S32,145.629,32,146.059V150.832z"/>
			</g>
			<g>
				<path fill="#FFFFFF" d="M169.891,172.921c-1.379,0-2.554,0.487-3.53,1.464c-0.974,0.973-1.461,2.15-1.461,3.527
					c0,1.379,0.487,2.555,1.461,3.529c0.977,0.976,2.151,1.462,3.53,1.462c1.377,0,2.553-0.486,3.528-1.462
					c0.975-0.975,1.462-2.15,1.462-3.529c0-1.377-0.487-2.555-1.462-3.527C172.443,173.408,171.268,172.921,169.891,172.921z"/>
				<path fill="#FFFFFF" d="M169.891,161.701c-11.706,0-21.204,9.499-21.204,21.205c0,11.717,9.498,21.205,21.204,21.205
					s21.203-9.488,21.203-21.205C191.094,171.2,181.597,161.701,169.891,161.701z M179.229,181.403l-7.099,15.089
					c-0.207,0.43-0.516,0.768-0.925,1.016c-0.41,0.246-0.85,0.369-1.315,0.369c-0.469,0-0.907-0.123-1.317-0.369
					c-0.409-0.248-0.712-0.586-0.907-1.016l-7.115-15.089c-0.429-0.911-0.642-2.074-0.642-3.491c0-2.756,0.973-5.107,2.923-7.057
					s4.303-2.926,7.059-2.926s5.106,0.977,7.058,2.926c1.949,1.949,2.923,4.301,2.923,7.057
					C179.871,179.329,179.658,180.492,179.229,181.403z"/>
			</g>
			<g>
				<path fill="#FFFFFF" d="M416.073,230.743c-0.456,0-0.846,0.161-1.167,0.483s-0.483,0.712-0.483,1.166
					c0,0.455,0.162,0.844,0.483,1.167s0.711,0.484,1.167,0.484c0.454,0,0.845-0.161,1.167-0.484
					c0.323-0.323,0.482-0.712,0.482-1.167c0-0.454-0.159-0.844-0.482-1.166C416.918,230.904,416.527,230.743,416.073,230.743z"/>
				<path fill="#FFFFFF" d="M424.19,216.828c-11.706,0-21.203,9.499-21.203,21.207c0,11.715,9.497,21.205,21.203,21.205
					c11.707,0,21.204-9.49,21.204-21.205C445.395,226.327,435.897,216.828,424.19,216.828z M423.501,247.804
					c-0.456,0-0.842-0.159-1.16-0.476l-9.223-9.234c-0.326-0.319-0.575-0.753-0.804-1.303c-0.229-0.551-0.314-1.054-0.314-1.508
					v-5.365c0-0.447,0.135-0.967,0.463-1.295c0.324-0.327,0.687-0.623,1.133-0.623h5.366c0.455,0,0.959,0.246,1.508,0.474
					c0.55,0.229,0.99,0.573,1.315,0.9l9.222,9.241c0.317,0.335,0.478,0.742,0.478,1.189c0,0.456-0.16,0.852-0.478,1.17l-6.331,6.349
					C424.339,247.641,423.948,247.804,423.501,247.804z M435.958,240.983l-6.331,6.345c-0.335,0.316-0.726,0.476-1.174,0.476
					c-0.311,0-0.563-0.061-0.759-0.179c-0.199-0.121-0.428-0.314-0.686-0.58l6.063-6.062c0.316-0.319,0.477-0.706,0.477-1.162
					c0-0.446-0.16-0.838-0.477-1.173l-9.222-9.208c-0.327-0.327-0.766-0.737-1.315-0.967c-0.55-0.228-1.055-0.474-1.508-0.474h2.889
					c0.453,0,0.958,0.246,1.508,0.474c0.55,0.229,0.989,0.573,1.314,0.9l9.221,9.241c0.318,0.335,0.478,0.742,0.478,1.189
					C436.436,240.261,436.276,240.664,435.958,240.983z"/>
			</g>
			<g>
				<path fill="#FFFFFF" d="M79.583,275.411c-0.275,0-0.51,0.097-0.701,0.288c-0.192,0.191-0.289,0.426-0.289,0.699
					c0,0.275,0.097,0.51,0.289,0.701c0.191,0.191,0.426,0.287,0.701,0.287c0.272,0,0.508-0.096,0.699-0.287
					c0.192-0.191,0.288-0.426,0.288-0.701c0-0.273-0.096-0.508-0.288-0.699C80.091,275.508,79.855,275.411,79.583,275.411z"/>
				<path fill="#FFFFFF" d="M74.472,265.602c-8.777,0-15.902,7.124-15.902,15.904c0,8.786,7.125,15.903,15.902,15.903
					c8.781,0,15.903-7.117,15.903-15.903C90.375,272.726,83.253,265.602,74.472,265.602z M82.101,277.867
					c-0.518,1.244-1.389,2.482-2.611,3.709c-0.555,0.551-1.225,1.154-2.006,1.813l-0.208,3.9c-0.013,0.111-0.066,0.203-0.165,0.27
					l-3.95,2.305c-0.05,0.029-0.103,0.041-0.168,0.041c-0.081,0-0.159-0.033-0.235-0.09l-0.658-0.658
					c-0.089-0.1-0.117-0.207-0.082-0.333l0.875-2.839l-2.894-2.893l-2.841,0.873c-0.02,0.009-0.053,0.012-0.093,0.012
					c-0.096,0-0.175-0.029-0.236-0.094l-0.66-0.661c-0.114-0.127-0.132-0.263-0.051-0.399l2.306-3.953
					c0.069-0.094,0.158-0.15,0.268-0.165l3.902-0.207c0.66-0.781,1.263-1.448,1.811-2.004c1.292-1.282,2.52-2.171,3.686-2.659
					c1.169-0.484,2.647-0.73,4.437-0.73c0.099,0,0.181,0.031,0.248,0.1c0.069,0.064,0.104,0.14,0.104,0.23
					C82.877,275.143,82.617,276.621,82.101,277.867z"/>
			</g>
			<g>
				<path fill="#FFFFFF" d="M160.327,60h7.152c0.102,0,0.201-0.214,0.299-0.288c0.1-0.075,0.164-0.252,0.196-0.355l0.247-0.797
					c0.03-0.101,0.023-0.281-0.025-0.357c-0.047-0.074-0.125-0.203-0.234-0.203h-7.152c-0.1,0-0.201,0.106-0.299,0.181
					c-0.099,0.076-0.163,0.199-0.194,0.3l-0.248,0.77c-0.032,0.103-0.022,0.377,0.024,0.452S160.218,60,160.327,60z"/>
				<path fill="#FFFFFF" d="M159.353,63h7.151c0.102,0,0.2-0.208,0.299-0.282c0.099-0.077,0.165-0.248,0.194-0.351l0.247-0.795
					c0.031-0.103,0.024-0.29-0.023-0.364c-0.046-0.074-0.124-0.208-0.235-0.208h-7.151c-0.102,0-0.202,0.112-0.299,0.187
					c-0.099,0.074-0.163,0.202-0.195,0.304l-0.247,0.771c-0.033,0.103-0.023,0.37,0.024,0.447C159.164,62.782,159.242,63,159.353,63
					z"/>
				<path fill="#FFFFFF" d="M163.094,48.258c-8.78,0-15.904,7.124-15.904,15.904c0,8.787,7.124,15.903,15.904,15.903
					s15.903-7.116,15.903-15.903C178.997,55.382,171.874,48.258,163.094,48.258z M172.796,60.763l-3.235,10.659
					c-0.146,0.5-0.448,0.825-0.899,1.165c-0.45,0.341-0.93,0.414-1.44,0.414h-10.856c-0.604,0-1.187-0.111-1.748-0.532
					c-0.559-0.419-0.949-0.886-1.17-1.499c-0.187-0.524-0.194-0.998-0.023-1.468c0-0.031,0.014-0.125,0.035-0.305
					c0.023-0.181,0.04-0.32,0.048-0.431c0.008-0.062-0.003-0.143-0.035-0.248c-0.032-0.107-0.043-0.181-0.034-0.228
					c0.014-0.086,0.045-0.17,0.093-0.247c0.047-0.077,0.112-0.17,0.194-0.277c0.082-0.105,0.146-0.197,0.193-0.275
					c0.182-0.298,0.355-0.656,0.53-1.076c0.173-0.419,0.289-0.779,0.354-1.077c0.022-0.079,0.022-0.196,0.004-0.352
					c-0.02-0.158-0.023-0.269-0.004-0.33c0.022-0.086,0.088-0.196,0.197-0.331c0.111-0.133,0.178-0.222,0.2-0.27
					c0.165-0.282,0.329-0.643,0.494-1.081c0.165-0.44,0.263-0.793,0.293-1.059c0.01-0.07,0-0.196-0.026-0.377
					c-0.028-0.18-0.028-0.29,0.003-0.329c0.033-0.103,0.119-0.222,0.259-0.359c0.143-0.136,0.229-0.223,0.259-0.264
					c0.149-0.203,0.318-0.535,0.499-0.994c0.187-0.458,0.295-0.837,0.326-1.134c0.006-0.063-0.004-0.162-0.035-0.3
					c-0.031-0.137-0.039-0.241-0.024-0.311c0.015-0.063,0.052-0.133,0.104-0.213c0.057-0.078,0.127-0.168,0.213-0.271
					c0.086-0.102,0.154-0.184,0.2-0.246c0.063-0.094,0.128-0.214,0.194-0.359c0.067-0.146,0.125-0.283,0.176-0.412
					c0.053-0.128,0.115-0.27,0.189-0.422c0.073-0.154,0.15-0.279,0.229-0.376c0.077-0.1,0.183-0.192,0.311-0.279
					c0.13-0.086,0.271-0.129,0.424-0.134c0.153-0.005,0.339,0.018,0.56,0.064l-0.013-0.029c0.298-0.071,0.498-0.171,0.6-0.171h8.952
					c0.579,0,1.026,0.285,1.341,0.725c0.313,0.438,0.384,0.98,0.212,1.56l-3.224,10.672c-0.282,0.933-0.563,1.451-0.84,1.722
					c-0.28,0.27-0.784,0.321-1.513,0.321h-10.221c-0.212,0-0.36,0.15-0.447,0.27c-0.086,0.126-0.091,0.495-0.014,0.706
					c0.189,0.549,0.754,1.025,1.694,1.025h10.857c0.228,0,0.446-0.215,0.659-0.336c0.211-0.121,0.35-0.363,0.412-0.567l3.527-11.648
					c0.054-0.172,0.075-0.415,0.061-0.689c0.298,0.118,0.529,0.276,0.692,0.497C172.898,59.704,172.969,60.199,172.796,60.763z"/>
			</g>
			<g>
				<rect x="297" y="169" fill="#FFFFFF" width="3" height="4"/>
				<path fill="#FFFFFF" d="M296.727,163c0.072-0.071,0.273-0.048,0.273-0.145v-3.266c0-0.096-0.201-0.295-0.273-0.368
					c-0.072-0.07-0.319-0.222-0.417-0.222h-0.727c-0.098,0,0.206,0.151,0.136,0.222c-0.072,0.073,0.281,0.272,0.281,0.368v3.266
					c0,0.097-0.354,0.073-0.281,0.145c0.07,0.074-0.233,0-0.136,0h0.727C296.407,163,296.654,163.074,296.727,163z"/>
				<rect x="297" y="165" fill="#FFFFFF" width="3" height="3"/>
				<rect x="293" y="165" fill="#FFFFFF" width="3" height="3"/>
				<rect x="301" y="173" fill="#FFFFFF" width="4" height="4"/>
				<rect x="293" y="173" fill="#FFFFFF" width="3" height="4"/>
				<rect x="293" y="169" fill="#FFFFFF" width="3" height="4"/>
				<rect x="297" y="173" fill="#FFFFFF" width="3" height="4"/>
				<rect x="306" y="169" fill="#FFFFFF" width="3" height="4"/>
				<rect x="306" y="165" fill="#FFFFFF" width="3" height="3"/>
				<path fill="#FFFFFF" d="M300.297,153.218c-8.779,0-15.901,7.124-15.901,15.904c0,8.786,7.122,15.903,15.901,15.903
					c8.782,0,15.903-7.117,15.903-15.903C316.2,160.342,309.079,153.218,300.297,153.218z M310,176.631
					c0,0.393-0.285,0.691-0.57,0.979c-0.287,0.286-0.765,0.39-1.158,0.39H292.32c-0.392,0-0.668-0.104-0.957-0.39
					c-0.285-0.288-0.363-0.587-0.363-0.979v-14.502c0-0.392,0.078-0.57,0.363-0.859c0.289-0.284,0.565-0.27,0.957-0.27H294v-1.41
					c0-0.496,0.063-0.813,0.418-1.167s0.666-0.423,1.165-0.423h0.727c0.498,0,1.364,0.068,1.718,0.423
					c0.355,0.354,0.973,0.671,0.973,1.167V161h4v-1.41c0-0.496-0.088-0.813,0.268-1.167s0.519-0.423,1.017-0.423h0.725
					c0.499,0,1.015,0.068,1.37,0.423S307,159.094,307,159.59V161h1.271c0.394,0,0.871-0.015,1.158,0.27
					c0.285,0.289,0.57,0.468,0.57,0.859V176.631z"/>
				<rect x="301" y="169" fill="#FFFFFF" width="4" height="4"/>
				<rect x="301" y="165" fill="#FFFFFF" width="4" height="3"/>
				<rect x="306" y="173" fill="#FFFFFF" width="3" height="4"/>
				<path fill="#FFFFFF" d="M305.576,163c0.074-0.071,0.424-0.048,0.424-0.145v-3.266c0-0.096-0.35-0.295-0.424-0.368
					c-0.07-0.07-0.47-0.222-0.567-0.222h-0.725c-0.099,0-0.144,0.151-0.216,0.222c-0.07,0.073-0.068,0.272-0.068,0.368v3.266
					c0,0.097-0.002,0.073,0.068,0.145c0.072,0.074,0.117,0,0.216,0h0.725C305.106,163,305.506,163.074,305.576,163z"/>
				<path fill="#FFFFFF" d="M296,177h-3v-4h3V177z M296,173h-3v-4h3V173z M296,168h-3v-3h3V168z M295.719,163
					c-0.072-0.071,0.281-0.048,0.281-0.145v-3.266c0-0.096-0.354-0.295-0.281-0.368c0.07-0.07-0.233-0.222-0.136-0.222h0.727
					c0.098,0,0.345,0.151,0.417,0.222c0.072,0.073,0.273,0.272,0.273,0.368v3.266c0,0.097-0.201,0.073-0.273,0.145
					c-0.072,0.074-0.319,0-0.417,0h-0.727C295.485,163,295.789,163.074,295.719,163z M300,177h-3v-4h3V177z M300,173h-3v-4h3V173z
					 M300,168h-3v-3h3V168z M305,177h-4v-4h4V177z M305,173h-4v-4h4V173z M305,168h-4v-3h4V168z M304.068,163
					c-0.07-0.071-0.068-0.048-0.068-0.145v-3.266c0-0.096-0.002-0.295,0.068-0.368c0.072-0.07,0.117-0.222,0.216-0.222h0.725
					c0.098,0,0.497,0.151,0.567,0.222c0.074,0.073,0.424,0.272,0.424,0.368v3.266c0,0.097-0.35,0.073-0.424,0.145
					c-0.07,0.074-0.47,0-0.567,0h-0.725C304.186,163,304.141,163.074,304.068,163z M309,177h-3v-4h3V177z M309,173h-3v-4h3V173z
					 M309,168h-3v-3h3V168z"/>
			</g>
			<g>
				<path fill="#FFFFFF" d="M427.053,111.766c-0.146,0-0.271,0.055-0.374,0.158c-0.104,0.104-0.156,0.227-0.156,0.371
					c0,0.146,0.053,0.271,0.156,0.375c0.104,0.104,0.228,0.156,0.374,0.156c0.143,0,0.266-0.053,0.364-0.156
					c0.101-0.104,0.15-0.229,0.15-0.375c0-0.145-0.05-0.267-0.15-0.371C427.318,111.82,427.195,111.766,427.053,111.766z"/>
				<path fill="#FFFFFF" d="M421.33,111.766c-0.146,0-0.267,0.055-0.365,0.158c-0.101,0.104-0.15,0.227-0.15,0.371
					c0,0.146,0.05,0.271,0.15,0.375c0.099,0.104,0.22,0.156,0.365,0.156c0.144,0,0.269-0.053,0.372-0.156
					c0.104-0.104,0.156-0.229,0.156-0.375c0-0.145-0.053-0.267-0.156-0.371C421.599,111.82,421.474,111.766,421.33,111.766z"/>
				<path fill="#FFFFFF" d="M424.19,103.387c-8.779,0-15.902,7.125-15.902,15.904c0,8.787,7.123,15.904,15.902,15.904
					c8.78,0,15.902-7.117,15.902-15.904C440.093,110.512,432.971,103.387,424.19,103.387z M418,122.533
					c0,0.39-0.422,0.719-0.688,0.99c-0.266,0.27-0.737,0.406-1.126,0.406s-0.614-0.137-0.886-0.406
					c-0.27-0.271-0.301-0.601-0.301-0.99v-5.83c0-0.381-0.041-0.703,0.229-0.977c0.271-0.272,0.514-0.406,0.902-0.406
					c0.381,0,0.948,0.134,1.22,0.406c0.271,0.273,0.649,0.596,0.649,0.977V122.533z M431,124.607c0,0.414-0.438,0.72-0.727,1.009
					c-0.289,0.29-0.93,0.384-1.337,0.384H428v3.176c0,0.391-0.176,0.719-0.447,0.99s-0.62,0.408-1.01,0.408
					c-0.389,0-0.293-0.137-0.564-0.408c-0.27-0.271,0.021-0.6,0.021-0.99V126h-2v3.176c0,0.391-0.508,0.719-0.779,0.99
					s-0.787,0.408-1.176,0.408c-0.38,0-0.798-0.137-1.071-0.408c-0.27-0.271-0.45-0.648-0.45-1.039L420.465,126h-1.008
					c-0.414,0-0.75-0.094-1.039-0.384c-0.289-0.289-0.418-0.595-0.418-1.009V116h13V124.607z M417.913,115
					c0-1,0.289-1.988,0.867-2.877c0.578-0.891,1.356-1.563,2.332-2.059l-0.962-1.764c-0.064-0.119-0.041-0.204,0.068-0.267
					c0.118-0.056,0.208-0.026,0.271,0.083l0.975,1.793c0.858-0.381,1.768-0.571,2.726-0.571s1.866,0.191,2.727,0.571l0.975-1.791
					c0.064-0.109,0.153-0.135,0.271-0.08c0.11,0.063,0.132,0.154,0.069,0.272l-0.963,1.774c0.967,0.497,1.738,1.146,2.319,2.037
					c0.578,0.889,0.865,1.877,0.865,2.877H417.913z M434,122.533c0,0.39-0.268,0.719-0.539,0.99
					c-0.271,0.27-0.668,0.406-1.055,0.406c-0.38,0-0.718-0.137-0.99-0.406c-0.271-0.271-0.416-0.601-0.416-0.99v-5.83
					c0-0.389,0.113-0.717,0.383-0.983c0.273-0.267,0.589-0.399,0.968-0.399c0.387,0,0.844,0.133,1.116,0.399
					c0.271,0.267,0.533,0.595,0.533,0.983V122.533z"/>
			</g>
			<g>
				<path fill="#FFFFFF" d="M364.96,95.969c-5.854,0-10.602,4.748-10.602,10.603c0,5.856,4.748,10.601,10.602,10.601
					c5.855,0,10.603-4.744,10.603-10.601C375.563,100.717,370.815,95.969,364.96,95.969z M365.439,101.508
					c0.364-0.527,0.981-0.895,1.852-1.097c0.005,0.017,0.011,0.042,0.017,0.084c0.008,0.038,0.015,0.065,0.02,0.08
					c0,0.021,0,0.044,0.002,0.073c0.005,0.031,0.005,0.055,0.005,0.072c0,0.303-0.072,0.637-0.216,1.007
					c-0.148,0.371-0.377,0.713-0.688,1.024c-0.265,0.266-0.53,0.443-0.798,0.533c-0.182,0.053-0.441,0.097-0.771,0.123
					C364.877,102.674,365.066,102.041,365.439,101.508z M369.206,111.257c-0.636,0.967-1.27,1.452-1.903,1.452
					c-0.241,0-0.585-0.08-1.035-0.24c-0.424-0.156-0.796-0.236-1.118-0.236c-0.301,0-0.65,0.084-1.05,0.247
					c-0.4,0.165-0.727,0.25-0.978,0.25c-0.752,0-1.494-0.639-2.229-1.917c-0.723-1.287-1.087-2.529-1.087-3.725
					c0-1.123,0.279-2.047,0.837-2.768c0.55-0.709,1.252-1.066,2.103-1.066c0.355,0,0.791,0.074,1.311,0.225
					c0.513,0.146,0.854,0.221,1.021,0.221c0.221,0,0.573-0.084,1.056-0.252c0.508-0.17,0.933-0.252,1.283-0.252
					c0.586,0,1.114,0.16,1.576,0.48c0.255,0.18,0.513,0.425,0.769,0.74c-0.389,0.33-0.67,0.623-0.841,0.872
					c-0.323,0.465-0.482,0.975-0.482,1.534c0,0.611,0.169,1.164,0.509,1.65c0.342,0.49,0.73,0.801,1.17,0.933
					C369.926,110.021,369.62,110.641,369.206,111.257z"/>
			</g>
			<g>
				<path fill="#FFFFFF" d="M500.188,154.533c-8.637,0-15.644,7.008-15.644,15.646c0,8.644,7.007,15.645,15.644,15.645
					c8.639,0,15.646-7.001,15.646-15.645C515.835,161.541,508.827,154.533,500.188,154.533z M511,175.646
					c0,0.283-0.523,0.48-0.783,0.594c-0.088,0.035-0.367,0.051-0.445,0.051c-0.184,0,0.033-0.064-0.086-0.191L506,172.047v1.67
					c0,0.799-0.748,1.674-1.314,2.24S502.973,177,502.175,177h-7.078c-0.799,0-1.081-0.477-1.647-1.043s-0.449-1.441-0.449-2.24
					v-7.078c0-0.797-0.117-1.35,0.449-1.916c0.566-0.567,0.849-0.723,1.647-0.723h7.078c0.798,0,1.944,0.155,2.511,0.723
					c0.566,0.566,1.314,1.119,1.314,1.916v1.658l3.588-4.041c0.119-0.127,0.038-0.189,0.222-0.189c0.078,0,0.437,0.016,0.523,0.05
					c0.261,0.114,0.667,0.311,0.667,0.593V175.646z"/>
			</g>
			<g>
				<path fill="#FFFFFF" d="M196.33,70.269c-7.439,0-13.476,6.037-13.476,13.476c0,7.445,6.036,13.477,13.476,13.477
					c7.438,0,13.474-6.031,13.474-13.477C209.804,76.306,203.769,70.269,196.33,70.269z M193.798,77.635
					c0.701-0.698,1.545-1.046,2.53-1.046c0.99,0,1.832,0.348,2.532,1.046c0.699,0.701,1.045,1.543,1.045,2.531
					c0,0.986-0.346,1.831-1.045,2.529c-0.7,0.699-1.542,1.049-2.532,1.049c-0.985,0-1.829-0.35-2.53-1.049
					c-0.695-0.698-1.046-1.543-1.046-2.529C192.752,79.178,193.103,78.336,193.798,77.635z M202.209,90.302
					c-0.453,0.433-1.057,0.698-1.808,0.698h-8.144c-0.753,0-1.354-0.266-1.809-0.698c-0.454-0.43-0.681-1.045-0.681-1.79
					c0-0.33,0.013-0.664,0.035-0.977c0.021-0.313,0.063-0.658,0.129-1.023c0.065-0.361,0.149-0.701,0.246-1.014
					c0.102-0.311,0.234-0.615,0.402-0.91c0.166-0.293,0.359-0.547,0.577-0.755c0.217-0.207,0.482-0.374,0.797-0.501
					c0.313-0.121,0.66-0.184,1.038-0.184c0.057,0,0.188,0.064,0.392,0.199s0.436,0.283,0.693,0.447
					c0.26,0.166,0.595,0.314,1.007,0.447c0.414,0.134,0.829,0.201,1.243,0.201c0.417,0,0.833-0.067,1.244-0.201
					c0.413-0.133,0.749-0.281,1.009-0.447c0.257-0.164,0.487-0.313,0.693-0.447c0.204-0.135,0.334-0.199,0.391-0.199
					c0.379,0,0.727,0.062,1.039,0.184c0.314,0.127,0.578,0.293,0.797,0.5c0.216,0.207,0.41,0.462,0.578,0.754
					c0.167,0.295,0.301,0.6,0.4,0.908c0.1,0.313,0.182,0.649,0.246,1.012c0.066,0.365,0.109,0.704,0.131,1.017
					c0.021,0.313,0.034,0.659,0.034,0.989C202.891,89.257,202.663,89.872,202.209,90.302z"/>
			</g>
			<g>
				<path fill="#FFFFFF" d="M242.216,6.74c-8.78,0-15.904,7.124-15.904,15.904c0,8.787,7.124,15.902,15.904,15.902
					c8.779,0,15.902-7.115,15.902-15.902C258.118,13.863,250.995,6.74,242.216,6.74z M241,12.61c0-0.494-0.125-0.921,0.238-1.283
					c0.359-0.36,0.637-0.541,1.132-0.541c0.492,0,1.323,0.18,1.687,0.541c0.357,0.362,0.943,0.789,0.943,1.283v9.122
					c0,0.491-0.662,0.921-1.02,1.283c-0.363,0.359-1.03,0.541-1.522,0.541c-0.495,0-0.739-0.182-1.099-0.541
					c-0.363-0.362-0.359-0.792-0.359-1.283V12.61z M252.292,27.801c-0.58,1.35-1.359,2.513-2.338,3.492
					c-0.979,0.979-2.143,1.755-3.492,2.337c-1.35,0.579-2.764,0.868-4.244,0.868c-1.482,0-2.899-0.289-4.248-0.868
					c-1.348-0.582-2.515-1.358-3.49-2.337c-0.979-0.979-1.759-2.142-2.338-3.492c-0.58-1.347-0.871-2.764-0.871-4.246
					c0-1.729,0.383-3.357,1.148-4.888c0.763-1.531,1.84-2.812,3.229-3.849c0.407-0.304,0.862-0.423,1.359-0.356
					c0.5,0.067,0.896,0.304,1.189,0.713c0.304,0.4,0.42,0.847,0.351,1.347c-0.071,0.5-0.308,0.9-0.705,1.204
					c-0.931,0.704-1.651,1.563-2.158,2.581c-0.509,1.017-0.765,2.101-0.765,3.249c0,0.987,0.194,1.931,0.578,2.829
					c0.385,0.897,0.905,1.674,1.561,2.329c0.657,0.658,1.43,1.178,2.329,1.561c0.898,0.385,1.841,0.579,2.831,0.579
					c0.986,0,1.931-0.193,2.828-0.579c0.896-0.383,1.674-0.903,2.328-1.561c0.654-0.654,1.176-1.432,1.561-2.329
					c0.386-0.897,0.579-1.841,0.579-2.829c0-1.148-0.255-2.232-0.764-3.249s-1.226-1.876-2.159-2.581
					c-0.398-0.304-0.635-0.705-0.706-1.204s0.045-0.947,0.35-1.347c0.295-0.409,0.694-0.646,1.198-0.713
					c0.502-0.067,0.954,0.052,1.352,0.356c1.391,1.037,2.464,2.317,3.23,3.849c0.762,1.531,1.146,3.159,1.146,4.888
					C253.16,25.037,252.871,26.454,252.292,27.801z"/>
			</g>
			<g>
				<path fill="#FFFFFF" d="M284.396,53.063c-10.809,0-19.578,8.769-19.578,19.579c0,10.817,8.77,19.578,19.578,19.578
					s19.578-8.761,19.578-19.578C303.974,61.833,295.204,53.063,284.396,53.063z M276.171,77.735
					c-0.338,0.087-0.744,0.265-1.212,0.265h-0.044c-0.103,0-0.198-0.078-0.288-0.15c-0.09-0.074-0.144-0.196-0.164-0.314
					c-0.008-0.03-0.013-0.069-0.013-0.103c0-0.034,0-0.067,0.007-0.097c0.004-0.027,0.015-0.057,0.029-0.09
					c0.012-0.025,0.023-0.049,0.035-0.07c0.009-0.018,0.023-0.043,0.05-0.076c0.021-0.033,0.041-0.057,0.056-0.072
					c0.013-0.012,0.034-0.039,0.062-0.07c0.028-0.033,0.047-0.053,0.058-0.063c0.046-0.057,0.155-0.176,0.326-0.354
					c0.167-0.18,0.29-0.318,0.367-0.416c0.073-0.1,0.181-0.236,0.318-0.408c0.134-0.174,0.253-0.355,0.352-0.545
					c0.097-0.188,0.192-0.396,0.29-0.619c-1.168-0.679-2.084-1.512-2.754-2.499c-0.667-0.989-1.003-2.04-1.003-3.16
					c0-1.308,0.443-2.518,1.329-3.628c0.881-1.11,2.089-1.988,3.621-2.631c1.525-0.645,3.188-0.966,4.983-0.966
					c1.801,0,3.462,0.321,4.992,0.966c1.527,0.643,2.734,1.521,3.618,2.631s1.326,2.32,1.326,3.628s-0.442,2.516-1.326,3.625
					s-2.091,1.987-3.618,2.634c-1.53,0.643-3.191,0.967-4.992,0.967c-0.806,0-1.636-0.057-2.481-0.207
					C278.928,76.738,277.618,77.361,276.171,77.735z M296.931,75.672c-0.669,0.983-1.587,1.814-2.753,2.492
					c0.093,0.227,0.189,0.43,0.288,0.621c0.1,0.188,0.219,0.37,0.354,0.541c0.137,0.176,0.242,0.313,0.315,0.409
					c0.074,0.101,0.201,0.241,0.369,0.419c0.168,0.179,0.277,0.296,0.323,0.354c0.01,0.008,0.03,0.028,0.057,0.063
					c0.028,0.031,0.049,0.055,0.063,0.069s0.032,0.036,0.059,0.071c0.021,0.034,0.039,0.058,0.047,0.078
					c0.01,0.018,0.023,0.041,0.035,0.07c0.016,0.027,0.026,0.057,0.029,0.084c0.005,0.029,0.005,0.061,0.005,0.094
					c0,0.031-0.003,0.063-0.011,0.09c-0.03,0.131-0.09,0.236-0.185,0.311c-0.096,0.076-0.198,0.108-0.312,0.1
					c-0.468-0.067-0.872-0.141-1.215-0.225c-1.448-0.378-2.754-0.979-3.918-1.809c-0.851,0.152-1.681,0.226-2.486,0.226
					c-2.549,0-4.771-0.622-6.659-1.862c0.543,0.039,0.959,0.057,1.238,0.057c1.516,0,2.971-0.211,4.362-0.636
					c1.395-0.422,2.634-1.03,3.726-1.818c1.177-0.866,2.079-1.864,2.71-2.992c0.63-1.129,0.943-2.324,0.943-3.584
					c0-0.728-0.104-1.439-0.324-2.148c1.213,0.669,2.174,1.51,2.88,2.514c0.706,1.006,1.056,2.089,1.056,3.246
					C297.929,73.635,297.599,74.691,296.931,75.672z"/>
			</g>
			<g>
				<path fill="#FFFFFF" d="M466.747,244.399c-5.852,0-10.6,4.748-10.6,10.603c0,5.857,4.748,10.6,10.6,10.6
					c5.855,0,10.604-4.742,10.604-10.6C477.351,249.147,472.603,244.399,466.747,244.399z M471.985,250.408l-4.809,9.619
					c-0.084,0.176-0.229,0.264-0.43,0.264c-0.023,0-0.063-0.004-0.113-0.015c-0.109-0.022,0.169-0.081,0.101-0.169
					c-0.066-0.088,0.266-0.187,0.266-0.297V255h-5.063c-0.11,0-0.208,0.206-0.298,0.139c-0.086-0.066-0.143-0.036-0.167-0.146
					c-0.026-0.109-0.016-0.155,0.03-0.257c0.044-0.098,0.117-0.146,0.216-0.194l9.621-4.796c0.066-0.035,0.139-0.043,0.218-0.043
					c0.137,0,0.248,0.049,0.338,0.145c0.078,0.07,0.123,0.158,0.14,0.262C472.055,250.212,472.035,250.313,471.985,250.408z"/>
			</g>
			<g>
				<path fill="#FFFFFF" d="M317.167,0.923c-12.702,0-23.01,10.308-23.01,23.011c0,12.713,10.308,23.009,23.01,23.009
					c12.704,0,23.008-10.295,23.008-23.009C340.175,11.231,329.871,0.923,317.167,0.923z M325.151,31.188
					c-0.348,0.586-3.301,1.917-8.571,1.97s-7.879-1.863-7.879-1.863l0.027-9.05l7.585,3.168l8.863-3.168
					C325.177,22.245,325.177,30.443,325.151,31.188z M325.424,33.133c0,0,0.989-5.295,1.097-5.88
					c-0.932-1.065,0.251-1.674,0.251-1.674l0.41-5.131L329,20.062v5.324c1,0.772-0.16,1.784-0.16,1.784s0.685,4.898,0.87,5.989
					C327.261,34.49,325.424,33.133,325.424,33.133z M332,18.625l-3,1.171v-0.213l-9.865-3.194c0,0-1.251-1.118-3.618-0.319
					c-1.677,1.411,1.21,2.156,2.674,1.65c1.038,0.266,8.06,2.768,8.06,2.768l-9.854,3.566c0,0-13.463-5.457-13.423-5.522
					l-0.037-1.072l13.787-4.954L332,17.4V18.625z"/>
			</g>
		</g>
	</g>
</g>
<g id="logo">
</g>
</svg>
