<?xml version="1.0" encoding="utf-8"?>
<!-- Generator: Adobe Illustrator 16.0.0, SVG Export Plug-In . SVG Version: 6.00 Build 0)  -->
<!DOCTYPE svg PUBLIC "-//W3C//DTD SVG 1.1//EN" "http://www.w3.org/Graphics/SVG/1.1/DTD/svg11.dtd">
<svg version="1.1" xmlns="http://www.w3.org/2000/svg" xmlns:xlink="http://www.w3.org/1999/xlink" x="0px" y="0px" width="514px"
	 height="483.077px" viewBox="0 0 514 483.077" enable-background="new 0 0 514 483.077" xml:space="preserve">
<g id="base">
</g>
<g id="fondo">
</g>
<g id="Capa_3">
	<g>
		<g id="lineas_2_">
			<path fill="none" stroke="#439FD8" stroke-width="8" stroke-miterlimit="10" d="M72.971,292.236v-27.557
				c0-5.855,4.746-10.602,10.602-10.602h0.002h51.363c11.709,0,21.203,9.494,21.203,21.203v29.678
				c0,11.711,9.493,21.205,21.203,21.205h-0.467h43.867c11.709,0,21.203,9.494,21.203,21.204v-0.014v135.724"/>
			<path fill="none" stroke="#4FA4DB" stroke-width="8" stroke-miterlimit="10" d="M240.487,20.825v137.834
				c0,11.711-9.493,21.205-21.203,21.205v-0.004h-41.939c-5.855,0-10.602,4.746-10.602,10.602v46.651
				c0,11.71,9.493,21.205,21.202,21.205c23.424,0,42.41,18.987,42.41,42.409l-0.003,0.001v182.35"/>
			<g>
				<path fill="none" stroke="#E84280" stroke-width="8" stroke-miterlimit="10" d="M329.55,275.282
					c0-11.71,9.495-21.206,21.204-21.206h106.013"/>
				<path fill="none" stroke="#E84280" stroke-width="8" stroke-miterlimit="10" d="M287.139,483.077V317.689v-0.004
					c0-11.708,9.494-21.202,21.205-21.202v0.001c11.712,0,21.206-9.494,21.206-21.205l-0.006-0.006V190.46l0.004,0.006
					c0-11.712-9.493-21.205-21.204-21.205h-4.246c-11.71,0-21.203-9.494-21.203-21.204V71.722"/>
			</g>
			<g>
				<path fill="none" stroke="#E98FBB" stroke-width="8" stroke-miterlimit="10" d="M274.113,483.077V232.875
					c0-11.711-9.494-21.205-21.205-21.205l-16.66-0.006c-23.424,0-42.409-18.987-42.409-42.408V88.682"/>
				<path fill="none" stroke="#E98FBB" stroke-width="8" stroke-miterlimit="10" d="M422.537,118.368
					c-23.42,0-42.407,18.988-42.407,42.411v0.005c0,35.131-28.479,63.609-63.609,63.609c-23.423,0-42.407,18.986-42.407,42.407"/>
			</g>
			<g>
				<path fill="none" stroke="#94AAD8" stroke-width="8" stroke-miterlimit="10" d="M251.333,483.077V338.892v-0.004
					c0-35.13,28.479-63.61,63.61-63.61l48.518,0.001c35.131,0,63.611-28.479,63.611-63.61v-21.203"/>
				<path fill="none" stroke="#94AAD8" stroke-width="8" stroke-miterlimit="10" d="M427.07,190.459
					c0-11.71,9.494-21.204,21.203-21.204h50.901"/>
				<path fill="none" stroke="#94AAD8" stroke-width="8" stroke-miterlimit="10" d="M427.078,190.458
					c0-11.708-9.493-21.202-21.201-21.202h-0.006c-23.424,0-42.41-18.987-42.41-42.408v-21.199"/>
			</g>
			<path fill="none" stroke="#EB649E" stroke-width="8" stroke-miterlimit="10" d="M276.535,483.077V377.064v-0.001
				c0-23.424,18.987-42.411,42.408-42.411l27.729-0.001v-0.005c23.422,0,42.408-18.987,42.408-42.41l0.001-59.361
				c0-23.421-18.985-42.408-42.409-42.408h-59.533l0,0c-11.71,0-21.203-9.495-21.203-21.205v-38.171
				c0-11.711,9.493-21.205,21.202-21.205h8.479h0.003c11.708,0,21.202-9.494,21.202-21.205v-50.89"/>
			<g>
				<path fill="none" stroke="#C8A6CE" stroke-width="8" stroke-miterlimit="10" d="M117.506,194.703
					c0-23.421-18.986-42.408-42.409-42.408H24.374"/>
				<path fill="none" stroke="#C8A6CE" stroke-width="8" stroke-miterlimit="10" d="M264.202,483.077V317.689
					c0-46.845-37.976-84.819-84.817-84.819H134.47l-0.003,0.003c-9.372,0-16.971-7.597-16.971-16.968v-67.852v-0.001
					c0-11.711,9.494-21.205,21.202-21.205h12.739c5.854,0,10.602-4.747,10.602-10.604V63.236"/>
			</g>
		</g>
		<g id="circulos_iconos_2_">
			<path fill="#E98FBB" d="M181.354,82.821c0-7.439,6.036-13.476,13.476-13.476c7.438,0,13.474,6.037,13.474,13.476
				c0,7.445-6.035,13.476-13.474,13.476C187.39,96.297,181.354,90.267,181.354,82.821z"/>
			<path fill="#E84280" d="M263.316,71.719c0-10.81,8.77-19.579,19.578-19.579s19.578,8.769,19.578,19.579
				c0,10.817-8.77,19.578-19.578,19.578S263.316,82.536,263.316,71.719z"/>
			<circle fill="#94AAD8" cx="363.459" cy="105.648" r="10.602"/>
			<path fill="#94AAD8" d="M483.044,169.255c0-8.638,7.007-15.646,15.644-15.646c8.639,0,15.646,7.008,15.646,15.646
				c0,8.644-7.008,15.645-15.646,15.645C490.051,184.9,483.044,177.899,483.044,169.255z"/>
			<path fill="#E84280" d="M454.646,254.078c0-5.854,4.748-10.602,10.6-10.602c5.855,0,10.604,4.748,10.604,10.602
				c0,5.857-4.748,10.601-10.604,10.601C459.395,264.679,454.646,259.936,454.646,254.078z"/>
			<path fill="#E84280" d="M282.895,168.199c0-8.78,7.122-15.904,15.901-15.904c8.782,0,15.903,7.124,15.903,15.904
				c0,8.786-7.121,15.904-15.903,15.904C290.017,184.103,282.895,176.985,282.895,168.199z"/>
			<path fill="#4FA4DB" d="M192.875,271.03c0-14.633,11.874-26.506,26.506-26.506c14.633,0,26.506,11.874,26.506,26.506
				c0,14.646-11.873,26.506-26.506,26.506C204.749,297.536,192.875,285.675,192.875,271.03z"/>
			<path fill="#439FD8" d="M57.068,280.582c0-8.78,7.125-15.904,15.902-15.904c8.781,0,15.903,7.125,15.903,15.904
				c0,8.787-7.122,15.904-15.903,15.904C64.193,296.486,57.068,289.369,57.068,280.582z"/>
			<path fill="#C8A6CE" d="M145.688,63.239c0-8.781,7.124-15.904,15.904-15.904s15.903,7.124,15.903,15.904
				c0,8.787-7.123,15.903-15.903,15.903S145.688,72.026,145.688,63.239z"/>
			<path fill="#4FA4DB" d="M224.811,21.721c0-8.781,7.124-15.904,15.904-15.904c8.779,0,15.902,7.124,15.902,15.904
				c0,8.787-7.123,15.902-15.902,15.902C231.935,37.623,224.811,30.507,224.811,21.721z"/>
			<path fill="#EB649E" d="M292.656,23.011C292.656,10.308,302.964,0,315.666,0c12.704,0,23.008,10.308,23.008,23.011
				c0,12.713-10.304,23.009-23.008,23.009C302.964,46.02,292.656,35.724,292.656,23.011z"/>
			<path fill="#E98FBB" d="M406.787,118.368c0-8.78,7.123-15.904,15.902-15.904c8.78,0,15.902,7.124,15.902,15.904
				c0,8.787-7.122,15.904-15.902,15.904C413.91,134.272,406.787,127.155,406.787,118.368z"/>
			<path fill="#C8A6CE" d="M-0.336,152.294c0-11.707,9.498-21.206,21.205-21.206s21.202,9.499,21.202,21.206
				c0,11.716-9.495,21.206-21.202,21.206S-0.336,164.011-0.336,152.294z"/>
			<path fill="#EB649E" d="M305.176,333.62c0-15.492,12.57-28.063,28.062-28.063s28.059,12.571,28.059,28.063
				c0,15.505-12.567,28.063-28.059,28.063S305.176,349.125,305.176,333.62z"/>
			<path fill="#E98FBB" d="M226.223,211.664c0-11.707,9.498-21.206,21.204-21.206c11.707,0,21.203,9.5,21.203,21.206
				c0,11.716-9.496,21.205-21.203,21.205C235.721,232.869,226.223,223.38,226.223,211.664z"/>
			<path fill="#94AAD8" d="M401.486,237.112c0-11.708,9.497-21.207,21.203-21.207c11.707,0,21.204,9.499,21.204,21.207
				c0,11.715-9.497,21.205-21.204,21.205C410.983,258.316,401.486,248.827,401.486,237.112z"/>
			<path fill="#439FD8" d="M134.467,292.236c0-11.707,9.497-21.206,21.203-21.206c11.707,0,21.203,9.5,21.203,21.206
				c0,11.716-9.496,21.206-21.203,21.206C143.964,313.441,134.467,303.952,134.467,292.236z"/>
			<path fill="#4FA4DB" d="M147.186,181.983c0-11.707,9.498-21.206,21.204-21.206s21.203,9.5,21.203,21.206
				c0,11.716-9.497,21.205-21.203,21.205S147.186,193.699,147.186,181.983z"/>
		</g>
		<g id="circulos_pequeños_2_">
			<circle fill="#868686" cx="217.512" cy="70.844" r="5.301"/>
			<circle fill="#868686" cx="46.96" cy="246.88" r="5.302"/>
			<path fill="#868686" d="M49.578,104.943c0-2.928,2.376-5.302,5.301-5.302c2.928,0,5.303,2.374,5.303,5.302
				c0,2.928-2.375,5.301-5.303,5.301C51.954,110.244,49.578,107.871,49.578,104.943z"/>
			<circle fill="#868686" cx="174.19" cy="142.197" r="5.302"/>
			<circle fill="#868686" cx="142.273" cy="214.507" r="5.301"/>
			<circle fill="#868686" cx="254.979" cy="246.921" r="5.301"/>
			<path fill="#868686" d="M400.714,321.684c0-2.928,2.376-5.302,5.301-5.302c2.929,0,5.304,2.374,5.304,5.302
				c0,2.929-2.375,5.3-5.304,5.3C403.09,326.984,400.714,324.613,400.714,321.684z"/>
			<circle fill="#868686" cx="339.69" cy="134.178" r="5.302"/>
			<circle fill="#868686" cx="370.609" cy="40.425" r="5.301"/>
			<circle fill="#868686" cx="399.035" cy="215.464" r="5.301"/>
			<circle fill="#868686" cx="420.479" cy="154.125" r="3.306"/>
			<circle fill="#868686" cx="439.927" cy="72.654" r="3.306"/>
			<circle fill="#868686" cx="282.341" cy="207.485" r="3.306"/>
			<circle fill="#868686" cx="253.666" cy="178.811" r="3.306"/>
			<circle fill="#868686" cx="117.276" cy="315.701" r="3.306"/>
			<circle fill="#868686" cx="203.548" cy="353.102" r="3.306"/>
			<circle fill="#868686" cx="174.625" cy="97.774" r="3.306"/>
			<circle fill="#868686" cx="104.371" cy="74.468" r="3.306"/>
			<circle fill="#868686" cx="89.895" cy="203.987" r="3.306"/>
			<circle fill="#868686" cx="244.939" cy="301.737" r="3.306"/>
			<circle fill="#868686" cx="339.69" cy="84.31" r="3.306"/>
			<circle fill="#868686" cx="484.494" cy="223.942" r="3.307"/>
		</g>
		<g id="iconos_2_">
			<g>
				<path fill="#FFFFFF" d="M232.63,262.748c0,2.673-0.887,4.986-2.664,6.936c-0.777,0.845-1.421,1.596-1.929,2.251
					c-0.508,0.656-1.022,1.479-1.54,2.472c-0.517,0.992-0.813,1.919-0.88,2.783c0.811,0.483,1.216,1.19,1.216,2.12
					c0,0.64-0.217,1.192-0.646,1.657c0.429,0.466,0.646,1.019,0.646,1.656c0,0.897-0.389,1.596-1.162,2.097
					c0.222,0.396,0.336,0.802,0.336,1.217c0,0.792-0.271,1.404-0.814,1.836c-0.544,0.432-1.213,0.647-2.008,0.647
					c-0.346,0.759-0.862,1.362-1.553,1.811c-0.69,0.448-1.44,0.672-2.253,0.672c-0.809,0-1.56-0.225-2.249-0.672
					c-0.691-0.449-1.209-1.052-1.554-1.811c-0.795,0-1.462-0.215-2.006-0.647c-0.544-0.432-0.814-1.044-0.814-1.836
					c0-0.415,0.111-0.821,0.336-1.217c-0.776-0.501-1.165-1.2-1.165-2.097c0-0.638,0.216-1.19,0.646-1.656
					c-0.431-0.465-0.646-1.018-0.646-1.657c0-0.93,0.406-1.637,1.217-2.12c-0.068-0.864-0.362-1.791-0.882-2.783
					c-0.517-0.993-1.028-1.816-1.539-2.472c-0.508-0.655-1.15-1.407-1.927-2.251c-1.777-1.95-2.666-4.262-2.666-6.936
					c0-1.709,0.384-3.299,1.152-4.775c0.767-1.475,1.777-2.7,3.028-3.676c1.25-0.973,2.666-1.741,4.243-2.302
					c1.579-0.561,3.188-0.842,4.825-0.842c1.64,0,3.249,0.281,4.827,0.842c1.581,0.561,2.995,1.329,4.246,2.302
					c1.25,0.976,2.259,2.201,3.026,3.676C232.248,259.449,232.63,261.039,232.63,262.748z M229.317,262.748
					c0-1.242-0.296-2.399-0.892-3.469c-0.597-1.068-1.373-1.945-2.329-2.626c-0.958-0.682-2.019-1.216-3.185-1.604
					c-1.164-0.388-2.342-0.582-3.533-0.582c-1.189,0-2.367,0.194-3.531,0.582c-1.163,0.389-2.227,0.923-3.183,1.604
					c-0.957,0.681-1.735,1.558-2.33,2.626c-0.594,1.07-0.892,2.228-0.892,3.469c0,1.742,0.585,3.295,1.759,4.657
					c0.172,0.19,0.436,0.476,0.789,0.855c0.353,0.379,0.616,0.664,0.79,0.854c2.208,2.638,3.425,5.209,3.648,7.711h5.9
					c0.226-2.502,1.441-5.073,3.65-7.711c0.172-0.19,0.436-0.475,0.788-0.854c0.354-0.379,0.617-0.665,0.79-0.855
					C228.733,266.043,229.317,264.49,229.317,262.748z M225.178,262.748c0,0.224-0.083,0.417-0.246,0.581
					c-0.164,0.166-0.356,0.246-0.582,0.246c-0.225,0-0.417-0.081-0.582-0.246c-0.166-0.164-0.245-0.357-0.245-0.581
					c0-0.793-0.467-1.405-1.399-1.838c-0.933-0.431-1.847-0.646-2.744-0.646c-0.222,0-0.418-0.082-0.581-0.247
					c-0.164-0.164-0.245-0.359-0.245-0.583c0-0.223,0.081-0.418,0.245-0.581c0.163-0.163,0.359-0.245,0.581-0.245
					c0.866,0,1.721,0.137,2.578,0.412c0.854,0.277,1.604,0.743,2.249,1.399C224.854,261.074,225.178,261.85,225.178,262.748z"/>
			</g>
			<g>
				<path fill="#FFFFFF" d="M322.835,316.058c3.15-1.836,6.587-2.754,10.315-2.754c3.728,0,7.167,0.918,10.315,2.754
					c3.146,1.836,5.642,4.333,7.479,7.479c1.837,3.148,2.755,6.588,2.755,10.314c0,3.729-0.918,7.165-2.755,10.314
					s-4.333,5.642-7.479,7.477c-3.148,1.842-6.588,2.759-10.315,2.759c-3.729,0-7.165-0.917-10.315-2.759
					c-3.146-1.835-5.642-4.327-7.478-7.477c-1.837-3.149-2.757-6.585-2.757-10.314c0-3.727,0.92-7.166,2.757-10.314
					C317.193,320.391,319.688,317.895,322.835,316.058z M340.479,327.242c-0.032,0.021-0.119,0.104-0.252,0.258
					c-0.134,0.149-0.254,0.235-0.362,0.252c0.038,0,0.077-0.045,0.121-0.132c0.046-0.091,0.089-0.192,0.136-0.296
					c0.042-0.108,0.073-0.169,0.093-0.187c0.107-0.125,0.305-0.261,0.589-0.403c0.25-0.108,0.711-0.216,1.391-0.32
					c0.606-0.145,1.062-0.046,1.364,0.295c-0.035-0.038,0.05-0.154,0.253-0.349c0.206-0.195,0.337-0.305,0.39-0.32
					c0.055-0.038,0.187-0.079,0.4-0.121c0.217-0.045,0.35-0.111,0.403-0.204l0.054-0.585c-0.216,0.017-0.371-0.046-0.47-0.192
					c-0.1-0.142-0.157-0.327-0.175-0.561c0,0.037-0.053,0.107-0.158,0.215c0-0.123-0.042-0.194-0.122-0.215
					c-0.081-0.016-0.183-0.008-0.309,0.029c-0.125,0.033-0.204,0.042-0.239,0.025c-0.178-0.054-0.313-0.12-0.401-0.2
					c-0.091-0.082-0.162-0.228-0.216-0.444c-0.052-0.211-0.086-0.345-0.105-0.399c-0.036-0.091-0.121-0.182-0.255-0.281
					c-0.134-0.096-0.218-0.192-0.254-0.279c-0.018-0.038-0.039-0.087-0.067-0.15c-0.025-0.063-0.053-0.12-0.078-0.174
					c-0.029-0.054-0.063-0.099-0.108-0.146c-0.045-0.045-0.093-0.066-0.147-0.066c-0.053,0-0.115,0.046-0.188,0.134
					c-0.071,0.09-0.138,0.178-0.2,0.265c-0.063,0.092-0.102,0.138-0.12,0.138c-0.054-0.038-0.105-0.05-0.161-0.042
					c-0.051,0.008-0.092,0.017-0.12,0.025c-0.027,0.012-0.066,0.038-0.12,0.083c-0.052,0.04-0.097,0.075-0.133,0.091
					c-0.054,0.037-0.131,0.062-0.226,0.083c-0.101,0.016-0.175,0.033-0.229,0.049c0.266-0.086,0.258-0.186-0.025-0.29
					c-0.18-0.071-0.322-0.1-0.43-0.084c0.16-0.069,0.228-0.178,0.203-0.318c-0.029-0.142-0.105-0.267-0.229-0.374h0.134
					c-0.019-0.071-0.094-0.15-0.229-0.229c-0.134-0.079-0.289-0.153-0.467-0.228c-0.177-0.07-0.293-0.125-0.35-0.158
					c-0.143-0.092-0.444-0.175-0.91-0.253c-0.463-0.083-0.757-0.088-0.88-0.017c-0.09,0.107-0.133,0.204-0.122,0.283
					c0.009,0.077,0.044,0.203,0.107,0.373c0.062,0.171,0.095,0.282,0.095,0.336c0.017,0.104-0.033,0.221-0.149,0.345
					c-0.115,0.125-0.174,0.231-0.174,0.324c0,0.125,0.125,0.262,0.378,0.411c0.248,0.154,0.337,0.344,0.265,0.578
					c-0.054,0.141-0.195,0.286-0.428,0.428c-0.232,0.141-0.373,0.25-0.427,0.32c-0.091,0.146-0.104,0.307-0.044,0.494
					c0.063,0.192,0.16,0.335,0.284,0.445c0.035,0.033,0.05,0.069,0.039,0.103c-0.009,0.038-0.039,0.079-0.093,0.122
					c-0.054,0.045-0.105,0.083-0.148,0.108c-0.043,0.028-0.102,0.058-0.172,0.095l-0.081,0.054
					c-0.197,0.087-0.382,0.033-0.548-0.163c-0.171-0.194-0.291-0.429-0.361-0.693c-0.127-0.45-0.27-0.715-0.428-0.807
					c-0.412-0.141-0.672-0.133-0.778,0.029c-0.089-0.231-0.454-0.464-1.095-0.698c-0.447-0.157-0.964-0.195-1.553-0.104
					c0.107-0.02,0.107-0.154,0-0.403c-0.124-0.266-0.295-0.373-0.509-0.319c0.054-0.108,0.089-0.265,0.107-0.47
					c0.018-0.203,0.026-0.323,0.026-0.362c0.055-0.232,0.161-0.436,0.321-0.614c0.016-0.018,0.08-0.096,0.186-0.229
					c0.109-0.133,0.19-0.252,0.255-0.361c0.061-0.108,0.068-0.163,0.015-0.163c0.624,0.075,1.069-0.025,1.336-0.292
					c0.09-0.091,0.194-0.239,0.311-0.456c0.114-0.211,0.206-0.365,0.279-0.452c0.161-0.107,0.286-0.158,0.377-0.15
					c0.088,0.008,0.217,0.058,0.387,0.15c0.168,0.087,0.3,0.132,0.387,0.132c0.249,0.017,0.391-0.079,0.415-0.295
					c0.026-0.216-0.039-0.391-0.2-0.535c0.212,0.021,0.241-0.134,0.079-0.454c-0.089-0.125-0.158-0.208-0.214-0.24
					c-0.215-0.071-0.455-0.03-0.722,0.133c-0.146,0.07-0.125,0.14,0.054,0.212c-0.02-0.017-0.104,0.079-0.256,0.282
					c-0.149,0.203-0.296,0.361-0.44,0.469c-0.141,0.108-0.286,0.063-0.428-0.133c-0.018-0.021-0.067-0.141-0.147-0.362
					c-0.081-0.223-0.163-0.344-0.253-0.361c-0.145,0-0.285,0.133-0.43,0.399c0.055-0.142-0.046-0.274-0.293-0.399
					c-0.252-0.125-0.463-0.2-0.643-0.216c0.338-0.212,0.267-0.454-0.214-0.724c-0.127-0.069-0.309-0.115-0.549-0.132
					c-0.241-0.017-0.415,0.017-0.521,0.107c-0.091,0.125-0.139,0.228-0.149,0.308c-0.008,0.079,0.037,0.149,0.136,0.212
					c0.099,0.065,0.193,0.112,0.28,0.149c0.091,0.034,0.19,0.07,0.307,0.108c0.115,0.033,0.19,0.061,0.229,0.079
					c0.248,0.178,0.32,0.304,0.214,0.374c-0.036,0.017-0.109,0.05-0.227,0.095c-0.116,0.042-0.221,0.083-0.308,0.122
					c-0.092,0.032-0.145,0.069-0.161,0.104c-0.055,0.075-0.055,0.199,0,0.377c0.054,0.177,0.036,0.303-0.055,0.373
					c-0.087-0.09-0.17-0.245-0.241-0.469c-0.069-0.224-0.134-0.369-0.187-0.439c0.123,0.158-0.099,0.211-0.67,0.158l-0.267-0.025
					c-0.071,0-0.215,0.016-0.427,0.053c-0.217,0.033-0.397,0.047-0.548,0.025c-0.154-0.017-0.274-0.088-0.36-0.211
					c-0.074-0.146-0.074-0.324,0-0.536c0.017-0.071,0.051-0.093,0.105-0.054c-0.074-0.054-0.17-0.138-0.296-0.253
					c-0.125-0.116-0.215-0.191-0.267-0.229c-0.82,0.271-1.659,0.636-2.515,1.098c0.105,0.021,0.212,0.007,0.319-0.025
					c0.09-0.037,0.204-0.095,0.35-0.175c0.142-0.079,0.23-0.129,0.266-0.149c0.607-0.25,0.98-0.312,1.126-0.188l0.134-0.132
					c0.248,0.287,0.428,0.512,0.535,0.67c-0.127-0.071-0.395-0.081-0.805-0.025c-0.356,0.107-0.553,0.211-0.587,0.319
					c0.124,0.217,0.169,0.375,0.134,0.482c-0.071-0.054-0.176-0.141-0.307-0.265c-0.135-0.125-0.266-0.224-0.391-0.294
					c-0.126-0.072-0.26-0.118-0.4-0.134c-0.287,0-0.482,0.009-0.589,0.025c-2.607,1.428-4.7,3.406-6.286,5.94
					c0.122,0.125,0.231,0.195,0.319,0.212c0.072,0.021,0.116,0.1,0.134,0.24c0.015,0.146,0.041,0.242,0.065,0.296
					c0.03,0.053,0.129,0.029,0.308-0.079c0.163,0.14,0.189,0.311,0.083,0.506c0.017-0.017,0.406,0.224,1.176,0.722
					c0.339,0.304,0.526,0.49,0.562,0.562c0.053,0.199-0.035,0.357-0.267,0.481c-0.019-0.034-0.099-0.117-0.241-0.241
					c-0.142-0.124-0.225-0.158-0.241-0.104c-0.054,0.089-0.05,0.253,0.014,0.494c0.062,0.241,0.157,0.354,0.282,0.332
					c-0.125,0-0.212,0.146-0.256,0.429c-0.045,0.286-0.066,0.603-0.066,0.951c0,0.349-0.01,0.558-0.027,0.627l0.054,0.029
					c-0.054,0.212-0.005,0.519,0.146,0.924c0.154,0.401,0.346,0.571,0.578,0.521c-0.232,0.05-0.053,0.437,0.535,1.146
					c0.105,0.146,0.177,0.225,0.213,0.242c0.054,0.037,0.163,0.103,0.321,0.203c0.16,0.096,0.293,0.188,0.4,0.266
					c0.109,0.084,0.196,0.174,0.27,0.283c0.069,0.086,0.159,0.29,0.267,0.603c0.109,0.312,0.231,0.517,0.375,0.627
					c-0.035,0.107,0.05,0.286,0.254,0.535s0.299,0.454,0.283,0.613c-0.02,0-0.045,0.01-0.068,0.026
					c-0.029,0.021-0.05,0.03-0.066,0.03c0.051,0.122,0.191,0.248,0.413,0.374c0.224,0.124,0.363,0.24,0.415,0.348
					c0.017,0.054,0.036,0.141,0.054,0.266c0.017,0.125,0.045,0.225,0.081,0.297c0.035,0.069,0.105,0.09,0.213,0.053
					c0.034-0.356-0.178-0.91-0.642-1.657c-0.269-0.45-0.419-0.707-0.454-0.777c-0.055-0.091-0.104-0.229-0.149-0.416
					c-0.042-0.186-0.085-0.315-0.12-0.386c0.035,0,0.09,0.013,0.16,0.037c0.07,0.03,0.15,0.058,0.229,0.096
					c0.078,0.034,0.148,0.071,0.2,0.108c0.053,0.033,0.072,0.063,0.053,0.079c-0.053,0.124-0.034,0.282,0.056,0.47
					c0.089,0.186,0.195,0.349,0.32,0.494c0.123,0.142,0.276,0.312,0.456,0.506c0.179,0.195,0.284,0.312,0.32,0.351
					c0.107,0.106,0.231,0.28,0.373,0.519c0.144,0.24,0.144,0.361,0,0.361c0.163,0,0.34,0.091,0.536,0.27
					c0.195,0.179,0.35,0.356,0.455,0.535c0.09,0.143,0.16,0.374,0.213,0.694c0.055,0.319,0.1,0.535,0.134,0.644
					c0.036,0.126,0.112,0.246,0.228,0.362c0.117,0.115,0.229,0.2,0.335,0.253c0.105,0.055,0.251,0.125,0.431,0.211
					c0.177,0.093,0.292,0.154,0.347,0.188c0.09,0.037,0.253,0.134,0.493,0.282c0.242,0.154,0.433,0.252,0.576,0.308
					c0.18,0.069,0.32,0.107,0.426,0.107c0.111,0,0.238-0.02,0.391-0.066c0.152-0.045,0.272-0.075,0.361-0.097
					c0.268-0.032,0.526,0.101,0.774,0.404c0.25,0.304,0.436,0.489,0.563,0.562c0.642,0.34,1.131,0.436,1.473,0.293
					c-0.037,0.018-0.034,0.084,0.014,0.201c0.041,0.116,0.115,0.253,0.212,0.415c0.099,0.162,0.177,0.291,0.241,0.391
					c0.063,0.095,0.11,0.171,0.146,0.224c0.089,0.108,0.251,0.24,0.483,0.403c0.23,0.161,0.389,0.295,0.482,0.399
					c0.106-0.071,0.167-0.15,0.186-0.238c-0.054,0.142,0.01,0.32,0.187,0.533c0.18,0.216,0.34,0.302,0.482,0.27
					c0.25-0.054,0.375-0.341,0.375-0.856c-0.553,0.267-0.989,0.104-1.311-0.481c0-0.021-0.023-0.067-0.069-0.149
					c-0.043-0.078-0.079-0.153-0.104-0.225c-0.029-0.073-0.05-0.15-0.068-0.228c-0.018-0.082-0.018-0.149,0-0.204
					c0.019-0.05,0.063-0.079,0.133-0.079c0.161,0,0.251-0.029,0.268-0.091c0.018-0.063,0-0.175-0.053-0.337
					c-0.054-0.162-0.089-0.274-0.105-0.35c-0.02-0.142-0.118-0.32-0.296-0.532c-0.18-0.215-0.285-0.349-0.32-0.401
					c-0.089,0.161-0.231,0.232-0.429,0.211c-0.197-0.015-0.339-0.095-0.429-0.235c0,0.015-0.011,0.065-0.04,0.145
					c-0.026,0.078-0.039,0.136-0.039,0.174c-0.232,0-0.366-0.008-0.402-0.029c0.02-0.054,0.041-0.207,0.066-0.465
					c0.029-0.261,0.059-0.462,0.094-0.602c0.019-0.071,0.067-0.179,0.146-0.324c0.081-0.142,0.15-0.271,0.201-0.388
					c0.055-0.115,0.091-0.227,0.105-0.331c0.02-0.108-0.02-0.194-0.12-0.257c-0.096-0.063-0.253-0.084-0.464-0.066
					c-0.34,0.02-0.572,0.197-0.697,0.535c-0.019,0.053-0.045,0.146-0.08,0.282c-0.037,0.133-0.08,0.236-0.134,0.308
					c-0.052,0.07-0.134,0.134-0.24,0.187c-0.127,0.055-0.34,0.071-0.644,0.055c-0.303-0.021-0.518-0.063-0.643-0.134
					c-0.23-0.146-0.433-0.402-0.602-0.776c-0.168-0.374-0.254-0.707-0.254-0.993c0-0.175,0.023-0.411,0.067-0.706
					c0.043-0.295,0.071-0.52,0.081-0.669c0.008-0.153-0.042-0.37-0.148-0.655c0.053-0.038,0.133-0.122,0.242-0.255
					c0.105-0.133,0.195-0.228,0.267-0.282c0.034-0.016,0.075-0.029,0.121-0.041c0.044-0.008,0.084-0.008,0.12,0
					c0.032,0.012,0.071-0.004,0.105-0.037c0.036-0.037,0.064-0.092,0.082-0.162c-0.018-0.019-0.054-0.046-0.107-0.079
					c-0.055-0.055-0.09-0.084-0.109-0.084c0.126,0.055,0.38,0.042,0.764-0.036c0.384-0.08,0.627-0.067,0.736,0.036
					c0.269,0.201,0.462,0.18,0.59-0.05c0-0.021-0.023-0.104-0.068-0.258c-0.045-0.149-0.049-0.27-0.014-0.36
					c0.09,0.481,0.348,0.564,0.775,0.24c0.055,0.053,0.191,0.1,0.417,0.137c0.225,0.035,0.377,0.08,0.47,0.134
					c0.05,0.038,0.113,0.083,0.187,0.147c0.07,0.06,0.12,0.102,0.146,0.119c0.026,0.02,0.069,0.012,0.133-0.014
					c0.063-0.024,0.14-0.083,0.229-0.173c0.178,0.247,0.285,0.465,0.322,0.644c0.196,0.715,0.364,1.104,0.508,1.174
					c0.125,0.055,0.223,0.071,0.295,0.055c0.07-0.018,0.11-0.104,0.12-0.253c0.009-0.154,0.009-0.278,0-0.374
					c-0.01-0.1-0.024-0.211-0.042-0.337l-0.027-0.211c0-0.162,0-0.325,0-0.482l-0.026-0.215c-0.266-0.056-0.431-0.159-0.495-0.322
					c-0.061-0.161-0.048-0.323,0.043-0.492c0.088-0.171,0.221-0.338,0.398-0.496c0.019-0.021,0.091-0.049,0.215-0.095
					c0.125-0.046,0.264-0.104,0.414-0.175c0.151-0.068,0.264-0.142,0.334-0.212c0.375-0.34,0.51-0.652,0.404-0.938
					c0.125,0,0.219-0.081,0.292-0.242c-0.019,0-0.062-0.024-0.135-0.079c-0.07-0.053-0.137-0.099-0.2-0.134
					c-0.062-0.035-0.103-0.053-0.119-0.053c0.162-0.093,0.178-0.233,0.054-0.429c0.09-0.054,0.155-0.153,0.199-0.294
					c0.046-0.142,0.112-0.231,0.201-0.266c0.161,0.212,0.348,0.229,0.563,0.05c0.125-0.143,0.135-0.283,0.025-0.428
					c0.091-0.126,0.274-0.216,0.548-0.279c0.279-0.063,0.444-0.149,0.498-0.253c0.123,0.034,0.197,0.017,0.213-0.054
					s0.025-0.178,0.025-0.324c0-0.141,0.028-0.249,0.084-0.319c0.07-0.088,0.201-0.17,0.397-0.24
					c0.196-0.071,0.313-0.117,0.35-0.134l0.454-0.295c0.054-0.071,0.054-0.107,0-0.107c0.32,0.037,0.6-0.063,0.828-0.295
					c0.179-0.195,0.125-0.374-0.158-0.531c0.052-0.108,0.025-0.192-0.08-0.259c-0.106-0.062-0.242-0.107-0.4-0.145
					c0.051-0.017,0.154-0.021,0.307-0.012c0.15,0.009,0.245-0.004,0.281-0.043c0.269-0.178,0.205-0.318-0.188-0.426
					C341.328,326.833,340.946,326.939,340.479,327.242z M336.121,350.708c3.675-0.644,6.804-2.326,9.391-5.056
					c-0.055-0.053-0.165-0.095-0.332-0.12c-0.171-0.029-0.284-0.059-0.337-0.096c-0.32-0.124-0.534-0.196-0.642-0.211
					c0.017-0.125-0.005-0.242-0.067-0.35s-0.135-0.187-0.213-0.241c-0.079-0.054-0.19-0.125-0.335-0.217
					c-0.143-0.087-0.241-0.149-0.295-0.186c-0.035-0.033-0.098-0.088-0.188-0.159c-0.09-0.069-0.152-0.12-0.187-0.149
					c-0.034-0.024-0.101-0.065-0.201-0.121c-0.099-0.054-0.175-0.069-0.226-0.054c-0.055,0.021-0.145,0.03-0.27,0.03l-0.078,0.023
					c-0.054,0.022-0.104,0.042-0.149,0.066c-0.044,0.03-0.093,0.055-0.146,0.084c-0.054,0.025-0.092,0.054-0.109,0.079
					c-0.016,0.025-0.016,0.05,0,0.067c-0.375-0.305-0.695-0.499-0.962-0.59c-0.087-0.018-0.188-0.067-0.297-0.146
					c-0.105-0.08-0.198-0.143-0.276-0.188c-0.081-0.047-0.171-0.058-0.271-0.042c-0.095,0.021-0.199,0.083-0.306,0.188
					c-0.089,0.09-0.144,0.225-0.16,0.402c-0.02,0.179-0.036,0.295-0.054,0.349c-0.126-0.092-0.126-0.245,0-0.468
					c0.125-0.226,0.143-0.388,0.054-0.495c-0.054-0.108-0.148-0.149-0.281-0.12c-0.134,0.024-0.241,0.065-0.32,0.12
					c-0.081,0.054-0.186,0.129-0.311,0.229c-0.122,0.095-0.204,0.153-0.236,0.171c-0.039,0.02-0.114,0.065-0.229,0.148
					c-0.116,0.079-0.191,0.145-0.228,0.2c-0.056,0.069-0.109,0.179-0.161,0.318c-0.054,0.146-0.098,0.241-0.135,0.296
					c-0.034-0.069-0.137-0.128-0.307-0.174c-0.17-0.041-0.254-0.093-0.254-0.146c0.035,0.179,0.069,0.491,0.109,0.935
					c0.031,0.45,0.076,0.786,0.131,1.018c0.125,0.553,0.016,0.981-0.32,1.284c-0.482,0.448-0.74,0.806-0.775,1.071
					c-0.07,0.392,0.035,0.624,0.318,0.694c0,0.125-0.07,0.308-0.211,0.55c-0.146,0.24-0.207,0.436-0.189,0.576
					C336.066,350.387,336.086,350.531,336.121,350.708z"/>
			</g>
			<g>
				<path fill="#FFFFFF" d="M243.338,211.664c-1.201,0.038-2.187,0.512-2.95,1.425h-1.493c-0.609,0-1.121-0.149-1.537-0.45
					c-0.416-0.3-0.624-0.742-0.624-1.32c0-2.622,0.46-3.933,1.381-3.933c0.044,0,0.206,0.079,0.484,0.235s0.642,0.314,1.086,0.473
					c0.445,0.161,0.888,0.241,1.325,0.241c0.499,0,0.994-0.086,1.482-0.256c-0.037,0.275-0.055,0.519-0.055,0.735
					C242.438,209.844,242.738,210.794,243.338,211.664z M243.027,202.518c0.557,0.557,0.833,1.229,0.833,2.017
					c0,0.785-0.276,1.458-0.833,2.016c-0.557,0.557-1.23,0.834-2.018,0.834s-1.459-0.277-2.016-0.834
					c-0.556-0.559-0.836-1.231-0.836-2.016c0-0.788,0.28-1.46,0.836-2.017c0.557-0.556,1.229-0.836,2.016-0.836
					S242.471,201.961,243.027,202.518z M255.27,218.76c0,0.89-0.271,1.594-0.813,2.11c-0.543,0.515-1.265,0.774-2.162,0.774h-9.735
					c-0.899,0-1.62-0.259-2.161-0.774c-0.543-0.517-0.813-1.221-0.813-2.11c0-0.394,0.012-0.778,0.037-1.154
					c0.026-0.375,0.078-0.78,0.156-1.213c0.078-0.434,0.177-0.837,0.297-1.209c0.118-0.373,0.277-0.733,0.478-1.085
					c0.202-0.354,0.431-0.655,0.69-0.903c0.262-0.25,0.577-0.446,0.953-0.596c0.375-0.149,0.788-0.225,1.242-0.225
					c0.074,0,0.234,0.081,0.479,0.24c0.245,0.161,0.516,0.339,0.814,0.535c0.294,0.197,0.693,0.375,1.19,0.534
					c0.498,0.161,0.999,0.24,1.504,0.24s1.007-0.079,1.505-0.24c0.496-0.159,0.894-0.337,1.191-0.534
					c0.296-0.196,0.566-0.374,0.813-0.535c0.245-0.16,0.404-0.24,0.479-0.24c0.452,0,0.865,0.076,1.241,0.225
					c0.376,0.149,0.693,0.345,0.953,0.596c0.26,0.249,0.49,0.549,0.69,0.903c0.201,0.352,0.36,0.712,0.479,1.085
					c0.118,0.372,0.215,0.775,0.295,1.209c0.078,0.434,0.131,0.838,0.157,1.213C255.256,217.982,255.27,218.366,255.27,218.76z
					 M250.451,205.787c0.835,0.834,1.252,1.842,1.252,3.025c0,1.18-0.417,2.188-1.252,3.023c-0.836,0.836-1.846,1.252-3.024,1.252
					c-1.182,0-2.188-0.416-3.023-1.252c-0.835-0.835-1.253-1.843-1.253-3.023c0-1.183,0.418-2.191,1.253-3.025
					c0.835-0.835,1.842-1.252,3.023-1.252C248.605,204.535,249.615,204.952,250.451,205.787z M255.859,202.518
					c0.557,0.557,0.836,1.229,0.836,2.017c0,0.785-0.279,1.458-0.836,2.016c-0.557,0.557-1.229,0.834-2.017,0.834
					c-0.786,0-1.458-0.277-2.017-0.834c-0.556-0.559-0.835-1.231-0.835-2.016c0-0.788,0.279-1.46,0.835-2.017
					c0.559-0.556,1.23-0.836,2.017-0.836C254.631,201.682,255.303,201.961,255.859,202.518z M258.121,211.318
					c0,0.578-0.207,1.02-0.624,1.32c-0.416,0.301-0.928,0.45-1.537,0.45h-1.493c-0.764-0.913-1.749-1.387-2.953-1.425
					c0.603-0.869,0.903-1.819,0.903-2.851c0-0.216-0.018-0.46-0.056-0.735c0.489,0.17,0.984,0.256,1.481,0.256
					c0.438,0,0.881-0.08,1.326-0.241c0.444-0.159,0.809-0.317,1.085-0.473c0.279-0.156,0.441-0.235,0.486-0.235
					C257.66,207.385,258.121,208.696,258.121,211.318z"/>
			</g>
			<g>
				<path fill="#BBB1B1" d="M495.098,126.698c-1.498,2.191-3.309,4.059-5.434,5.602c0.023,0.313,0.034,0.783,0.034,1.408
					c0,2.908-0.426,5.808-1.274,8.704c-0.851,2.894-2.141,5.673-3.873,8.333c-1.732,2.661-3.796,5.013-6.188,7.058
					c-2.393,2.047-5.276,3.679-8.652,4.898c-3.375,1.219-6.988,1.827-10.832,1.827c-6.059,0-11.604-1.621-16.635-4.863
					c0.783,0.09,1.654,0.134,2.616,0.134c5.03,0,9.513-1.542,13.448-4.627c-2.348-0.045-4.448-0.766-6.305-2.164
					c-1.856-1.397-3.131-3.179-3.823-5.349c0.738,0.113,1.419,0.168,2.046,0.168c0.962,0,1.91-0.123,2.851-0.368
					c-2.504-0.515-4.577-1.763-6.222-3.74c-1.643-1.978-2.464-4.275-2.464-6.892v-0.135c1.521,0.851,3.153,1.308,4.896,1.375
					c-1.477-0.984-2.649-2.269-3.521-3.857c-0.871-1.587-1.307-3.308-1.307-5.164c0-1.968,0.49-3.789,1.476-5.467
					c2.704,3.331,5.997,5.998,9.876,7.998c3.878,2.001,8.031,3.115,12.457,3.336c-0.178-0.849-0.266-1.675-0.266-2.48
					c0-2.995,1.056-5.55,3.168-7.663s4.666-3.169,7.662-3.169c3.131,0,5.769,1.14,7.915,3.42c2.437-0.469,4.729-1.341,6.876-2.616
					c-0.828,2.571-2.416,4.561-4.764,5.97C490.939,128.153,493.02,127.594,495.098,126.698z"/>
			</g>
			<g>
				<path fill="#FFFFFF" d="M166.168,300.574c0.563,0.896,0.672,1.662,0.324,2.302c-0.348,0.639-1.055,0.961-2.123,0.961h-17.398
					c-1.07,0-1.774-0.322-2.124-0.961c-0.347-0.64-0.238-1.405,0.325-2.302l7.598-11.981v-6.024h-0.966
					c-0.261,0-0.489-0.094-0.682-0.287c-0.19-0.189-0.287-0.418-0.287-0.68c0-0.261,0.097-0.489,0.287-0.679
					c0.192-0.192,0.421-0.286,0.682-0.286h7.733c0.262,0,0.487,0.094,0.679,0.286c0.192,0.19,0.286,0.418,0.286,0.679
					c0,0.262-0.094,0.491-0.286,0.68c-0.191,0.193-0.417,0.287-0.679,0.287h-0.966v6.024L166.168,300.574z M154.401,289.621
					l-4.108,6.481h10.755l-4.108-6.481l-0.303-0.467v-0.561v-6.024h-1.933v6.024v0.561L154.401,289.621z"/>
			</g>
			<g>
				<path fill="#FFFFFF" d="M20.073,145.136v4.773c0,0.431-0.157,0.803-0.474,1.117c-0.313,0.316-0.687,0.474-1.117,0.474h-6.363
					c-0.43,0-0.802-0.158-1.119-0.474c-0.313-0.314-0.472-0.687-0.472-1.117v-4.773c0-0.43,0.159-0.804,0.472-1.118
					c0.317-0.313,0.689-0.472,1.119-0.472h6.363c0.431,0,0.805,0.159,1.117,0.472C19.916,144.332,20.073,144.706,20.073,145.136z
					 M20.073,154.682v4.771c0,0.43-0.157,0.803-0.474,1.12c-0.313,0.314-0.687,0.471-1.117,0.471h-6.363
					c-0.43,0-0.802-0.157-1.119-0.471c-0.313-0.316-0.472-0.69-0.472-1.12v-4.771c0-0.433,0.159-0.804,0.472-1.119
					c0.317-0.315,0.689-0.474,1.119-0.474h6.363c0.431,0,0.805,0.158,1.117,0.474C19.916,153.878,20.073,154.249,20.073,154.682z
					 M31.207,145.136v4.773c0,0.431-0.156,0.803-0.472,1.117c-0.314,0.316-0.688,0.474-1.118,0.474h-6.362
					c-0.432,0-0.804-0.158-1.118-0.474c-0.315-0.314-0.474-0.687-0.474-1.117v-4.773c0-0.43,0.158-0.804,0.474-1.118
					c0.314-0.313,0.687-0.472,1.118-0.472h6.362c0.431,0,0.804,0.159,1.118,0.472C31.051,144.332,31.207,144.706,31.207,145.136z
					 M31.207,154.682v4.771c0,0.43-0.156,0.803-0.472,1.12c-0.314,0.314-0.688,0.471-1.118,0.471h-6.362
					c-0.432,0-0.804-0.157-1.118-0.471c-0.315-0.316-0.474-0.69-0.474-1.12v-4.771c0-0.433,0.158-0.804,0.474-1.119
					c0.314-0.315,0.687-0.474,1.118-0.474h6.362c0.431,0,0.804,0.158,1.118,0.474C31.051,153.878,31.207,154.249,31.207,154.682z"/>
			</g>
			<g>
				<path fill="#FFFFFF" d="M178.37,176.988c0,1.417-0.213,2.58-0.642,3.492l-7.099,15.089c-0.207,0.43-0.516,0.768-0.925,1.015
					c-0.41,0.247-0.85,0.37-1.315,0.37c-0.469,0-0.907-0.123-1.317-0.37c-0.409-0.247-0.712-0.585-0.907-1.015l-7.115-15.089
					c-0.429-0.912-0.642-2.074-0.642-3.492c0-2.755,0.973-5.107,2.923-7.057c1.95-1.949,4.303-2.925,7.059-2.925
					s5.106,0.976,7.058,2.925C177.396,171.881,178.37,174.233,178.37,176.988z M171.918,180.519c0.975-0.975,1.462-2.151,1.462-3.53
					c0-1.376-0.487-2.554-1.462-3.527c-0.976-0.976-2.151-1.464-3.528-1.464c-1.379,0-2.554,0.488-3.53,1.464
					c-0.974,0.973-1.461,2.151-1.461,3.527c0,1.379,0.487,2.555,1.461,3.53c0.977,0.975,2.151,1.461,3.53,1.461
					C169.767,181.98,170.942,181.494,171.918,180.519z"/>
			</g>
			<g>
				<path fill="#FFFFFF" d="M429.983,238.898c0,0.456-0.16,0.843-0.478,1.162l-6.331,6.344c-0.337,0.317-0.728,0.476-1.175,0.476
					c-0.456,0-0.842-0.159-1.16-0.476l-9.223-9.234c-0.326-0.319-0.603-0.752-0.83-1.302c-0.229-0.55-0.343-1.054-0.343-1.508
					v-5.365c0-0.448,0.163-0.834,0.491-1.162c0.324-0.328,0.713-0.491,1.159-0.491h5.366c0.455,0,0.959,0.114,1.508,0.341
					c0.55,0.229,0.99,0.507,1.315,0.834l9.222,9.208C429.823,238.06,429.983,238.451,429.983,238.898z M415.739,232.636
					c0.323-0.323,0.482-0.711,0.482-1.167c0-0.454-0.159-0.844-0.482-1.166c-0.322-0.323-0.713-0.483-1.167-0.483
					c-0.456,0-0.846,0.161-1.167,0.483c-0.321,0.322-0.483,0.712-0.483,1.166c0,0.456,0.162,0.844,0.483,1.167
					c0.321,0.323,0.711,0.484,1.167,0.484C415.026,233.121,415.417,232.959,415.739,232.636z M434.935,238.898
					c0,0.456-0.159,0.843-0.478,1.162l-6.331,6.344c-0.335,0.317-0.726,0.476-1.174,0.476c-0.311,0-0.563-0.061-0.759-0.179
					c-0.199-0.121-0.428-0.313-0.686-0.58l6.063-6.062c0.316-0.319,0.477-0.706,0.477-1.162c0-0.447-0.16-0.838-0.477-1.173
					l-9.222-9.208c-0.327-0.327-0.766-0.604-1.315-0.834c-0.55-0.228-1.055-0.341-1.508-0.341h2.889
					c0.453,0,0.958,0.114,1.508,0.341c0.55,0.229,0.989,0.507,1.314,0.834l9.221,9.208
					C434.775,238.06,434.935,238.451,434.935,238.898z"/>
			</g>
			<g>
				<path fill="#FFFFFF" d="M81.376,272.51c0,1.708-0.26,3.188-0.776,4.433c-0.518,1.244-1.389,2.483-2.611,3.709
					c-0.555,0.551-1.225,1.154-2.006,1.813l-0.208,3.9c-0.013,0.111-0.066,0.203-0.165,0.27l-3.95,2.305
					c-0.05,0.029-0.103,0.041-0.168,0.041c-0.081,0-0.159-0.033-0.235-0.09l-0.658-0.658c-0.089-0.099-0.117-0.206-0.082-0.333
					l0.875-2.839l-2.894-2.893l-2.841,0.874c-0.02,0.009-0.053,0.011-0.093,0.011c-0.096,0-0.175-0.029-0.236-0.093l-0.66-0.662
					c-0.114-0.127-0.132-0.263-0.051-0.399l2.306-3.954c0.069-0.094,0.158-0.149,0.268-0.165l3.902-0.207
					c0.66-0.781,1.263-1.449,1.811-2.004c1.292-1.282,2.52-2.171,3.686-2.659c1.169-0.485,2.647-0.731,4.437-0.731
					c0.099,0,0.181,0.031,0.248,0.1C81.342,272.344,81.376,272.419,81.376,272.51z M78.781,276.177
					c0.192-0.192,0.288-0.427,0.288-0.701s-0.096-0.508-0.288-0.7c-0.191-0.19-0.427-0.288-0.699-0.288
					c-0.275,0-0.51,0.097-0.701,0.288c-0.192,0.192-0.289,0.426-0.289,0.7s0.097,0.509,0.289,0.701
					c0.191,0.191,0.426,0.287,0.701,0.287C78.354,276.464,78.59,276.368,78.781,276.177z"/>
			</g>
			<g>
				<path fill="#FFFFFF" d="M171.083,58.323c0.314,0.447,0.385,0.952,0.212,1.516l-3.235,10.659c-0.146,0.5-0.448,0.923-0.899,1.263
					c-0.45,0.341-0.93,0.512-1.44,0.512h-10.856c-0.604,0-1.187-0.209-1.748-0.63c-0.559-0.419-0.949-0.935-1.17-1.547
					c-0.187-0.524-0.194-1.022-0.023-1.493c0-0.031,0.014-0.137,0.035-0.317c0.023-0.181,0.04-0.326,0.048-0.437
					c0.008-0.062-0.003-0.146-0.035-0.251c-0.032-0.107-0.043-0.183-0.034-0.229c0.014-0.086,0.045-0.17,0.093-0.248
					c0.047-0.077,0.112-0.171,0.194-0.277c0.082-0.105,0.146-0.197,0.193-0.276c0.182-0.298,0.355-0.656,0.53-1.076
					c0.173-0.419,0.289-0.779,0.354-1.077c0.022-0.079,0.022-0.196,0.004-0.352c-0.02-0.158-0.023-0.269-0.004-0.33
					c0.022-0.086,0.088-0.196,0.197-0.331c0.111-0.133,0.178-0.222,0.2-0.27c0.165-0.282,0.329-0.643,0.494-1.081
					c0.165-0.44,0.263-0.793,0.293-1.059c0.01-0.07,0-0.196-0.026-0.377c-0.028-0.18-0.028-0.29,0.003-0.329
					c0.033-0.103,0.119-0.222,0.259-0.359c0.143-0.136,0.229-0.223,0.259-0.264c0.149-0.203,0.318-0.535,0.499-0.994
					c0.187-0.458,0.295-0.837,0.326-1.134c0.006-0.063-0.004-0.162-0.035-0.3c-0.031-0.137-0.039-0.241-0.024-0.311
					c0.015-0.063,0.052-0.133,0.104-0.213c0.057-0.078,0.127-0.168,0.213-0.271c0.086-0.102,0.154-0.184,0.2-0.246
					c0.063-0.094,0.128-0.214,0.194-0.359c0.067-0.146,0.125-0.283,0.176-0.412c0.053-0.128,0.115-0.27,0.189-0.422
					c0.073-0.154,0.15-0.279,0.229-0.376c0.077-0.1,0.183-0.192,0.311-0.279c0.13-0.086,0.271-0.129,0.424-0.134
					c0.153-0.005,0.339,0.018,0.56,0.064l-0.013,0.035c0.298-0.071,0.498-0.107,0.6-0.107h8.952c0.579,0,1.026,0.221,1.341,0.661
					c0.313,0.438,0.384,0.948,0.212,1.528l-3.224,10.657c-0.282,0.933-0.563,1.535-0.84,1.806c-0.28,0.27-0.784,0.406-1.513,0.406
					h-10.221c-0.212,0-0.36,0.058-0.447,0.177c-0.086,0.126-0.091,0.293-0.014,0.504c0.189,0.549,0.754,0.824,1.694,0.824h10.857
					c0.228,0,0.446-0.06,0.659-0.181c0.211-0.121,0.35-0.285,0.412-0.49l3.527-11.609c0.054-0.172,0.075-0.396,0.061-0.67
					C170.688,57.935,170.92,58.103,171.083,58.323z M157.592,61.357c-0.033,0.103-0.023,0.188,0.024,0.265
					c0.047,0.074,0.125,0.11,0.235,0.11h7.151c0.102,0,0.2-0.037,0.299-0.11c0.099-0.077,0.165-0.162,0.194-0.265l0.247-0.752
					c0.031-0.103,0.024-0.192-0.023-0.267c-0.046-0.074-0.124-0.11-0.235-0.11h-7.151c-0.102,0-0.202,0.036-0.299,0.11
					c-0.099,0.075-0.163,0.164-0.195,0.267L157.592,61.357z M158.567,58.345c-0.032,0.103-0.022,0.191,0.024,0.266
					s0.125,0.111,0.234,0.111h7.152c0.102,0,0.201-0.036,0.299-0.111c0.1-0.075,0.164-0.164,0.196-0.266l0.247-0.752
					c0.03-0.101,0.023-0.188-0.025-0.264c-0.047-0.074-0.125-0.11-0.234-0.11h-7.152c-0.1,0-0.201,0.036-0.299,0.11
					c-0.099,0.076-0.163,0.164-0.194,0.264L158.567,58.345z"/>
			</g>
			<g>
				<path fill="#FFFFFF" d="M308.222,161.206v14.501c0,0.393-0.146,0.732-0.432,1.02c-0.287,0.287-0.626,0.43-1.02,0.43h-15.951
					c-0.392,0-0.731-0.144-1.021-0.43c-0.285-0.288-0.429-0.627-0.429-1.02v-14.501c0-0.392,0.144-0.73,0.429-1.02
					c0.289-0.285,0.629-0.43,1.021-0.43h1.45v-1.089c0-0.497,0.178-0.923,0.532-1.278c0.355-0.355,0.781-0.533,1.28-0.533h0.727
					c0.498,0,0.925,0.178,1.279,0.533c0.355,0.354,0.532,0.781,0.532,1.278v1.089h4.351v-1.089c0-0.497,0.177-0.923,0.532-1.278
					c0.355-0.355,0.782-0.533,1.28-0.533h0.725c0.499,0,0.926,0.178,1.28,0.533c0.355,0.354,0.532,0.781,0.532,1.278v1.089h1.45
					c0.394,0,0.732,0.146,1.02,0.43C308.076,160.475,308.222,160.814,308.222,161.206z M290.819,167.37h3.263v-3.263h-3.263V167.37z
					 M290.819,171.72h3.263v-3.626h-3.263V171.72z M290.819,175.707h3.263v-3.262h-3.263V175.707z M295.171,161.932v-3.265
					c0-0.096-0.037-0.181-0.109-0.253c-0.071-0.07-0.155-0.107-0.253-0.107h-0.727c-0.098,0-0.184,0.037-0.254,0.107
					c-0.072,0.073-0.107,0.157-0.107,0.253v3.265c0,0.097,0.035,0.182,0.107,0.253c0.07,0.074,0.156,0.108,0.254,0.108h0.727
					c0.098,0,0.182-0.035,0.253-0.108C295.134,162.114,295.171,162.029,295.171,161.932z M294.809,167.37h3.624v-3.263h-3.624
					V167.37z M294.809,171.72h3.624v-3.626h-3.624V171.72z M294.809,175.707h3.624v-3.262h-3.624V175.707z M299.157,167.37h3.626
					v-3.263h-3.626V167.37z M299.157,171.72h3.626v-3.626h-3.626V171.72z M299.157,175.707h3.626v-3.262h-3.626V175.707z
					 M303.87,161.932v-3.265c0-0.096-0.035-0.181-0.108-0.253c-0.07-0.07-0.156-0.107-0.254-0.107h-0.725
					c-0.099,0-0.184,0.037-0.255,0.107c-0.071,0.073-0.109,0.157-0.109,0.253v3.265c0,0.097,0.038,0.182,0.109,0.253
					c0.071,0.074,0.156,0.108,0.255,0.108h0.725c0.098,0,0.184-0.035,0.254-0.108C303.835,162.114,303.87,162.029,303.87,161.932z
					 M303.508,167.37h3.263v-3.263h-3.263V167.37z M303.508,171.72h3.263v-3.626h-3.263V171.72z M303.508,175.707h3.263v-3.262
					h-3.263V175.707z"/>
			</g>
			<g>
				<path fill="#FFFFFF" d="M414.541,114.396c0.381,0,0.705,0.134,0.977,0.406c0.271,0.273,0.405,0.596,0.405,0.977v5.83
					c0,0.39-0.133,0.719-0.399,0.991c-0.266,0.27-0.594,0.406-0.982,0.406s-0.719-0.136-0.989-0.406
					c-0.271-0.271-0.406-0.601-0.406-0.991v-5.83c0-0.381,0.136-0.704,0.406-0.977C413.822,114.531,414.152,114.396,414.541,114.396
					z M425.768,109.163c0.967,0.497,1.738,1.191,2.319,2.082c0.578,0.889,0.865,1.863,0.865,2.922h-12.54
					c0-1.059,0.289-2.033,0.867-2.922c0.578-0.891,1.356-1.585,2.332-2.082l-0.962-1.775c-0.064-0.118-0.041-0.209,0.068-0.272
					c0.118-0.055,0.208-0.029,0.271,0.08l0.975,1.792c0.858-0.38,1.768-0.572,2.726-0.572s1.866,0.191,2.727,0.572l0.975-1.792
					c0.064-0.109,0.153-0.135,0.271-0.08c0.11,0.063,0.132,0.154,0.069,0.272L425.768,109.163z M428.912,114.655v9.029
					c0,0.414-0.144,0.769-0.434,1.058c-0.289,0.29-0.636,0.432-1.043,0.432h-1.018v3.079c0,0.39-0.135,0.719-0.407,0.991
					c-0.271,0.271-0.6,0.407-0.989,0.407c-0.389,0-0.72-0.137-0.99-0.407c-0.27-0.272-0.406-0.601-0.406-0.991v-3.079h-1.871v3.079
					c0,0.39-0.135,0.719-0.407,0.991c-0.271,0.271-0.601,0.407-0.989,0.407c-0.38,0-0.704-0.137-0.978-0.407
					c-0.271-0.272-0.404-0.601-0.404-0.991l-0.012-3.079h-1.008c-0.414,0-0.767-0.143-1.056-0.432
					c-0.289-0.289-0.434-0.644-0.434-1.058v-9.029H428.912z M419.464,111.746c0.099,0.104,0.22,0.156,0.365,0.156
					c0.144,0,0.269-0.052,0.372-0.156s0.156-0.228,0.156-0.374c0-0.145-0.053-0.267-0.156-0.371s-0.229-0.158-0.372-0.158
					c-0.146,0-0.267,0.054-0.365,0.158c-0.101,0.104-0.15,0.227-0.15,0.371C419.313,111.518,419.363,111.642,419.464,111.746z
					 M425.178,111.746c0.104,0.104,0.228,0.156,0.374,0.156c0.143,0,0.266-0.052,0.364-0.156c0.101-0.104,0.15-0.228,0.15-0.374
					c0-0.145-0.05-0.267-0.15-0.371c-0.099-0.104-0.222-0.158-0.364-0.158c-0.146,0-0.271,0.054-0.374,0.158
					s-0.156,0.227-0.156,0.371C425.021,111.518,425.074,111.642,425.178,111.746z M432.234,115.78v5.83
					c0,0.39-0.136,0.719-0.406,0.991c-0.272,0.27-0.603,0.406-0.989,0.406c-0.38,0-0.706-0.136-0.979-0.406
					c-0.271-0.271-0.405-0.601-0.405-0.991v-5.83c0-0.389,0.135-0.717,0.405-0.983c0.272-0.267,0.599-0.4,0.979-0.4
					c0.387,0,0.717,0.133,0.989,0.4C432.099,115.063,432.234,115.391,432.234,115.78z"/>
			</g>
			<g>
				<path fill="#FFFFFF" d="M368.615,108.482c-0.19,0.616-0.496,1.235-0.91,1.852c-0.636,0.967-1.27,1.452-1.903,1.452
					c-0.241,0-0.585-0.081-1.035-0.24c-0.424-0.156-0.796-0.237-1.118-0.237c-0.301,0-0.65,0.083-1.05,0.247
					c-0.4,0.165-0.727,0.25-0.978,0.25c-0.752,0-1.494-0.639-2.229-1.917c-0.723-1.287-1.087-2.529-1.087-3.725
					c0-1.123,0.279-2.046,0.837-2.767c0.55-0.709,1.252-1.066,2.103-1.066c0.355,0,0.791,0.073,1.311,0.224
					c0.513,0.146,0.854,0.22,1.021,0.22c0.221,0,0.573-0.083,1.056-0.251c0.508-0.169,0.933-0.252,1.283-0.252
					c0.586,0,1.114,0.161,1.576,0.48c0.255,0.18,0.513,0.425,0.769,0.741c-0.389,0.331-0.67,0.623-0.841,0.872
					c-0.323,0.465-0.482,0.975-0.482,1.535c0,0.611,0.169,1.163,0.509,1.649C367.787,108.04,368.176,108.35,368.615,108.482z
					 M365.833,99.798c0,0.303-0.072,0.637-0.216,1.006c-0.148,0.371-0.377,0.713-0.688,1.024c-0.265,0.266-0.53,0.443-0.798,0.533
					c-0.182,0.053-0.441,0.097-0.771,0.123c0.017-0.734,0.206-1.367,0.579-1.9c0.364-0.527,0.981-0.894,1.852-1.096
					c0.005,0.017,0.011,0.042,0.017,0.084c0.008,0.038,0.015,0.066,0.02,0.08c0,0.02,0,0.043,0.002,0.073
					C365.833,99.756,365.833,99.78,365.833,99.798z"/>
			</g>
			<g>
				<path fill="#BBB1B1" d="M206.574,33.783c0.767,0,1.423,0.271,1.964,0.813c0.543,0.542,0.813,1.197,0.813,1.964v9.72
					c0,0.766-0.271,1.42-0.813,1.964c-0.541,0.542-1.197,0.813-1.964,0.813h-15.271c-0.769,0-1.423-0.271-1.965-0.813
					c-0.541-0.543-0.814-1.198-0.814-1.964v-9.72c0-0.767,0.273-1.421,0.814-1.964c0.542-0.542,1.196-0.813,1.965-0.813h2.43
					l0.553-1.475c0.137-0.354,0.389-0.66,0.754-0.917c0.364-0.257,0.74-0.384,1.123-0.384h5.554c0.383,0,0.756,0.127,1.121,0.384
					c0.366,0.257,0.617,0.563,0.755,0.917l0.554,1.475H206.574z M195.505,44.853c0.95,0.951,2.097,1.427,3.432,1.427
					c1.339,0,2.485-0.476,3.435-1.427c0.95-0.95,1.427-2.093,1.427-3.432s-0.477-2.483-1.427-3.435
					c-0.949-0.949-2.096-1.426-3.435-1.426c-1.335,0-2.481,0.477-3.432,1.426c-0.95,0.952-1.426,2.097-1.426,3.435
					S194.555,43.903,195.505,44.853z M196.73,39.212c0.611-0.611,1.348-0.916,2.206-0.916c0.862,0,1.597,0.305,2.209,0.916
					c0.61,0.612,0.917,1.347,0.917,2.209c0,0.859-0.307,1.595-0.917,2.206c-0.612,0.612-1.347,0.917-2.209,0.917
					c-0.858,0-1.595-0.306-2.206-0.917c-0.61-0.611-0.916-1.347-0.916-2.206C195.814,40.559,196.12,39.824,196.73,39.212z"/>
			</g>
			<g>
				<path fill="#FFFFFF" d="M508.718,163.786v10.938c0,0.283-0.132,0.479-0.393,0.593c-0.087,0.035-0.172,0.051-0.25,0.051
					c-0.184,0-0.334-0.065-0.453-0.191l-4.054-4.053v1.67c0,0.798-0.283,1.48-0.85,2.047c-0.566,0.565-1.247,0.849-2.045,0.849
					h-7.078c-0.799,0-1.481-0.284-2.047-0.849c-0.566-0.567-0.85-1.249-0.85-2.047v-7.079c0-0.797,0.283-1.479,0.85-2.045
					c0.565-0.567,1.248-0.851,2.047-0.851h7.078c0.798,0,1.479,0.284,2.045,0.851c0.566,0.566,0.85,1.248,0.85,2.045v1.658
					l4.054-4.041c0.119-0.127,0.27-0.19,0.453-0.19c0.078,0,0.163,0.016,0.25,0.05C508.586,163.307,508.718,163.503,508.718,163.786
					z"/>
			</g>
			<g>
				<path fill="#FFFFFF" d="M201.39,87.564c0,0.745-0.228,1.335-0.682,1.765c-0.453,0.432-1.057,0.648-1.808,0.648h-8.144
					c-0.753,0-1.354-0.216-1.809-0.648c-0.454-0.43-0.681-1.02-0.681-1.765c0-0.331,0.013-0.652,0.035-0.965
					c0.021-0.313,0.063-0.651,0.129-1.017c0.065-0.362,0.149-0.698,0.246-1.011c0.102-0.31,0.234-0.613,0.402-0.908
					c0.166-0.292,0.359-0.547,0.577-0.754c0.217-0.207,0.482-0.374,0.797-0.5c0.313-0.122,0.66-0.184,1.038-0.184
					c0.057,0,0.188,0.064,0.392,0.199c0.204,0.135,0.436,0.283,0.693,0.447c0.26,0.167,0.595,0.315,1.007,0.447
					c0.414,0.134,0.829,0.201,1.243,0.201c0.417,0,0.833-0.067,1.244-0.201c0.413-0.132,0.749-0.281,1.009-0.447
					c0.257-0.164,0.487-0.313,0.693-0.447c0.204-0.134,0.334-0.199,0.391-0.199c0.379,0,0.727,0.062,1.039,0.184
					c0.314,0.126,0.578,0.293,0.797,0.5c0.216,0.208,0.41,0.462,0.578,0.754c0.167,0.295,0.301,0.599,0.4,0.908
					c0.1,0.313,0.182,0.649,0.246,1.011c0.066,0.366,0.109,0.705,0.131,1.017C201.377,86.912,201.39,87.233,201.39,87.564z
					 M197.359,76.711c0.699,0.702,1.045,1.543,1.045,2.531c0,0.987-0.346,1.832-1.045,2.53c-0.7,0.698-1.542,1.049-2.532,1.049
					c-0.985,0-1.829-0.351-2.53-1.049c-0.695-0.699-1.046-1.543-1.046-2.53c0-0.988,0.351-1.829,1.046-2.531
					c0.701-0.698,1.545-1.045,2.53-1.045C195.817,75.666,196.659,76.013,197.359,76.711z"/>
			</g>
			<g>
				<path fill="#BBB1B1" d="M311.035,249.741c0,0.408-0.129,0.796-0.382,1.166c-0.253,0.374-0.564,0.691-0.943,0.954
					c-1.939,1.347-3.146,2.185-3.623,2.517c-0.052,0.036-0.16,0.113-0.328,0.233c-0.168,0.124-0.306,0.22-0.419,0.295
					c-0.11,0.075-0.243,0.158-0.401,0.251c-0.157,0.093-0.308,0.162-0.445,0.209c-0.14,0.046-0.268,0.07-0.386,0.07H304.1h-0.009
					c-0.119,0-0.249-0.024-0.388-0.07c-0.139-0.047-0.287-0.116-0.443-0.209c-0.159-0.093-0.292-0.176-0.404-0.251
					c-0.11-0.076-0.25-0.171-0.417-0.295c-0.168-0.12-0.279-0.198-0.331-0.233c-0.468-0.332-1.143-0.804-2.026-1.414
					c-0.882-0.613-1.412-0.979-1.585-1.103c-0.321-0.217-0.623-0.515-0.906-0.895c-0.283-0.379-0.427-0.73-0.427-1.056
					c0-0.402,0.107-0.739,0.321-1.007c0.213-0.268,0.521-0.402,0.918-0.402h11.395c0.335,0,0.625,0.121,0.869,0.365
					C310.911,249.108,311.035,249.398,311.035,249.741z M311.035,252.015v6.145c0,0.342-0.124,0.632-0.365,0.875
					c-0.243,0.242-0.533,0.364-0.873,0.364h-11.395c-0.341,0-0.633-0.122-0.875-0.364c-0.242-0.243-0.364-0.533-0.364-0.875v-6.145
					c0.228,0.253,0.488,0.478,0.782,0.673c1.868,1.27,3.15,2.159,3.847,2.671c0.294,0.216,0.532,0.386,0.717,0.507
					c0.182,0.121,0.425,0.245,0.729,0.371c0.306,0.126,0.588,0.191,0.853,0.191h0.009h0.008c0.263,0,0.544-0.065,0.85-0.191
					c0.306-0.125,0.549-0.25,0.732-0.371c0.183-0.122,0.423-0.292,0.717-0.507c0.875-0.635,2.161-1.525,3.854-2.671
					C310.553,252.488,310.813,252.264,311.035,252.015z"/>
			</g>
			<g>
				<path fill="#BBB1B1" d="M143.912,144.684l6.452,6.455l-12.907,12.906h-6.455v-6.453L143.912,144.684z M136.634,162.06
					l1.412-1.413l-3.646-3.643l-1.411,1.411v1.66h1.985v1.986H136.634z M144.748,147.662c0-0.227-0.112-0.341-0.342-0.341
					c-0.104,0-0.191,0.037-0.264,0.109l-8.408,8.408c-0.072,0.072-0.107,0.159-0.107,0.265c0,0.227,0.111,0.34,0.339,0.34
					c0.104,0,0.193-0.036,0.265-0.109l8.408-8.408C144.712,147.854,144.748,147.767,144.748,147.662z M154.506,146.175
					c0,0.546-0.19,1.012-0.574,1.395l-2.575,2.575l-6.454-6.454l2.577-2.56c0.371-0.394,0.836-0.59,1.396-0.59
					c0.547,0,1.018,0.197,1.412,0.59l3.645,3.63C154.315,145.165,154.506,145.637,154.506,146.175z"/>
			</g>
			<g>
				<path fill="#BBB1B1" d="M191.776,214.549c0,0.115-0.066,0.238-0.199,0.372l-2.802,2.732l0.664,3.858
					c0.005,0.035,0.009,0.086,0.009,0.154c0,0.107-0.028,0.199-0.082,0.272c-0.055,0.075-0.131,0.112-0.235,0.112
					c-0.098,0-0.2-0.031-0.309-0.092l-3.464-1.821l-3.464,1.821c-0.114,0.062-0.216,0.092-0.31,0.092
					c-0.108,0-0.19-0.038-0.243-0.112c-0.054-0.073-0.081-0.165-0.081-0.272c0-0.032,0.006-0.083,0.016-0.154l0.664-3.858
					l-2.809-2.732c-0.129-0.139-0.192-0.262-0.192-0.372c0-0.187,0.143-0.306,0.431-0.353l3.875-0.564l1.735-3.51
					c0.098-0.21,0.223-0.317,0.378-0.317c0.153,0,0.278,0.107,0.379,0.317l1.736,3.51l3.872,0.564
					C191.634,214.243,191.776,214.362,191.776,214.549z"/>
			</g>
			<g>
				<path fill="#FFFFFF" d="M251.659,22.632c0,1.481-0.289,2.898-0.868,4.246c-0.58,1.35-1.359,2.513-2.338,3.492
					c-0.979,0.979-2.143,1.755-3.492,2.337c-1.35,0.579-2.764,0.868-4.244,0.868c-1.482,0-2.899-0.289-4.248-0.868
					c-1.348-0.582-2.515-1.358-3.49-2.337c-0.979-0.979-1.759-2.142-2.338-3.492c-0.58-1.347-0.871-2.764-0.871-4.246
					c0-1.729,0.383-3.357,1.148-4.888c0.763-1.531,1.84-2.812,3.229-3.849c0.407-0.304,0.862-0.423,1.359-0.356
					c0.5,0.067,0.896,0.304,1.189,0.713c0.304,0.4,0.42,0.847,0.351,1.347c-0.071,0.5-0.308,0.9-0.705,1.204
					c-0.931,0.704-1.651,1.563-2.158,2.581c-0.509,1.017-0.765,2.101-0.765,3.249c0,0.987,0.194,1.931,0.578,2.829
					c0.385,0.897,0.905,1.674,1.561,2.329c0.657,0.658,1.43,1.178,2.329,1.561c0.898,0.385,1.841,0.579,2.831,0.579
					c0.986,0,1.931-0.193,2.828-0.579c0.896-0.383,1.674-0.903,2.328-1.561c0.654-0.654,1.176-1.432,1.561-2.329
					c0.386-0.897,0.579-1.841,0.579-2.829c0-1.148-0.255-2.232-0.764-3.249s-1.226-1.876-2.159-2.581
					c-0.398-0.304-0.635-0.705-0.706-1.204s0.045-0.947,0.35-1.347c0.295-0.409,0.694-0.646,1.198-0.713
					c0.502-0.067,0.954,0.052,1.352,0.356c1.391,1.037,2.464,2.317,3.23,3.849C251.275,19.275,251.659,20.903,251.659,22.632z
					 M242.539,11.687v9.122c0,0.491-0.182,0.921-0.54,1.283c-0.362,0.359-0.79,0.541-1.282,0.541c-0.495,0-0.924-0.182-1.283-0.541
					c-0.363-0.362-0.543-0.792-0.543-1.283v-9.122c0-0.494,0.18-0.921,0.543-1.283c0.359-0.36,0.788-0.541,1.283-0.541
					c0.492,0,0.92,0.18,1.282,0.541C242.357,10.766,242.539,11.193,242.539,11.687z"/>
			</g>
			<g>
				<path fill="#BBB1B1" d="M35.129,188.346v9.298h-9.297v-9.298H35.129z M35.129,199.505v9.298h-9.297v-9.298H35.129z
					 M27.691,195.785h5.578v-5.577h-5.578V195.785z M27.691,206.929h5.578v-5.565h-5.578V206.929z M31.411,192.065v1.86h-1.859
					v-1.86H31.411z M31.411,203.225v1.859h-1.859v-1.859H31.411z M46.287,188.346v9.298h-9.299v-9.298H46.287z M46.287,199.505
					v5.579h-5.578v-1.859H38.85v5.579h-1.861v-9.298h5.58v1.858h1.86v-1.858H46.287z M38.85,195.785h5.579v-5.577H38.85V195.785z
					 M42.568,192.065v1.86h-1.859v-1.86H42.568z M42.568,206.943v1.86h-1.859v-1.86H42.568z M46.287,206.943v1.86h-1.858v-1.86
					H46.287z"/>
			</g>
			<g>
				<path fill="#BBB1B1" d="M347.535,51.829v2.927c0,0.198-0.073,0.37-0.217,0.514c-0.146,0.145-0.317,0.218-0.515,0.218h-0.732
					c-0.197,0-0.369-0.073-0.513-0.218c-0.146-0.144-0.219-0.315-0.219-0.514v-2.927c0-0.809-0.286-1.499-0.858-2.072
					c-0.57-0.57-1.262-0.856-2.068-0.856c-0.81,0-1.497,0.287-2.07,0.856c-0.571,0.573-0.857,1.263-0.857,2.072v2.194h1.097
					c0.307,0,0.564,0.106,0.779,0.32c0.212,0.213,0.32,0.473,0.32,0.779v6.586c0,0.304-0.108,0.564-0.32,0.778
					c-0.215,0.211-0.473,0.32-0.779,0.32h-10.977c-0.305,0-0.563-0.108-0.776-0.32c-0.213-0.214-0.319-0.474-0.319-0.778v-6.586
					c0-0.306,0.106-0.565,0.319-0.779s0.472-0.32,0.776-0.32h7.684v-2.194c0-1.411,0.501-2.617,1.504-3.62
					c1.004-1.003,2.209-1.502,3.62-1.502c1.41,0,2.616,0.5,3.618,1.502C347.035,49.212,347.535,50.418,347.535,51.829z"/>
			</g>
			<g>
				<path fill="#FFFFFF" d="M289.686,64.342c0.884,1.11,1.326,2.32,1.326,3.628s-0.442,2.516-1.326,3.625s-2.091,1.988-3.618,2.634
					c-1.53,0.643-3.191,0.966-4.992,0.966c-0.806,0-1.636-0.075-2.481-0.225c-1.167,0.825-2.477,1.43-3.924,1.804
					c-0.338,0.087-0.744,0.162-1.212,0.227h-0.044c-0.103,0-0.198-0.04-0.288-0.112c-0.09-0.075-0.144-0.177-0.164-0.295
					c-0.008-0.031-0.013-0.06-0.013-0.093c0-0.034,0-0.063,0.007-0.093c0.004-0.027,0.015-0.054,0.029-0.086
					c0.012-0.025,0.023-0.048,0.035-0.069c0.009-0.018,0.023-0.042,0.05-0.076c0.021-0.033,0.041-0.056,0.056-0.072
					c0.013-0.011,0.034-0.038,0.062-0.069c0.028-0.033,0.047-0.053,0.058-0.063c0.046-0.057,0.155-0.175,0.326-0.354
					c0.167-0.179,0.29-0.317,0.367-0.415c0.073-0.1,0.181-0.237,0.318-0.409c0.134-0.174,0.253-0.355,0.352-0.544
					c0.097-0.188,0.192-0.396,0.29-0.619c-1.168-0.679-2.084-1.512-2.754-2.5c-0.667-0.989-1.003-2.04-1.003-3.16
					c0-1.308,0.443-2.518,1.329-3.628c0.881-1.11,2.089-1.988,3.621-2.631c1.525-0.645,3.188-0.966,4.983-0.966
					c1.801,0,3.462,0.321,4.992,0.966C287.595,62.354,288.802,63.232,289.686,64.342z M296.428,71.582
					c0,1.129-0.33,2.187-0.998,3.167c-0.669,0.983-1.587,1.813-2.753,2.491c0.093,0.227,0.189,0.431,0.288,0.622
					c0.1,0.188,0.219,0.37,0.354,0.541c0.137,0.175,0.242,0.313,0.315,0.409c0.074,0.1,0.201,0.241,0.369,0.419
					s0.277,0.295,0.323,0.353c0.01,0.008,0.03,0.029,0.057,0.063c0.028,0.032,0.049,0.056,0.063,0.07
					c0.015,0.015,0.032,0.037,0.059,0.072c0.021,0.034,0.039,0.057,0.047,0.078c0.01,0.017,0.023,0.041,0.035,0.07
					c0.016,0.028,0.026,0.057,0.029,0.085c0.005,0.029,0.005,0.06,0.005,0.093c0,0.031-0.003,0.063-0.011,0.089
					c-0.03,0.131-0.09,0.237-0.185,0.312c-0.096,0.076-0.198,0.108-0.312,0.099c-0.468-0.067-0.872-0.14-1.215-0.225
					c-1.448-0.378-2.754-0.979-3.918-1.809c-0.851,0.153-1.681,0.226-2.486,0.226c-2.549,0-4.771-0.622-6.659-1.862
					c0.543,0.04,0.959,0.057,1.238,0.057c1.516,0,2.971-0.21,4.362-0.636c1.395-0.422,2.634-1.03,3.726-1.818
					c1.177-0.867,2.079-1.865,2.71-2.992c0.63-1.129,0.943-2.324,0.943-3.584c0-0.728-0.104-1.439-0.324-2.148
					c1.213,0.669,2.174,1.51,2.88,2.514C296.078,69.342,296.428,70.425,296.428,71.582z"/>
			</g>
			<g>
				<path fill="#BBB1B1" d="M145.338,84.386v19.297c0,0.576-0.197,1.087-0.588,1.535c-0.389,0.446-0.884,0.796-1.48,1.043
					c-0.597,0.247-1.193,0.431-1.783,0.55c-0.594,0.122-1.145,0.183-1.664,0.183c-0.517,0-1.07-0.061-1.663-0.183
					c-0.592-0.12-1.185-0.304-1.784-0.55c-0.596-0.247-1.09-0.597-1.48-1.043c-0.393-0.447-0.586-0.958-0.586-1.535
					c0-0.573,0.193-1.083,0.586-1.533c0.391-0.448,0.885-0.794,1.48-1.041c0.6-0.249,1.192-0.433,1.784-0.553
					c0.593-0.12,1.146-0.181,1.663-0.181c1.206,0,2.309,0.225,3.309,0.672v-9.252l-13.234,4.083v12.216
					c0,0.576-0.195,1.087-0.584,1.534c-0.391,0.447-0.885,0.795-1.483,1.042c-0.597,0.247-1.19,0.431-1.782,0.551
					c-0.594,0.123-1.146,0.181-1.664,0.181c-0.517,0-1.07-0.059-1.661-0.181c-0.593-0.12-1.187-0.304-1.784-0.551
					s-1.092-0.595-1.482-1.042c-0.39-0.447-0.586-0.958-0.586-1.534c0-0.574,0.196-1.085,0.586-1.534
					c0.391-0.447,0.885-0.795,1.482-1.043c0.598-0.246,1.191-0.43,1.784-0.55c0.591-0.123,1.145-0.181,1.661-0.181
					c1.208,0,2.309,0.224,3.308,0.672V88.796c0-0.356,0.11-0.681,0.328-0.974c0.219-0.292,0.5-0.497,0.845-0.611l14.335-4.412
					c0.14-0.045,0.299-0.067,0.485-0.067c0.459,0,0.848,0.159,1.171,0.48C145.175,83.536,145.338,83.926,145.338,84.386z"/>
			</g>
			<g>
				<path fill="#BBB1B1" d="M281.465,33.814v2.689c0,0.096-0.033,0.188-0.098,0.277c-0.064,0.087-0.145,0.14-0.241,0.156
					l-2.238,0.337c-0.153,0.438-0.312,0.804-0.472,1.102c0.28,0.406,0.712,0.962,1.295,1.671c0.079,0.096,0.119,0.199,0.119,0.302
					c0,0.104-0.035,0.198-0.107,0.28c-0.219,0.297-0.617,0.733-1.198,1.306c-0.583,0.573-0.959,0.859-1.137,0.859
					c-0.097,0-0.202-0.036-0.315-0.108l-1.67-1.309c-0.355,0.188-0.721,0.34-1.102,0.461c-0.128,1.096-0.244,1.847-0.351,2.25
					c-0.057,0.225-0.202,0.339-0.435,0.339h-2.688c-0.112,0-0.212-0.035-0.296-0.104c-0.085-0.068-0.131-0.155-0.141-0.258
					l-0.337-2.227c-0.396-0.128-0.758-0.279-1.089-0.448l-1.706,1.296c-0.083,0.072-0.182,0.108-0.305,0.108
					c-0.111,0-0.214-0.043-0.302-0.134c-1.016-0.92-1.682-1.595-1.996-2.031c-0.057-0.082-0.085-0.176-0.085-0.28
					c0-0.097,0.033-0.188,0.097-0.279c0.121-0.169,0.326-0.438,0.618-0.804c0.289-0.368,0.509-0.651,0.652-0.853
					c-0.217-0.405-0.384-0.804-0.496-1.198l-2.214-0.328c-0.105-0.014-0.189-0.067-0.254-0.152
					c-0.063-0.085-0.098-0.178-0.098-0.284v-2.685c0-0.098,0.034-0.19,0.098-0.279c0.064-0.089,0.141-0.142,0.229-0.158l2.25-0.337
					c0.114-0.371,0.271-0.743,0.474-1.114c-0.323-0.46-0.755-1.016-1.296-1.67c-0.08-0.097-0.119-0.193-0.119-0.29
					c0-0.082,0.033-0.173,0.106-0.277c0.211-0.292,0.608-0.725,1.192-1.301c0.585-0.577,0.967-0.867,1.143-0.867
					c0.105,0,0.211,0.041,0.315,0.123l1.669,1.294c0.357-0.186,0.724-0.339,1.101-0.459c0.13-1.098,0.248-1.849,0.352-2.252
					c0.058-0.226,0.202-0.339,0.437-0.339h2.688c0.112,0,0.211,0.035,0.295,0.104c0.085,0.069,0.131,0.155,0.14,0.26l0.341,2.228
					c0.393,0.127,0.756,0.278,1.088,0.446l1.719-1.295c0.069-0.071,0.168-0.109,0.29-0.109c0.104,0,0.204,0.041,0.302,0.123
					c1.04,0.958,1.707,1.645,1.997,2.057c0.056,0.064,0.084,0.152,0.084,0.265c0,0.096-0.033,0.19-0.097,0.278
					c-0.122,0.169-0.326,0.438-0.619,0.805c-0.287,0.367-0.508,0.651-0.651,0.852c0.208,0.405,0.374,0.801,0.495,1.187l2.215,0.339
					c0.104,0.018,0.189,0.067,0.254,0.152C281.432,33.616,281.465,33.711,281.465,33.814z M274.363,37.324
					c0.604-0.605,0.904-1.335,0.904-2.188c0-0.857-0.301-1.587-0.904-2.192c-0.605-0.605-1.336-0.908-2.191-0.908
					c-0.856,0-1.586,0.303-2.19,0.908c-0.605,0.605-0.908,1.335-0.908,2.192c0,0.853,0.303,1.583,0.908,2.188
					c0.604,0.604,1.334,0.908,2.19,0.908C273.027,38.232,273.758,37.929,274.363,37.324z"/>
			</g>
			<g>
				<path fill="#BBB1B1" d="M121.796,279.26l-0.819,0.979c-0.07,0.079-0.163,0.128-0.277,0.144h-0.041
					c-0.114,0-0.207-0.031-0.277-0.092l-9.144-7.624l-9.146,7.624c-0.104,0.07-0.209,0.102-0.315,0.092
					c-0.113-0.016-0.207-0.065-0.277-0.144l-0.819-0.979c-0.071-0.088-0.101-0.192-0.092-0.31c0.009-0.119,0.055-0.214,0.146-0.284
					l9.498-7.915c0.283-0.232,0.618-0.345,1.006-0.345c0.387,0,0.722,0.113,1.005,0.345l3.224,2.695v-2.577
					c0-0.124,0.04-0.225,0.12-0.303c0.078-0.081,0.179-0.119,0.304-0.119h2.536c0.122,0,0.225,0.039,0.304,0.119
					c0.078,0.078,0.119,0.18,0.119,0.303v5.391l2.894,2.406c0.089,0.07,0.138,0.166,0.146,0.284
					C121.896,279.068,121.866,279.172,121.796,279.26z M118.849,280.171v6.345c0,0.229-0.084,0.425-0.251,0.592
					c-0.168,0.17-0.365,0.253-0.596,0.253h-5.072v-5.075h-3.384v5.075h-5.077c-0.227,0-0.426-0.083-0.592-0.253
					c-0.166-0.167-0.25-0.363-0.25-0.592v-6.345c0-0.007,0.001-0.021,0.005-0.039c0.006-0.016,0.008-0.032,0.008-0.041l7.598-6.263
					l7.598,6.263C118.844,280.11,118.849,280.137,118.849,280.171z"/>
			</g>
			<g>
				<path fill="#BBB1B1" d="M79.563,221.186c0,0.634-0.281,1.118-0.846,1.453v16.729c0,0.115-0.043,0.214-0.125,0.299
					c-0.085,0.084-0.184,0.125-0.297,0.125h-0.847c-0.114,0-0.214-0.041-0.296-0.125c-0.086-0.085-0.129-0.185-0.129-0.299v-16.729
					c-0.561-0.335-0.844-0.819-0.844-1.453c0-0.466,0.166-0.866,0.496-1.197c0.33-0.33,0.728-0.497,1.195-0.497
					s0.865,0.167,1.197,0.497C79.397,220.32,79.563,220.72,79.563,221.186z M99.016,222.032v10.082c0,0.221-0.057,0.391-0.166,0.51
					c-0.111,0.118-0.285,0.238-0.521,0.363c-1.896,1.022-3.52,1.535-4.877,1.535c-0.538,0-1.081-0.1-1.632-0.293
					c-0.552-0.192-1.028-0.405-1.436-0.634c-0.403-0.228-0.913-0.439-1.526-0.634c-0.61-0.194-1.238-0.292-1.882-0.292
					c-1.692,0-3.733,0.645-6.132,1.931c-0.15,0.079-0.295,0.117-0.437,0.117c-0.229,0-0.427-0.082-0.593-0.25
					c-0.167-0.167-0.252-0.364-0.252-0.594v-9.806c0-0.281,0.137-0.523,0.409-0.726c0.186-0.124,0.533-0.312,1.043-0.569
					c2.08-1.057,3.935-1.585,5.565-1.585c0.942,0,1.822,0.127,2.644,0.385c0.817,0.253,1.782,0.643,2.894,1.161
					c0.334,0.168,0.722,0.25,1.162,0.25c0.476,0,0.992-0.091,1.553-0.275c0.56-0.187,1.044-0.395,1.453-0.623
					c0.41-0.228,0.798-0.435,1.164-0.622c0.364-0.185,0.605-0.276,0.72-0.276c0.229,0,0.426,0.083,0.595,0.251
					C98.932,221.604,99.016,221.803,99.016,222.032z"/>
			</g>
			<g>
				<path fill="#BBB1B1" d="M218.17,114.582h2.695l-0.314,2.976h-2.381v8.632h-3.57v-8.632h-1.781v-2.976h1.781v-1.791
					c0-1.271,0.303-2.234,0.901-2.888c0.603-0.653,1.589-0.979,2.966-0.979h2.378v2.975h-1.489c-0.272,0-0.489,0.023-0.652,0.069
					c-0.167,0.045-0.283,0.127-0.356,0.247c-0.073,0.119-0.121,0.238-0.143,0.361c-0.021,0.122-0.034,0.295-0.034,0.519V114.582z"/>
			</g>
			<g>
				<path fill="#BBB1B1" d="M366.3,292.193v9.799c0,0.354-0.126,0.658-0.378,0.909c-0.254,0.253-0.556,0.38-0.912,0.38h-12.892
					c-0.356,0-0.659-0.126-0.912-0.38c-0.253-0.251-0.379-0.555-0.379-0.909v-9.799c0-0.355,0.126-0.658,0.379-0.913
					c0.253-0.251,0.556-0.378,0.912-0.378h12.892c0.356,0,0.658,0.127,0.912,0.378C366.174,291.535,366.3,291.838,366.3,292.193z
					 M365.01,291.936h-12.892c-0.072,0-0.131,0.025-0.182,0.075c-0.052,0.054-0.078,0.112-0.078,0.183v9.799
					c0,0.069,0.026,0.131,0.078,0.182c0.051,0.049,0.109,0.076,0.182,0.076h12.892c0.07,0,0.133-0.027,0.182-0.076
					c0.053-0.051,0.077-0.113,0.077-0.182v-9.799c0-0.071-0.024-0.129-0.077-0.183C365.143,291.961,365.08,291.936,365.01,291.936z
					 M355.533,293.417c0.302,0.3,0.45,0.666,0.45,1.096s-0.148,0.795-0.45,1.096c-0.3,0.302-0.665,0.453-1.094,0.453
					c-0.433,0-0.796-0.151-1.097-0.453c-0.301-0.301-0.453-0.666-0.453-1.096s0.152-0.796,0.453-1.096
					c0.301-0.301,0.664-0.451,1.097-0.451C354.868,292.966,355.233,293.117,355.533,293.417z M364.237,297.607v3.611H352.89v-1.548
					l2.581-2.578l1.287,1.289l4.127-4.126L364.237,297.607z"/>
			</g>
			<g>
				<path fill="#BBB1B1" d="M368.746,227.349c0.152,0.168,0.184,0.356,0.09,0.56l-6.865,14.704
					c-0.109,0.212-0.287,0.318-0.533,0.318c-0.031,0-0.093-0.009-0.178-0.026c-0.145-0.042-0.252-0.124-0.323-0.239
					c-0.073-0.121-0.093-0.249-0.058-0.383l2.504-10.268l-5.16,1.282c-0.035,0.009-0.084,0.014-0.153,0.014
					c-0.152,0-0.283-0.046-0.394-0.14c-0.152-0.127-0.207-0.292-0.165-0.497l2.555-10.483c0.033-0.119,0.101-0.217,0.202-0.293
					c0.103-0.076,0.221-0.115,0.357-0.115h4.168c0.16,0,0.296,0.054,0.407,0.159c0.11,0.107,0.164,0.231,0.164,0.376
					c0,0.067-0.021,0.143-0.063,0.228l-2.172,5.885l5.031-1.246c0.068-0.017,0.12-0.025,0.154-0.025
					C368.474,227.158,368.619,227.223,368.746,227.349z"/>
			</g>
			<g>
				<path fill="#BBB1B1" d="M471.078,198.006v4.066c0,0.34-0.119,0.629-0.357,0.866c-0.236,0.236-0.524,0.355-0.864,0.355h-4.066
					c-0.339,0-0.626-0.119-0.865-0.355c-0.236-0.237-0.354-0.526-0.354-0.866v-4.066c0-0.341,0.118-0.626,0.354-0.863
					c0.239-0.238,0.526-0.357,0.865-0.357h1.22v-2.439h-6.508v2.439h1.221c0.34,0,0.628,0.119,0.866,0.357
					c0.236,0.237,0.355,0.522,0.355,0.863v4.066c0,0.34-0.119,0.629-0.355,0.866c-0.238,0.236-0.526,0.355-0.866,0.355h-4.065
					c-0.341,0-0.628-0.119-0.864-0.355c-0.238-0.237-0.357-0.526-0.357-0.866v-4.066c0-0.341,0.119-0.626,0.357-0.863
					c0.236-0.238,0.523-0.357,0.864-0.357h1.22v-2.439h-6.508v2.439h1.22c0.339,0,0.627,0.119,0.866,0.357
					c0.236,0.237,0.354,0.522,0.354,0.863v4.066c0,0.34-0.118,0.629-0.354,0.866c-0.239,0.236-0.527,0.355-0.866,0.355h-4.065
					c-0.341,0-0.629-0.119-0.864-0.355c-0.239-0.237-0.356-0.526-0.356-0.866v-4.066c0-0.341,0.117-0.626,0.356-0.863
					c0.235-0.238,0.523-0.357,0.864-0.357h1.218v-2.439c0-0.441,0.161-0.821,0.484-1.144c0.321-0.323,0.703-0.483,1.144-0.483h6.508
					v-2.44h-1.22c-0.341,0-0.628-0.119-0.864-0.355c-0.238-0.238-0.357-0.525-0.357-0.865v-4.065c0-0.341,0.119-0.629,0.357-0.865
					c0.236-0.238,0.523-0.357,0.864-0.357h4.065c0.34,0,0.628,0.119,0.866,0.357c0.236,0.236,0.355,0.524,0.355,0.865v4.065
					c0,0.34-0.119,0.627-0.355,0.865c-0.238,0.237-0.526,0.355-0.866,0.355h-1.221v2.44h6.508c0.441,0,0.822,0.16,1.145,0.483
					c0.32,0.323,0.483,0.703,0.483,1.144v2.439h1.219c0.34,0,0.628,0.119,0.864,0.357
					C470.959,197.38,471.078,197.666,471.078,198.006z"/>
			</g>
			<g>
				<path fill="#BBB1B1" d="M405.615,193.666v2.353c0,0.084-0.03,0.167-0.088,0.249c-0.059,0.079-0.125,0.124-0.204,0.13
					l-1.968,0.307c-0.096,0.295-0.231,0.617-0.408,0.964c0.287,0.409,0.669,0.896,1.143,1.462c0.06,0.085,0.09,0.171,0.09,0.256
					c0,0.1-0.03,0.18-0.09,0.239c-0.193,0.254-0.544,0.634-1.047,1.14c-0.505,0.502-0.839,0.753-0.999,0.753
					c-0.094,0-0.181-0.028-0.266-0.087l-1.462-1.145c-0.313,0.164-0.641,0.292-0.979,0.395c-0.093,0.913-0.189,1.571-0.294,1.968
					c-0.06,0.205-0.186,0.308-0.381,0.308h-2.364c-0.091,0-0.176-0.032-0.254-0.096c-0.074-0.065-0.118-0.139-0.126-0.223
					l-0.292-1.945c-0.289-0.083-0.605-0.215-0.953-0.392l-1.5,1.13c-0.06,0.059-0.146,0.087-0.256,0.087
					c-0.094,0-0.181-0.031-0.266-0.1c-1.221-1.127-1.83-1.804-1.83-2.032c0-0.079,0.029-0.158,0.089-0.243
					c0.085-0.119,0.258-0.343,0.521-0.675c0.264-0.329,0.461-0.587,0.599-0.773c-0.196-0.375-0.345-0.721-0.445-1.042l-1.932-0.305
					c-0.086-0.009-0.156-0.049-0.216-0.122c-0.061-0.071-0.089-0.153-0.089-0.247v-2.352c0-0.085,0.028-0.167,0.089-0.247
					c0.06-0.08,0.127-0.125,0.202-0.133l1.97-0.305c0.096-0.296,0.231-0.618,0.408-0.966c-0.288-0.406-0.671-0.894-1.145-1.462
					c-0.059-0.092-0.088-0.177-0.088-0.254c0-0.101,0.029-0.186,0.088-0.252c0.186-0.254,0.535-0.632,1.043-1.134
					c0.509-0.498,0.842-0.748,1.002-0.748c0.094,0,0.184,0.029,0.268,0.089l1.463,1.144c0.288-0.152,0.613-0.29,0.979-0.406
					c0.093-0.918,0.19-1.568,0.292-1.958c0.06-0.204,0.185-0.305,0.38-0.305h2.364c0.095,0,0.179,0.03,0.255,0.095
					c0.076,0.064,0.119,0.139,0.126,0.222l0.294,1.946c0.288,0.085,0.605,0.215,0.953,0.395l1.498-1.132
					c0.07-0.061,0.154-0.089,0.255-0.089c0.094,0,0.185,0.034,0.269,0.102c1.219,1.126,1.83,1.804,1.83,2.032
					c0,0.077-0.029,0.157-0.09,0.242c-0.102,0.137-0.281,0.365-0.533,0.686c-0.254,0.323-0.446,0.576-0.572,0.762
					c0.195,0.406,0.339,0.754,0.432,1.043l1.932,0.293c0.086,0.017,0.158,0.061,0.217,0.132
					C405.585,193.49,405.615,193.572,405.615,193.666z M399.781,197.124c0.636-0.635,0.953-1.401,0.953-2.301
					c0-0.896-0.317-1.664-0.953-2.3c-0.633-0.635-1.401-0.952-2.299-0.952c-0.898,0-1.665,0.317-2.302,0.952
					c-0.635,0.636-0.953,1.403-0.953,2.3c0,0.9,0.318,1.666,0.953,2.301c0.637,0.635,1.403,0.954,2.302,0.954
					C398.38,198.078,399.148,197.759,399.781,197.124z M413.75,187.427v1.779c0,0.135-0.631,0.266-1.895,0.393
					c-0.101,0.23-0.227,0.449-0.38,0.661c0.433,0.958,0.648,1.542,0.648,1.755c0,0.034-0.019,0.064-0.052,0.087
					c-1.034,0.602-1.559,0.903-1.575,0.903c-0.069,0-0.264-0.198-0.586-0.596c-0.323-0.399-0.541-0.687-0.661-0.866
					c-0.169,0.018-0.296,0.027-0.381,0.027c-0.084,0-0.211-0.009-0.381-0.027c-0.117,0.179-0.339,0.466-0.661,0.866
					c-0.323,0.397-0.517,0.596-0.583,0.596c-0.02,0-0.543-0.301-1.577-0.903c-0.034-0.023-0.052-0.054-0.052-0.087
					c0-0.212,0.217-0.796,0.649-1.755c-0.152-0.212-0.28-0.431-0.381-0.661c-1.263-0.127-1.894-0.258-1.894-0.393v-1.779
					c0-0.136,0.631-0.267,1.894-0.394c0.108-0.246,0.236-0.468,0.381-0.661c-0.433-0.958-0.649-1.542-0.649-1.753
					c0-0.035,0.018-0.065,0.052-0.091c0.032-0.017,0.182-0.102,0.445-0.253c0.261-0.152,0.512-0.297,0.749-0.434
					c0.236-0.134,0.363-0.202,0.383-0.202c0.066,0,0.26,0.196,0.583,0.59c0.322,0.394,0.544,0.681,0.661,0.858
					c0.17-0.016,0.297-0.025,0.381-0.025c0.085,0,0.212,0.009,0.381,0.025c0.432-0.602,0.822-1.077,1.172-1.425l0.075-0.023
					c0.033,0,0.559,0.295,1.575,0.888c0.033,0.026,0.052,0.056,0.052,0.091c0,0.21-0.216,0.794-0.648,1.753
					c0.144,0.192,0.271,0.415,0.38,0.661C413.119,187.16,413.75,187.291,413.75,187.427z M413.75,200.442v1.778
					c0,0.135-0.631,0.267-1.895,0.395c-0.101,0.229-0.227,0.448-0.38,0.662c0.433,0.955,0.648,1.539,0.648,1.753
					c0,0.033-0.019,0.064-0.052,0.088c-1.034,0.601-1.559,0.901-1.575,0.901c-0.069,0-0.264-0.198-0.586-0.597
					c-0.323-0.398-0.541-0.686-0.661-0.864c-0.169,0.018-0.296,0.025-0.381,0.025c-0.084,0-0.211-0.007-0.381-0.025
					c-0.117,0.178-0.339,0.466-0.661,0.864c-0.323,0.398-0.517,0.597-0.583,0.597c-0.02,0-0.543-0.3-1.577-0.901
					c-0.034-0.024-0.052-0.056-0.052-0.088c0-0.214,0.217-0.798,0.649-1.753c-0.152-0.214-0.28-0.433-0.381-0.662
					c-1.263-0.128-1.894-0.259-1.894-0.395v-1.778c0-0.136,0.631-0.27,1.894-0.395c0.108-0.247,0.236-0.466,0.381-0.66
					c-0.433-0.959-0.649-1.543-0.649-1.756c0-0.032,0.018-0.062,0.052-0.088c0.032-0.018,0.182-0.103,0.445-0.254
					c0.261-0.152,0.512-0.297,0.749-0.433c0.236-0.134,0.363-0.203,0.383-0.203c0.066,0,0.26,0.196,0.583,0.591
					c0.322,0.391,0.544,0.678,0.661,0.856c0.17-0.015,0.297-0.024,0.381-0.024c0.085,0,0.212,0.009,0.381,0.024
					c0.432-0.601,0.822-1.076,1.172-1.423l0.075-0.024c0.033,0,0.559,0.296,1.575,0.89c0.033,0.026,0.052,0.056,0.052,0.088
					c0,0.213-0.216,0.797-0.648,1.756c0.144,0.194,0.271,0.414,0.38,0.66C413.119,200.172,413.75,200.306,413.75,200.442z
					 M410.497,188.316c0-0.438-0.162-0.821-0.483-1.144c-0.322-0.321-0.703-0.483-1.145-0.483c-0.44,0-0.822,0.162-1.144,0.483
					c-0.322,0.322-0.481,0.705-0.481,1.144c0,0.45,0.157,0.832,0.475,1.151c0.318,0.318,0.701,0.476,1.15,0.476
					c0.45,0,0.833-0.158,1.151-0.476C410.337,189.148,410.497,188.766,410.497,188.316z M410.497,201.331
					c0-0.442-0.162-0.821-0.483-1.143c-0.322-0.323-0.703-0.483-1.145-0.483c-0.44,0-0.822,0.161-1.144,0.483
					c-0.322,0.321-0.481,0.7-0.481,1.143c0,0.449,0.157,0.832,0.475,1.15c0.318,0.317,0.701,0.478,1.15,0.478
					c0.45,0,0.833-0.161,1.151-0.478C410.337,202.163,410.497,201.78,410.497,201.331z"/>
			</g>
			<g>
				<path fill="#BBB1B1" d="M383.514,66.283c0.82,1.405,1.229,2.944,1.229,4.609c0,1.664-0.408,3.201-1.229,4.606
					c-0.823,1.408-1.936,2.521-3.343,3.341c-1.406,0.821-2.943,1.232-4.606,1.232c-1.666,0-3.202-0.411-4.61-1.232
					c-1.405-0.821-2.519-1.933-3.34-3.341c-0.821-1.406-1.231-2.942-1.231-4.606c0-1.666,0.41-3.204,1.231-4.609
					s1.935-2.521,3.34-3.341c1.408-0.819,2.944-1.232,4.61-1.232c1.663,0,3.2,0.413,4.606,1.232
					C381.578,63.762,382.69,64.877,383.514,66.283z M378.623,76.63v-1.915c0-0.111-0.037-0.203-0.108-0.275
					c-0.071-0.07-0.162-0.106-0.273-0.106h-1.148v-6.12c0-0.113-0.035-0.203-0.108-0.275c-0.07-0.073-0.163-0.107-0.274-0.107
					h-3.825c-0.11,0-0.203,0.035-0.273,0.107c-0.071,0.072-0.109,0.162-0.109,0.275v1.911c0,0.113,0.038,0.205,0.109,0.275
					c0.07,0.073,0.163,0.108,0.273,0.108h1.149v3.826h-1.149c-0.11,0-0.203,0.037-0.273,0.106c-0.071,0.072-0.109,0.164-0.109,0.275
					v1.915c0,0.111,0.038,0.203,0.109,0.274c0.07,0.07,0.163,0.106,0.273,0.106h5.356c0.111,0,0.202-0.037,0.273-0.106
					C378.586,76.833,378.623,76.741,378.623,76.63z M377.093,65.92v-1.916c0-0.11-0.035-0.203-0.108-0.273
					c-0.07-0.072-0.163-0.108-0.274-0.108h-2.294c-0.111,0-0.204,0.036-0.276,0.108c-0.071,0.07-0.105,0.163-0.105,0.273v1.916
					c0,0.109,0.034,0.202,0.105,0.273c0.072,0.072,0.165,0.106,0.276,0.106h2.294c0.111,0,0.204-0.035,0.274-0.106
					C377.058,66.122,377.093,66.03,377.093,65.92z"/>
			</g>
			<g>
				<path fill="#BBB1B1" d="M86.58,185.029c0,1.265-0.449,2.348-1.346,3.244c-0.896,0.897-1.977,1.346-3.244,1.346H68.985
					c-1.476,0-2.736-0.524-3.785-1.571c-1.048-1.049-1.571-2.312-1.571-3.784c0-1.052,0.283-2.016,0.848-2.886
					c0.566-0.875,1.312-1.525,2.236-1.955c-0.017-0.225-0.023-0.396-0.023-0.516c0-1.688,0.597-3.132,1.793-4.327
					c1.194-1.195,2.637-1.793,4.328-1.793c1.258,0,2.399,0.351,3.425,1.052c1.023,0.702,1.77,1.618,2.24,2.75
					c0.558-0.496,1.22-0.743,1.984-0.743c0.845,0,1.565,0.3,2.164,0.899c0.597,0.596,0.896,1.317,0.896,2.162
					c0,0.598-0.164,1.149-0.491,1.65c1.029,0.239,1.877,0.776,2.546,1.608C86.245,182.998,86.58,183.952,86.58,185.029z"/>
			</g>
			<g>
				<path fill="#BBB1B1" d="M354.109,154.946c0.317,0,0.588,0.111,0.811,0.335c0.225,0.224,0.336,0.494,0.336,0.813v14.535
					c0,0.319-0.111,0.589-0.336,0.812c-0.223,0.224-0.493,0.336-0.811,0.336h-11.477c-0.319,0-0.591-0.112-0.813-0.336
					c-0.224-0.222-0.335-0.492-0.335-0.812v-3.443h-6.503c-0.318,0-0.59-0.111-0.813-0.335c-0.223-0.224-0.335-0.495-0.335-0.813
					v-8.033c0-0.318,0.081-0.668,0.24-1.051c0.159-0.383,0.351-0.684,0.574-0.908l4.877-4.878c0.223-0.222,0.525-0.415,0.908-0.574
					s0.734-0.238,1.052-0.238h4.972c0.318,0,0.591,0.112,0.814,0.335c0.221,0.222,0.335,0.493,0.335,0.813v3.921
					c0.541-0.321,1.052-0.479,1.529-0.479H354.109z M342.299,160.636l3.777-3.779v-4.972h-4.591v4.972
					c0,0.32-0.112,0.59-0.335,0.813c-0.223,0.224-0.495,0.334-0.813,0.334h-4.971v7.65h6.119v-3.059
					c0-0.319,0.079-0.669,0.238-1.053C341.885,161.162,342.076,160.859,342.299,160.636z M339.955,152.902l-3.574,3.575h3.574
					V152.902z M353.726,170.246v-13.769h-4.59v4.972c0,0.318-0.111,0.59-0.335,0.813c-0.224,0.223-0.494,0.333-0.813,0.333h-4.973
					v7.649H353.726z M347.606,157.493l-3.574,3.573h3.574V157.493z"/>
			</g>
			<g>
				<path fill="#FFFFFF" d="M470.484,249.484l-4.809,9.62c-0.084,0.176-0.229,0.264-0.43,0.264c-0.023,0-0.063-0.005-0.113-0.015
					c-0.109-0.023-0.197-0.082-0.266-0.169c-0.066-0.088-0.102-0.187-0.102-0.297v-4.33h-4.329c-0.11,0-0.208-0.034-0.298-0.101
					c-0.086-0.066-0.143-0.156-0.167-0.267c-0.026-0.109-0.016-0.214,0.03-0.316c0.044-0.099,0.117-0.175,0.216-0.225l9.621-4.811
					c0.066-0.035,0.139-0.05,0.218-0.05c0.137,0,0.248,0.046,0.338,0.141c0.078,0.07,0.123,0.156,0.14,0.26
					C470.554,249.291,470.534,249.39,470.484,249.484z"/>
			</g>
			<g>
				<path fill="#BBB1B1" d="M103.387,127.815c-0.045,0.159-0.15,0.269-0.321,0.323l-4.698,1.544v4.924
					c0,0.174-0.072,0.313-0.211,0.421c-0.16,0.106-0.314,0.127-0.468,0.064l-4.7-1.513l-2.896,3.99
					c-0.106,0.14-0.248,0.21-0.419,0.21c-0.173,0-0.311-0.07-0.42-0.21l-2.896-3.99l-4.699,1.513
					c-0.15,0.063-0.306,0.042-0.467-0.064c-0.14-0.108-0.207-0.247-0.207-0.421v-4.924l-4.701-1.544
					c-0.173-0.054-0.279-0.164-0.322-0.323c-0.054-0.18-0.034-0.338,0.063-0.466l2.899-3.993l-2.899-3.991
					c-0.097-0.138-0.116-0.295-0.063-0.466c0.043-0.163,0.149-0.269,0.322-0.322l4.701-1.544v-4.926c0-0.174,0.067-0.31,0.207-0.42
					c0.161-0.106,0.316-0.127,0.467-0.064l4.699,1.513l2.896-3.989c0.099-0.129,0.238-0.195,0.42-0.195
					c0.186,0,0.323,0.066,0.419,0.195l2.896,3.989l4.7-1.513c0.153-0.063,0.308-0.042,0.468,0.064
					c0.139,0.11,0.211,0.247,0.211,0.42v4.926l4.698,1.544c0.171,0.053,0.276,0.159,0.321,0.322
					c0.054,0.171,0.032,0.328-0.062,0.466l-2.899,3.991l2.899,3.993C103.419,127.478,103.44,127.635,103.387,127.815z
					 M98.212,126.953c0.491-1.141,0.732-2.341,0.732-3.597c0-1.253-0.241-2.456-0.732-3.599c-0.488-1.143-1.148-2.128-1.979-2.961
					c-0.831-0.831-1.818-1.491-2.964-1.979c-1.141-0.489-2.34-0.73-3.596-0.73c-1.253,0-2.454,0.242-3.596,0.73
					c-1.145,0.488-2.132,1.149-2.962,1.979c-0.833,0.833-1.492,1.818-1.98,2.961c-0.487,1.143-0.732,2.345-0.732,3.599
					c0,1.255,0.245,2.456,0.732,3.597c0.488,1.145,1.147,2.13,1.98,2.963c0.83,0.833,1.817,1.491,2.962,1.979
					c1.142,0.489,2.343,0.731,3.596,0.731c1.256,0,2.455-0.242,3.596-0.731c1.146-0.488,2.133-1.146,2.964-1.979
					C97.063,129.083,97.724,128.098,98.212,126.953z"/>
			</g>
			<g>
				<path fill="#BBB1B1" d="M265.228,95.787c0.14,0.141,0.21,0.308,0.21,0.5c0,0.192-0.07,0.356-0.21,0.497
					c-0.14,0.141-0.308,0.21-0.501,0.21h-2.478c0,1.263-0.247,2.332-0.742,3.211l2.303,2.313c0.142,0.14,0.209,0.306,0.209,0.498
					c0,0.193-0.067,0.359-0.209,0.498c-0.134,0.14-0.301,0.211-0.5,0.211c-0.198,0-0.364-0.071-0.497-0.211l-2.192-2.18
					c-0.035,0.037-0.091,0.084-0.164,0.145c-0.076,0.058-0.23,0.164-0.467,0.314c-0.235,0.15-0.476,0.285-0.72,0.403
					s-0.545,0.226-0.906,0.321c-0.361,0.098-0.72,0.145-1.075,0.145v-9.92h-1.417v9.92c-0.376,0-0.752-0.05-1.121-0.15
					c-0.375-0.098-0.695-0.221-0.965-0.364c-0.27-0.146-0.512-0.29-0.73-0.433c-0.219-0.144-0.378-0.263-0.482-0.359l-0.168-0.155
					l-2.024,2.291c-0.147,0.155-0.324,0.233-0.532,0.233c-0.175,0-0.335-0.06-0.476-0.178c-0.138-0.132-0.214-0.297-0.226-0.493
					c-0.012-0.194,0.045-0.366,0.172-0.515l2.235-2.512c-0.429-0.842-0.642-1.853-0.642-3.034h-2.48c-0.19,0-0.356-0.07-0.498-0.21
					c-0.139-0.14-0.21-0.305-0.21-0.497c0-0.192,0.071-0.359,0.21-0.5c0.142-0.14,0.308-0.209,0.498-0.209h2.48v-3.255l-1.916-1.914
					c-0.14-0.14-0.209-0.307-0.209-0.498c0-0.191,0.069-0.358,0.209-0.499c0.139-0.14,0.307-0.21,0.498-0.21
					c0.194,0,0.358,0.07,0.498,0.21l1.916,1.914h9.346l1.913-1.914c0.142-0.14,0.307-0.21,0.499-0.21c0.19,0,0.357,0.07,0.496,0.21
					c0.141,0.141,0.211,0.307,0.211,0.499c0,0.191-0.07,0.358-0.211,0.498l-1.913,1.914v3.255h2.478
					C264.92,95.578,265.088,95.647,265.228,95.787z M260.123,89.91h-7.086c0-0.98,0.346-1.817,1.036-2.509
					c0.688-0.689,1.526-1.034,2.506-1.034c0.982,0,1.817,0.345,2.51,1.034C259.777,88.093,260.123,88.93,260.123,89.91z"/>
			</g>
			<g>
				<path fill="#BBB1B1" d="M315.307,206.008v8.857c0,0.295-0.104,0.547-0.31,0.75c-0.206,0.208-0.458,0.311-0.753,0.311h-12.045
					c-0.295,0-0.547-0.104-0.754-0.311c-0.205-0.204-0.311-0.456-0.311-0.75v-14.879c0-0.295,0.105-0.547,0.311-0.754
					c0.207-0.206,0.459-0.309,0.754-0.309h6.022v6.022c0,0.294,0.102,0.546,0.31,0.752c0.207,0.207,0.459,0.311,0.754,0.311H315.307
					z M315.274,204.591h-5.636v-5.635c0.605,0.11,1.093,0.353,1.461,0.721l3.453,3.454
					C314.923,203.499,315.163,203.987,315.274,204.591z"/>
			</g>
			<g>
				<path fill="#BBB1B1" d="M424.533,87.689c0,0.729-0.199,1.339-0.603,1.827c-0.401,0.486-0.958,0.73-1.67,0.73
					c-0.371,0-0.721-0.079-1.048-0.237c-0.33-0.158-0.597-0.33-0.8-0.514c-0.204-0.186-0.457-0.356-0.765-0.515
					c-0.307-0.157-0.628-0.236-0.961-0.236c-0.991,0-1.488,0.558-1.488,1.677c0,0.351,0.072,0.871,0.218,1.558
					c0.142,0.684,0.212,1.204,0.203,1.555v0.07c-0.2,0-0.349,0.003-0.447,0.011c-0.307,0.026-0.747,0.079-1.319,0.155
					c-0.572,0.076-1.094,0.137-1.563,0.184c-0.47,0.043-0.912,0.067-1.327,0.067c-0.552,0-1.015-0.12-1.395-0.36
					C411.19,93.424,411,93.047,411,92.532c0-0.333,0.08-0.653,0.238-0.96c0.157-0.307,0.328-0.564,0.515-0.765
					c0.185-0.203,0.356-0.468,0.514-0.798c0.158-0.33,0.236-0.679,0.236-1.049c0-0.713-0.243-1.27-0.73-1.672
					c-0.487-0.402-1.095-0.602-1.825-0.602c-0.76,0-1.403,0.205-1.937,0.614c-0.532,0.412-0.798,0.988-0.798,1.727
					c0,0.388,0.067,0.763,0.203,1.123c0.135,0.361,0.285,0.65,0.453,0.872c0.166,0.223,0.315,0.459,0.453,0.72
					c0.136,0.255,0.203,0.483,0.203,0.682c0,0.406-0.208,0.808-0.623,1.203c-0.334,0.316-0.861,0.475-1.584,0.475
					c-0.855,0-1.961-0.108-3.314-0.325c-0.082-0.02-0.206-0.038-0.372-0.055c-0.167-0.018-0.291-0.035-0.371-0.054l-0.177-0.028
					c-0.01,0-0.022-0.003-0.041-0.013c-0.019,0-0.026-0.004-0.026-0.013V79.759c0.017,0.008,0.096,0.023,0.235,0.046
					c0.141,0.023,0.294,0.045,0.461,0.067c0.166,0.024,0.263,0.039,0.291,0.047c1.354,0.216,2.459,0.326,3.314,0.326
					c0.723,0,1.25-0.158,1.584-0.474c0.415-0.396,0.623-0.799,0.623-1.205c0-0.198-0.067-0.427-0.203-0.684
					c-0.138-0.257-0.287-0.494-0.453-0.716c-0.168-0.222-0.318-0.512-0.453-0.873c-0.136-0.361-0.203-0.733-0.203-1.124
					c0-0.741,0.266-1.313,0.798-1.726c0.533-0.409,1.182-0.617,1.948-0.617c0.723,0,1.326,0.202,1.813,0.605
					c0.487,0.4,0.73,0.958,0.73,1.671c0,0.368-0.078,0.719-0.236,1.046c-0.157,0.33-0.329,0.596-0.514,0.8
					c-0.187,0.202-0.357,0.456-0.515,0.763C411.08,78.022,411,78.342,411,78.674c0,0.515,0.19,0.892,0.569,1.131
					c0.38,0.238,0.843,0.359,1.395,0.359c0.577,0,1.389-0.07,2.436-0.204c1.047-0.135,1.782-0.211,2.205-0.231v0.029
					c-0.008,0.017-0.024,0.097-0.046,0.236c-0.023,0.141-0.045,0.292-0.068,0.459c-0.021,0.168-0.039,0.264-0.048,0.292
					c-0.216,1.351-0.323,2.458-0.323,3.315c0,0.72,0.156,1.248,0.473,1.582c0.396,0.415,0.798,0.622,1.205,0.622
					c0.198,0,0.425-0.067,0.683-0.201c0.257-0.138,0.495-0.287,0.718-0.454c0.221-0.167,0.512-0.318,0.871-0.456
					c0.361-0.132,0.736-0.201,1.124-0.201c0.739,0,1.315,0.266,1.726,0.798S424.533,86.931,424.533,87.689z"/>
			</g>
			<g>
				<path fill="#BBB1B1" d="M226.369,145.815v8.503c0,0.635-0.122,1.265-0.369,1.887c-0.249,0.626-0.556,1.178-0.92,1.66
					c-0.366,0.485-0.801,0.956-1.306,1.413c-0.507,0.458-0.972,0.837-1.401,1.139c-0.429,0.302-0.874,0.589-1.341,0.858
					c-0.464,0.269-0.794,0.452-0.989,0.549c-0.195,0.093-0.354,0.169-0.469,0.22c-0.089,0.046-0.188,0.065-0.29,0.065
					s-0.199-0.02-0.286-0.065c-0.119-0.05-0.276-0.126-0.472-0.22c-0.196-0.097-0.526-0.28-0.991-0.549
					c-0.464-0.269-0.911-0.556-1.339-0.858c-0.429-0.302-0.896-0.682-1.399-1.139c-0.506-0.458-0.94-0.928-1.307-1.413
					c-0.365-0.482-0.672-1.034-0.92-1.66c-0.246-0.622-0.372-1.252-0.372-1.887v-8.503c0-0.19,0.071-0.357,0.212-0.497
					s0.306-0.21,0.498-0.21h12.752c0.192,0,0.36,0.07,0.5,0.21S226.369,145.625,226.369,145.815z M224.242,154.318v-7.084h-4.958
					v12.586c0.88-0.465,1.664-0.97,2.358-1.517C223.378,156.945,224.242,155.617,224.242,154.318z"/>
			</g>
			<g>
				<path fill="#BBB1B1" d="M415.199,281.23h15.587l-1.415,15.917l-6.4,1.795l-6.354-1.795L415.199,281.23z M427.707,286.422
					l0.18-1.938H418.1l0.521,5.911h6.773l-0.243,2.526l-2.181,0.587l-2.169-0.587l-0.145-1.549h-1.937l0.243,3.077l4.007,1.107
					h0.045v-0.012l3.974-1.096l0.556-6.022h-7.131l-0.166-2.004H427.707z"/>
			</g>
			<g>
				<path fill="#BBB1B1" d="M308.43,117.994h16.662l-2.945,14.757l-8.9,2.957l-7.729-2.957l0.787-3.942h3.287l-0.32,1.627
					l4.672,1.783l5.381-1.783l0.752-3.753h-13.374l0.643-3.287h13.383l0.423-2.114h-13.373L308.43,117.994z"/>
			</g>
			<g>
				<path fill="#BBB1B1" d="M200.637,303.905c0,1.217-0.26,2.426-0.775,3.624c-0.517,1.201-1.24,2.264-2.17,3.189
					c-0.931,0.927-1.967,1.592-3.109,2c-0.915,0.323-2.119,0.487-3.61,0.487c-0.419,0-1.048-0.054-1.882-0.161
					c-0.834-0.107-1.457-0.161-1.869-0.161c-0.178,0-0.446,0.054-0.805,0.161c-0.357,0.107-0.629,0.161-0.813,0.161
					c-0.538,0-0.993-0.206-1.368-0.616c-0.372-0.408-0.557-0.884-0.557-1.421c0-0.179,0.041-0.428,0.12-0.754
					c0.083-0.323,0.124-0.57,0.124-0.739c0-0.296-0.047-0.742-0.14-1.335c-0.092-0.591-0.139-1.042-0.139-1.347
					c0-0.818,0.065-1.622,0.2-2.405c0.133-0.785,0.333-1.56,0.602-2.318c0.271-0.761,0.641-1.476,1.113-2.151
					c0.471-0.67,1.026-1.246,1.662-1.724c0.575-0.437,1.43-0.88,2.565-1.331c1.433-0.574,2.599-0.863,3.499-0.863
					c0.443,0,1.091,0.089,1.944,0.267c0.853,0.178,1.492,0.265,1.919,0.265c0.141,0,0.351-0.019,0.632-0.056
					c0.279-0.036,0.495-0.055,0.643-0.055c0.597,0,1.033,0.188,1.306,0.56c0.273,0.373,0.41,0.868,0.41,1.488
					c0,0.171-0.018,0.42-0.057,0.753c-0.036,0.333-0.055,0.585-0.055,0.753c0,0.075,0.004,0.143,0.011,0.206
					c0.008,0.06,0.02,0.126,0.034,0.187c0.015,0.063,0.029,0.113,0.044,0.149c0.015,0.039,0.038,0.096,0.071,0.178
					c0.033,0.083,0.059,0.143,0.073,0.188c0.116,0.296,0.209,0.731,0.275,1.311C200.604,302.975,200.637,303.478,200.637,303.905z
					 M199.218,303.927c0-0.324-0.024-0.743-0.075-1.256c-0.052-0.514-0.118-0.869-0.199-1.068c-0.09-0.221-0.152-0.382-0.189-0.488
					c-0.036-0.104-0.07-0.238-0.098-0.403c-0.031-0.167-0.046-0.343-0.046-0.538c0-0.168,0.019-0.422,0.054-0.759
					c0.039-0.334,0.058-0.584,0.058-0.747c0-0.272-0.038-0.476-0.111-0.608c-0.03-0.007-0.077-0.012-0.144-0.012
					c-0.141,0-0.354,0.018-0.644,0.052c-0.286,0.031-0.503,0.051-0.652,0.051c-0.441,0-1.091-0.091-1.947-0.268
					c-0.856-0.178-1.503-0.264-1.938-0.264c-0.317,0-0.665,0.04-1.045,0.125c-0.382,0.084-0.695,0.173-0.941,0.26
					c-0.249,0.092-0.577,0.213-0.99,0.377c-1.012,0.399-1.758,0.778-2.237,1.14c-0.709,0.541-1.297,1.239-1.765,2.099
					c-0.471,0.858-0.795,1.732-0.975,2.611c-0.181,0.883-0.271,1.801-0.271,2.753c0,0.293,0.046,0.737,0.137,1.329
					c0.093,0.589,0.14,1.036,0.14,1.339c0,0.169-0.041,0.415-0.123,0.737c-0.08,0.319-0.121,0.561-0.121,0.724
					c0,0.163,0.045,0.297,0.133,0.404s0.215,0.16,0.376,0.16c0.179,0,0.446-0.041,0.804-0.121c0.357-0.081,0.628-0.122,0.814-0.122
					c0.419,0,1.045,0.057,1.875,0.171c0.829,0.115,1.457,0.171,1.876,0.171c1.337,0,2.385-0.132,3.146-0.399
					c0.951-0.331,1.818-0.893,2.607-1.689c0.785-0.794,1.398-1.697,1.837-2.716C199,305.954,199.218,304.94,199.218,303.927z"/>
			</g>
			<g>
				<path fill="#FFFFFF" d="M301.464,17.609l-0.033-1.072l13.539-4.954L330,16.477v1.225l-3,1.171V18.66l-9.615-3.194
					c0,0-1.127-1.118-3.494-0.319c-1.677,1.411,1.272,2.156,2.736,1.65c1.038,0.266,8.091,2.768,8.091,2.768l-9.839,3.566
					C314.879,23.131,301.424,17.675,301.464,17.609z"/>
				<path fill="#FFFFFF" d="M325.432,19.525l-0.161,5.131c0,0-1.183,0.609-0.251,1.674c-0.107,0.585-1.097,5.88-1.097,5.88
					s1.712,1.356,4.161,0.026c-0.186-1.091-0.995-5.989-0.995-5.989S328,25.234,327,24.462v-5.324L325.432,19.525z"/>
				<path fill="#FFFFFF" d="M307.228,21.321l-0.027,9.05c0,0,2.608,1.916,7.879,1.863s8.224-1.384,8.571-1.97
					c0.025-0.745,0.025-8.943,0.025-8.943l-8.863,3.168L307.228,21.321z"/>
			</g>
		</g>
	</g>
</g>
<g id="Capa_4">
</g>
<g id="Capa_6">
</g>
<g id="nav">
</g>
<g id="Capa_8">
	<linearGradient id="SVGID_2_" gradientUnits="userSpaceOnUse" x1="259" y1="482.1069" x2="259" y2="421.8195">
		<stop  offset="0" style="stop-color:#FFFFFF"/>
		<stop  offset="1" style="stop-color:#FFFFFF;stop-opacity:0"/>
	</linearGradient>
	<rect x="225" y="420.077" fill="url(#SVGID_2_)" width="68" height="63"/>
</g>
<g id="Capa_9">
</g>
<g id="Capa_10" display="none">
</g>
</svg>
