<?xml version="1.0" encoding="utf-8"?>
<!-- Generator: Adobe Illustrator 16.0.0, SVG Export Plug-In . SVG Version: 6.00 Build 0)  -->
<!DOCTYPE svg PUBLIC "-//W3C//DTD SVG 1.1//EN" "http://www.w3.org/Graphics/SVG/1.1/DTD/svg11.dtd">
<svg version="1.1" xmlns="http://www.w3.org/2000/svg" xmlns:xlink="http://www.w3.org/1999/xlink" x="0px" y="0px" width="396px"
	 height="125px" viewBox="0 0 396 125" enable-background="new 0 0 396 125" xml:space="preserve">
<g id="base">
</g>
<g id="fondo">
</g>
<g id="Capa_3">
</g>
<g id="Capa_4">
</g>
<g id="Capa_6">
</g>
<g id="nav">
</g>
<g id="Capa_8">
	<g>
		<path fill="none" stroke="#FFFFFF" stroke-width="12" stroke-linecap="round" stroke-linejoin="round" stroke-miterlimit="10" d="
			M333.434,88.77c0,13.882-11.251,25.138-25.135,25.138c-13.887,0-25.142-11.256-25.142-25.138V38.398
			c0-13.887,11.255-25.138,25.142-25.138c13.884,0,25.135,11.251,25.135,25.138l0,0c0-13.887,11.257-25.138,25.142-25.138
			c13.881,0,25.138,11.251,25.138,25.138V88.77c0,13.882-11.257,25.138-25.138,25.138C344.69,113.907,333.434,102.651,333.434,88.77
			L333.434,88.77z"/>
		<g opacity="0.8">
			
				<path fill="#FFFFFF" stroke="#FFFFFF" stroke-width="20" stroke-linecap="round" stroke-linejoin="round" stroke-miterlimit="10" d="
				M62.56,38.491c0-13.881,11.258-25.138,25.142-25.138c13.887,0,25.138,11.257,25.138,25.138c0,3.902-0.886,7.599-2.475,10.894
				l-0.014,0.028l-25.318,50.64l-0.012,0.021c-4.137,8.207-12.639,13.834-22.461,13.834l0,0c-9.815,0-18.317-5.627-22.452-13.834
				l-0.015-0.021l-25.317-50.64l-0.013-0.028c-1.588-3.295-2.476-6.991-2.476-10.894c0-13.881,11.251-25.138,25.138-25.138
				C51.31,13.354,62.56,24.61,62.56,38.491L62.56,38.491z"/>
			
				<path fill="#FFFFFF" stroke="#FFFFFF" stroke-width="20" stroke-linecap="round" stroke-linejoin="round" stroke-miterlimit="10" d="
				M333.434,88.77c0,13.882-11.251,25.138-25.135,25.138c-13.887,0-25.142-11.256-25.142-25.138V38.398
				c0-13.887,11.255-25.138,25.142-25.138c13.884,0,25.135,11.251,25.135,25.138l0,0c0-13.887,11.257-25.138,25.142-25.138
				c13.881,0,25.138,11.251,25.138,25.138V88.77c0,13.882-11.257,25.138-25.138,25.138
				C344.69,113.907,333.434,102.651,333.434,88.77L333.434,88.77z"/>
			
				<path fill="#FFFFFF" stroke="#FFFFFF" stroke-width="20" stroke-linecap="round" stroke-linejoin="round" stroke-miterlimit="10" d="
				M119.589,63.632c0-13.884,11.257-25.138,25.141-25.138c13.887,0,25.139,11.254,25.139,25.138V88.77
				c0,13.884-11.252,25.138-25.139,25.138c-13.884,0-25.141-11.254-25.141-25.138V63.632z"/>
			
				<path fill="#FFFFFF" stroke="#FFFFFF" stroke-width="20" stroke-linecap="round" stroke-linejoin="round" stroke-miterlimit="10" d="
				M264.811,55.97c6.848-7.457,4.788-18.072-1.228-26.613c-9.249-13.121-28.342-16.479-43.134-15.944
				c-27.153,0.989-52.396,29.916-34.255,54.401c-7.294,6.892-6.972,16.636-2.42,26.096c7.403,15.387,27.463,19.455,42.63,19.998
				c17.807-0.653,34.505-6.251,42.749-23.144C274.367,80.063,272.657,65.086,264.811,55.97z"/>
		</g>
		<g>
			<path fill="none" stroke="#FF2C72" stroke-width="6" stroke-linecap="round" stroke-linejoin="round" stroke-miterlimit="10" d="
				M62.56,38.491c0-13.881,11.258-25.138,25.142-25.138c13.887,0,25.138,11.257,25.138,25.138c0,3.902-0.886,7.599-2.475,10.894
				l-0.014,0.028l-25.318,50.64l-0.012,0.021c-4.137,8.207-12.639,13.834-22.461,13.834l0,0c-9.815,0-18.317-5.627-22.452-13.834
				l-0.015-0.021l-25.317-50.64l-0.013-0.028c-1.588-3.295-2.476-6.991-2.476-10.894c0-13.881,11.251-25.138,25.138-25.138
				C51.31,13.354,62.56,24.61,62.56,38.491L62.56,38.491z"/>
			<path fill="none" stroke="#FF2C72" stroke-width="6" stroke-linecap="round" stroke-linejoin="round" stroke-miterlimit="10" d="
				M333.434,88.77c0,13.882-11.251,25.138-25.135,25.138c-13.887,0-25.142-11.256-25.142-25.138V38.398
				c0-13.887,11.255-25.138,25.142-25.138c13.884,0,25.135,11.251,25.135,25.138l0,0c0-13.887,11.257-25.138,25.142-25.138
				c13.881,0,25.138,11.251,25.138,25.138V88.77c0,13.882-11.257,25.138-25.138,25.138
				C344.69,113.907,333.434,102.651,333.434,88.77L333.434,88.77z"/>
			<path fill="none" stroke="#FF2C72" stroke-width="6" stroke-linecap="round" stroke-linejoin="round" stroke-miterlimit="10" d="
				M119.589,63.632c0-13.884,11.257-25.138,25.141-25.138c13.887,0,25.139,11.254,25.139,25.138V88.77
				c0,13.884-11.252,25.138-25.139,25.138c-13.884,0-25.141-11.254-25.141-25.138V63.632z"/>
			<path fill="none" stroke="#FF2C72" stroke-width="6" stroke-linecap="round" stroke-linejoin="round" stroke-miterlimit="10" d="
				M264.811,55.97c6.848-7.457,4.788-18.072-1.228-26.613c-9.249-13.121-28.342-16.479-43.134-15.944
				c-27.153,0.989-52.396,29.916-34.255,54.401c-7.294,6.892-6.972,16.636-2.42,26.096c7.403,15.387,27.463,19.455,42.63,19.998
				c17.807-0.653,34.505-6.251,42.749-23.144C274.367,80.063,272.657,65.086,264.811,55.97z"/>
		</g>
	</g>
</g>
<g id="Capa_9">
</g>
<g id="Capa_10" display="none">
</g>
</svg>
