<svg width="580" height="400" xmlns="http://www.w3.org/2000/svg">
 <!-- Created with Method Draw - http://github.com/duopixel/Method-Draw/ -->

 <g>
  <title>background</title>
  <rect fill="#757575" id="canvas_background" height="402" width="582" y="-1" x="-1"/>
  <g display="none" overflow="visible" y="0" x="0" height="100%" width="100%" id="canvasGrid">
   <rect fill="url(#gridpattern)" stroke-width="0" y="0" x="0" height="100%" width="100%"/>
  </g>
 </g>
 <g>
  <title>Layer 1</title>
  <g transform="matrix(0.910115444322443,0,0,0.9492542753266235,30.594002110202496,-11.685387969390625) " id="svg_8">
   <g transform="matrix(0.7337800860404967,0,0,0.7869042754173279,59.89156195521355,31.150723427534103) " id="svg_6">
    <path stroke-width="0" fill-rule="evenodd" fill="#fcfcfc" d="m127.776195,187.026542c-0.11,0.11 -0.2,0.332 -0.2,0.494c0,0.261 -0.208,0.3 -1.791,0.342c-1.715,0.045 -1.794,0.063 -1.845,0.422c-0.048,0.336 -0.147,0.375 -0.948,0.375c-1.102,0 -1.754,0.234 -1.868,0.669c-0.065,0.25 -0.228,0.331 -0.661,0.331c-0.746,0 -1.22,0.262 -1.22,0.673c0,0.276 -0.116,0.327 -0.738,0.327c-0.7,0 -1.262,0.303 -1.262,0.679c0,0.085 -0.189,0.155 -0.421,0.155c-0.334,0 -0.441,0.103 -0.521,0.5c-0.089,0.448 -0.164,0.5 -0.72,0.5c-0.613,0 -1.171,0.384 -1.171,0.804c0,0.108 -0.186,0.196 -0.414,0.196c-0.299,0 -0.441,0.112 -0.515,0.407c-0.063,0.248 -0.243,0.427 -0.462,0.458c-0.252,0.036 -0.375,0.188 -0.412,0.51c-0.044,0.384 -0.132,0.458 -0.542,0.458c-0.432,0 -0.489,0.058 -0.489,0.5c0,0.444 -0.055,0.5 -0.5,0.5c-0.422,0 -0.5,0.065 -0.5,0.417c0,0.333 -0.083,0.416 -0.416,0.416c-0.352,0 -0.417,0.078 -0.417,0.5c0,0.445 -0.056,0.5 -0.5,0.5c-0.442,0 -0.5,0.057 -0.5,0.489c0,0.41 -0.074,0.498 -0.458,0.542c-0.322,0.037 -0.474,0.16 -0.51,0.412c-0.031,0.219 -0.21,0.399 -0.458,0.462c-0.289,0.072 -0.407,0.217 -0.407,0.497c0,0.279 -0.119,0.425 -0.401,0.496c-0.335,0.084 -0.42,0.239 -0.516,0.935c-0.087,0.63 -0.184,0.834 -0.399,0.834c-0.478,0 -0.684,0.362 -0.684,1.2c0,0.742 -0.03,0.8 -0.417,0.8c-0.393,0 -0.417,0.051 -0.417,0.906c0,0.864 -0.021,0.908 -0.458,0.958c-0.426,0.049 -0.462,0.113 -0.508,0.912c-0.044,0.753 -0.1,0.871 -0.458,0.961c-0.391,0.098 -0.409,0.161 -0.409,1.412l0,1.309l-0.5,0.1l-0.5,0.1l0,1.838c0,1.827 -0.002,1.837 -0.399,1.837c-0.598,0 -0.601,0.037 -0.601,7c0,6.964 0.003,7 0.601,7c0.398,0 0.399,0.007 0.399,1.917l0,1.917l0.493,0l0.494,0l0.048,1.375c0.045,1.282 0.074,1.378 0.423,1.428c0.332,0.047 0.377,0.154 0.392,0.917c0.024,1.233 0.183,1.687 0.615,1.75c0.315,0.045 0.368,0.157 0.368,0.779c0,0.689 0.305,1.251 0.679,1.251c0.085,0 0.155,0.182 0.155,0.405c0,0.63 0.306,1.285 0.64,1.373c0.215,0.056 0.347,0.329 0.456,0.942c0.127,0.712 0.219,0.872 0.529,0.916c0.323,0.046 0.375,0.154 0.375,0.78c0,0.688 0.305,1.25 0.678,1.25c0.085,0 0.155,0.183 0.155,0.406c0,0.647 0.309,1.286 0.669,1.38c0.25,0.065 0.331,0.228 0.331,0.661c0,0.746 0.262,1.22 0.673,1.22c0.282,0 0.327,0.116 0.327,0.837c0,0.731 0.053,0.861 0.417,1.027c0.266,0.121 0.416,0.326 0.416,0.569c0,0.622 0.316,1.26 0.669,1.353c0.25,0.065 0.331,0.228 0.331,0.661c0,0.745 0.262,1.22 0.673,1.22c0.282,0 0.327,0.116 0.327,0.837c0,0.72 0.056,0.862 0.398,1.018c0.31,0.141 0.421,0.356 0.503,0.979c0.089,0.669 0.173,0.815 0.519,0.902c0.343,0.086 0.414,0.204 0.414,0.694c0,0.756 0.258,1.236 0.663,1.236c0.268,0 0.327,0.142 0.37,0.875c0.043,0.749 0.102,0.883 0.407,0.926c0.297,0.043 0.376,0.201 0.468,0.943c0.096,0.763 0.171,0.907 0.518,0.994c0.336,0.084 0.407,0.206 0.407,0.693c0,0.755 0.258,1.236 0.664,1.236c0.267,0 0.327,0.142 0.369,0.875c0.043,0.748 0.102,0.882 0.407,0.926c0.297,0.042 0.376,0.201 0.469,0.943c0.095,0.762 0.17,0.906 0.518,0.994c0.335,0.084 0.406,0.205 0.406,0.693c0,0.755 0.258,1.236 0.664,1.236c0.267,0 0.327,0.142 0.369,0.875c0.043,0.748 0.102,0.882 0.408,0.926c0.297,0.042 0.375,0.2 0.468,0.942c0.095,0.763 0.17,0.907 0.518,0.994c0.335,0.084 0.407,0.206 0.407,0.693c0,0.755 0.258,1.236 0.663,1.236c0.262,0 0.327,0.142 0.369,0.792c0.04,0.622 0.128,0.825 0.409,0.949c0.268,0.118 0.384,0.359 0.465,0.965c0.085,0.641 0.192,0.846 0.517,0.994c0.33,0.151 0.41,0.31 0.41,0.815c0,0.639 0.336,1.152 0.753,1.152c0.155,0 0.245,0.256 0.28,0.792c0.039,0.615 0.128,0.826 0.4,0.945c0.252,0.111 0.391,0.389 0.5,1c0.123,0.695 0.217,0.856 0.525,0.9c0.324,0.046 0.375,0.153 0.375,0.779c0,0.743 0.31,1.251 0.762,1.251c0.154,0 0.238,0.177 0.238,0.5c0,0.419 0.066,0.5 0.408,0.5c0.375,0 0.412,0.071 0.459,0.875c0.047,0.816 0.081,0.878 0.508,0.927c0.403,0.047 0.459,0.124 0.459,0.636c0,0.753 0.26,1.228 0.672,1.228c0.253,0 0.328,0.114 0.328,0.5c0,0.419 0.066,0.5 0.405,0.5c0.319,0 0.417,0.099 0.459,0.459c0.041,0.36 0.151,0.469 0.511,0.511c0.411,0.047 0.458,0.118 0.458,0.696c0,0.653 0.331,1.168 0.75,1.168c0.125,0 0.251,0.165 0.28,0.368c0.033,0.231 0.206,0.404 0.464,0.464c0.257,0.061 0.446,0.25 0.507,0.507c0.085,0.363 0.198,0.417 0.964,0.461c0.839,0.049 0.868,0.067 0.868,0.542c0,0.409 0.068,0.491 0.406,0.491c0.319,0 0.417,0.098 0.458,0.458c0.041,0.357 0.152,0.47 0.501,0.51c0.314,0.037 0.464,0.162 0.5,0.417c0.037,0.258 0.186,0.38 0.51,0.418c0.321,0.037 0.459,0.148 0.459,0.369c0,0.404 0.482,0.661 1.239,0.661c0.461,0 0.594,0.068 0.594,0.3c0,0.479 0.348,0.7 1.099,0.7c0.606,0 0.712,0.055 0.803,0.417c0.095,0.381 0.182,0.417 1.018,0.417c0.904,0 0.913,0.005 0.913,0.5c0,0.493 0.013,0.5 0.89,0.5c0.773,0 0.914,0.051 1.069,0.393c0.214,0.47 0.773,0.607 2.479,0.607c1.2,0 1.229,0.01 1.229,0.416l0,0.417l2.333,0c1.963,0 2.334,0.04 2.334,0.25c0,0.216 0.629,0.25 4.666,0.25c3.998,0 4.667,-0.035 4.667,-0.245c0,-0.202 0.406,-0.254 2.292,-0.292c2.221,-0.045 2.293,-0.058 2.344,-0.415c0.048,-0.341 0.153,-0.372 1.416,-0.416c1.346,-0.048 1.365,-0.055 1.417,-0.5c0.051,-0.446 0.07,-0.453 1.416,-0.5c1.352,-0.048 1.366,-0.053 1.418,-0.507c0.05,-0.437 0.094,-0.458 0.955,-0.458c0.823,0 0.911,-0.037 1.007,-0.417c0.086,-0.344 0.205,-0.417 0.681,-0.417c0.74,0 1.221,-0.26 1.221,-0.661c0,-0.221 0.137,-0.332 0.458,-0.369c0.358,-0.041 0.47,-0.152 0.51,-0.503c0.048,-0.417 0.116,-0.454 0.917,-0.5c0.744,-0.043 0.872,-0.101 0.917,-0.415c0.036,-0.255 0.186,-0.38 0.5,-0.417c0.349,-0.04 0.459,-0.153 0.5,-0.51c0.042,-0.36 0.14,-0.458 0.459,-0.458c0.339,0 0.405,-0.081 0.405,-0.5c0,-0.444 0.056,-0.5 0.5,-0.5c0.419,0 0.5,-0.066 0.5,-0.406c0,-0.318 0.099,-0.417 0.459,-0.458c0.36,-0.041 0.469,-0.151 0.511,-0.511c0.041,-0.36 0.139,-0.458 0.458,-0.458c0.34,0 0.406,-0.082 0.406,-0.5c0,-0.445 0.055,-0.5 0.5,-0.5c0.418,0 0.5,-0.066 0.5,-0.406c0,-0.319 0.098,-0.417 0.458,-0.458c0.357,-0.041 0.47,-0.152 0.51,-0.501c0.036,-0.314 0.161,-0.464 0.417,-0.5c0.314,-0.045 0.372,-0.173 0.415,-0.917c0.046,-0.801 0.083,-0.868 0.5,-0.916c0.351,-0.041 0.461,-0.153 0.502,-0.511c0.035,-0.303 0.151,-0.458 0.342,-0.458c0.468,0 0.689,-0.353 0.689,-1.099c0,-0.606 0.055,-0.712 0.417,-0.803c0.381,-0.095 0.416,-0.182 0.416,-1.018c0,-0.904 0.006,-0.913 0.5,-0.913c0.495,0 0.5,-0.01 0.5,-0.917c0,-0.856 0.027,-0.917 0.399,-0.917c0.46,0 0.601,-0.272 0.601,-1.162c0,-0.538 0.064,-0.651 0.417,-0.739c0.375,-0.094 0.417,-0.189 0.417,-0.935c0,-0.688 0.051,-0.83 0.3,-0.83c0.493,0 0.7,-0.355 0.7,-1.2c0,-0.733 0.033,-0.8 0.399,-0.8c0.461,0 0.601,-0.273 0.601,-1.169c0,-0.538 0.06,-0.65 0.375,-0.695c0.326,-0.046 0.381,-0.166 0.425,-0.928c0.04,-0.703 0.108,-0.875 0.342,-0.875c0.484,0 0.691,-0.359 0.691,-1.2c0,-0.742 0.03,-0.8 0.417,-0.8c0.393,0 0.416,-0.051 0.416,-0.906c0,-0.864 0.021,-0.908 0.459,-0.958c0.427,-0.049 0.461,-0.112 0.508,-0.928c0.041,-0.702 0.108,-0.875 0.342,-0.875c0.485,0 0.691,-0.358 0.691,-1.2c0,-0.742 0.03,-0.8 0.417,-0.8c0.393,0 0.417,-0.05 0.417,-0.905c0,-0.864 0.021,-0.908 0.458,-0.959c0.427,-0.049 0.462,-0.111 0.509,-0.927c0.04,-0.703 0.107,-0.875 0.341,-0.875c0.485,0 0.692,-0.359 0.692,-1.2c0,-0.743 0.03,-0.8 0.416,-0.8c0.394,0 0.417,-0.051 0.417,-0.906c0,-0.864 0.021,-0.908 0.458,-0.958c0.428,-0.049 0.462,-0.112 0.509,-0.928c0.042,-0.729 0.103,-0.875 0.365,-0.875c0.173,0 0.376,-0.094 0.45,-0.208c0.074,-0.115 0.172,3.241 0.218,7.458l0.083,7.667l0.459,0.052l0.458,0.053l0,3.322l0,3.323l0.417,0c0.413,0 0.416,0.01 0.416,1.511c0,1.628 0.163,2.155 0.665,2.155c0.271,0 0.326,0.143 0.369,0.959c0.047,0.907 0.074,0.961 0.508,1.011c0.437,0.05 0.458,0.094 0.458,0.958c0,0.85 0.026,0.906 0.408,0.906c0.375,0 0.412,0.071 0.459,0.875c0.047,0.816 0.081,0.878 0.508,0.927c0.438,0.051 0.459,0.094 0.459,0.963c0,0.877 0.017,0.913 0.5,1.01c0.387,0.077 0.5,0.189 0.5,0.496c0,0.302 0.09,0.395 0.386,0.395c0.335,0 0.407,0.116 0.542,0.875c0.127,0.715 0.222,0.885 0.52,0.927c0.255,0.037 0.38,0.187 0.417,0.5c0.04,0.349 0.153,0.46 0.51,0.501c0.384,0.044 0.458,0.132 0.458,0.542c0,0.407 0.068,0.489 0.406,0.489c0.318,0 0.417,0.098 0.458,0.458c0.041,0.36 0.151,0.47 0.511,0.511c0.36,0.041 0.458,0.14 0.458,0.458c0,0.338 0.082,0.406 0.489,0.406c0.41,0 0.498,0.074 0.542,0.458c0.038,0.328 0.159,0.474 0.427,0.512c0.229,0.032 0.413,0.205 0.473,0.442c0.104,0.416 0.49,0.582 1.361,0.586c0.466,0.002 0.542,0.06 0.542,0.419c0,0.327 0.084,0.416 0.396,0.416c0.306,0 0.418,0.113 0.495,0.5c0.097,0.483 0.131,0.5 1.021,0.5c0.912,0 0.921,0.005 0.921,0.5c0,0.442 0.057,0.5 0.488,0.5c0.38,0 0.501,0.084 0.542,0.375c0.046,0.327 0.166,0.382 0.928,0.426c0.733,0.042 0.875,0.102 0.875,0.369c0,0.469 0.51,0.664 1.739,0.664c1.043,0 1.095,0.018 1.095,0.399c0,0.507 0.26,0.601 1.668,0.601c1.057,0 1.146,0.027 1.195,0.375c0.053,0.369 0.093,0.375 2.845,0.42c2.329,0.038 2.792,0.087 2.792,0.292c0,0.21 0.604,0.246 4.166,0.246c3.593,0 4.167,-0.034 4.167,-0.25c0,-0.211 0.397,-0.25 2.571,-0.25c2.581,0 3.096,-0.113 3.096,-0.679c0,-0.085 0.492,-0.154 1.094,-0.154c1.236,0 1.739,-0.195 1.739,-0.673c0,-0.286 0.117,-0.327 0.917,-0.327c0.904,0 0.916,-0.007 0.916,-0.493l0,-0.493l1.292,-0.049c1.148,-0.043 1.31,-0.09 1.453,-0.416c0.093,-0.213 0.339,-0.388 0.583,-0.417c0.319,-0.037 0.435,-0.159 0.474,-0.499c0.048,-0.417 0.116,-0.454 0.917,-0.5c0.805,-0.047 0.868,-0.082 0.917,-0.508c0.045,-0.384 0.133,-0.459 0.542,-0.459c0.403,0 0.489,-0.069 0.489,-0.395c0,-0.348 0.099,-0.408 0.832,-0.505c0.695,-0.093 0.848,-0.176 0.932,-0.512c0.07,-0.278 0.237,-0.418 0.543,-0.453c0.344,-0.04 0.455,-0.154 0.496,-0.51c0.041,-0.359 0.14,-0.458 0.455,-0.458c0.286,0 0.431,-0.116 0.503,-0.402c0.06,-0.24 0.264,-0.443 0.503,-0.503c0.287,-0.072 0.403,-0.217 0.403,-0.504c0,-0.315 0.099,-0.414 0.458,-0.455c0.36,-0.041 0.47,-0.151 0.511,-0.511c0.041,-0.355 0.141,-0.458 0.445,-0.458c0.299,0 0.418,-0.117 0.5,-0.49c0.073,-0.334 0.224,-0.507 0.472,-0.542c0.313,-0.044 0.371,-0.173 0.414,-0.927c0.049,-0.846 0.067,-0.875 0.542,-0.875c0.409,0 0.491,-0.067 0.491,-0.405c0,-0.275 0.121,-0.443 0.375,-0.523c0.51,-0.159 0.619,-0.369 0.622,-1.197c0.003,-0.643 0.041,-0.708 0.42,-0.708c0.394,0 0.416,-0.05 0.416,-0.917c0,-0.907 0.005,-0.916 0.5,-0.916c0.496,0 0.5,-0.009 0.517,-0.959c0.012,-0.666 0.052,-0.831 0.132,-0.541c0.069,0.251 0.257,0.437 0.473,0.468c0.248,0.036 0.374,0.19 0.41,0.5c0.04,0.347 0.154,0.46 0.5,0.5c0.346,0.04 0.46,0.154 0.5,0.5c0.037,0.318 0.161,0.464 0.427,0.502c0.271,0.038 0.375,0.165 0.375,0.458c0,0.339 0.081,0.405 0.5,0.405c0.444,0 0.5,0.056 0.5,0.5c0,0.444 0.055,0.5 0.5,0.5c0.478,0 0.5,0.031 0.5,0.717c0,0.9 0.216,1.116 1.116,1.116c0.686,0 0.717,0.022 0.717,0.5c0,0.445 0.056,0.5 0.5,0.5c0.444,0 0.5,0.056 0.5,0.5c0,0.419 0.066,0.5 0.405,0.5c0.293,0 0.42,0.104 0.458,0.375c0.038,0.266 0.184,0.39 0.502,0.427c0.346,0.04 0.46,0.154 0.5,0.5c0.048,0.415 0.116,0.452 0.916,0.498c0.801,0.047 0.869,0.084 0.917,0.5c0.04,0.349 0.153,0.462 0.5,0.502c0.314,0.036 0.464,0.161 0.5,0.417c0.045,0.313 0.173,0.372 0.908,0.414c0.799,0.047 0.862,0.083 0.954,0.542c0.094,0.473 0.134,0.492 1.008,0.492c0.869,0 0.912,0.021 0.963,0.458c0.049,0.428 0.111,0.462 0.927,0.509c0.804,0.046 0.875,0.084 0.875,0.458c0,0.383 0.057,0.408 0.896,0.408c0.862,0 0.9,0.019 0.996,0.5c0.096,0.482 0.133,0.5 1.001,0.5c0.76,0 0.915,0.053 0.988,0.332c0.113,0.432 0.764,0.668 1.841,0.668c0.738,0 0.89,0.056 1.03,0.375c0.153,0.349 0.285,0.379 1.854,0.423l1.688,0.047l0.099,0.494l0.099,0.495l1.837,0c1.827,0 1.838,0.002 1.838,0.399c0,0.548 0.228,0.601 2.597,0.601c1.163,0 2.07,0.067 2.07,0.154c0,0.623 0.413,0.679 5.012,0.679c3.878,0 4.488,0.034 4.488,0.25c0,0.216 0.574,0.25 4.166,0.25c3.571,0 4.167,-0.035 4.167,-0.247c0,-0.211 0.62,-0.254 4.208,-0.292l4.209,-0.044l0.053,-0.375c0.052,-0.367 0.101,-0.375 2.196,-0.375c2.212,0 2.667,-0.13 2.667,-0.762c0,-0.192 0.345,-0.238 1.754,-0.238l1.755,0l0.098,-0.494c0.099,-0.493 0.1,-0.494 1.455,-0.542c1.261,-0.044 1.359,-0.074 1.408,-0.423c0.046,-0.322 0.154,-0.375 0.771,-0.375c1.192,0 1.772,-0.179 1.967,-0.607c0.156,-0.341 0.296,-0.393 1.069,-0.393c0.878,0 0.89,-0.007 0.89,-0.5c0,-0.494 0.01,-0.5 0.913,-0.5c0.836,0 0.923,-0.035 1.019,-0.416c0.088,-0.354 0.201,-0.417 0.739,-0.417c0.886,0 1.162,-0.141 1.162,-0.592c0,-0.354 0.083,-0.395 0.875,-0.441c0.816,-0.047 0.879,-0.081 0.928,-0.509c0.044,-0.384 0.132,-0.458 0.542,-0.458c0.41,0 0.489,-0.067 0.489,-0.417c0,-0.373 0.067,-0.416 0.653,-0.416c0.908,0 1.18,-0.139 1.18,-0.601c0,-0.333 0.084,-0.399 0.5,-0.399c0.442,0 0.5,-0.057 0.5,-0.491c0,-0.468 0.038,-0.494 0.792,-0.542c0.624,-0.04 0.825,-0.127 0.95,-0.412c0.087,-0.199 0.367,-0.402 0.625,-0.454c0.363,-0.072 0.466,-0.186 0.466,-0.514c0,-0.339 0.082,-0.421 0.421,-0.421c0.334,0 0.442,-0.103 0.521,-0.5c0.077,-0.387 0.189,-0.5 0.496,-0.5c0.308,0 0.396,-0.089 0.396,-0.405c0,-0.319 0.098,-0.417 0.458,-0.459c0.357,-0.041 0.47,-0.151 0.51,-0.501c0.04,-0.346 0.154,-0.46 0.5,-0.5c0.349,-0.04 0.46,-0.153 0.501,-0.51c0.041,-0.36 0.14,-0.458 0.458,-0.458c0.316,0 0.406,-0.088 0.406,-0.396c0,-0.306 0.113,-0.418 0.5,-0.496c0.396,-0.079 0.5,-0.187 0.5,-0.517c0,-0.303 0.111,-0.446 0.403,-0.519c0.336,-0.084 0.422,-0.238 0.516,-0.92c0.099,-0.722 0.159,-0.819 0.513,-0.819c0.331,0 0.401,-0.084 0.401,-0.481c0,-0.705 0.924,-0.857 1.061,-0.174c0.06,0.3 0.227,0.483 0.506,0.553c0.368,0.092 0.422,0.204 0.466,0.978c0.047,0.811 0.083,0.878 0.501,0.926c0.416,0.048 0.453,0.116 0.5,0.917c0.042,0.729 0.104,0.872 0.396,0.914c0.274,0.039 0.377,0.227 0.5,0.917c0.127,0.715 0.219,0.876 0.529,0.92c0.291,0.042 0.375,0.162 0.375,0.542c0,0.431 0.058,0.488 0.5,0.488c0.444,0 0.5,0.056 0.5,0.5c0,0.412 0.068,0.5 0.386,0.5c0.335,0 0.407,0.116 0.542,0.875c0.127,0.715 0.222,0.885 0.52,0.927c0.255,0.037 0.38,0.187 0.417,0.5c0.04,0.349 0.153,0.46 0.51,0.501c0.359,0.041 0.458,0.14 0.458,0.455c0,0.287 0.116,0.432 0.402,0.504c0.24,0.06 0.443,0.263 0.503,0.503c0.072,0.284 0.218,0.402 0.497,0.402c0.282,0 0.425,0.119 0.499,0.414c0.063,0.25 0.262,0.454 0.504,0.515c0.235,0.059 0.44,0.263 0.499,0.497c0.083,0.33 0.239,0.415 0.931,0.507c0.733,0.097 0.832,0.157 0.832,0.505c0,0.326 0.085,0.395 0.489,0.395c0.409,0 0.497,0.075 0.541,0.459c0.049,0.426 0.113,0.461 0.918,0.508c0.801,0.046 0.868,0.083 0.916,0.5c0.048,0.417 0.116,0.454 0.917,0.5c0.745,0.043 0.872,0.101 0.917,0.417c0.045,0.322 0.168,0.372 1.01,0.416c0.939,0.049 0.958,0.06 0.958,0.542c0,0.485 0.013,0.492 0.917,0.492c0.8,0 0.917,0.041 0.917,0.327c0,0.478 0.503,0.673 1.739,0.673c0.602,0 1.094,0.069 1.094,0.154c0,0.566 0.515,0.679 3.095,0.679c2.175,0 2.572,0.039 2.572,0.25c0,0.216 0.574,0.25 4.166,0.25c3.563,0 4.167,-0.036 4.167,-0.246c0,-0.205 0.462,-0.254 2.792,-0.292c2.752,-0.045 2.792,-0.051 2.845,-0.42c0.049,-0.348 0.137,-0.375 1.194,-0.375c1.408,0 1.669,-0.094 1.669,-0.601c0,-0.381 0.051,-0.399 1.094,-0.399c1.23,0 1.739,-0.195 1.739,-0.664c0,-0.267 0.142,-0.327 0.875,-0.369c0.747,-0.043 0.883,-0.103 0.926,-0.405c0.041,-0.29 0.203,-0.375 0.882,-0.465c0.664,-0.088 0.868,-0.193 1.017,-0.521c0.122,-0.267 0.324,-0.41 0.581,-0.41c0.305,0 0.417,-0.113 0.494,-0.5c0.093,-0.464 0.152,-0.5 0.833,-0.5c0.614,0 0.763,-0.065 0.917,-0.404c0.101,-0.222 0.361,-0.448 0.577,-0.502c0.235,-0.059 0.435,-0.265 0.497,-0.513c0.075,-0.297 0.217,-0.414 0.503,-0.414c0.332,0 0.398,-0.084 0.398,-0.5c0,-0.444 0.056,-0.5 0.5,-0.5c0.423,0 0.5,-0.065 0.5,-0.417c0,-0.6 0.863,-0.6 1.137,0c0.111,0.245 0.329,0.417 0.526,0.417c0.224,0 0.337,0.11 0.337,0.327c0,0.413 0.475,0.673 1.228,0.673c0.513,0 0.59,0.056 0.636,0.458c0.042,0.36 0.151,0.47 0.511,0.511c0.36,0.042 0.459,0.14 0.459,0.459c0,0.339 0.081,0.405 0.5,0.405c0.37,0 0.5,0.078 0.5,0.3c0,0.48 0.348,0.7 1.105,0.7c0.646,0 0.71,0.039 0.759,0.459c0.049,0.427 0.111,0.461 0.927,0.508c0.804,0.047 0.875,0.084 0.875,0.459c0,0.382 0.057,0.408 0.896,0.408c0.862,0 0.9,0.019 0.996,0.5c0.096,0.481 0.133,0.5 1.001,0.5c0.76,0 0.915,0.052 0.988,0.331c0.125,0.474 0.786,0.669 2.279,0.669c1.252,0 1.308,0.016 1.409,0.416l0.104,0.417l2.247,0c1.886,0 2.247,0.04 2.247,0.25c0,0.216 0.583,0.25 4.25,0.25c3.636,0 4.25,-0.036 4.25,-0.246c0,-0.205 0.462,-0.254 2.792,-0.292c2.737,-0.044 2.792,-0.053 2.844,-0.414c0.048,-0.341 0.153,-0.372 1.416,-0.416c1.351,-0.048 1.365,-0.053 1.417,-0.507c0.053,-0.457 0.056,-0.458 1.38,-0.458l1.326,0l0.098,-0.492c0.092,-0.46 0.155,-0.496 0.955,-0.542c0.742,-0.043 0.862,-0.099 0.909,-0.425c0.037,-0.263 0.166,-0.375 0.433,-0.375c0.702,0 1.43,-0.347 1.43,-0.683c0,-0.241 0.12,-0.317 0.5,-0.317c0.444,0 0.5,-0.055 0.5,-0.5c0,-0.47 0.039,-0.5 0.653,-0.5c0.856,0 1.18,-0.136 1.18,-0.497c0,-0.194 0.171,-0.328 0.5,-0.394c0.397,-0.08 0.5,-0.187 0.5,-0.521c0,-0.357 0.077,-0.421 0.5,-0.421c0.445,0 0.5,-0.056 0.5,-0.5c0,-0.444 0.056,-0.5 0.5,-0.5c0.423,0 0.5,-0.065 0.5,-0.417c0,-0.333 0.084,-0.416 0.417,-0.416c0.352,0 0.417,-0.078 0.417,-0.5c0,-0.445 0.055,-0.5 0.5,-0.5c0.442,0 0.5,-0.057 0.5,-0.489c0,-0.41 0.074,-0.498 0.458,-0.542c0.321,-0.037 0.474,-0.16 0.51,-0.412c0.031,-0.219 0.21,-0.399 0.458,-0.462c0.287,-0.072 0.407,-0.217 0.407,-0.494c0,-0.303 0.114,-0.416 0.5,-0.493c0.475,-0.095 0.5,-0.142 0.5,-0.926c0,-0.778 0.027,-0.83 0.458,-0.88c0.357,-0.041 0.47,-0.151 0.51,-0.5c0.037,-0.314 0.162,-0.464 0.417,-0.5c0.314,-0.045 0.372,-0.173 0.415,-0.908c0.046,-0.799 0.082,-0.862 0.541,-0.954c0.474,-0.095 0.492,-0.133 0.492,-1.02c0,-0.804 0.042,-0.92 0.328,-0.92c0.414,0 0.672,-0.476 0.672,-1.239c0,-0.327 0.07,-0.595 0.155,-0.595c0.5,0 0.679,-0.553 0.679,-2.095c0,-1.402 0.032,-1.571 0.3,-1.571c0.612,0 0.7,-0.329 0.7,-2.617l0,-2.217l0.399,0c0.622,0 0.601,1.067 0.601,-30.647c0,-31.544 0.023,-30.519 -0.7,-30.519c-0.273,0 -0.3,-0.188 -0.3,-2.07c0,-2.369 -0.053,-2.597 -0.601,-2.597c-0.39,0 -0.399,-0.034 -0.399,-1.417c0,-1.4 -0.005,-1.416 -0.417,-1.416c-0.402,0 -0.417,-0.038 -0.417,-1.095c0,-1.229 -0.194,-1.739 -0.663,-1.739c-0.268,0 -0.327,-0.142 -0.37,-0.875c-0.047,-0.816 -0.081,-0.878 -0.508,-0.927c-0.412,-0.048 -0.459,-0.119 -0.459,-0.695c0,-0.851 -0.138,-1.169 -0.506,-1.169c-0.209,0 -0.322,-0.145 -0.358,-0.459c-0.041,-0.36 -0.151,-0.469 -0.511,-0.511c-0.402,-0.046 -0.458,-0.123 -0.458,-0.636c0,-0.753 -0.26,-1.228 -0.673,-1.228c-0.252,0 -0.327,-0.114 -0.327,-0.5c0,-0.418 -0.066,-0.5 -0.406,-0.5c-0.318,0 -0.417,-0.098 -0.458,-0.458c-0.041,-0.357 -0.152,-0.47 -0.501,-0.51c-0.346,-0.04 -0.46,-0.154 -0.5,-0.5c-0.04,-0.349 -0.153,-0.46 -0.51,-0.501c-0.36,-0.041 -0.458,-0.14 -0.458,-0.458c0,-0.319 -0.087,-0.406 -0.406,-0.406c-0.319,0 -0.417,-0.098 -0.458,-0.458c-0.042,-0.36 -0.151,-0.47 -0.511,-0.511c-0.362,-0.042 -0.459,-0.14 -0.459,-0.463c0,-0.32 -0.107,-0.431 -0.491,-0.508c-0.334,-0.067 -0.507,-0.211 -0.541,-0.454c-0.044,-0.304 -0.179,-0.363 -0.926,-0.406c-0.846,-0.049 -0.875,-0.067 -0.875,-0.542c0,-0.432 -0.059,-0.491 -0.489,-0.491c-0.409,0 -0.497,-0.075 -0.542,-0.459c-0.049,-0.427 -0.111,-0.461 -0.927,-0.508c-0.804,-0.047 -0.875,-0.084 -0.875,-0.459c0,-0.342 -0.081,-0.408 -0.5,-0.408c-0.386,0 -0.5,-0.074 -0.5,-0.327c0,-0.477 -0.503,-0.673 -1.728,-0.673c-1.058,0 -1.085,-0.01 -1.136,-0.458c-0.049,-0.427 -0.113,-0.462 -0.918,-0.508c-0.745,-0.043 -0.871,-0.101 -0.916,-0.417c-0.05,-0.35 -0.14,-0.369 -1.917,-0.414l-1.864,-0.047l-0.052,-0.453l-0.053,-0.453l-8.22,-0.043c-8.636,-0.045 -9.245,-0.006 -9.333,0.595c-0.05,0.342 -0.14,0.365 -1.455,0.365c-1.356,0 -1.405,0.014 -1.507,0.417c-0.098,0.391 -0.17,0.416 -1.211,0.419c-1.231,0.003 -1.426,0.079 -1.596,0.622c-0.1,0.323 -0.232,0.375 -0.943,0.375c-0.785,0 -0.831,0.025 -0.926,0.5c-0.088,0.44 -0.17,0.5 -0.674,0.5c-0.682,0 -1.218,0.255 -1.218,0.578c0,0.131 -0.202,0.257 -0.458,0.286c-0.358,0.041 -0.47,0.152 -0.511,0.503c-0.048,0.417 -0.115,0.454 -0.916,0.5c-0.805,0.047 -0.869,0.082 -0.918,0.508c-0.044,0.384 -0.132,0.459 -0.541,0.459c-0.407,0 -0.489,0.068 -0.489,0.405c0,0.319 -0.099,0.417 -0.459,0.459c-0.36,0.041 -0.469,0.151 -0.511,0.511c-0.041,0.36 -0.139,0.458 -0.458,0.458c-0.34,0 -0.406,0.081 -0.406,0.5c0,0.441 -0.057,0.5 -0.486,0.5c-0.267,0 -0.524,0.094 -0.57,0.208c-0.067,0.167 -0.087,0.167 -0.097,0c-0.007,-0.114 -0.196,-0.208 -0.419,-0.208c-0.319,0 -0.417,-0.098 -0.458,-0.458c-0.042,-0.36 -0.151,-0.47 -0.511,-0.511c-0.362,-0.042 -0.459,-0.14 -0.459,-0.463c0,-0.322 -0.107,-0.431 -0.5,-0.51c-0.329,-0.066 -0.5,-0.2 -0.5,-0.394c0,-0.361 -0.324,-0.497 -1.18,-0.497c-0.614,0 -0.653,-0.03 -0.653,-0.5c0,-0.422 -0.065,-0.5 -0.413,-0.5c-0.298,0 -0.442,-0.113 -0.515,-0.401c-0.107,-0.427 -0.487,-0.593 -1.364,-0.597c-0.466,-0.002 -0.541,-0.06 -0.541,-0.419c0,-0.394 -0.05,-0.417 -0.917,-0.417c-0.907,0 -0.917,-0.005 -0.917,-0.5c0,-0.493 -0.011,-0.5 -0.895,-0.5c-0.863,0 -0.9,-0.019 -0.996,-0.5c-0.097,-0.483 -0.131,-0.5 -1.021,-0.5c-0.698,0 -0.921,-0.059 -0.921,-0.244c0,-0.425 -0.6,-0.589 -2.156,-0.589c-1.344,0 -1.511,-0.033 -1.511,-0.3c0,-0.696 -0.048,-0.7 -8.741,-0.698c-9.049,0.003 -9.092,0.006 -9.092,0.601c0,0.387 -0.035,0.397 -1.417,0.397c-1.4,0 -1.416,0.005 -1.416,0.417c0,0.402 -0.038,0.416 -1.095,0.416c-1.236,0 -1.739,0.195 -1.739,0.673c0,0.286 -0.116,0.327 -0.921,0.327c-0.886,0 -0.924,0.019 -1.019,0.492c-0.092,0.46 -0.155,0.496 -0.954,0.542c-0.742,0.043 -0.863,0.099 -0.909,0.425c-0.038,0.268 -0.165,0.375 -0.447,0.375c-0.631,0 -1.275,0.31 -1.366,0.659c-0.051,0.196 -0.257,0.342 -0.526,0.373c-0.342,0.039 -0.453,0.154 -0.494,0.509c-0.044,0.384 -0.132,0.459 -0.541,0.459c-0.406,0 -0.489,0.068 -0.489,0.401c0,0.354 -0.097,0.414 -0.819,0.513c-0.669,0.092 -0.836,0.183 -0.915,0.498c-0.057,0.228 -0.267,0.427 -0.515,0.489c-0.306,0.077 -0.418,0.216 -0.418,0.519c0,0.287 -0.092,0.413 -0.3,0.413c-0.384,0 -0.7,0.316 -0.7,0.7c0,0.205 -0.126,0.3 -0.397,0.3c-0.434,0 -0.597,0.351 -0.601,1.292c-0.002,0.49 -0.049,0.541 -0.502,0.541c-0.422,0 -0.5,0.065 -0.5,0.417c0,0.333 -0.083,0.417 -0.417,0.417c-0.349,0 -0.416,0.078 -0.416,0.489c0,0.409 -0.075,0.497 -0.459,0.541c-0.426,0.049 -0.461,0.113 -0.508,0.918c-0.046,0.801 -0.083,0.868 -0.5,0.916c-0.348,0.041 -0.462,0.154 -0.502,0.5c-0.036,0.314 -0.161,0.464 -0.416,0.5c-0.313,0.045 -0.372,0.173 -0.415,0.894c-0.044,0.759 -0.096,0.859 -0.541,1.027c-0.456,0.172 -0.493,0.249 -0.493,1.022c0,0.735 -0.044,0.843 -0.368,0.889c-0.439,0.064 -0.592,0.519 -0.615,1.834c-0.015,0.849 -0.055,0.952 -0.392,1c-0.247,0.035 -0.401,0.195 -0.452,0.47c-0.051,0.27 -0.109,0.094 -0.167,-0.5c-0.074,-0.766 -0.146,-0.925 -0.435,-0.966c-0.275,-0.04 -0.377,-0.228 -0.5,-0.917c-0.126,-0.707 -0.221,-0.877 -0.519,-0.919c-0.255,-0.037 -0.38,-0.187 -0.417,-0.5c-0.04,-0.349 -0.153,-0.46 -0.51,-0.501c-0.384,-0.044 -0.458,-0.132 -0.458,-0.542c0,-0.405 -0.069,-0.489 -0.401,-0.489c-0.354,0 -0.414,-0.096 -0.514,-0.818c-0.093,-0.682 -0.18,-0.836 -0.515,-0.92c-0.292,-0.074 -0.403,-0.216 -0.403,-0.519c0,-0.331 -0.104,-0.438 -0.5,-0.518c-0.387,-0.077 -0.5,-0.189 -0.5,-0.496c0,-0.305 -0.091,-0.395 -0.396,-0.395c-0.307,0 -0.419,-0.113 -0.496,-0.5c-0.079,-0.397 -0.187,-0.5 -0.521,-0.5c-0.339,0 -0.421,-0.082 -0.421,-0.421c0,-0.328 -0.103,-0.442 -0.466,-0.514c-0.258,-0.052 -0.538,-0.255 -0.625,-0.454c-0.087,-0.199 -0.327,-0.385 -0.534,-0.415c-0.266,-0.037 -0.375,-0.165 -0.375,-0.44c0,-0.45 -0.277,-0.59 -1.169,-0.59c-0.576,0 -0.647,-0.046 -0.695,-0.458c-0.037,-0.328 -0.159,-0.473 -0.427,-0.512c-0.234,-0.033 -0.413,-0.205 -0.476,-0.458c-0.092,-0.366 -0.188,-0.405 -1.001,-0.405c-0.887,0 -0.898,-0.006 -0.898,-0.5c0,-0.442 -0.057,-0.5 -0.489,-0.5c-0.379,0 -0.5,-0.084 -0.541,-0.375c-0.044,-0.309 -0.205,-0.402 -0.921,-0.529c-0.689,-0.123 -0.877,-0.225 -0.917,-0.5c-0.041,-0.291 -0.185,-0.354 -0.905,-0.396c-0.799,-0.046 -0.862,-0.082 -0.954,-0.541c-0.094,-0.473 -0.134,-0.492 -1.008,-0.492c-0.81,0 -0.915,-0.04 -0.962,-0.369c-0.063,-0.431 -0.517,-0.591 -1.75,-0.615c-0.763,-0.014 -0.87,-0.06 -0.917,-0.391c-0.049,-0.35 -0.146,-0.379 -1.418,-0.424c-1.346,-0.047 -1.365,-0.054 -1.416,-0.5c-0.052,-0.444 -0.073,-0.452 -1.393,-0.499c-1.316,-0.047 -1.344,-0.057 -1.527,-0.542l-0.187,-0.494l-1.753,0c-1.691,0 -1.754,-0.013 -1.806,-0.375c-0.052,-0.369 -0.092,-0.375 -2.845,-0.42l-2.791,-0.046l0,-0.395c0,-0.606 0.185,-0.597 -12.056,-0.595c-12.314,0.003 -12.23,-0.001 -12.381,0.601c-0.097,0.388 -0.142,0.397 -1.915,0.397l-1.815,0l0,0.417c0,0.415 -0.003,0.416 -1.625,0.419c-1.759,0.003 -1.937,0.055 -2.114,0.622c-0.106,0.341 -0.221,0.375 -1.239,0.375c-1.155,0 -1.522,0.167 -1.522,0.692c0,0.238 -0.176,0.301 -0.958,0.342c-0.842,0.044 -0.965,0.094 -1.011,0.416c-0.045,0.316 -0.171,0.374 -0.916,0.417c-0.805,0.047 -0.869,0.082 -0.918,0.508c-0.05,0.438 -0.094,0.459 -0.962,0.459c-0.874,0 -0.914,0.019 -1.008,0.492c-0.092,0.459 -0.155,0.495 -0.955,0.541c-0.727,0.043 -0.863,0.103 -0.906,0.405c-0.041,0.289 -0.203,0.375 -0.873,0.464c-0.687,0.091 -0.839,0.175 -0.924,0.51c-0.069,0.278 -0.237,0.418 -0.543,0.453c-0.341,0.04 -0.455,0.155 -0.495,0.501c-0.047,0.408 -0.123,0.454 -0.833,0.5c-0.614,0.04 -0.815,0.128 -0.94,0.411c-0.087,0.2 -0.367,0.403 -0.625,0.454c-0.359,0.072 -0.466,0.188 -0.466,0.503c0,0.324 -0.097,0.421 -0.459,0.463c-0.36,0.041 -0.469,0.151 -0.511,0.511c-0.041,0.36 -0.139,0.458 -0.458,0.458c-0.313,0 -0.406,0.089 -0.406,0.387c0,0.335 -0.116,0.406 -0.875,0.541c-0.692,0.123 -0.885,0.227 -0.923,0.497c-0.029,0.2 -0.253,0.418 -0.542,0.527c-0.329,0.124 -0.493,0.302 -0.493,0.534c0,0.241 -0.106,0.348 -0.348,0.348c-0.232,0 -0.409,0.163 -0.534,0.493c-0.109,0.289 -0.327,0.513 -0.527,0.541c-0.195,0.028 -0.362,0.195 -0.39,0.39c-0.028,0.2 -0.252,0.418 -0.541,0.527c-0.33,0.125 -0.493,0.302 -0.493,0.534c0,0.235 -0.107,0.348 -0.328,0.348c-0.412,0 -0.672,0.475 -0.672,1.228c0,0.512 -0.056,0.59 -0.459,0.636c-0.36,0.041 -0.469,0.151 -0.511,0.511c-0.041,0.36 -0.139,0.458 -0.458,0.458c-0.311,0 -0.406,0.089 -0.406,0.38c0,0.27 -0.145,0.436 -0.5,0.569c-0.465,0.176 -0.5,0.248 -0.5,1.037c0,0.831 -0.01,0.848 -0.5,0.848c-0.421,0 -0.5,0.065 -0.5,0.413c0,0.302 -0.112,0.442 -0.416,0.518c-0.372,0.093 -0.417,0.191 -0.417,0.899c0,0.75 -0.028,0.8 -0.5,0.895c-0.482,0.096 -0.5,0.132 -0.5,1.009c0,0.869 -0.021,0.913 -0.458,0.963c-0.428,0.049 -0.462,0.112 -0.509,0.928c-0.046,0.803 -0.084,0.875 -0.458,0.875c-0.382,0 -0.408,0.057 -0.408,0.88c0,0.825 -0.032,0.892 -0.5,1.069c-0.495,0.186 -0.5,0.201 -0.5,1.45c0,1.207 -0.018,1.265 -0.418,1.366c-0.328,0.082 -0.44,0.242 -0.52,0.745c-0.089,0.559 -0.133,0.61 -0.344,0.398c-0.133,-0.133 -0.344,-0.242 -0.469,-0.242c-0.124,0 -0.25,-0.165 -0.279,-0.368c-0.034,-0.231 -0.207,-0.404 -0.464,-0.464c-0.257,-0.061 -0.447,-0.25 -0.507,-0.507c-0.085,-0.363 -0.198,-0.417 -0.964,-0.461c-0.839,-0.049 -0.869,-0.067 -0.869,-0.542c0,-0.409 -0.067,-0.491 -0.405,-0.491c-0.319,0 -0.417,-0.098 -0.459,-0.458c-0.041,-0.357 -0.151,-0.47 -0.5,-0.51c-0.314,-0.037 -0.464,-0.162 -0.5,-0.417c-0.045,-0.314 -0.173,-0.372 -0.917,-0.415c-0.801,-0.046 -0.869,-0.083 -0.917,-0.5c-0.039,-0.345 -0.154,-0.462 -0.487,-0.501c-0.266,-0.03 -0.506,-0.204 -0.616,-0.446c-0.136,-0.298 -0.364,-0.424 -0.92,-0.507c-0.56,-0.084 -0.784,-0.209 -0.922,-0.512c-0.158,-0.346 -0.298,-0.401 -1.02,-0.401c-0.721,0 -0.837,-0.045 -0.837,-0.327c0,-0.478 -0.503,-0.673 -1.739,-0.673c-0.976,0 -1.094,-0.035 -1.094,-0.327c0,-0.509 -0.52,-0.673 -2.138,-0.673c-1.455,0 -1.495,-0.01 -1.598,-0.418l-0.105,-0.418l-7.871,0.043l-7.871,0.043l-0.054,0.375c-0.051,0.362 -0.115,0.375 -1.806,0.375l-1.753,0l-0.188,0.5c-0.18,0.477 -0.234,0.5 -1.163,0.5c-1.117,0 -1.62,0.207 -1.62,0.665c0,0.271 -0.142,0.326 -0.958,0.369c-0.849,0.044 -0.964,0.092 -1.012,0.425c-0.043,0.307 -0.158,0.375 -0.636,0.375c-0.752,0 -1.227,0.26 -1.227,0.672c0,0.253 -0.114,0.328 -0.5,0.328c-0.444,0 -0.5,0.055 -0.5,0.5c0,0.495 -0.009,0.5 -0.917,0.5c-0.855,0 -0.916,0.026 -0.916,0.397c0,0.315 -0.105,0.414 -0.5,0.472l-0.5,0.073l0,-1.271c0,-1.313 -0.151,-1.671 -0.7,-1.671c-0.274,0 -0.3,-0.192 -0.3,-2.181l0,-2.182l-0.494,-0.186c-0.48,-0.181 -0.495,-0.221 -0.542,-1.444c-0.044,-1.16 -0.077,-1.261 -0.423,-1.311c-0.323,-0.045 -0.375,-0.153 -0.375,-0.778c0,-0.981 -0.13,-1.252 -0.601,-1.252c-0.372,0 -0.399,-0.061 -0.399,-0.916c0,-0.908 -0.005,-0.917 -0.5,-0.917c-0.493,0 -0.5,-0.011 -0.5,-0.899c0,-0.819 -0.036,-0.907 -0.416,-1.003c-0.305,-0.076 -0.417,-0.216 -0.417,-0.518c0,-0.348 -0.079,-0.413 -0.5,-0.413c-0.453,0 -0.5,-0.052 -0.502,-0.542c-0.004,-0.941 -0.167,-1.292 -0.601,-1.292c-0.33,0 -0.397,-0.084 -0.397,-0.5c0,-0.418 -0.066,-0.5 -0.406,-0.5c-0.318,0 -0.417,-0.098 -0.458,-0.458c-0.041,-0.357 -0.152,-0.47 -0.501,-0.51c-0.346,-0.04 -0.46,-0.154 -0.5,-0.5c-0.04,-0.349 -0.153,-0.46 -0.51,-0.501c-0.36,-0.041 -0.458,-0.14 -0.458,-0.458c0,-0.319 -0.087,-0.406 -0.406,-0.406c-0.319,0 -0.417,-0.098 -0.458,-0.458c-0.041,-0.357 -0.152,-0.47 -0.501,-0.51c-0.347,-0.04 -0.46,-0.154 -0.5,-0.5c-0.041,-0.35 -0.153,-0.46 -0.51,-0.501c-0.36,-0.042 -0.459,-0.14 -0.459,-0.459c0,-0.339 -0.081,-0.405 -0.5,-0.405c-0.37,0 -0.5,-0.078 -0.5,-0.3c0,-0.48 -0.348,-0.7 -1.105,-0.7c-0.646,0 -0.71,-0.039 -0.759,-0.459c-0.049,-0.427 -0.111,-0.461 -0.927,-0.508c-0.804,-0.047 -0.875,-0.084 -0.875,-0.459c0,-0.342 -0.081,-0.408 -0.5,-0.408c-0.386,0 -0.5,-0.074 -0.5,-0.327c0,-0.477 -0.503,-0.673 -1.728,-0.673c-1.058,0 -1.085,-0.01 -1.136,-0.458c-0.049,-0.427 -0.112,-0.462 -0.928,-0.509c-0.481,-0.027 -0.875,-0.116 -0.875,-0.196c0,-0.491 -0.561,-0.67 -2.095,-0.67c-1.451,0 -1.572,-0.025 -1.572,-0.327c0,-0.641 -0.404,-0.673 -8.558,-0.673c-8.471,0 -8.442,-0.002 -8.442,0.601c0,0.39 -0.032,0.399 -1.458,0.401c-1.765,0.003 -2.208,0.105 -2.208,0.509c0,0.255 -0.159,0.314 -0.959,0.356c-0.907,0.047 -0.961,0.074 -1.011,0.508c-0.052,0.45 -0.072,0.458 -1.196,0.458c-1.16,0 -1.668,0.229 -1.668,0.751c0,0.125 -0.206,0.251 -0.458,0.28c-0.328,0.038 -0.473,0.159 -0.512,0.428c-0.044,0.314 -0.156,0.375 -0.694,0.375c-0.897,0 -1.169,0.14 -1.169,0.601c0,0.346 -0.079,0.399 -0.594,0.399c-0.757,0 -1.239,0.257 -1.239,0.661c0,0.221 -0.138,0.332 -0.459,0.369c-0.324,0.038 -0.473,0.16 -0.51,0.418c-0.036,0.255 -0.186,0.38 -0.5,0.417c-0.349,0.04 -0.46,0.153 -0.501,0.51c-0.041,0.36 -0.139,0.458 -0.458,0.458c-0.336,0 -0.406,0.082 -0.406,0.482c0,0.815 -1.937,0.863 -2.031,0.05c-0.041,-0.35 -0.153,-0.46 -0.51,-0.501c-0.362,-0.042 -0.459,-0.14 -0.459,-0.463c0,-0.32 -0.107,-0.431 -0.491,-0.508c-0.334,-0.067 -0.507,-0.211 -0.541,-0.454c-0.044,-0.304 -0.179,-0.363 -0.926,-0.406c-0.846,-0.049 -0.875,-0.067 -0.875,-0.542c0,-0.409 -0.068,-0.491 -0.405,-0.491c-0.275,0 -0.444,-0.121 -0.523,-0.375c-0.159,-0.511 -0.369,-0.62 -1.197,-0.623c-0.644,-0.002 -0.708,-0.04 -0.708,-0.419c0,-0.394 -0.05,-0.417 -0.917,-0.417c-0.907,0 -0.917,-0.005 -0.917,-0.5c0,-0.495 -0.009,-0.5 -0.916,-0.5c-0.772,0 -0.917,-0.047 -0.917,-0.3c0,-0.493 -0.354,-0.7 -1.2,-0.7c-0.591,0 -0.8,-0.063 -0.8,-0.244c0,-0.425 -0.6,-0.589 -2.156,-0.589c-1.391,0 -1.511,-0.026 -1.511,-0.327c0,-0.181 -0.145,-0.406 -0.322,-0.5c-0.489,-0.262 -16.214,-0.236 -16.478,0.027m13.713,7.378c0.915,0.232 1.815,0.425 2,0.429c0.186,0.004 0.6,0.109 0.921,0.232c0.32,0.124 1.033,0.39 1.582,0.592c2.631,0.967 6.18,3.052 8.309,4.883c2.234,1.919 5.914,6.28 5.949,7.048c0.041,0.882 1.826,1.841 1.826,0.98c0,-0.119 0.178,-0.428 0.394,-0.688c0.217,-0.259 0.444,-0.631 0.505,-0.826c0.061,-0.195 0.24,-0.511 0.398,-0.702c0.158,-0.191 0.812,-1.003 1.453,-1.804c1.93,-2.411 3.777,-4.135 6.339,-5.922c1.014,-0.707 5,-2.8 5.332,-2.8c0.13,0 0.642,-0.179 1.138,-0.399c0.496,-0.219 1.229,-0.451 1.63,-0.516c0.4,-0.065 1.253,-0.263 1.895,-0.441c2.705,-0.749 9.152,-0.789 11.463,-0.071c0.439,0.136 1.264,0.332 1.834,0.435c0.57,0.104 1.336,0.324 1.703,0.491c0.366,0.166 1.004,0.391 1.416,0.5c0.413,0.109 0.867,0.302 1.009,0.429c0.142,0.126 0.57,0.34 0.952,0.475c0.381,0.134 0.903,0.388 1.158,0.564c0.256,0.176 0.99,0.627 1.631,1.002c1.709,0.999 5.361,4.057 5.921,4.957c0.174,0.28 0.615,0.842 0.98,1.25c0.907,1.012 1.453,1.78 1.847,2.594c0.182,0.377 0.445,0.78 0.583,0.894c0.138,0.115 0.338,0.499 0.444,0.853c0.106,0.354 0.332,0.77 0.501,0.923c0.169,0.153 0.308,0.381 0.308,0.506c0,0.125 0.225,0.724 0.5,1.331c0.275,0.606 0.5,1.201 0.5,1.321c0,0.12 0.217,0.916 0.484,1.769c0.929,2.974 1.242,7.57 0.766,11.216c-0.396,3.029 -0.439,3.213 -1.409,6.084c-0.259,0.767 -0.881,2.245 -1.121,2.666c-0.131,0.23 -0.349,0.679 -0.483,1c-0.135,0.321 -0.319,0.696 -0.409,0.834c-0.09,0.137 -0.283,0.512 -0.43,0.833c-0.146,0.321 -0.369,0.771 -0.496,1c-0.126,0.229 -0.345,0.679 -0.487,1c-0.141,0.321 -0.332,0.696 -0.424,0.833c-0.091,0.138 -0.318,0.588 -0.503,1c-0.185,0.413 -0.409,0.863 -0.497,1c-0.088,0.138 -0.28,0.513 -0.426,0.834c-0.146,0.32 -0.37,0.771 -0.496,1c-0.127,0.229 -0.346,0.679 -0.487,1c-0.141,0.32 -0.332,0.695 -0.424,0.833c-0.092,0.137 -0.318,0.587 -0.503,1c-0.185,0.413 -0.41,0.862 -0.5,1c-0.09,0.137 -0.315,0.587 -0.5,1c-0.185,0.413 -0.404,0.862 -0.485,1c-0.082,0.137 -2.044,4.037 -4.361,8.667c-2.316,4.629 -4.257,8.454 -4.314,8.5c-0.056,0.045 -0.234,0.42 -0.396,0.833c-0.162,0.412 -0.387,0.862 -0.502,1c-0.114,0.137 -0.337,0.6 -0.495,1.029c-0.157,0.428 -0.395,0.868 -0.528,0.978c-0.132,0.11 -0.241,0.282 -0.241,0.382c0,0.162 -1.283,2.814 -1.666,3.444c-0.084,0.138 -0.304,0.588 -0.489,1c-0.185,0.413 -0.41,0.863 -0.5,1c-0.09,0.138 -0.315,0.588 -0.5,1c-0.185,0.413 -0.412,0.863 -0.503,1c-0.092,0.138 -0.277,0.513 -0.412,0.834c-0.135,0.32 -0.353,0.771 -0.484,1c-0.131,0.229 -0.36,0.679 -0.508,1c-0.148,0.32 -0.341,0.695 -0.43,0.833c-0.088,0.138 -0.311,0.587 -0.496,1c-0.186,0.412 -0.412,0.862 -0.504,1c-0.092,0.138 -0.28,0.513 -0.418,0.833c-0.138,0.321 -0.473,0.959 -0.744,1.417c-0.272,0.458 -0.688,1.171 -0.926,1.583c-0.456,0.79 -0.728,1.176 -1.882,2.667c-1.172,1.516 -2.237,2.736 -2.606,2.987c-0.192,0.13 -0.725,0.58 -1.186,1c-1.523,1.389 -3.109,2.455 -5.403,3.632c-0.575,0.295 -1.131,0.601 -1.236,0.679c-0.105,0.079 -0.522,0.239 -0.928,0.355c-0.406,0.116 -1.005,0.354 -1.331,0.529c-0.326,0.175 -0.75,0.318 -0.941,0.318c-0.192,0 -0.903,0.189 -1.581,0.419c-2.026,0.689 -7.145,0.959 -11.026,0.582c-3.115,-0.303 -6.91,-1.628 -10.662,-3.723c-3.034,-1.693 -6.943,-5.336 -8.692,-8.1c-0.2,-0.315 -0.644,-1.016 -0.988,-1.559c-0.343,-0.542 -0.625,-1.026 -0.625,-1.076c0,-0.049 -0.225,-0.455 -0.5,-0.902c-0.275,-0.447 -0.5,-0.914 -0.5,-1.038c0,-0.123 -0.151,-0.417 -0.337,-0.653c-0.185,-0.236 -0.449,-0.748 -0.587,-1.139c-0.138,-0.391 -0.361,-0.832 -0.495,-0.98c-0.134,-0.148 -0.332,-0.527 -0.44,-0.842c-0.108,-0.315 -0.371,-0.852 -0.585,-1.194c-0.214,-0.342 -0.389,-0.726 -0.389,-0.853c0,-0.127 -0.137,-0.409 -0.304,-0.628c-0.168,-0.218 -0.437,-0.735 -0.598,-1.147c-0.161,-0.413 -0.386,-0.863 -0.501,-1c-0.115,-0.138 -0.31,-0.513 -0.434,-0.834c-0.123,-0.32 -0.398,-0.844 -0.61,-1.163c-0.213,-0.32 -0.386,-0.703 -0.386,-0.853c0,-0.15 -0.152,-0.465 -0.337,-0.7c-0.186,-0.236 -0.45,-0.749 -0.588,-1.14c-0.138,-0.391 -0.349,-0.827 -0.469,-0.969c-0.12,-0.142 -0.319,-0.521 -0.441,-0.841c-0.123,-0.321 -0.349,-0.771 -0.502,-1c-0.154,-0.229 -0.355,-0.642 -0.448,-0.917c-0.093,-0.275 -0.367,-0.792 -0.609,-1.148c-0.242,-0.357 -0.44,-0.779 -0.44,-0.938c0,-0.16 -0.102,-0.375 -0.228,-0.479c-0.125,-0.104 -0.362,-0.545 -0.525,-0.979c-0.163,-0.434 -0.424,-0.977 -0.579,-1.206c-0.156,-0.229 -0.367,-0.664 -0.47,-0.966c-0.102,-0.302 -0.338,-0.744 -0.525,-0.981c-0.187,-0.237 -0.339,-0.561 -0.339,-0.72c0,-0.158 -0.146,-0.473 -0.324,-0.699c-0.178,-0.227 -0.452,-0.743 -0.609,-1.148c-0.157,-0.405 -0.38,-0.849 -0.496,-0.986c-0.115,-0.138 -0.342,-0.588 -0.503,-1c-0.161,-0.413 -0.43,-0.929 -0.597,-1.147c-0.168,-0.219 -0.305,-0.528 -0.305,-0.686c0,-0.159 -0.151,-0.481 -0.337,-0.717c-0.185,-0.236 -0.449,-0.748 -0.587,-1.139c-0.138,-0.391 -0.36,-0.831 -0.492,-0.978c-0.133,-0.146 -0.354,-0.586 -0.492,-0.977c-0.138,-0.391 -0.403,-0.904 -0.588,-1.139c-0.185,-0.236 -0.337,-0.538 -0.337,-0.672c0,-0.134 -0.153,-0.458 -0.339,-0.72c-0.187,-0.262 -0.424,-0.724 -0.526,-1.026c-0.102,-0.302 -0.327,-0.752 -0.5,-1c-0.173,-0.248 -0.398,-0.698 -0.502,-1c-0.103,-0.302 -0.363,-0.81 -0.577,-1.129c-0.214,-0.32 -0.391,-0.695 -0.392,-0.834c-0.002,-0.139 -0.227,-0.583 -0.5,-0.986c-0.274,-0.403 -0.497,-0.842 -0.497,-0.974c0,-0.133 -0.153,-0.456 -0.34,-0.718c-0.186,-0.262 -0.424,-0.72 -0.528,-1.018c-0.104,-0.298 -0.364,-0.799 -0.577,-1.114c-0.214,-0.315 -0.39,-0.693 -0.392,-0.841c-0.001,-0.148 -0.226,-0.598 -0.5,-1.002c-0.273,-0.403 -0.497,-0.862 -0.497,-1.019c0,-0.157 -0.151,-0.478 -0.337,-0.714c-0.185,-0.236 -0.449,-0.748 -0.587,-1.139c-0.138,-0.391 -0.357,-0.829 -0.487,-0.972c-0.13,-0.144 -0.315,-0.612 -0.411,-1.04c-0.096,-0.428 -0.334,-1.177 -0.528,-1.664c-0.195,-0.487 -0.417,-1.434 -0.495,-2.104c-0.077,-0.671 -0.214,-1.458 -0.304,-1.75c-0.572,-1.87 -0.688,-5.237 -0.255,-7.448c0.135,-0.687 0.362,-2 0.504,-2.916c0.143,-0.917 0.399,-1.942 0.57,-2.277c0.17,-0.336 0.361,-0.899 0.423,-1.25c0.063,-0.352 0.287,-0.978 0.498,-1.39c0.211,-0.413 0.468,-1.022 0.57,-1.355c0.102,-0.333 0.326,-0.732 0.497,-0.887c0.172,-0.155 0.355,-0.454 0.408,-0.664c0.092,-0.368 0.896,-1.621 1.93,-3.011c0.273,-0.366 0.678,-0.929 0.901,-1.25c0.561,-0.807 3.13,-3.279 4.433,-4.266c0.594,-0.449 1.227,-0.948 1.407,-1.109c0.179,-0.16 0.413,-0.291 0.519,-0.291c0.106,0 0.328,-0.15 0.494,-0.334c0.166,-0.183 0.373,-0.333 0.46,-0.333c0.087,0 0.492,-0.225 0.9,-0.5c0.407,-0.275 0.821,-0.5 0.92,-0.5c0.099,0 0.639,-0.218 1.2,-0.483c1.099,-0.521 2.152,-0.898 3.604,-1.29c0.504,-0.136 1.435,-0.401 2.068,-0.589c2.574,-0.763 8.618,-0.794 11.511,-0.06m189.004,-0.408c1.375,0.08 3.175,0.264 4,0.407c0.825,0.144 2.287,0.338 3.25,0.431c0.963,0.093 2.245,0.315 2.849,0.494c0.605,0.179 1.64,0.402 2.302,0.496c0.661,0.094 1.404,0.272 1.65,0.397c0.247,0.125 0.861,0.324 1.366,0.442c1.326,0.311 4.361,1.335 4.745,1.602c0.181,0.125 0.443,0.228 0.583,0.228c0.14,0 0.776,0.263 1.412,0.584c0.637,0.32 1.288,0.582 1.449,0.582c0.16,0 0.338,0.077 0.396,0.171c0.058,0.093 0.531,0.396 1.052,0.671c1.636,0.866 2.417,1.323 2.699,1.578c0.15,0.136 0.348,0.247 0.439,0.247c0.092,0 0.343,0.187 0.558,0.417c0.215,0.229 0.484,0.416 0.597,0.416c0.184,0 0.604,0.303 2.127,1.534c2.401,1.939 6.098,6.172 7.52,8.608c0.088,0.151 0.37,0.587 0.625,0.969c0.255,0.382 0.464,0.759 0.464,0.838c0,0.08 0.378,0.892 0.839,1.806c0.462,0.914 0.924,1.999 1.028,2.412c0.104,0.412 0.325,1.014 0.492,1.337c0.166,0.324 0.419,1.261 0.562,2.084c0.142,0.823 0.329,1.721 0.415,1.996c0.571,1.832 0.433,6.898 -0.236,8.666c-0.138,0.367 -0.255,0.849 -0.259,1.07c-0.004,0.222 -0.226,0.86 -0.494,1.417c-0.268,0.557 -0.605,1.276 -0.75,1.597c-0.145,0.32 -0.456,0.92 -0.692,1.333c-0.536,0.938 -0.468,1.512 0.32,2.705c1.235,1.869 2.872,5.301 3.44,7.212c0.164,0.55 0.379,1.187 0.479,1.416c1.241,2.853 2.006,12.771 1.285,16.667c-0.36,1.947 -1.093,5.018 -1.282,5.371c-0.094,0.176 -0.281,0.741 -0.415,1.256c-0.134,0.516 -0.391,1.175 -0.571,1.466c-0.18,0.292 -0.327,0.659 -0.327,0.818c0,0.158 -0.357,0.924 -0.792,1.701c-0.435,0.777 -0.952,1.729 -1.148,2.115c-0.196,0.385 -0.477,0.802 -0.625,0.924c-0.148,0.123 -0.272,0.308 -0.275,0.411c-0.004,0.103 -0.229,0.448 -0.5,0.765c-0.272,0.317 -0.494,0.667 -0.494,0.776c0,0.555 -5.432,6.396 -7.455,8.016c-1.48,1.185 -1.886,1.493 -2.317,1.751c-0.804,0.483 -1.122,0.698 -1.621,1.095c-0.264,0.209 -0.715,0.494 -1.002,0.633c-0.287,0.139 -0.896,0.474 -1.355,0.744c-0.458,0.269 -1.171,0.642 -1.583,0.828c-0.412,0.185 -1.027,0.486 -1.366,0.667c-0.339,0.181 -0.694,0.33 -0.788,0.33c-0.095,0 -0.733,0.262 -1.418,0.583c-0.685,0.321 -1.365,0.583 -1.51,0.583c-0.146,0 -0.543,0.139 -0.883,0.307c-0.34,0.169 -0.993,0.401 -1.452,0.515c-0.458,0.114 -1.096,0.312 -1.416,0.44c-0.321,0.127 -1.315,0.381 -2.21,0.563c-0.894,0.182 -1.772,0.409 -1.95,0.505c-0.178,0.095 -0.947,0.247 -1.707,0.337c-1.79,0.212 -3.052,0.419 -3.883,0.637c-2.695,0.709 -13.83,0.627 -18.084,-0.132c-0.504,-0.09 -1.816,-0.278 -2.915,-0.417c-1.099,-0.14 -2.374,-0.362 -2.833,-0.494c-0.459,-0.132 -1.51,-0.365 -2.335,-0.518c-0.825,-0.152 -1.622,-0.342 -1.772,-0.422c-0.149,-0.079 -0.899,-0.292 -1.666,-0.473c-0.768,-0.181 -2.033,-0.564 -2.812,-0.852c-0.779,-0.288 -1.904,-0.698 -2.5,-0.911c-1.382,-0.496 -6.434,-3.026 -7.054,-3.533c-0.26,-0.212 -0.562,-0.385 -0.672,-0.385c-0.11,0 -0.446,-0.225 -0.747,-0.5c-0.301,-0.275 -0.647,-0.5 -0.769,-0.5c-0.122,0 -0.264,-0.109 -0.315,-0.241c-0.051,-0.133 -0.34,-0.369 -0.643,-0.525c-0.302,-0.156 -0.909,-0.628 -1.348,-1.048c-0.439,-0.42 -0.916,-0.829 -1.061,-0.91c-0.677,-0.379 -4.558,-4.837 -4.558,-5.236c0,-0.082 -0.187,-0.325 -0.416,-0.54c-0.229,-0.215 -0.417,-0.478 -0.417,-0.583c0,-0.105 -0.223,-0.486 -0.495,-0.846c-0.273,-0.36 -0.498,-0.728 -0.5,-0.818c-0.003,-0.09 -0.378,-0.915 -0.835,-1.833c-0.768,-1.546 -1.056,-2.257 -1.723,-4.253c-0.925,-2.77 -0.999,-3.1 -1.46,-6.5c-0.333,-2.466 -0.001,-7.558 0.599,-9.17c0.153,-0.411 0.379,-1.1 0.501,-1.531c0.244,-0.855 1.921,-3.913 2.838,-5.172l0.574,-0.789l-0.279,-0.699c-0.154,-0.384 -0.529,-1.112 -0.833,-1.617c-0.305,-0.506 -0.554,-0.993 -0.554,-1.083c0,-0.09 -0.1,-0.281 -0.222,-0.426c-0.123,-0.145 -0.316,-0.526 -0.43,-0.847c-0.114,-0.321 -0.381,-0.958 -0.593,-1.416c-0.537,-1.16 -1.421,-3.976 -1.423,-4.536c-0.002,-0.255 -0.165,-0.952 -0.365,-1.548c-0.927,-2.776 -0.4,-10.971 0.961,-14.929c0.223,-0.648 0.406,-1.273 0.406,-1.389c0,-0.477 2.866,-6.579 3.181,-6.774c0.087,-0.054 0.346,-0.449 0.574,-0.878c0.229,-0.429 0.675,-1.117 0.991,-1.53c0.316,-0.412 0.741,-1.031 0.945,-1.375c0.203,-0.343 0.429,-0.625 0.501,-0.625c0.072,0 0.226,-0.183 0.344,-0.406c0.629,-1.197 7.19,-7.594 7.788,-7.594c0.069,0 0.354,-0.206 0.633,-0.458c0.278,-0.252 0.758,-0.628 1.066,-0.836c1.709,-1.154 2.314,-1.539 2.418,-1.539c0.064,0 0.247,-0.119 0.407,-0.264c0.368,-0.333 1.51,-0.979 2.485,-1.407c0.412,-0.181 0.862,-0.402 1,-0.492c0.579,-0.377 2.645,-1.388 3.417,-1.671c0.458,-0.169 1.47,-0.541 2.25,-0.828c0.779,-0.287 1.941,-0.663 2.583,-0.835c0.642,-0.172 1.476,-0.424 1.855,-0.56c0.378,-0.136 1.128,-0.299 1.666,-0.362c0.539,-0.063 1.692,-0.267 2.562,-0.454c2.772,-0.595 8.383,-0.779 13.917,-0.457m86.167,0.21c0.458,0.132 1.208,0.331 1.666,0.441c0.776,0.186 1.746,0.493 3.584,1.134c0.412,0.144 0.862,0.351 1,0.46c0.137,0.108 0.512,0.297 0.833,0.42c0.321,0.123 0.782,0.36 1.026,0.527c0.243,0.168 0.513,0.305 0.6,0.305c0.086,0 0.45,0.21 0.807,0.468c0.358,0.257 0.764,0.511 0.903,0.563c0.849,0.319 4.928,4.046 6.169,5.635c0.179,0.23 0.512,0.642 0.74,0.917c0.636,0.767 1.529,2.133 1.656,2.535c0.114,0.358 1.157,1.382 1.407,1.382c0.072,0 0.258,-0.244 0.413,-0.542c0.596,-1.14 1.102,-1.982 1.475,-2.457c0.213,-0.271 0.8,-1.034 1.304,-1.695c1.929,-2.531 5.65,-5.722 7.77,-6.664c0.377,-0.168 0.78,-0.418 0.895,-0.557c0.115,-0.139 0.284,-0.252 0.376,-0.252c0.092,0 0.611,-0.225 1.152,-0.5c0.541,-0.275 1.095,-0.5 1.232,-0.5c0.136,0 0.616,-0.192 1.065,-0.428c0.45,-0.235 1.255,-0.49 1.789,-0.567c0.534,-0.077 1.308,-0.26 1.721,-0.407c2.045,-0.729 9.834,-0.789 12,-0.092c0.596,0.191 1.439,0.416 1.874,0.5c0.436,0.083 1.111,0.296 1.5,0.473c0.39,0.177 1.047,0.411 1.459,0.52c0.413,0.109 0.868,0.303 1.011,0.431c0.144,0.128 0.519,0.32 0.833,0.427c0.315,0.107 0.761,0.323 0.99,0.48c0.229,0.157 0.716,0.448 1.083,0.646c3.128,1.688 7.875,6.38 9.49,9.38c0.231,0.429 0.491,0.824 0.578,0.878c0.087,0.053 0.247,0.369 0.357,0.701c0.109,0.332 0.377,0.866 0.595,1.187c0.218,0.321 0.399,0.705 0.402,0.853c0.003,0.147 0.228,0.716 0.5,1.264c0.272,0.547 0.495,1.191 0.495,1.429c0,0.239 0.18,0.879 0.401,1.423c0.306,0.752 0.445,1.546 0.583,3.32c0.1,1.283 0.255,2.632 0.345,2.999c0.223,0.912 0.21,51.868 -0.014,53c-0.09,0.458 -0.23,1.695 -0.31,2.75c-0.166,2.189 -0.278,2.814 -0.673,3.75c-0.155,0.366 -0.337,0.966 -0.405,1.333c-0.067,0.367 -0.263,0.929 -0.435,1.25c-0.172,0.321 -0.391,0.893 -0.487,1.272c-0.096,0.379 -0.283,0.779 -0.415,0.889c-0.132,0.109 -0.328,0.474 -0.436,0.811c-0.107,0.336 -0.329,0.761 -0.492,0.945c-0.163,0.183 -0.416,0.596 -0.561,0.916c-0.145,0.321 -0.527,0.921 -0.85,1.334c-0.323,0.412 -0.729,0.963 -0.903,1.225c-1.231,1.855 -5.531,5.691 -7.686,6.858c-0.339,0.183 -1.095,0.594 -1.681,0.912c-1.213,0.659 -3.035,1.377 -4.715,1.858c-0.633,0.181 -1.27,0.391 -1.417,0.468c-1.217,0.637 -10.518,0.859 -12.599,0.301c-0.55,-0.148 -1.699,-0.456 -2.553,-0.685c-0.855,-0.228 -1.642,-0.486 -1.75,-0.571c-0.109,-0.086 -0.497,-0.251 -0.864,-0.366c-0.798,-0.251 -4.029,-1.911 -4.5,-2.312c-0.183,-0.156 -0.883,-0.654 -1.556,-1.106c-1.595,-1.074 -4.749,-4.202 -5.742,-5.695c-0.43,-0.647 -0.895,-1.271 -1.034,-1.386c-0.138,-0.115 -0.251,-0.302 -0.251,-0.415c0,-0.114 -0.225,-0.49 -0.5,-0.836c-0.275,-0.346 -0.5,-0.723 -0.5,-0.836c0,-0.598 -0.449,-0.553 -1.134,0.112c-0.385,0.373 -0.7,0.747 -0.7,0.83c0,0.164 -0.835,1.455 -1.689,2.61c-2.35,3.182 -9.652,8.867 -11.389,8.867c-0.109,0 -0.562,0.184 -1.007,0.409c-0.445,0.226 -1.163,0.486 -1.597,0.579c-0.433,0.093 -1.225,0.32 -1.761,0.505c-2.671,0.924 -10.861,0.878 -13.854,-0.078c-0.707,-0.226 -1.473,-0.412 -1.703,-0.413c-0.229,-0.002 -0.642,-0.141 -0.918,-0.309c-0.276,-0.169 -0.9,-0.438 -1.385,-0.6c-0.486,-0.161 -1.48,-0.623 -2.209,-1.026c-0.729,-0.404 -1.367,-0.734 -1.418,-0.734c-0.051,0 -0.594,-0.352 -1.206,-0.782c-3.701,-2.602 -7.189,-6.354 -8.864,-9.533c-0.229,-0.435 -0.548,-0.971 -0.708,-1.191c-0.16,-0.221 -0.292,-0.524 -0.292,-0.674c0,-0.15 -0.176,-0.534 -0.393,-0.852c-0.216,-0.319 -0.447,-0.873 -0.514,-1.232c-0.067,-0.359 -0.292,-1.027 -0.499,-1.486c-0.208,-0.458 -0.428,-1.283 -0.489,-1.833c-0.061,-0.55 -0.219,-1.338 -0.351,-1.75c-0.131,-0.413 -0.317,-1.478 -0.413,-2.368c-0.232,-2.159 -0.237,-54.452 -0.005,-56.549c0.325,-2.943 1.398,-6.965 2.313,-8.673c0.193,-0.36 0.351,-0.739 0.351,-0.843c0,-0.103 0.18,-0.452 0.4,-0.777c0.22,-0.324 0.455,-0.762 0.522,-0.974c0.116,-0.363 0.934,-1.607 1.949,-2.961c0.249,-0.333 0.586,-0.792 0.748,-1.022c0.581,-0.821 3.87,-3.974 4.768,-4.57c0.503,-0.335 1.007,-0.718 1.118,-0.852c0.112,-0.134 0.281,-0.244 0.378,-0.244c0.096,0 0.306,-0.119 0.466,-0.264c0.368,-0.333 1.51,-0.98 2.485,-1.407c0.412,-0.181 0.862,-0.405 1,-0.497c0.578,-0.389 2.793,-1.157 5.288,-1.833c2.533,-0.687 9.962,-0.865 11.962,-0.286m-285,5.722c-0.367,0.134 -1.192,0.363 -1.834,0.508c-0.641,0.145 -1.367,0.366 -1.612,0.491c-0.245,0.125 -0.807,0.35 -1.25,0.501c-0.442,0.15 -0.983,0.413 -1.202,0.585c-0.218,0.172 -0.492,0.313 -0.608,0.313c-0.601,0 -4.956,3.409 -6.008,4.702c-0.319,0.393 -0.734,0.902 -0.92,1.131c-0.873,1.073 -1.48,1.933 -1.481,2.1c-0.001,0.1 -0.149,0.315 -0.329,0.478c-0.18,0.163 -0.415,0.568 -0.523,0.901c-0.108,0.332 -0.331,0.797 -0.497,1.033c-0.165,0.236 -0.389,0.798 -0.499,1.25c-0.109,0.452 -0.334,1.047 -0.499,1.324c-0.165,0.276 -0.348,0.913 -0.407,1.416c-0.06,0.503 -0.181,1.14 -0.27,1.415c-0.698,2.159 -0.795,4.418 -0.295,6.917c0.193,0.962 0.417,2.184 0.499,2.716c0.082,0.531 0.337,1.363 0.567,1.849c0.23,0.486 0.418,0.981 0.418,1.101c0,0.195 0.825,2.038 1.195,2.667c0.08,0.137 0.298,0.587 0.483,1c0.185,0.413 0.409,0.862 0.497,1c0.088,0.137 0.28,0.512 0.426,0.833c0.146,0.321 0.368,0.771 0.494,1c0.125,0.23 0.351,0.679 0.503,1c0.151,0.321 0.343,0.696 0.426,0.834c0.083,0.137 0.302,0.587 0.487,1c0.185,0.412 0.41,0.862 0.5,1c0.09,0.137 0.315,0.587 0.5,1c0.185,0.412 0.406,0.862 0.49,1c0.084,0.137 0.723,1.412 1.421,2.833c0.697,1.421 1.333,2.696 1.413,2.833c0.08,0.138 2.369,4.713 5.087,10.167c2.717,5.454 5.051,10.104 5.185,10.333c0.134,0.23 0.354,0.679 0.489,1c0.135,0.321 0.315,0.696 0.401,0.834c0.087,0.137 0.505,0.962 0.93,1.833c0.426,0.871 0.883,1.771 1.016,2c0.133,0.229 0.352,0.679 0.486,1c0.135,0.321 0.32,0.696 0.412,0.833c0.092,0.138 0.318,0.588 0.504,1c0.185,0.413 0.408,0.863 0.496,1c0.089,0.138 0.282,0.513 0.43,0.834c0.148,0.32 0.335,0.695 0.416,0.833c0.081,0.138 0.307,0.587 0.502,1c0.194,0.412 0.421,0.862 0.502,1c0.082,0.138 0.317,0.587 0.521,1c0.205,0.412 0.506,0.938 0.67,1.167c0.841,1.181 1.134,1.62 1.331,2c0.593,1.145 4.461,4.904 5.7,5.54c0.311,0.159 0.603,0.351 0.649,0.426c0.046,0.075 0.67,0.421 1.386,0.769c0.716,0.348 1.564,0.764 1.885,0.925c3.345,1.678 11.414,2.277 14.332,1.065c0.32,-0.133 0.92,-0.317 1.333,-0.408c0.414,-0.092 1.052,-0.306 1.418,-0.476c0.367,-0.17 1.004,-0.467 1.417,-0.659c0.412,-0.193 1.101,-0.556 1.53,-0.808c0.429,-0.252 1.029,-0.599 1.333,-0.773c1.423,-0.809 5.804,-5.108 5.804,-5.694c0,-0.057 0.214,-0.415 0.475,-0.797c0.994,-1.451 2.358,-3.983 2.358,-4.376c0,-0.104 0.153,-0.383 0.339,-0.621c0.187,-0.237 0.423,-0.678 0.526,-0.981c0.102,-0.302 0.327,-0.752 0.5,-1c0.173,-0.248 0.398,-0.698 0.502,-1c0.103,-0.302 0.363,-0.81 0.577,-1.129c0.214,-0.32 0.389,-0.683 0.389,-0.808c0,-0.125 0.153,-0.442 0.34,-0.704c0.186,-0.262 0.423,-0.724 0.525,-1.026c0.103,-0.302 0.328,-0.752 0.5,-1c0.173,-0.248 0.399,-0.698 0.502,-1c0.103,-0.302 0.363,-0.81 0.577,-1.129c0.214,-0.319 0.391,-0.694 0.393,-0.833c0.001,-0.139 0.226,-0.583 0.5,-0.987c0.273,-0.403 0.497,-0.842 0.497,-0.974c0,-0.132 0.152,-0.455 0.339,-0.718c0.187,-0.262 0.424,-0.72 0.528,-1.018c0.104,-0.298 0.364,-0.799 0.578,-1.114c0.213,-0.315 0.389,-0.693 0.391,-0.841c0.002,-0.147 0.227,-0.598 0.5,-1.001c0.273,-0.404 0.497,-0.862 0.497,-1.02c0,-0.157 0.153,-0.479 0.339,-0.717c0.187,-0.237 0.422,-0.678 0.523,-0.981c0.101,-0.302 0.315,-0.699 0.474,-0.882c0.159,-0.184 0.383,-0.634 0.497,-1c0.115,-0.367 0.34,-0.817 0.5,-1c0.161,-0.184 0.386,-0.634 0.501,-1c0.114,-0.367 0.31,-0.784 0.435,-0.928c0.125,-0.143 0.313,-0.518 0.419,-0.833c0.105,-0.315 0.322,-0.723 0.481,-0.906c0.16,-0.183 0.383,-0.633 0.498,-1c0.114,-0.367 0.339,-0.817 0.5,-1c0.16,-0.183 0.386,-0.633 0.5,-1c0.115,-0.367 0.311,-0.784 0.435,-0.927c0.125,-0.144 0.313,-0.519 0.419,-0.834c0.106,-0.315 0.319,-0.722 0.474,-0.906c0.156,-0.183 0.412,-0.683 0.569,-1.112c0.158,-0.428 0.395,-0.868 0.528,-0.978c0.133,-0.11 0.241,-0.289 0.241,-0.398c0,-0.109 0.263,-0.718 0.583,-1.355c0.321,-0.636 0.583,-1.227 0.583,-1.313c0.001,-0.085 0.138,-0.31 0.307,-0.5c0.168,-0.189 0.434,-0.694 0.592,-1.122c0.157,-0.428 0.395,-0.869 0.527,-0.979c0.133,-0.11 0.242,-0.297 0.242,-0.416c0,-0.119 0.262,-0.71 0.583,-1.315c0.321,-0.605 0.583,-1.2 0.583,-1.322c0,-0.122 0.146,-0.353 0.324,-0.514c0.178,-0.162 0.371,-0.508 0.429,-0.771c0.058,-0.262 0.27,-0.723 0.473,-1.024c0.203,-0.301 0.504,-0.904 0.669,-1.339c0.165,-0.435 0.356,-0.792 0.426,-0.792c0.069,0 0.226,-0.318 0.349,-0.708c0.122,-0.39 0.353,-0.858 0.513,-1.042c0.16,-0.183 0.414,-0.811 0.564,-1.396c0.15,-0.584 0.376,-1.222 0.502,-1.417c0.968,-1.498 0.92,-10.654 -0.067,-12.821c-0.186,-0.407 -0.418,-1.097 -0.515,-1.534c-0.098,-0.437 -0.326,-0.981 -0.506,-1.21c-0.18,-0.229 -0.327,-0.54 -0.327,-0.691c0,-0.27 -0.825,-1.689 -1.462,-2.514c-0.176,-0.229 -0.418,-0.604 -0.536,-0.833c-0.953,-1.845 -5.831,-6.07 -7.752,-6.714c-0.275,-0.093 -0.597,-0.243 -0.714,-0.335c-0.411,-0.322 -2.718,-1.255 -3.582,-1.449c-0.479,-0.107 -1.171,-0.313 -1.538,-0.456c-0.828,-0.324 -6.453,-0.496 -8.083,-0.247c-1.23,0.187 -4.159,0.936 -4.614,1.179c-0.167,0.089 -1.052,0.52 -1.969,0.958c-1.579,0.755 -2.9,1.542 -3.387,2.016c-0.121,0.118 -0.288,0.214 -0.37,0.214c-0.513,0 -4.827,4.537 -4.827,5.077c0,0.108 -0.187,0.36 -0.416,0.559c-0.229,0.199 -0.417,0.449 -0.417,0.556c0,0.106 -0.176,0.426 -0.391,0.709c-0.216,0.284 -0.482,0.791 -0.592,1.128c-0.111,0.336 -0.303,0.696 -0.428,0.8c-0.124,0.103 -0.318,0.578 -0.43,1.055c-0.112,0.476 -0.347,1.15 -0.521,1.497c-0.313,0.621 -0.69,2.741 -0.958,5.377c-0.242,2.384 -0.562,3.044 -1.769,3.655c-1.341,0.678 -2.951,0.208 -3.418,-0.996c-0.106,-0.275 -0.254,-0.65 -0.329,-0.833c-0.218,-0.534 -0.468,-2.207 -0.585,-3.917c-0.075,-1.099 -0.223,-1.84 -0.485,-2.424c-0.208,-0.462 -0.429,-1.137 -0.492,-1.5c-0.099,-0.567 -0.816,-2.283 -1.285,-3.076c-0.081,-0.137 -0.33,-0.592 -0.553,-1.01c-0.222,-0.419 -0.523,-0.859 -0.668,-0.979c-0.144,-0.12 -0.263,-0.303 -0.263,-0.406c0,-0.104 -0.262,-0.483 -0.583,-0.844c-0.321,-0.36 -0.583,-0.702 -0.583,-0.76c0,-0.057 -0.666,-0.765 -1.48,-1.573c-1.395,-1.386 -1.794,-1.706 -4,-3.21c-0.986,-0.673 -3.051,-1.718 -3.395,-1.718c-0.12,0 -0.373,-0.109 -0.563,-0.242c-0.307,-0.215 -2.645,-0.877 -4.479,-1.268c-1.176,-0.251 -7.075,-0.167 -7.833,0.112m186.416,-0.005c-0.596,0.121 -1.843,0.365 -2.771,0.544c-0.929,0.179 -1.829,0.397 -2,0.484c-0.172,0.087 -0.844,0.284 -1.494,0.438c-0.651,0.154 -1.473,0.428 -1.827,0.608c-0.355,0.181 -0.78,0.329 -0.946,0.329c-0.166,0 -0.723,0.225 -1.238,0.5c-0.516,0.275 -1.041,0.5 -1.167,0.5c-0.127,0 -0.51,0.18 -0.852,0.399c-0.342,0.22 -0.897,0.486 -1.233,0.592c-0.336,0.106 -0.705,0.306 -0.82,0.444c-0.115,0.138 -0.439,0.361 -0.722,0.494c-1.088,0.517 -5.096,3.182 -5.096,3.389c0,0.072 -0.148,0.199 -0.329,0.282c-0.439,0.2 -1.858,1.476 -3.726,3.35c-1.414,1.419 -1.908,1.96 -3.013,3.3c-0.226,0.275 -0.641,0.772 -0.922,1.105c-0.281,0.333 -0.51,0.679 -0.51,0.769c0,0.09 -0.207,0.429 -0.459,0.754c-0.252,0.325 -0.608,0.839 -0.791,1.144c-1.306,2.17 -1.32,2.198 -2.151,4.145c-0.922,2.159 -1.151,2.813 -1.371,3.916c-0.128,0.642 -0.363,1.542 -0.522,2c-0.465,1.34 -0.417,7.753 0.069,9.25c0.193,0.596 0.407,1.49 0.474,1.986c0.068,0.497 0.302,1.239 0.52,1.65c0.219,0.411 0.397,0.851 0.397,0.977c0,0.127 0.225,0.676 0.5,1.221c0.275,0.544 0.5,1.074 0.5,1.178c0,0.103 0.169,0.423 0.375,0.713c0.364,0.51 0.473,0.693 1.238,2.064c0.2,0.358 0.489,0.755 0.644,0.883c1.509,1.253 1.329,3.74 -0.395,5.44c-0.871,0.858 -2.004,2.527 -2.628,3.87c-0.239,0.514 -0.573,1.2 -0.742,1.525c-1.016,1.952 -0.942,9.259 0.118,11.608c0.215,0.475 0.39,1.039 0.39,1.254c0,0.214 0.223,0.838 0.495,1.386c0.272,0.547 0.497,1.091 0.5,1.207c0.003,0.116 0.23,0.633 0.505,1.148c0.275,0.516 0.5,1.068 0.5,1.227c0,0.159 0.118,0.387 0.263,0.507c0.144,0.119 0.409,0.485 0.59,0.812c1.423,2.581 4.849,6.104 7.993,8.219c0.511,0.344 1.008,0.625 1.104,0.625c0.097,0 0.279,0.125 0.405,0.277c0.126,0.153 0.604,0.455 1.062,0.673c0.458,0.218 1.021,0.501 1.25,0.63c0.623,0.349 2.524,1.196 3,1.336c0.229,0.067 0.679,0.255 1,0.416c0.854,0.43 3.312,1.283 4.083,1.417c0.367,0.063 1.205,0.296 1.863,0.517c0.658,0.22 1.379,0.401 1.603,0.401c0.224,0 0.849,0.14 1.388,0.311c0.539,0.172 1.917,0.439 3.063,0.594c1.146,0.155 2.533,0.386 3.083,0.512c3.237,0.743 13.238,0.701 17.167,-0.072c0.458,-0.091 1.597,-0.277 2.53,-0.416c0.933,-0.138 2.149,-0.403 2.703,-0.59c0.554,-0.186 1.215,-0.341 1.47,-0.344c0.255,-0.003 0.876,-0.158 1.38,-0.344c0.505,-0.187 1.292,-0.436 1.75,-0.554c0.459,-0.119 1.171,-0.368 1.584,-0.554c0.412,-0.186 1,-0.392 1.305,-0.457c0.306,-0.065 0.97,-0.336 1.476,-0.602c0.505,-0.266 1.015,-0.484 1.132,-0.484c0.117,0 0.303,-0.109 0.413,-0.241c0.11,-0.133 0.55,-0.371 0.978,-0.528c0.429,-0.158 0.901,-0.391 1.05,-0.517c0.149,-0.126 0.576,-0.394 0.949,-0.596c1.669,-0.907 2.03,-1.135 2.03,-1.284c0,-0.087 0.229,-0.277 0.509,-0.422c0.28,-0.145 0.636,-0.375 0.792,-0.511c0.934,-0.821 3.015,-2.536 3.14,-2.589c0.199,-0.083 2.828,-3.185 3.561,-4.201c0.32,-0.443 0.771,-1.043 1.002,-1.333c0.231,-0.29 0.553,-0.791 0.715,-1.111c0.162,-0.321 0.515,-0.959 0.784,-1.417c1.189,-2.029 2.83,-5.83 2.83,-6.557c0,-0.179 0.146,-0.801 0.324,-1.384c0.874,-2.862 0.886,-10.488 0.022,-13.642c-0.163,-0.596 -0.413,-1.534 -0.554,-2.084c-0.9,-3.495 -2.156,-5.945 -5.47,-10.666c-1.081,-1.541 -0.847,-3.12 0.666,-4.489c0.19,-0.172 0.346,-0.39 0.346,-0.485c0,-0.094 0.144,-0.326 0.32,-0.516c0.406,-0.436 1.513,-2.518 1.513,-2.845c0,-0.136 0.167,-0.716 0.371,-1.29c0.491,-1.381 0.546,-5.961 0.084,-7.01c-0.154,-0.349 -0.33,-1.024 -0.391,-1.5c-0.061,-0.476 -0.326,-1.323 -0.588,-1.881c-0.262,-0.559 -0.476,-1.105 -0.476,-1.212c0,-0.107 -0.225,-0.617 -0.5,-1.132c-0.275,-0.516 -0.5,-1.03 -0.5,-1.143c0,-0.114 -0.123,-0.308 -0.273,-0.433c-0.15,-0.124 -0.413,-0.527 -0.586,-0.895c-0.172,-0.368 -0.497,-0.932 -0.722,-1.253c-0.225,-0.321 -0.58,-0.834 -0.789,-1.142c-0.209,-0.307 -0.493,-0.684 -0.63,-0.838c-0.138,-0.155 -0.45,-0.541 -0.694,-0.858c-0.817,-1.063 -2.213,-2.456 -3.223,-3.216c-0.55,-0.414 -1.149,-0.89 -1.332,-1.058c-0.517,-0.474 -2.147,-1.553 -2.347,-1.554c-0.099,0 -0.355,-0.188 -0.571,-0.417c-0.215,-0.229 -0.48,-0.417 -0.589,-0.417c-0.109,0 -0.46,-0.178 -0.781,-0.396c-0.322,-0.218 -0.852,-0.485 -1.18,-0.593c-0.327,-0.108 -0.772,-0.335 -0.987,-0.504c-0.215,-0.169 -0.725,-0.398 -1.134,-0.508c-0.408,-0.11 -0.942,-0.342 -1.186,-0.516c-0.244,-0.174 -0.558,-0.316 -0.697,-0.316c-0.14,0 -0.803,-0.217 -1.475,-0.483c-0.671,-0.266 -1.558,-0.537 -1.971,-0.603c-0.412,-0.066 -0.937,-0.215 -1.166,-0.331c-0.229,-0.116 -0.867,-0.301 -1.417,-0.411c-0.55,-0.11 -1.6,-0.341 -2.333,-0.512c-0.734,-0.172 -2.009,-0.395 -2.834,-0.494c-0.825,-0.1 -1.875,-0.253 -2.333,-0.341c-2.103,-0.403 -3.845,-0.49 -9.387,-0.469c-4.167,0.016 -6.27,0.088 -7.03,0.241m88.584,-0.007c-0.459,0.132 -1.321,0.359 -1.917,0.505c-0.596,0.145 -1.308,0.397 -1.583,0.56c-0.275,0.163 -0.853,0.391 -1.284,0.507c-0.43,0.115 -0.911,0.351 -1.067,0.524c-0.156,0.173 -0.369,0.314 -0.472,0.314c-0.231,0 -1.843,0.999 -2.468,1.529c-0.251,0.213 -0.686,0.575 -0.966,0.804c-0.879,0.72 -2.827,2.649 -2.827,2.8c0,0.08 -0.206,0.338 -0.458,0.575c-0.252,0.236 -0.629,0.679 -0.838,0.985c-0.209,0.307 -0.561,0.819 -0.781,1.14c-0.5,0.729 -1.756,3.22 -1.756,3.484c0,0.108 -0.153,0.496 -0.34,0.863c-0.187,0.367 -0.416,1.095 -0.509,1.619c-0.092,0.523 -0.333,1.439 -0.534,2.034l-0.367,1.084l0,28.583c0,24.021 0.037,28.648 0.23,28.989c0.272,0.478 0.672,2.071 0.681,2.71c0.003,0.247 0.162,0.714 0.353,1.037c0.191,0.324 0.446,0.963 0.567,1.421c0.12,0.457 0.377,1.032 0.569,1.276c0.193,0.245 0.35,0.519 0.35,0.609c0,0.09 0.356,0.686 0.792,1.324c0.435,0.639 0.866,1.29 0.958,1.448c0.287,0.492 2.785,3.353 2.928,3.353c0.075,0 0.609,0.393 1.188,0.875c1.253,1.043 2.544,1.958 2.763,1.958c0.087,0 0.423,0.18 0.747,0.4c0.324,0.22 0.766,0.454 0.982,0.521c0.216,0.066 0.858,0.336 1.427,0.6c0.569,0.263 1.206,0.479 1.416,0.48c0.21,0.001 0.6,0.115 0.866,0.253c1.945,1.015 9.135,0.973 12.219,-0.07c0.57,-0.193 1.125,-0.351 1.232,-0.351c0.257,0 4.066,-1.917 4.815,-2.423c3.306,-2.234 5.83,-4.931 7.417,-7.925c0.886,-1.672 1.554,-3.142 1.66,-3.656c0.066,-0.318 0.299,-1.084 0.517,-1.701c0.277,-0.784 0.454,-1.816 0.585,-3.417c0.27,-3.293 0.672,-4.196 2.108,-4.741c2.189,-0.832 3.645,0.559 3.697,3.531c0.009,0.505 0.093,1.18 0.186,1.5c0.093,0.32 0.315,1.382 0.492,2.36c0.178,0.978 0.476,2.064 0.664,2.414c0.188,0.35 0.341,0.796 0.341,0.992c0,0.195 0.154,0.55 0.342,0.789c0.188,0.24 0.455,0.767 0.593,1.173c0.138,0.405 0.397,0.869 0.575,1.03c0.178,0.161 0.323,0.383 0.323,0.494c0,0.19 0.238,0.534 1.533,2.211c0.677,0.879 2.365,2.613 3.198,3.286c0.34,0.275 0.805,0.669 1.035,0.875c0.229,0.206 0.476,0.375 0.55,0.375c0.074,0 0.427,0.206 0.784,0.458c0.358,0.252 1.25,0.755 1.984,1.117c0.733,0.363 1.438,0.738 1.566,0.834c0.243,0.181 2.201,0.778 3.934,1.199c2.315,0.563 8.835,0.438 10.128,-0.194c0.254,-0.124 0.891,-0.313 1.417,-0.42c0.525,-0.107 1.217,-0.328 1.538,-0.491c0.321,-0.163 1.099,-0.546 1.728,-0.851c0.63,-0.306 1.492,-0.802 1.917,-1.104c0.424,-0.301 0.836,-0.548 0.915,-0.548c0.375,0 4.105,-3.574 4.989,-4.781c1.135,-1.549 2.451,-3.736 2.451,-4.074c0,-0.097 0.147,-0.384 0.328,-0.637c0.18,-0.253 0.411,-0.827 0.514,-1.276c0.103,-0.448 0.337,-1.115 0.519,-1.482c0.201,-0.403 0.396,-1.293 0.493,-2.25c0.089,-0.871 0.238,-2.183 0.331,-2.917c0.244,-1.91 0.104,-53.051 -0.152,-55.441c-0.104,-0.975 -0.311,-2.1 -0.459,-2.5c-0.149,-0.399 -0.346,-1.025 -0.438,-1.392c-0.092,-0.367 -0.378,-1.117 -0.636,-1.667c-0.257,-0.55 -0.586,-1.262 -0.73,-1.583c-0.794,-1.763 -3.603,-5.414 -5.109,-6.642c-1.915,-1.56 -3.76,-2.849 -4.087,-2.855c-0.097,-0.002 -0.425,-0.187 -0.729,-0.411c-0.304,-0.224 -0.787,-0.458 -1.074,-0.52c-0.286,-0.062 -0.783,-0.243 -1.104,-0.401c-0.321,-0.159 -1.109,-0.422 -1.75,-0.585c-0.642,-0.163 -1.488,-0.399 -1.881,-0.525c-0.834,-0.266 -7.517,-0.313 -8.619,-0.06c-1.772,0.405 -3.336,0.877 -3.887,1.173c-0.334,0.179 -0.703,0.326 -0.819,0.326c-0.238,0 -2.75,1.307 -2.878,1.498c-0.046,0.068 -0.383,0.287 -0.75,0.486c-2.025,1.101 -5.482,4.706 -6.913,7.209c-0.914,1.6 -1.441,2.665 -1.676,3.39c-0.149,0.459 -0.391,1.066 -0.54,1.349c-0.148,0.284 -0.318,0.921 -0.378,1.417c-0.06,0.496 -0.215,1.324 -0.343,1.842c-0.128,0.517 -0.311,1.702 -0.407,2.632c-0.203,1.985 -0.347,2.428 -0.941,2.906c-2.408,1.936 -4.565,0.344 -4.809,-3.551c-0.159,-2.528 -0.854,-5.401 -1.723,-7.128c-0.194,-0.385 -0.353,-0.812 -0.353,-0.949c0,-0.136 -0.083,-0.3 -0.185,-0.362c-0.102,-0.063 -0.372,-0.537 -0.6,-1.052c-0.228,-0.515 -0.465,-0.975 -0.528,-1.02c-0.062,-0.046 -0.552,-0.684 -1.089,-1.417c-1.042,-1.425 -3.218,-3.655 -4.231,-4.339c-0.339,-0.228 -1.022,-0.709 -1.517,-1.068c-1.508,-1.093 -3.898,-2.176 -6.517,-2.955c-1.931,-0.575 -8.777,-0.77 -10.416,-0.298m-158.627,19.575c0.939,0.085 2.203,0.307 2.809,0.495c0.607,0.187 1.301,0.343 1.544,0.347c0.242,0.004 0.74,0.124 1.107,0.266c0.367,0.142 1.072,0.401 1.567,0.576c0.939,0.331 2.587,1.052 3.016,1.319c0.138,0.086 0.625,0.352 1.082,0.591c0.457,0.239 0.87,0.495 0.917,0.569c0.046,0.074 0.318,0.274 0.603,0.445c2.17,1.298 5.711,4.56 6.941,6.394c0.339,0.504 0.915,1.341 1.28,1.861c0.365,0.52 0.713,1.139 0.773,1.377c0.059,0.237 0.174,0.472 0.255,0.523c0.217,0.134 1.649,3.152 1.649,3.475c0,0.152 0.142,0.555 0.314,0.895c0.173,0.34 0.437,1.219 0.586,1.952c0.15,0.733 0.403,1.708 0.561,2.167c0.385,1.11 0.451,33.781 0.07,35.083c-0.12,0.412 -0.368,1.458 -0.552,2.324c-0.183,0.866 -0.478,1.893 -0.656,2.282c-0.177,0.39 -0.323,0.807 -0.323,0.927c0.001,0.395 -2.168,4.747 -2.472,4.961c-0.07,0.049 -0.322,0.427 -0.56,0.839c-0.507,0.878 -3.432,4.325 -3.997,4.709c-0.213,0.146 -0.739,0.589 -1.168,0.986c-1.368,1.265 -1.793,1.572 -4.053,2.93c-0.881,0.53 -2.759,1.437 -3.565,1.722c-0.494,0.175 -0.984,0.389 -1.088,0.475c-0.104,0.087 -0.742,0.283 -1.418,0.437c-0.676,0.154 -1.469,0.38 -1.762,0.502c-1.333,0.557 -9.18,0.729 -11.75,0.257c-5.317,-0.976 -10.495,-3.697 -14.67,-7.71c-1.494,-1.436 -4.497,-5.249 -4.497,-5.71c0,-0.082 -0.176,-0.382 -0.392,-0.665c-0.216,-0.284 -0.449,-0.703 -0.518,-0.933c-0.068,-0.229 -0.248,-0.604 -0.398,-0.833c-0.394,-0.599 -1.181,-2.74 -1.461,-3.976c-0.132,-0.583 -0.39,-1.483 -0.572,-2c-0.615,-1.741 -0.975,-26.124 -0.501,-33.863c0.209,-3.412 1.313,-7.646 2.563,-9.828c0.131,-0.229 0.361,-0.679 0.512,-1c0.664,-1.419 2.423,-4.178 3.187,-5c2.204,-2.37 5.715,-5.5 6.169,-5.5c0.047,0 0.468,-0.262 0.934,-0.583c0.466,-0.321 0.92,-0.583 1.007,-0.583c0.088,0 0.398,-0.179 0.69,-0.398c0.292,-0.218 0.718,-0.452 0.947,-0.519c0.229,-0.067 0.642,-0.253 0.917,-0.413c0.275,-0.161 0.866,-0.381 1.314,-0.489c0.447,-0.109 1.101,-0.344 1.451,-0.523c0.351,-0.179 0.849,-0.325 1.106,-0.325c0.258,0 1.03,-0.156 1.715,-0.347c2.142,-0.595 5.518,-0.783 8.787,-0.488m-5.54,5.662c-3.189,0.437 -7.488,1.957 -9.287,3.284c-0.29,0.214 -0.594,0.389 -0.674,0.389c-0.605,0 -4.654,3.942 -5.995,5.837c-1.341,1.895 -3.127,5.432 -3.127,6.193c0,0.146 -0.184,0.818 -0.408,1.493c-0.711,2.144 -0.797,4.531 -0.717,19.894c0.078,14.677 0.05,14.09 0.786,16.666c0.105,0.367 0.266,0.967 0.357,1.334c0.092,0.366 0.35,1.055 0.574,1.531c0.224,0.476 0.408,0.934 0.408,1.019c0,0.085 0.136,0.334 0.303,0.552c0.166,0.219 0.405,0.66 0.531,0.981c0.125,0.321 0.37,0.771 0.544,1c0.175,0.229 0.617,0.829 0.983,1.333c3.48,4.789 9.384,8.332 15.023,9.013c2.013,0.243 6.47,0.109 7.866,-0.237c2.05,-0.509 3.423,-0.951 3.953,-1.275c0.301,-0.183 0.71,-0.333 0.909,-0.333c0.199,-0.001 0.579,-0.184 0.844,-0.407c0.266,-0.223 0.67,-0.453 0.9,-0.51c0.229,-0.058 0.619,-0.269 0.865,-0.47c0.247,-0.2 0.753,-0.589 1.124,-0.864c2.287,-1.691 5.655,-5.196 5.655,-5.885c0,-0.095 0.176,-0.385 0.392,-0.644c0.216,-0.259 0.482,-0.746 0.592,-1.083c0.11,-0.336 0.304,-0.698 0.432,-0.804c0.128,-0.106 0.361,-0.58 0.518,-1.053c0.157,-0.473 0.423,-1.086 0.592,-1.362c0.168,-0.276 0.306,-0.655 0.306,-0.841c0.001,-0.186 0.113,-0.749 0.25,-1.25c0.775,-2.834 0.765,-2.589 0.715,-18.783c-0.043,-13.842 -0.074,-15.366 -0.327,-16.045c-0.154,-0.413 -0.393,-1.275 -0.53,-1.917c-0.137,-0.641 -0.441,-1.616 -0.674,-2.166c-0.234,-0.55 -0.427,-1.101 -0.429,-1.225c-0.002,-0.123 -0.145,-0.423 -0.318,-0.666c-0.173,-0.244 -0.437,-0.705 -0.587,-1.026c-0.84,-1.798 -2.945,-4.353 -5.103,-6.196c-1.758,-1.501 -2.083,-1.745 -2.615,-1.958c-0.295,-0.119 -0.614,-0.308 -0.708,-0.422c-0.399,-0.48 -4.258,-2.142 -5.453,-2.347c-0.35,-0.061 -1.097,-0.248 -1.661,-0.416c-1.187,-0.355 -5.214,-0.552 -6.809,-0.334" id="svg_7"/>
   </g>
  </g>
 </g>
</svg>