<svg width="1507.89" height="320.28" xmlns="http://www.w3.org/2000/svg">
 <g>
  <title>background</title>
  <rect x="-1" y="-1" width="1509.89" height="322.28" id="canvas_background" fill="none"/>
 </g>

 <g>
  <title>Layer 1</title>
  <path fill="#231F20" d="m262.03,116.05c-0.19,-2.811 -0.541,-5.561 -0.645,-8.387c-0.511,-2.056 -0.817,-5.448 -1.371,-7.274c-0.77,-2.521 -0.798,-3.436 -1.305,-5.143c-0.54,-1.833 -0.575,-1.729 -1.677,-5.828c-2.073,-7.689 -5.674,-15.394 -9.375,-22.633c-2.415,-4.722 -5.498,-8.528 -8.474,-12.665c-0.643,-0.899 -2.391,-2.968 -2.919,-3.748c-1.111,-1.644 -8.034,-9.609 -10.228,-11.401c-2.192,-1.792 -4.091,-3.841 -6.344,-5.586c-2.302,-1.779 -4.572,-3.599 -6.895,-5.354c-1.91,-1.443 -3.906,-2.244 -5.846,-3.452c-10.546,-6.563 -22.191,-11.574 -34.293,-14.384c-40.338,-9.38 -87.658,4.36 -113.851,37.401c-2.738,3.461 -10.31,13.992 -11.381,15.749c-2.408,3.958 -4.379,7.679 -6.281,11.904c-7.416,16.469 -11.868,36.204 -10.455,55.122c0.773,10.358 2.832,21.046 6.397,30.812c1.116,3.062 2.153,6.171 3.575,9.11c0.975,2.021 3.496,6.61 3.714,7.01c-21.541,9.584 -36.583,31.13 -36.583,56.231c0,33.994 27.561,61.551 61.556,61.551c7.354,0 14.375,-1.358 20.917,-3.723c0.083,0.249 0.203,0.431 0.317,0.626c3.387,13.382 15.468,23.29 29.898,23.29c17.051,0 30.877,-13.822 30.877,-30.872c0,-14.702 -10.282,-26.978 -24.04,-30.097c0.083,-0.33 0.185,-0.666 0.277,-0.999c0.422,-1.248 0.792,-2.515 1.139,-3.798c0.494,-1.603 0.957,-3.213 1.22,-4.879c0.14,-0.852 0.258,-1.955 0.358,-3.011c0.154,-1.194 0.276,-2.386 0.363,-3.597c0.294,-0.188 0.712,0 1.314,0.028c6.724,0.289 13.423,1.398 20.173,1.037c12.569,-0.666 26.087,-3.165 37.661,-8.271c12.05,-5.315 23.553,-12.168 33.517,-20.81c4.751,-4.128 9.153,-8.686 12.918,-13.734c1.809,-2.424 3.91,-4.477 5.552,-7.048c1.388,-2.178 2.942,-4.206 4.162,-6.488c0.859,-1.609 1.062,-2.355 1.903,-3.964c0.519,-1.002 1.148,-1.886 1.525,-2.952c0.814,-2.289 1.208,-4.737 1.291,-7.164c0.16,-4.731 -1.305,-9.547 -3.95,-13.482c-2.264,-3.36 -7.335,-6.554 -11.331,-7.658c-4.715,-1.301 -10.053,-1.034 -14.613,0.742c-5.01,1.949 -8.45,6.25 -11.113,10.748c-2.954,5.004 -5.744,9.497 -9.896,13.649c-7.685,7.68 -16.027,13.822 -26.148,17.943c-38.728,15.79 -83.799,-5.655 -96.595,-45.333c-5.948,-18.452 -4.258,-39.24 5.171,-56.347c4.967,-9.009 11.565,-16.987 19.648,-23.375c4.291,-3.386 9.163,-6.626 14.175,-8.742c4.525,-1.905 9.104,-2.955 13.739,-4.527c3.634,-1.232 8.523,-1.556 12.406,-1.851c4.085,-0.305 8.317,-0.403 12.373,0.264c8.305,1.367 16.896,3.266 24.477,7.139c4.128,2.106 8.631,5.026 12.351,7.978c3.706,2.939 7.65,6.636 10.655,10.543c2.364,3.024 3.824,5.265 6.035,8.484c2.321,3.659 5.779,7.626 6.039,12.257c-9.593,-0.003 -19.394,0.069 -28.992,0.069c-9.325,0 -19.356,-2.068 -28.044,2.273c-9.023,4.501 -15.895,17.657 -10.295,27.207c2.715,4.612 4.088,8.287 9.217,10.83c5.087,2.518 9.679,2.92 15.281,2.792c13.251,-0.295 26.546,-0.016 39.808,-0.016l20.644,0c5.881,0 11.539,0.358 17.108,-1.782c9.358,-3.593 13.847,-12.704 13.189,-22.414m-162.779,168.483c0,-11.797 9.562,-21.363 21.36,-21.363c11.804,0 21.371,9.566 21.371,21.363c0,11.804 -9.567,21.37 -21.371,21.37c-11.798,0 -21.36,-9.567 -21.36,-21.37m-29.962,-92.328c22.791,0 41.264,18.475 41.264,41.265c0,22.787 -18.473,41.262 -41.264,41.262s-41.268,-18.475 -41.268,-41.262c0,-22.79 18.477,-41.265 41.268,-41.265m144.502,-95.11c0.087,0 0.186,0 0.327,0c0,0 -0.17,0 -0.327,0" id="svg_1"/>
  <path stroke="null" fill="#231F20" d="m1449.698015,182.363463l-29.445806,0c-19.812334,0 -29.718501,7.289345 -29.718501,21.868034l0,2.249733c0,14.583933 9.628228,21.873278 28.879439,21.873278c20.195155,0 30.284867,-9.817017 30.284867,-29.445806l0,-16.545239zm24.962072,65.058712c-5.789523,0 -10.656078,-1.961306 -14.583933,-5.889161c-2.244489,-1.683367 -4.106156,-4.483734 -5.605978,-8.411589c-8.789167,9.533833 -21.873278,14.305994 -39.262822,14.305994c-16.634389,0 -29.162623,-3.927855 -37.574212,-11.778322c-7.666922,-7.294589 -11.495139,-17.111605 -11.495139,-29.445806l0,-2.244489c0,-12.339445 4.106156,-22.062067 12.339445,-29.162623c9.350289,-7.666922 22.439644,-11.500383 39.262822,-11.500383l31.968234,0l0,-6.728222c0,-11.961867 -1.866911,-20.3787 -5.605978,-25.234767c-4.300189,-5.611222 -12.056261,-8.416833 -23.273461,-8.416833c-10.477777,0 -20.011611,2.338883 -28.606745,7.01665c-2.060944,1.122244 -4.027494,1.678123 -5.889161,1.678123c-2.989156,0 -5.469631,-1.069803 -7.430936,-3.219898c-1.96655,-2.150094 -2.947203,-4.635813 -2.947203,-7.43618c0,-3.555522 1.678123,-6.450283 5.0501,-8.689528c10.467289,-6.544678 24.212161,-9.817017 41.218884,-9.817017c19.072911,0 32.712901,4.766917 40.946189,14.305994c7.294589,8.789167 10.934017,22.811978 10.934017,42.063189l0,52.168633c0,8.789167 2.622066,14.673084 7.855711,17.662239c3.177944,2.060944 4.766917,4.766917 4.766917,8.13365c-0.010488,7.095312 -4.027494,10.640345 -12.06675,10.640345m-136.426115,-3.503081c-2.344127,2.328395 -5.29133,3.503081 -8.841608,3.503081c-3.361489,0 -6.219542,-1.174686 -8.553181,-3.503081c-2.344127,-2.333639 -3.503081,-5.280842 -3.503081,-8.836364l0,-79.081523c0,-9.906167 -1.788249,-17.195512 -5.328039,-21.878522c-4.305433,-5.605978 -11.411233,-8.411589 -21.312156,-8.411589c-15.894967,0 -27.206561,5.889161 -33.934783,17.667483l0,91.704151c0,3.555522 -1.227127,6.497481 -3.644672,8.836364c-2.433278,2.328395 -5.333283,3.503081 -8.694772,3.503081c-3.361489,0 -6.266739,-1.216639 -8.689528,-3.644672c-2.433278,-2.428033 -3.644672,-5.333283 -3.644672,-8.689528l0,-94.504518c0,-8.783922 -2.910494,-14.678328 -8.694772,-17.672728c-3.183189,-1.678123 -4.766917,-4.389339 -4.766917,-8.128406c0,-7.100556 4.017006,-10.661322 12.06675,-10.661322c5.217912,0 10.268012,1.96655 15.139811,5.894405c2.805611,2.800367 4.861311,5.889161 6.172344,9.25065c10.2785,-11.2172 24.85719,-16.823178 43.7518,-16.823178c30.6572,0 45.991045,17.106361 45.991045,51.319084l0,81.331256c-0.010488,3.550278 -1.185174,6.492236 -3.513569,8.825876m-169.532326,-61.555631l-29.445806,0c-19.812334,0 -29.728989,7.289345 -29.728989,21.868034l0,2.249733c0,14.583933 9.633472,21.873278 28.889928,21.873278c20.189911,0 30.284867,-9.817017 30.284867,-29.445806l0,-16.545239zm24.956828,65.058712c-5.789523,0 -10.650834,-1.961306 -14.578689,-5.889161c-2.244489,-1.683367 -4.1114,-4.483734 -5.605978,-8.411589c-8.789167,9.533833 -21.873278,14.305994 -39.262822,14.305994c-16.639633,0 -29.162623,-3.927855 -37.574212,-11.778322c-7.672166,-7.294589 -11.500383,-17.111605 -11.500383,-29.445806l0,-2.244489c0,-12.339445 4.1114,-22.062067 12.344689,-29.162623c9.345045,-7.666922 22.4344,-11.500383 39.257578,-11.500383l31.973478,0l0,-6.728222c0,-11.961867 -1.866911,-20.3787 -5.605978,-25.234767c-4.300189,-5.611222 -12.061505,-8.416833 -23.278706,-8.416833c-10.467289,0 -20.001123,2.338883 -28.6015,7.01665c-2.060944,1.122244 -4.02225,1.678123 -5.883917,1.678123c-2.9944,0 -5.474875,-1.069803 -7.43618,-3.219898c-1.96655,-2.150094 -2.941959,-4.635813 -2.941959,-7.43618c0,-3.555522 1.678123,-6.450283 5.044856,-8.689528c10.467289,-6.544678 24.212161,-9.817017 41.224128,-9.817017c19.072911,0 32.712901,4.766917 40.946189,14.305994c7.289345,8.789167 10.934017,22.811978 10.934017,42.063189l0,52.168633c0,8.789167 2.622066,14.673084 7.855711,17.662239c3.177944,2.060944 4.766917,4.766917 4.766917,8.13365c-0.015732,7.095312 -4.043226,10.640345 -12.077238,10.640345m-148.901907,-89.181723c0,-23.734945 -10.199838,-35.612906 -30.573294,-35.612906c-20.939822,0 -31.407111,11.877961 -31.407111,35.612906l0,4.766917l61.980406,0l0,-4.766917zm23.839828,14.589178c0,6.361133 -3.099282,9.533833 -9.266383,9.533833l-76.559095,0l0,7.572528c0,24.306556 10.556439,36.451967 31.695539,36.451967c13.451201,0 25.135129,-2.611578 35.057028,-7.855711c1.295301,-0.744667 2.700728,-1.117 4.205795,-1.117c2.800367,0 5.134006,1.117 6.995673,3.366733c1.866911,2.244489 2.816099,4.766917 2.816099,7.567284c0,3.927855 -1.872155,6.917011 -5.605978,8.977955c-12.72751,6.722978 -27.494988,10.094956 -44.312922,10.094956c-18.889366,0 -33.100966,-5.889161 -42.629556,-17.672728c-8.411589,-10.273256 -12.612139,-24.201673 -12.612139,-41.780006l0,-26.084317c0,-17.573089 4.294945,-31.501506 12.900567,-41.78525c9.722622,-11.778322 23.834584,-17.667483 42.341128,-17.667483c19.256456,0 33.546718,5.889161 42.912739,17.667483c8.028767,9.911411 12.06675,23.656283 12.06675,41.224128l0,11.505627l-0.005244,0zm-159.578962,-15.145056c0,-22.617945 -10.283744,-33.940028 -30.851233,-33.940028c-9.906167,0 -19.340362,3.927855 -28.318317,11.783566l0,77.676095c8.416833,8.610866 18.134211,12.900567 29.167867,12.900567c19.995878,0 30.001684,-12.617384 30.001684,-37.862639l0,-30.557562zm-25.795889,89.737601c-12.722266,0 -23.834584,-3.644672 -33.373661,-10.934017l0,48.23029c0,3.555522 -1.216639,6.492236 -3.644672,8.836364c-2.438522,2.333639 -5.328039,3.508325 -8.694772,3.508325s-6.219542,-1.174686 -8.553181,-3.508325c-2.338883,-2.338883 -3.503081,-5.280842 -3.503081,-8.836364l0,-145.83409c0,-8.967467 -2.622066,-14.861872 -7.855711,-17.662239c-3.177944,-1.683367 -4.766917,-4.394583 -4.766917,-8.13365c0,-7.100556 4.02225,-10.656078 12.061505,-10.656078c5.411945,0 10.367651,1.961306 14.861872,5.889161c1.866911,1.683367 3.649916,3.838705 5.328039,6.450283c11.400745,-8.2228 23.640551,-12.344689 36.73515,-12.344689c34.579812,0 51.88545,18.884122 51.88545,56.647123l0,25.51795c0,41.890133 -16.828422,62.829955 -50.480023,62.829955m-114.967124,-86.93199c0,-23.556645 -10.661322,-35.334967 -31.973478,-35.334967c-21.128611,0 -31.685051,11.778322 -31.685051,35.334967l0,28.879439c0,23.750678 10.556439,35.623394 31.685051,35.623394c21.312156,0 31.973478,-11.872717 31.973478,-35.623394l0,-28.879439zm11.484651,69.830873c-9.722622,11.411233 -24.212161,17.106361 -43.463373,17.106361c-19.067667,0 -33.468056,-5.695128 -43.190678,-17.106361c-8.789167,-10.283744 -13.18375,-23.928978 -13.18375,-40.951433l0,-28.879439c0,-17.011967 4.394583,-30.662445 13.18375,-40.951433c9.722622,-11.395501 24.123011,-17.106361 43.190678,-17.106361c19.251212,0 33.740751,5.710861 43.463373,17.106361c8.789167,10.288989 13.18375,23.934222 13.18375,40.951433l0,28.879439c0,17.017211 -4.394583,30.667689 -13.18375,40.951433m-117.783223,-102.648656c-1.494578,-0.183545 -3.088794,-0.414286 -4.766917,-0.702714c-1.683367,-0.283183 -3.32478,-0.503437 -4.908508,-0.69747c-1.594216,-0.188789 -2.947203,-0.283183 -4.069447,-0.283183c-17.206,0 -27.57365,8.511228 -31.129172,25.51795l0,83.575745c0,3.555522 -1.216639,6.497481 -3.644672,8.836364c-2.428033,2.328395 -5.328039,3.503081 -8.694772,3.503081c-3.361489,0 -6.261495,-1.216639 -8.689528,-3.644672s-3.649916,-5.333283 -3.649916,-8.689528l0,-94.504518c0,-8.783922 -2.894761,-14.678328 -8.689528,-17.672728c-3.177944,-1.678123 -4.766917,-4.389339 -4.766917,-8.128406c0,-7.100556 4.02225,-10.661322 12.061505,-10.661322c2.0557,0 3.361489,0.099639 3.922611,0.283183c9.1615,2.438522 15.428239,8.228044 18.789728,17.389544c9.1615,-12.905811 22.056823,-19.35085 38.696456,-19.35085c7.666922,0 13.928417,1.122244 18.789728,3.371977c3.927855,2.0557 5.889161,5.328039 5.889161,9.811773c0,3.366733 -1.122244,6.261495 -3.366733,8.689528c-2.244489,2.438522 -4.950461,3.644672 -8.128406,3.644672c-0.933456,-0.005244 -2.150094,-0.094394 -3.644672,-0.288427m-110.215939,119.749773c-5.422433,0 -10.472533,-1.961306 -15.145056,-5.889161c-2.622066,-2.249733 -4.861311,-5.700372 -6.733467,-10.378139c-10.2785,10.850111 -24.773283,16.2673 -43.468617,16.2673c-30.473656,0 -45.707862,-17.011967 -45.707862,-51.035901l0,-81.609195c0,-3.366733 1.169442,-6.261495 3.503081,-8.694772c2.338883,-2.428033 5.286086,-3.644672 8.836364,-3.644672c3.366733,0 6.214297,1.216639 8.553181,3.644672c2.338883,2.433278 3.503081,5.333283 3.503081,8.694772l0,79.359462c0,9.916655 1.777761,17.200756 5.328039,21.878522c4.300189,5.422433 11.400745,8.128406 21.312156,8.128406c16.2673,0 27.578895,-6.251006 33.934783,-18.784484l0,-90.576662c0,-3.366733 1.216639,-6.261495 3.644672,-8.694772c2.428033,-2.428033 5.328039,-3.644672 8.694772,-3.644672c3.366733,0 6.266739,1.216639 8.694772,3.644672c2.428033,2.433278 3.644672,5.333283 3.644672,8.694772l0,96.193128c0,8.789167 2.900005,14.673084 8.694772,17.662239c3.177944,1.683367 4.766917,4.399827 4.766917,8.13365c0.005244,7.1058 -4.011762,10.650834 -12.056261,10.650834m-162.36884,-89.181723c0,-23.734945 -10.18935,-35.612906 -30.56805,-35.612906c-20.945066,0 -31.407111,11.877961 -31.407111,35.612906l0,4.766917l61.969918,0l0,-4.766917l0.005244,0zm23.839828,14.589178c0,6.361133 -3.08355,9.533833 -9.255894,9.533833l-76.559095,0l0,7.572528c0,24.306556 10.556439,36.451967 31.685051,36.451967c13.461689,0 25.145617,-2.611578 35.051784,-7.855711c1.311033,-0.744667 2.711217,-1.117 4.211039,-1.117c2.805611,0 5.134006,1.117 7.011406,3.366733c1.866911,2.244489 2.805611,4.766917 2.805611,7.567284c0,3.927855 -1.872155,6.917011 -5.605978,8.977955c-12.717022,6.722978 -27.4845,10.094956 -44.312922,10.094956c-18.884122,0 -33.090478,-5.889161 -42.624312,-17.672728c-8.411589,-10.273256 -12.617384,-24.201673 -12.617384,-41.780006l0,-26.084317c0,-17.573089 4.294945,-31.501506 12.900567,-41.78525c9.717378,-11.778322 23.834584,-17.667483 42.346373,-17.667483c19.256456,0 33.557206,5.889161 42.907495,17.667483c8.039256,9.911411 12.056261,23.656283 12.056261,41.224128l0,11.505627z" id="svg_2"/>
 </g>
</svg>