<?xml version="1.0" encoding="UTF-8" standalone="no"?>
<!-- Created with Inkscape (http://www.inkscape.org/) -->
<svg xmlns:dc="http://purl.org/dc/elements/1.1/" xmlns:cc="http://creativecommons.org/ns#" xmlns:rdf="http://www.w3.org/1999/02/22-rdf-syntax-ns#" xmlns:svg="http://www.w3.org/2000/svg" xmlns="http://www.w3.org/2000/svg" xmlns:sodipodi="http://sodipodi.sourceforge.net/DTD/sodipodi-0.dtd" xmlns:inkscape="http://www.inkscape.org/namespaces/inkscape" width="490" height="90" id="svg3239" version="1.1" inkscape:version="0.48.4 r9939" sodipodi:docname="openclipart-horizontal.svg">
  <title id="title2996">Openclipart Logo</title>
  <defs id="defs3241"/>
  <sodipodi:namedview id="base" pagecolor="#ffffff" bordercolor="#666666" borderopacity="1.0" inkscape:pageopacity="0.0" inkscape:pageshadow="2" inkscape:zoom="0.49497475" inkscape:cx="-69.10294" inkscape:cy="-85.954964" inkscape:document-units="px" inkscape:current-layer="layer1" showgrid="false" fit-margin-top="0" fit-margin-left="0" fit-margin-right="0" fit-margin-bottom="0" inkscape:window-width="770" inkscape:window-height="457" inkscape:window-x="505" inkscape:window-y="310" inkscape:window-maximized="0"/>
  <g inkscape:label="Layer 1" inkscape:groupmode="layer" id="layer1" transform="translate(-134.79815,-485.10839)">
    <g transform="matrix(2.4048301,0,0,2.4048301,-560.80622,151.27726)" id="g5923" style="fill:#333333;fill-opacity:1">
      <g transform="matrix(0.35795842,0,0,0.35795842,265.08222,-13.486552)" style="font-size:79.30653380999999058px;font-style:normal;font-variant:normal;font-weight:900;font-stretch:normal;text-align:center;line-height:125%;writing-mode:lr-tb;text-anchor:middle;fill:#333333;fill-opacity:1;stroke:none;display:inline;font-family:TitilliumMaps26L;-inkscape-font-specification:TitilliumMaps26L Heavy" id="g5925">
        <path inkscape:connector-curvature="0" d="m 242.24396,457.25898 c 2.93432,4e-5 5.57787,0.4891 7.93066,1.46717 2.37916,0.97816 4.38826,2.36602 6.02729,4.1636 1.6654,1.79765 2.93431,3.97857 3.80672,6.54279 0.89876,2.53783 1.34817,5.37965 1.34821,8.52545 -4e-5,3.17228 -0.44945,6.02731 -1.34821,8.5651 -0.87241,2.53782 -2.14132,4.70553 -3.80672,6.50314 -1.63903,1.79762 -3.64813,3.18548 -6.02729,4.16359 -2.35279,0.95168 -4.99634,1.42752 -7.93066,1.42752 -2.93436,0 -5.59112,-0.47584 -7.9703,-1.42752 -2.35278,-0.97811 -4.36187,-2.36597 -6.0273,-4.16359 -1.66544,-1.79761 -2.94756,-3.96532 -3.84637,-6.50314 -0.89881,-2.53779 -1.34821,-5.39282 -1.34821,-8.5651 0,-3.1458 0.4494,-5.98762 1.34821,-8.52545 0.89881,-2.56422 2.18093,-4.74514 3.84637,-6.54279 1.66543,-1.79758 3.67452,-3.18544 6.0273,-4.1636 2.37918,-0.97807 5.03594,-1.46713 7.9703,-1.46717 m 0,35.84656 c 3.9653,0 6.92608,-1.32177 8.88234,-3.96533 1.95619,-2.66998 2.9343,-6.38416 2.93434,-11.14257 -4e-5,-4.7848 -0.97815,-8.5122 -2.93434,-11.18222 -1.95626,-2.66995 -4.91704,-4.00494 -8.88234,-4.00498 -2.00912,4e-5 -3.75386,0.3437 -5.23423,1.03099 -1.4804,0.68735 -2.72287,1.67868 -3.72741,2.97399 -0.97812,1.29537 -1.71831,2.89472 -2.22058,4.79805 -0.47585,1.87694 -0.71377,4.005 -0.71376,6.38417 -1e-5,2.37922 0.23791,4.50727 0.71376,6.38418 0.50227,1.87693 1.24246,3.46306 2.22058,4.75839 1.00454,1.26891 2.24701,2.24702 3.72741,2.93434 1.48037,0.68733 3.22511,1.03099 5.23423,1.03099" style="font-weight:normal;text-align:start;line-height:125%;letter-spacing:1.61915575999999994px;text-anchor:start;fill:#333333;fill-opacity:1;font-family:lato;-inkscape-font-specification:lato" id="path5927"/>
        <path inkscape:connector-curvature="0" d="m 271.59562,511.66327 0,-53.76983 4.20325,0 c 1.00454,4e-5 1.63899,0.48909 1.90335,1.46717 l 0.5948,4.75839 c 1.7183,-2.08837 3.67452,-3.76702 5.86869,-5.03597 2.22056,-1.26886 4.77158,-1.90331 7.65308,-1.90335 2.29986,4e-5 4.38826,0.44944 6.26521,1.34821 1.87689,0.87241 3.47624,2.18096 4.79805,3.92567 1.32174,1.71834 2.3395,3.85962 3.0533,6.42383 0.71372,2.56427 1.0706,5.51183 1.07064,8.84268 -4e-5,2.96079 -0.39658,5.7233 -1.1896,8.28753 -0.7931,2.53782 -1.92983,4.74518 -3.41018,6.6221 -1.48042,1.85049 -3.30447,3.31766 -5.47215,4.40151 -2.14131,1.05742 -4.56015,1.58613 -7.25655,1.58613 -2.48496,0 -4.61302,-0.40975 -6.38418,-1.22925 -1.74475,-0.8195 -3.29123,-1.98266 -4.63943,-3.48949 l 0,17.76467 -7.05828,0 m 17.88362,-48.77352 c -2.29991,3e-5 -4.32222,0.52874 -6.06695,1.58613 -1.71832,1.05745 -3.30445,2.55106 -4.75839,4.48082 l 0,19.4301 c 1.29533,1.74475 2.70963,2.974 4.2429,3.68775 1.55968,0.71377 3.2912,1.07064 5.19458,1.07064 3.72738,0 6.59563,-1.33499 8.60476,-4.00498 2.00906,-2.66998 3.01361,-6.47669 3.01365,-11.42014 -4e-5,-2.61709 -0.23796,-4.86411 -0.71376,-6.74106 -0.44944,-1.87689 -1.11033,-3.41015 -1.98267,-4.59978 -0.8724,-1.216 -1.94303,-2.10158 -3.21191,-2.65676 -1.26893,-0.55512 -2.70966,-0.83269 -4.32221,-0.83272" style="font-weight:normal;text-align:start;line-height:125%;letter-spacing:1.61915575999999994px;text-anchor:start;fill:#333333;fill-opacity:1;font-family:lato;-inkscape-font-specification:lato" id="path5929"/>
        <path inkscape:connector-curvature="0" d="m 332.95119,457.25898 c 2.4056,4e-5 4.62618,0.40979 6.66174,1.22925 2.03551,0.79311 3.79347,1.95627 5.27389,3.48949 1.48035,1.50686 2.6303,3.38378 3.44983,5.63077 0.8459,2.22061 1.26887,4.75841 1.26891,7.61342 -4e-5,1.11032 -0.119,1.85051 -0.35688,2.22059 -0.23796,0.37011 -0.68736,0.55516 -1.34821,0.55514 l -26.7263,0 c 0.0529,2.53783 0.39652,4.74519 1.03098,6.6221 0.63444,1.87693 1.50681,3.44984 2.61712,4.71874 1.11027,1.24247 2.43205,2.18093 3.96532,2.81538 1.53324,0.60802 3.25155,0.91203 5.15493,0.91202 1.77115,1e-5 3.29119,-0.19826 4.56012,-0.5948 1.29531,-0.42296 2.40561,-0.87236 3.33088,-1.34821 0.92521,-0.47583 1.69184,-0.91201 2.29989,-1.30855 0.63442,-0.42296 1.17634,-0.63445 1.62578,-0.63446 0.58155,10e-6 1.03095,0.22471 1.34821,0.67411 l 1.98267,2.57746 c -0.87241,1.05743 -1.91661,1.98267 -3.13261,2.77573 -1.21607,0.76663 -2.52463,1.40108 -3.92568,1.90336 -1.37467,0.50227 -2.80219,0.87237 -4.28255,1.11029 -1.48041,0.26435 -2.94758,0.39653 -4.40151,0.39653 -2.77575,0 -5.33999,-0.46262 -7.69274,-1.38786 -2.32633,-0.95168 -4.34865,-2.32633 -6.06694,-4.12394 -1.69188,-1.82405 -3.01366,-4.07106 -3.96533,-6.74106 -0.95168,-2.66997 -1.42752,-5.73649 -1.42752,-9.19956 0,-2.80214 0.42297,-5.41925 1.26891,-7.85134 0.87236,-2.43204 2.11483,-4.53366 3.7274,-6.30487 1.61256,-1.79758 3.582,-3.19866 5.90834,-4.20325 2.32631,-1.03094 4.94342,-1.54644 7.85135,-1.54648 m 0.15861,5.19458 c -3.4102,4e-5 -6.0934,0.99137 -8.04961,2.974 -1.95624,1.95625 -3.17228,4.67911 -3.6481,8.16857 l 21.84895,0 c -4e-5,-1.63898 -0.22474,-3.13258 -0.67411,-4.48082 -0.44943,-1.37462 -1.11032,-2.551 -1.98266,-3.52914 -0.8724,-1.00452 -1.94304,-1.77115 -3.21192,-2.29989 -1.24249,-0.55511 -2.67001,-0.83268 -4.28255,-0.83272" style="font-weight:normal;text-align:start;line-height:125%;letter-spacing:1.61915575999999994px;text-anchor:start;fill:#333333;fill-opacity:1;font-family:lato;-inkscape-font-specification:lato" id="path5931"/>
        <path inkscape:connector-curvature="0" d="m 360.33628,498.06219 0,-40.16875 4.20325,0 c 1.00454,4e-5 1.63899,0.48909 1.90336,1.46717 l 0.55514,4.36186 c 1.74473,-1.92976 3.68774,-3.48945 5.82903,-4.67909 2.16769,-1.18956 4.66585,-1.78436 7.49447,-1.7844 2.19412,4e-5 4.12391,0.37014 5.78938,1.11029 1.69184,0.7138 3.09292,1.74479 4.20324,3.09296 1.13669,1.32181 1.99585,2.92116 2.57746,4.79804 0.58155,1.87696 0.87234,3.95214 0.87238,6.22557 l 0,25.57635 -7.05829,0 0,-25.57635 c -3e-5,-3.04006 -0.70057,-5.39282 -2.10162,-7.05828 -1.37467,-1.69184 -3.48951,-2.53778 -6.34452,-2.53781 -2.08843,3e-5 -4.04465,0.50231 -5.86868,1.50682 -1.79764,1.00458 -3.46307,2.36601 -4.99632,4.08429 l 0,29.58133 -7.05828,0" style="font-weight:normal;text-align:start;line-height:125%;letter-spacing:1.61915575999999994px;text-anchor:start;fill:#333333;fill-opacity:1;font-family:lato;-inkscape-font-specification:lato" id="path5933"/>
        <path inkscape:connector-curvature="0" d="m 433.34619,465.03102 c -0.21152,0.29083 -0.423,0.51553 -0.63446,0.67411 -0.21151,0.15864 -0.51552,0.23795 -0.91202,0.23792 -0.39656,3e-5 -0.83275,-0.15858 -1.30856,-0.47584 -0.44943,-0.34363 -1.03101,-0.71373 -1.74474,-1.11029 -0.71379,-0.3965 -1.58616,-0.75338 -2.61712,-1.07064 -1.00457,-0.34363 -2.24704,-0.51546 -3.7274,-0.51549 -1.95625,3e-5 -3.68778,0.35691 -5.19458,1.07064 -1.50684,0.68735 -2.77575,1.6919 -3.80672,3.01364 -1.00456,1.32181 -1.77119,2.92116 -2.29989,4.79805 -0.50228,1.87694 -0.75342,3.97857 -0.75341,6.30487 -10e-6,2.43208 0.27756,4.59979 0.83272,6.50313 0.55513,1.87694 1.33498,3.46307 2.33954,4.7584 1.00454,1.26891 2.22057,2.24702 3.6481,2.93434 1.45394,0.66089 3.07972,0.99133 4.87736,0.99133 1.71828,0 3.13258,-0.19826 4.2429,-0.5948 1.11026,-0.42296 2.0355,-0.88558 2.77572,-1.38786 0.74017,-0.50227 1.34818,-0.95167 1.82405,-1.34821 0.47581,-0.42296 0.95165,-0.63445 1.42752,-0.63446 0.60799,10e-6 1.05739,0.22471 1.34821,0.67411 l 1.98267,2.57746 c -1.74478,2.14128 -3.92571,3.71419 -6.54279,4.71874 -2.61714,0.97811 -5.37965,1.46717 -8.28754,1.46717 -2.51139,0 -4.85093,-0.46262 -7.01862,-1.38786 -2.14129,-0.92524 -4.00499,-2.26024 -5.59111,-4.00498 -1.58614,-1.77118 -2.84183,-3.93889 -3.76706,-6.50314 -0.89882,-2.56423 -1.34822,-5.48535 -1.34822,-8.76337 0,-2.98719 0.40975,-5.7497 1.22926,-8.28753 0.84593,-2.53778 2.06196,-4.71871 3.6481,-6.54279 1.61255,-1.85045 3.59521,-3.29119 5.94799,-4.32221 2.35274,-1.03094 5.04916,-1.54644 8.08926,-1.54648 2.80214,4e-5 5.28708,0.46266 7.45482,1.38787 2.16768,0.89884 4.08425,2.18096 5.74972,3.84636 l -1.8637,2.53781" style="font-weight:normal;text-align:start;line-height:125%;letter-spacing:1.61915575999999994px;text-anchor:start;fill:#333333;fill-opacity:1;font-family:lato;-inkscape-font-specification:lato" id="path5935"/>
        <path inkscape:connector-curvature="0" d="m 452.43633,439.65293 0,58.40926 -7.05828,0 0,-58.40926 7.05828,0" style="font-weight:normal;text-align:start;line-height:125%;letter-spacing:1.61915575999999994px;text-anchor:start;fill:#333333;fill-opacity:1;font-family:lato;-inkscape-font-specification:lato" id="path5937"/>
        <path inkscape:connector-curvature="0" d="m 474.34681,457.89344 0,40.16875 -7.05828,0 0,-40.16875 7.05828,0 m 1.58613,-12.60974 c -2e-5,0.68737 -0.14541,1.33504 -0.43619,1.94301 -0.26437,0.58163 -0.63446,1.11034 -1.11029,1.58613 -0.44941,0.44945 -0.97812,0.80633 -1.58613,1.07064 -0.60803,0.2644 -1.2557,0.39658 -1.94301,0.39653 -0.68733,5e-5 -1.335,-0.13213 -1.94301,-0.39653 -0.58159,-0.26431 -1.1103,-0.62119 -1.58613,-1.07064 -0.44941,-0.47579 -0.80629,-1.0045 -1.07064,-1.58613 -0.26436,-0.60797 -0.39654,-1.25564 -0.39653,-1.94301 -1e-5,-0.68727 0.13217,-1.33494 0.39653,-1.94301 0.26435,-0.6344 0.62123,-1.17633 1.07064,-1.62579 0.47583,-0.47578 1.00454,-0.84588 1.58613,-1.11029 0.60801,-0.2643 1.25568,-0.39647 1.94301,-0.39653 0.68731,6e-5 1.33498,0.13223 1.94301,0.39653 0.60801,0.26441 1.13672,0.63451 1.58613,1.11029 0.47583,0.44946 0.84592,0.99139 1.11029,1.62579 0.29078,0.60807 0.43617,1.25574 0.43619,1.94301" style="font-weight:normal;text-align:start;line-height:125%;letter-spacing:1.61915575999999994px;text-anchor:start;fill:#333333;fill-opacity:1;font-family:lato;-inkscape-font-specification:lato" id="path5939"/>
        <path inkscape:connector-curvature="0" d="m 488.40592,511.66327 0,-53.76983 4.20325,0 c 1.00454,4e-5 1.63899,0.48909 1.90336,1.46717 l 0.5948,4.75839 c 1.71829,-2.08837 3.67452,-3.76702 5.86868,-5.03597 2.22056,-1.26886 4.77159,-1.90331 7.65308,-1.90335 2.29986,4e-5 4.38826,0.44944 6.26522,1.34821 1.87688,0.87241 3.47623,2.18096 4.79804,3.92567 1.32174,1.71834 2.3395,3.85962 3.0533,6.42383 0.71372,2.56427 1.0706,5.51183 1.07064,8.84268 -4e-5,2.96079 -0.39657,5.7233 -1.1896,8.28753 -0.7931,2.53782 -1.92983,4.74518 -3.41018,6.6221 -1.48042,1.85049 -3.30447,3.31766 -5.47215,4.40151 -2.1413,1.05742 -4.56015,1.58613 -7.25655,1.58613 -2.48496,0 -4.61301,-0.40975 -6.38417,-1.22925 -1.74476,-0.8195 -3.29124,-1.98266 -4.63943,-3.48949 l 0,17.76467 -7.05829,0 m 17.88363,-48.77352 c -2.29991,3e-5 -4.32223,0.52874 -6.06695,1.58613 -1.71833,1.05745 -3.30446,2.55106 -4.75839,4.48082 l 0,19.4301 c 1.29532,1.74475 2.70962,2.974 4.24289,3.68775 1.55968,0.71377 3.29121,1.07064 5.19458,1.07064 3.72738,0 6.59563,-1.33499 8.60476,-4.00498 2.00907,-2.66998 3.01362,-6.47669 3.01365,-11.42014 -3e-5,-2.61709 -0.23795,-4.86411 -0.71376,-6.74106 -0.44944,-1.87689 -1.11032,-3.41015 -1.98266,-4.59978 -0.8724,-1.216 -1.94304,-2.10158 -3.21192,-2.65676 -1.26893,-0.55512 -2.70966,-0.83269 -4.3222,-0.83272" style="font-weight:normal;text-align:start;line-height:125%;letter-spacing:1.61915575999999994px;text-anchor:start;fill:#333333;fill-opacity:1;font-family:lato;-inkscape-font-specification:lato" id="path5941"/>
        <path inkscape:connector-curvature="0" d="m 563.36257,498.06219 -3.1326,0 c -0.68736,0 -1.2425,-0.10574 -1.66544,-0.31722 -0.423,-0.21148 -0.70057,-0.66089 -0.83272,-1.34821 l -0.79306,-3.72741 c -1.05745,0.95168 -2.08844,1.81084 -3.09296,2.57746 -1.00457,0.7402 -2.06199,1.37465 -3.17226,1.90336 -1.11031,0.50227 -2.29991,0.88559 -3.56879,1.14994 -1.24249,0.26436 -2.63035,0.39654 -4.1636,0.39654 -1.55971,0 -3.02688,-0.21149 -4.40151,-0.63446 -1.34822,-0.4494 -2.5246,-1.11029 -3.52914,-1.98266 -1.00456,-0.87237 -1.81084,-1.96944 -2.41885,-3.29122 -0.58159,-1.3482 -0.87238,-2.93433 -0.87237,-4.75839 -1e-5,-1.58612 0.43618,-3.10616 1.30856,-4.56013 0.87236,-1.48037 2.27344,-2.78893 4.20324,-3.92567 1.95622,-1.13671 4.50724,-2.06195 7.65308,-2.77573 3.14581,-0.74017 6.99217,-1.16314 11.5391,-1.2689 l 0,-3.13261 c -3e-5,-3.11936 -0.67413,-5.47212 -2.02231,-7.05828 -1.3218,-1.61254 -3.29125,-2.41882 -5.90834,-2.41885 -1.71833,3e-5 -3.17228,0.22473 -4.36186,0.6741 -1.16318,0.423 -2.18094,0.91206 -3.0533,1.46717 -0.84595,0.52875 -1.58614,1.0178 -2.22058,1.46717 -0.60803,0.423 -1.21605,0.63449 -1.82405,0.63446 -0.47585,3e-5 -0.89882,-0.11893 -1.26891,-0.35688 -0.34367,-0.26433 -0.62124,-0.58155 -0.83272,-0.95168 l -1.2689,-2.26024 c 2.22057,-2.14124 4.61298,-3.74058 7.17724,-4.79804 2.56423,-1.05738 5.40604,-1.58609 8.52545,-1.58613 2.247,4e-5 4.24288,0.37013 5.98764,1.11029 1.74472,0.74023 3.21189,1.77122 4.40152,3.09295 1.18956,1.32181 2.08837,2.92116 2.69642,4.79805 0.60798,1.87695 0.91199,3.93892 0.91202,6.18591 l 0,25.69531 m -18.3198,-4.3222 c 1.24245,0 2.37917,-0.11896 3.41018,-0.35688 1.03096,-0.26435 1.99585,-0.62123 2.89468,-1.07064 0.92522,-0.47583 1.79759,-1.04419 2.61712,-1.70509 0.84591,-0.66088 1.66541,-1.41429 2.4585,-2.26024 l 0,-8.36683 c -3.25159,0.10576 -6.0141,0.37011 -8.28753,0.79306 -2.27347,0.39655 -4.12396,0.92526 -5.55146,1.58613 -1.42753,0.6609 -2.47173,1.44075 -3.13261,2.33954 -0.63446,0.89882 -0.95168,1.90337 -0.95167,3.01365 -1e-5,1.05743 0.17182,1.96946 0.51549,2.73608 0.34365,0.76663 0.80627,1.40109 1.38786,1.90335 0.58157,0.47585 1.26889,0.83273 2.06197,1.07064 0.79305,0.21149 1.65221,0.31723 2.57747,0.31723" style="font-weight:normal;text-align:start;line-height:125%;letter-spacing:1.61915575999999994px;text-anchor:start;fill:#333333;fill-opacity:1;font-family:lato;-inkscape-font-specification:lato" id="path5943"/>
        <path inkscape:connector-curvature="0" d="m 575.75254,498.06219 0,-40.16875 4.04464,0 c 0.76661,4e-5 1.29532,0.14543 1.58613,0.43618 0.29078,0.29083 0.48904,0.79311 0.5948,1.50683 l 0.47583,6.26521 c 1.37464,-2.80213 3.06651,-4.98306 5.07562,-6.54279 2.03552,-1.58609 4.41471,-2.37915 7.13759,-2.37919 1.11027,4e-5 2.11481,0.13221 3.01365,0.39653 0.89878,0.23796 1.7315,0.58162 2.49815,1.03098 l -0.91202,5.27389 c -0.18508,0.66092 -0.59483,0.99136 -1.22925,0.99133 -0.37013,3e-5 -0.93849,-0.11893 -1.70509,-0.35688 -0.76666,-0.26432 -1.83729,-0.3965 -3.21192,-0.39653 -2.45852,3e-5 -4.52049,0.71379 -6.18591,2.14127 -1.63901,1.42755 -3.01366,3.50274 -4.12394,6.22557 l 0,25.57635 -7.05828,0" style="font-weight:normal;text-align:start;line-height:125%;letter-spacing:1.61915575999999994px;text-anchor:start;fill:#333333;fill-opacity:1;font-family:lato;-inkscape-font-specification:lato" id="path5945"/>
        <path inkscape:connector-curvature="0" d="m 621.45374,498.69665 c -3.17227,0 -5.61755,-0.88559 -7.33585,-2.65677 -1.69188,-1.77118 -2.53782,-4.3222 -2.53781,-7.65308 l 0,-24.58503 -4.8377,0 c -0.42297,4e-5 -0.77985,-0.11892 -1.07064,-0.35688 -0.29079,-0.26432 -0.43618,-0.66085 -0.43618,-1.1896 l 0,-2.81538 6.58244,-0.83272 1.62578,-12.41147 c 0.0529,-0.39648 0.2247,-0.7137 0.5155,-0.95168 0.29078,-0.2643 0.66087,-0.39648 1.11029,-0.39653 l 3.56879,0 0,13.83899 11.49945,0 0,5.11527 -11.49945,0 0,24.10919 c -1e-5,1.69188 0.40974,2.94757 1.22925,3.76706 0.81949,0.81951 1.87691,1.22926 3.17226,1.22925 0.74018,1e-5 1.37463,-0.0925 1.90336,-0.27757 0.55513,-0.21148 1.03096,-0.43618 1.42752,-0.67411 0.39651,-0.23791 0.72695,-0.4494 0.99133,-0.63445 0.29077,-0.21148 0.5419,-0.31722 0.75341,-0.31723 0.37008,10e-6 0.70052,0.22471 0.99133,0.67411 l 2.06197,3.37053 c -1.21606,1.13673 -2.68322,2.03553 -4.40151,2.69642 -1.71833,0.63445 -3.48951,0.95168 -5.31354,0.95168" style="font-weight:normal;text-align:start;line-height:125%;letter-spacing:1.61915575999999994px;text-anchor:start;fill:#333333;fill-opacity:1;font-family:lato;-inkscape-font-specification:lato" id="path5947"/>
      </g>
      <path style="font-size:medium;font-style:normal;font-variant:normal;font-weight:normal;font-stretch:normal;text-indent:0;text-align:start;text-decoration:none;line-height:normal;letter-spacing:normal;word-spacing:normal;text-transform:none;direction:ltr;block-progression:tb;writing-mode:lr-tb;text-anchor:start;baseline-shift:baseline;color:#000000;fill:#333333;fill-opacity:1;fill-rule:nonzero;stroke:none;stroke-width:0.74839907999999999;marker:none;visibility:visible;display:inline;overflow:visible;enable-background:accumulate;font-family:Sans;-inkscape-font-specification:Sans" d="m 297.98633,139.75446 c -2.73795,-0.0235 -5.54906,1.17916 -6.37206,3.42399 -1.22307,2.70852 0.73965,5.87283 4.09115,6.84798 0.0107,0.003 0.0262,-0.003 0.0361,0 3.65487,1.32101 8.20368,1.96605 12.16486,6.06452 l 1.48441,1.53789 -1.33959,1.36379 c -3.97265,4.09149 -8.50623,4.72097 -12.16487,6.03551 -0.008,0.004 -0.0268,-0.004 -0.0361,0 -3.34225,0.96569 -5.28072,4.11471 -4.09114,6.81896 0.004,0.008 -0.004,0.0206 0,0.029 1.01679,2.73665 5.01025,3.9482 8.21852,3.22087 0.0107,-0.002 0.0253,0.002 0.0361,0 3.28577,-0.5728 5.97602,-3.24622 5.21351,-5.94846 -0.3762,-1.33323 -0.8576,-1.95233 -1.30337,-2.32135 -0.22289,-0.1845 -0.41738,-0.29975 -0.54307,-0.40623 -0.12567,-0.10647 -0.65445,-0.40286 -0.65445,-0.40286 0.32719,-0.23815 0.51831,-0.35082 0.7992,-0.52567 0.41968,-0.27348 1.15284,-0.6095 2.0999,-1.0156 1.8775,-0.80507 4.6426,-1.94177 7.82025,-3.77219 5.74721,3.26689 13.21473,7.49781 17.34213,9.83666 4.1274,2.33887 8.35178,1.15924 10.10117,0.087 l -22.13481,-12.99229 22.26153,-13.11925 c -3.45046,-2.12795 -7.38789,-1.22684 -10.01067,0.0544 -5.83108,3.30716 -11.68072,6.59855 -17.52314,9.89469 -2.66409,-1.45614 -5.52282,-2.79122 -8.00117,-3.85924 -0.94794,-0.40839 -1.67938,-0.74079 -2.09989,-1.01559 -0.21027,-0.1374 -0.74219,-0.43525 -0.74219,-0.43525 0.48627,-0.28342 1.00152,-0.80569 1.37582,-1.2042 0.37431,-0.39851 0.81484,-0.98864 1.06806,-2.01667 0.66952,-2.71815 -1.92902,-5.39874 -5.21352,-5.97748 -0.63478,-0.14047 -1.3207,-0.16111 -1.8826,-0.20311 z m -0.36203,2.29233 c 1.22212,-0.0574 2.48344,0.27683 3.29464,0.92854 1.2153,0.97634 1.44678,2.32118 0.97754,3.42399 -0.46926,1.10282 -1.594,1.91801 -3.18604,1.91511 l -0.0361,0 c -1.45925,0.0676 -2.88239,-0.60642 -3.72912,-1.59593 -0.84671,-0.9895 -1.08808,-2.22012 -0.25342,-3.2789 l 0,-0.029 c 0.57665,-0.87841 1.71128,-1.30644 2.9326,-1.36379 z m 0.94131,24.69335 c 0.10825,-0.002 0.21997,-0.004 0.28964,0 1.59229,-8e-5 2.71953,0.81265 3.18604,1.91511 0.46652,1.10245 0.24055,2.44975 -0.97754,3.42399 -0.81209,0.64951 -2.10816,1.01493 -3.33084,0.95755 -1.2227,-0.0574 -2.32202,-0.51314 -2.8964,-1.39281 l -0.0361,-0.029 c -0.80543,-1.0268 -0.57158,-2.18847 0.21723,-3.16283 0.7888,-0.97437 2.14171,-1.69156 3.54809,-1.712 z" id="path5949" inkscape:connector-curvature="0" sodipodi:nodetypes="cccccccccccccsssccsczcccccccczsccccssccsccccccsssccscc"/>
    </g>
  </g>
  <metadata>
    <rdf:RDF>
      <cc:Work>
        <dc:format>image/svg+xml</dc:format>
        <dc:type rdf:resource="http://purl.org/dc/dcmitype/StillImage"/>
        <cc:license rdf:resource="http://creativecommons.org/licenses/publicdomain/"/>
        <dc:publisher>
          <cc:Agent rdf:about="http://openclipart.org/">
            <dc:title>Open Clip Art Library</dc:title>
          </cc:Agent>
        </dc:publisher>
        <dc:title>Openclipart Scissors Logo Guide Horizontal</dc:title>
        <dc:date>2013-04-14T11:21:32</dc:date>
        <dc:description>This is the refreshed Openclipart logo made for simplicity and to "cut" through the past, visually.</dc:description>
        <dc:source>http://openclipart.org/detail/177067/openclipart-scissors-logo-guide-horizontal-by-rejon-177067</dc:source>
        <dc:creator>
          <cc:Agent>
            <dc:title>rejon</dc:title>
          </cc:Agent>
        </dc:creator>
        <dc:subject>
          <rdf:Bag>
            <rdf:li>brand</rdf:li>
            <rdf:li>branding</rdf:li>
            <rdf:li>clip art</rdf:li>
            <rdf:li>clipart</rdf:li>
            <rdf:li>horizontal</rdf:li>
            <rdf:li>logo</rdf:li>
            <rdf:li>openclipart</rdf:li>
            <rdf:li>scissors</rdf:li>
            <rdf:li>style</rdf:li>
          </rdf:Bag>
        </dc:subject>
      </cc:Work>
      <cc:License rdf:about="http://creativecommons.org/licenses/publicdomain/">
        <cc:permits rdf:resource="http://creativecommons.org/ns#Reproduction"/>
        <cc:permits rdf:resource="http://creativecommons.org/ns#Distribution"/>
        <cc:permits rdf:resource="http://creativecommons.org/ns#DerivativeWorks"/>
      </cc:License>
    </rdf:RDF>
  </metadata>
</svg>
