<?xml version="1.0" encoding="utf-8"?>
<!-- Generator: Adobe Illustrator 18.1.1, SVG Export Plug-In . SVG Version: 6.00 Build 0)  -->
<svg version="1.1" id="Capa_1" xmlns="http://www.w3.org/2000/svg" xmlns:xlink="http://www.w3.org/1999/xlink" x="0px" y="0px"
	 viewBox="128 276.9 320 319" enable-background="new 128 276.9 320 319" xml:space="preserve">
<path fill="#9A9A9A" d="M274.2,411.8c9.9,22.3,22.3,39.7,37.2,54.6l9.9,7.4c-22.3,5-52.1,9.9-81.9,22.3l0,0H237l12.4-24.8
	C261.8,451.5,269.2,431.6,274.2,411.8 M435.4,506c5-5,7.4-9.9,7.4-17.4c0-5,0-9.9-2.5-14.9c-7.4-12.4-24.8-17.4-57-17.4l-32.2,2.5
	L328.7,444c-14.9-12.4-29.8-34.7-39.7-64.5V377c7.4-32.2,14.9-71.9,0-89.3c-5-5-9.9-5-14.9-5h-5c-9.9,0-17.4,9.9-19.8,19.8
	c-9.9,32.2-2.5,52.1,5,81.9l0,0c-5,22.3-14.9,47.1-27.3,71.9l-24.8,44.6l-22.3,12.4c-29.8,19.8-44.6,39.7-47.1,52.1
	c0,5,0,9.9,0,12.4v2.5l12.4,7.4l9.9,2.5c19.8,0,42.2-22.3,74.4-76.9l5-2.5c24.8-7.4,57-14.9,99.2-19.8
	c24.8,12.4,54.6,17.4,74.4,17.4C423,513.5,430.4,511,435.4,506 M425.5,488.7l2.5,2.5c0,2.5,0,2.5-2.5,2.5l0,0h-5
	c-12.4,0-29.8-5-47.1-12.4c2.5-2.5,2.5-2.5,5-2.5C413.1,481.2,423,486.2,425.5,488.7 M197.3,525.9c-14.9,29.8-29.8,44.6-42.2,49.6
	c0-9.9,12.4-24.8,29.8-42.2L197.3,525.9 M274.2,354.7c-5-22.3-5-39.7-2.5-52.1l2.5-2.5h2.5c5,5,5,14.9,2.5,27.3v5L274.2,354.7
	L274.2,354.7z"/>
</svg>
