<?xml version="1.0"?>
<svg width="512" height="512" xmlns="http://www.w3.org/2000/svg">

 <g>
  <title>background</title>
  <rect fill="none" id="canvas_background" height="402" width="582" y="-1" x="-1"/>
 </g>
 <g>
  <title>Layer 1</title>
  <path fill="#ffffff" id="svg_2" d="m224,435.799988l0,-359.699989c0,-6.699997 -5.399994,-12.099998 -12.199997,-12.099998l-71.600006,0c-6.800003,0 -12.199997,5.400002 -12.199997,12.099998l0,359.70002c0,6.699982 5.399994,12.199982 12.199997,12.199982l71.600006,0c6.800003,0 12.199997,-5.399994 12.199997,-12.200012z"/>
  <path fill="#ffffff" id="svg_3" d="m371.799988,64l-71.600006,0c-6.699982,0 -12.199982,5.400002 -12.199982,12.099998l0,359.70002c0,6.699982 5.399994,12.199982 12.199982,12.199982l71.600006,0c6.700012,0 12.200012,-5.399994 12.200012,-12.199982l0,-359.70002c0,-6.699997 -5.399994,-12.099998 -12.200012,-12.099998z"/>
 </g>
</svg>