<?xml version="1.0" encoding="utf-8"?>
<!-- Generator: Adobe Illustrator 22.0.1, SVG Export Plug-In . SVG Version: 6.00 Build 0)  -->
<svg version="1.1" id="Capa_1" xmlns="http://www.w3.org/2000/svg" xmlns:xlink="http://www.w3.org/1999/xlink" x="0px" y="0px"
	 viewBox="0 0 599.3 450.9" style="enable-background:new 0 0 599.3 450.9;" xml:space="preserve">
<style type="text/css">
	.st0{fill:#C8C8C8;}
	.st1{fill:#494949;}
</style>
<rect x="-0.4" y="0.4" class="st0" width="600" height="450"/>
<g>
	<path class="st1" d="M299.6,288.4c-24,0-48-0.1-72,0.1c-3.9,0-5.1-1-5.1-5c0.1-38.7,0.1-77.3,0-116c0-4,1.2-5.1,5.1-5.1
		c48,0.1,96,0.1,143.9,0c3.9,0,5.1,1,5.1,5c-0.1,38.7-0.1,77.3,0,116c0,4-1.2,5.1-5.1,5C347.6,288.3,323.6,288.4,299.6,288.4z
		 M299.6,172.5c-20.5,0-41,0.1-61.4-0.1c-4.4,0-5.6,1.1-5.6,5.6c0.2,31.6,0.2,63.3,0,94.9c0,4.3,1,5.7,5.5,5.7
		c41.1-0.2,82.3-0.2,123.4,0c4.1,0,5.4-1.1,5.4-5.3c-0.2-31.8-0.2-63.6,0-95.4c0-4.7-1.6-5.5-5.8-5.4
		C340.5,172.6,320,172.5,299.6,172.5z"/>
	<path class="st1" d="M318.4,212.8c-2.6,7.7-5.3,15.3-7.7,23c-0.9,3-2.2,5.1-5.5,5.5c-0.2,0-0.3,0.1-0.5,0.1
		c-16.5,3.6-30.3,11.4-40.7,24.9c-2.7,3.6-6.4,2.9-10,2.9c-12.4,0-12.4,0-12.4-12.4c0-22.8,0.1-45.6-0.1-68.5c0-4.7,1-6.3,6-6.2
		c34.8,0.2,69.6,0.2,104.4,0c4.8,0,5.8,1.6,5.7,6c-0.2,25-0.1,50-0.1,75c0,2,1,4.9-1.7,5.7c-2.9,0.8-6.4,1.6-9-0.9
		c-4.7-4.4-9.3-8.7-11.2-15.4c-3.5-12.3-7.4-24.6-13.9-35.7C321,215.5,320.9,213.6,318.4,212.8z M275.6,220.5
		c8.6,0,14-5.4,14.1-13.9c0-8.6-5.3-14.1-13.8-14.2c-8.8-0.1-14.3,5.4-14.3,14.1C261.6,215,267.1,220.4,275.6,220.5z"/>
</g>
</svg>
