<?xml version="1.0" encoding="utf-8"?>
<!-- Generator: Adobe Illustrator 15.0.0, SVG Export Plug-In . SVG Version: 6.00 Build 0)  -->
<!DOCTYPE svg PUBLIC "-//W3C//DTD SVG 1.1//EN" "http://www.w3.org/Graphics/SVG/1.1/DTD/svg11.dtd">
<svg version="1.1" id="Capa_1" xmlns="http://www.w3.org/2000/svg" xmlns:xlink="http://www.w3.org/1999/xlink" x="0px" y="0px"
	 width="300px" height="300px" viewBox="0 0 500 500" enable-background="new 0 0 500 500" xml:space="preserve">
<path fill="#007CC8" d="M401.953,195.516h-97.469V98.046c0-7.295-5.917-13.213-13.214-13.213h-82.542
	c-7.298,0-13.213,5.918-13.213,13.213v97.469H98.046c-7.297,0-13.213,5.917-13.213,13.213v82.542
	c0,7.299,5.917,13.214,13.213,13.214h97.469v97.469c0,7.299,5.915,13.214,13.213,13.214h82.542c7.297,0,13.214-5.915,13.214-13.214
	v-97.469h97.469c7.299,0,13.214-5.915,13.214-13.214v-82.542C415.167,201.433,409.252,195.516,401.953,195.516z"/>
</svg>
