<?xml version="1.0" encoding="utf-8"?>
<!-- Generator: Adobe Illustrator 16.0.0, SVG Export Plug-In . SVG Version: 6.00 Build 0)  -->
<!DOCTYPE svg PUBLIC "-//W3C//DTD SVG 1.1//EN" "http://www.w3.org/Graphics/SVG/1.1/DTD/svg11.dtd">
<svg version="1.1" id="Capa_1" xmlns="http://www.w3.org/2000/svg" xmlns:xlink="http://www.w3.org/1999/xlink" x="0px" y="0px"
	 width="100px" height="30px" viewBox="0 0 100 30" enable-background="new 0 0 100 30" xml:space="preserve">
<g>
	<g>
		<path fill="#FF2C72" d="M14.854,28.893c-2.848,0-5.415-1.575-6.707-4.112c-0.007-0.013-0.014-0.025-0.02-0.038L1.558,11.602
			c-0.006-0.011-0.011-0.021-0.017-0.033C1.055,10.56,0.805,9.463,0.805,8.319c0-4.151,3.376-7.527,7.526-7.527
			c2.784,0,5.222,1.521,6.522,3.774c1.302-2.253,3.739-3.774,6.524-3.774c4.15,0,7.526,3.376,7.526,7.527
			c0,1.145-0.25,2.242-0.742,3.263l-6.58,13.16c-0.006,0.013-0.012,0.024-0.017,0.034C20.274,27.316,17.705,28.893,14.854,28.893z
			 M9.907,23.815c0.006,0.01,0.012,0.021,0.017,0.033c0.944,1.872,2.833,3.037,4.93,3.037c2.098,0,3.988-1.165,4.933-3.037
			c0.004-0.012,0.009-0.02,0.014-0.029l6.558-13.114c0.357-0.741,0.539-1.546,0.539-2.386c0-3.043-2.476-5.52-5.519-5.52
			c-3.045,0-5.521,2.477-5.521,5.52c0,0.554-0.45,1.004-1.004,1.004c-0.554,0-1.003-0.45-1.003-1.004c0-3.043-2.476-5.52-5.519-5.52
			c-3.043,0-5.519,2.477-5.519,5.52c0,0.838,0.182,1.643,0.542,2.392L9.907,23.815z"/>
	</g>
	<g>
		<path fill="#FF2C72" d="M91.668,28.893c-2.785,0-5.223-1.522-6.523-3.775c-1.303,2.253-3.738,3.775-6.521,3.775
			c-4.152,0-7.529-3.377-7.529-7.526V8.295c0-4.15,3.377-7.526,7.529-7.526c2.783,0,5.219,1.521,6.521,3.774
			c1.301-2.254,3.738-3.774,6.523-3.774c4.15,0,7.527,3.376,7.527,7.526v13.071C99.195,25.516,95.818,28.893,91.668,28.893z
			 M86.148,21.366c0,3.043,2.477,5.52,5.52,5.52s5.52-2.477,5.52-5.52V8.295c0-3.044-2.477-5.521-5.52-5.521s-5.52,2.477-5.52,5.521
			c0,0.555-0.449,1.003-1.004,1.003s-1.004-0.448-1.004-1.003c0-3.044-2.479-5.521-5.518-5.521c-3.047,0-5.521,2.477-5.521,5.521
			v13.071c0,3.043,2.475,5.52,5.521,5.52c3.039,0,5.518-2.477,5.518-5.52c0-0.556,0.449-1.004,1.004-1.004
			S86.148,20.811,86.148,21.366z"/>
	</g>
	<g>
		<path fill="#FF2C72" d="M36.177,28.893c-4.15,0-7.528-3.377-7.528-7.526v-6.523c0-4.151,3.377-7.526,7.528-7.526
			c4.149,0,7.526,3.375,7.526,7.526v6.523C43.703,25.516,40.326,28.893,36.177,28.893z M36.177,9.323
			c-3.044,0-5.521,2.477-5.521,5.52v6.523c0,3.043,2.477,5.52,5.521,5.52c3.043,0,5.519-2.477,5.519-5.52v-6.523
			C41.696,11.8,39.22,9.323,36.177,9.323z"/>
	</g>
	<g>
		<path fill="#FF2C72" d="M57.238,29c-0.013,0-0.024,0-0.036,0c-3.481,0-9.661-1.207-11.931-5.926
			c-1.343-2.793-1.238-5.486,0.257-7.385c-1.608-2.585-1.765-5.543-0.423-8.332c1.832-3.809,6.169-6.601,10.552-6.76
			c0.263-0.009,0.529-0.025,0.801-0.025c2.413,0,8.335,0.441,11.247,4.572c1.859,2.638,2.122,5.425,0.766,7.484
			c1.824,2.647,2.175,6.737,0.762,9.635C67.212,26.403,64.5,28.893,57.275,29C57.262,29,57.251,29,57.238,29z M56.459,2.57
			c-0.248,0-0.49,0.003-0.729,0.013c-3.668,0.132-7.293,2.436-8.815,5.602c-0.794,1.653-1.32,4.194,0.695,6.914
			c0.303,0.407,0.253,0.979-0.117,1.327c-1.767,1.671-1.2,3.972-0.412,5.607c1.806,3.753,7.036,4.729,10.07,4.842
			c5.168-0.197,8.587-2.201,10.277-5.663c1.186-2.432,0.752-5.917-0.984-7.934c-0.333-0.386-0.322-0.958,0.022-1.334
			c1.492-1.625,0.771-3.985-0.401-5.65C63.695,2.933,58.559,2.57,56.459,2.57z"/>
	</g>
</g>
</svg>
